<svg width="200" height="41" viewBox="0 0 200 41" fill="none" xmlns="http://www.w3.org/2000/svg">
<g clip-path="url(#clip0_492_2524)">
<path d="M12.3882 17.3083L20.1562 9.54061L27.9283 17.3124L32.4483 12.7925L20.1562 0.5L7.86816 12.7883L12.3882 17.3083Z" fill="#F3BA2F"/>
<path d="M9.19618 20.4993L4.67627 15.9794L0.156138 20.4996L4.67605 25.0195L9.19618 20.4993Z" fill="#F3BA2F"/>
<path d="M12.3882 23.6917L20.1562 31.4594L27.9281 23.6879L32.4506 28.2053L32.4484 28.2079L20.1562 40.5L7.86789 28.212L7.86157 28.2056L12.3882 23.6917Z" fill="#F3BA2F"/>
<path d="M35.6366 25.0215L40.1567 20.5014L35.6368 15.9815L31.1167 20.5016L35.6366 25.0215Z" fill="#F3BA2F"/>
<path d="M24.741 20.4976H24.7429L20.1562 15.9109L16.7666 19.3005H16.7663L16.3771 19.6901L15.5737 20.4935L15.5674 20.4998L15.5737 20.5064L20.1562 25.089L24.7429 20.5023L24.7451 20.4998L24.741 20.4976Z" fill="#F3BA2F"/>
<path d="M47.2031 10.1924H57.0339C59.4738 10.1924 61.3188 10.8186 62.5692 12.0709C63.5369 13.0408 64.0206 14.2429 64.0206 15.6769V15.7376C64.0206 16.3435 63.9457 16.879 63.795 17.3434C63.6447 17.8085 63.4437 18.2271 63.1926 18.6008C62.942 18.9749 62.6508 19.3031 62.3197 19.5856C61.9882 19.8686 61.6322 20.1113 61.2509 20.3128C62.4773 20.7779 63.4428 21.4088 64.1467 22.2068C64.8502 23.0052 65.2025 24.1112 65.2025 25.525V25.5854C65.2025 26.5553 65.0161 27.4035 64.643 28.1311C64.2699 28.8581 63.7353 29.4643 63.0393 29.9493C62.3434 30.4342 61.5065 30.7975 60.5283 31.0402C59.5502 31.2825 58.4663 31.4035 57.2768 31.4035H47.2031V10.1924ZM56.051 18.7676C57.0816 18.7676 57.8998 18.5913 58.5055 18.2375C59.1114 17.884 59.4144 17.3131 59.4144 16.5255V16.4648C59.4144 15.7581 59.1515 15.2179 58.6265 14.8438C58.1011 14.4701 57.3435 14.283 56.354 14.283H51.7481V18.7676H56.051ZM57.2936 27.3132C58.3238 27.3132 59.1313 27.1268 59.7177 26.7527C60.3034 26.379 60.5966 25.798 60.5966 25.0101V24.9497C60.5966 24.2427 60.3236 23.6822 59.7783 23.2677C59.2327 22.8542 58.3541 22.6469 57.1419 22.6469H51.7481V27.3135H57.2936V27.3132Z" fill="#F3BA2F"/>
<path d="M71.0574 10.1924H75.7243V31.4041H71.0574V10.1924Z" fill="#F3BA2F"/>
<path d="M82.7925 10.1924H87.0948L97.0342 23.2529V10.1924H101.64V31.4041H97.6708L87.3981 17.9197V31.4041H82.7925V10.1924Z" fill="#F3BA2F"/>
<path d="M115.768 10.0411H120.071L129.162 31.4041H124.283L122.344 26.6469H113.374L111.435 31.4041H106.677L115.768 10.0411ZM120.677 22.5253L117.859 15.6469L115.042 22.5253H120.677Z" fill="#F3BA2F"/>
<path d="M134.2 10.1924H138.503L148.442 23.2529V10.1924H153.048V31.4041H149.078L138.806 17.9197V31.4041H134.2V10.1924Z" fill="#F3BA2F"/>
<path d="M169.843 31.7674C168.286 31.7674 166.842 31.4844 165.509 30.9192C164.175 30.354 163.024 29.5809 162.055 28.6009C161.085 27.6212 160.327 26.4646 159.782 25.1314C159.237 23.7978 158.964 22.3736 158.964 20.8584V20.7981C158.964 19.2829 159.237 17.8641 159.782 16.5406C160.327 15.2175 161.085 14.0559 162.055 13.0559C163.024 12.056 164.186 11.2678 165.539 10.6922C166.892 10.1165 168.388 9.82874 170.024 9.82874C171.013 9.82874 171.917 9.90993 172.735 10.0711C173.554 10.2331 174.296 10.4549 174.963 10.7377C175.63 11.0207 176.245 11.3641 176.812 11.7679C177.376 12.1723 177.902 12.6165 178.387 13.1014L175.418 16.5255C174.589 15.7783 173.746 15.1919 172.887 14.768C172.028 14.344 171.064 14.1317 169.994 14.1317C169.105 14.1317 168.281 14.3035 167.524 14.647C166.767 14.9904 166.115 15.4649 165.569 16.0708C165.024 16.6768 164.6 17.3791 164.296 18.1768C163.994 18.9752 163.843 19.8285 163.843 20.7374V20.7978C163.843 21.7067 163.994 22.5657 164.296 23.3732C164.6 24.1817 165.018 24.8884 165.554 25.4944C166.089 26.1003 166.736 26.5805 167.493 26.934C168.252 27.2879 169.085 27.4642 169.994 27.4642C171.206 27.4642 172.23 27.2421 173.069 26.7976C173.907 26.3537 174.741 25.7474 175.569 24.9794L178.539 27.9794C177.993 28.5655 177.427 29.0909 176.842 29.555C176.256 30.02 175.615 30.4187 174.917 30.7523C174.221 31.0853 173.457 31.3384 172.63 31.5096C171.801 31.6812 170.872 31.7674 169.843 31.7674Z" fill="#F3BA2F"/>
<path d="M184.031 10.1924H200V14.344H188.637V18.6469H198.637V22.7982H188.637V27.2528H200.152V31.4041H184.031V10.1924Z" fill="#F3BA2F"/>
</g>
<defs>
<clipPath id="clip0_492_2524">
<rect width="199.671" height="40" fill="white" transform="translate(0.328857 0.5)"/>
</clipPath>
</defs>
</svg>
