<svg width="210" height="42" viewBox="0 0 210 42" fill="none" xmlns="http://www.w3.org/2000/svg">
<g clip-path="url(#clip0_525_2515)">
<path d="M12.8126 17.6488L20.9691 9.49264L29.1298 17.6531L33.8758 12.9071L20.9691 0L8.06665 12.9028L12.8126 17.6488Z" fill="black"/>
<path d="M9.46111 20.9993L4.71521 16.2534L-0.0309281 20.9995L4.71498 25.7454L9.46111 20.9993Z" fill="black"/>
<path d="M12.8126 24.3512L20.9691 32.5074L29.1295 24.3473L33.8782 29.0906L33.8758 29.0933L20.9691 42L8.06633 29.0976L8.05969 29.0909L12.8126 24.3512Z" fill="black"/>
<path d="M37.2235 25.7476L41.9696 21.0015L37.2237 16.2556L32.4776 21.0017L37.2235 25.7476Z" fill="black"/>
<path d="M25.783 20.9975H25.785L20.9691 16.1815L17.41 19.7406H17.4097L17.001 20.1496L16.1574 20.9932L16.1508 20.9998L16.1574 21.0068L20.9691 25.8185L25.785 21.0025L25.7874 20.9998L25.783 20.9975Z" fill="black"/>
<path d="M49.3684 10.177H59.6907C62.2526 10.177 64.1899 10.8345 65.5028 12.1494C66.5189 13.1678 67.0268 14.4301 67.0268 15.9358V15.9994C67.0268 16.6357 66.9482 17.198 66.7899 17.6856C66.632 18.1739 66.421 18.6134 66.1573 19.0059C65.8943 19.3986 65.5884 19.7433 65.2408 20.0398C64.8928 20.3371 64.5189 20.5918 64.1185 20.8035C65.4063 21.2918 66.4201 21.9542 67.1591 22.7922C67.8979 23.6304 68.2678 24.7918 68.2678 26.2763V26.3396C68.2678 27.358 68.072 28.2487 67.6803 29.0127C67.2885 29.776 66.7272 30.4125 65.9964 30.9217C65.2656 31.4309 64.3869 31.8124 63.3599 32.0672C62.3329 32.3216 61.1947 32.4487 59.9458 32.4487H49.3684V10.177ZM58.6587 19.181C59.7408 19.181 60.5999 18.9959 61.2359 18.6244C61.8721 18.2532 62.1902 17.6538 62.1902 16.8268V16.7631C62.1902 16.021 61.9142 15.4538 61.3629 15.061C60.8113 14.6686 60.0158 14.4722 58.9768 14.4722H54.1406V19.181H58.6587ZM59.9634 28.1538C61.0451 28.1538 61.893 27.9581 62.5087 27.5654C63.1237 27.1729 63.4315 26.5629 63.4315 25.7356V25.6722C63.4315 24.9298 63.1449 24.3413 62.5724 23.9061C61.9995 23.4719 61.077 23.2543 59.8041 23.2543H54.1406V28.1542H59.9634V28.1538Z" fill="black"/>
<path d="M74.4153 10.177H79.3155V32.4493H74.4153V10.177Z" fill="black"/>
<path d="M86.7372 10.177H91.2546L101.691 23.8905V10.177H106.527V32.4493H102.359L91.5731 18.2907V32.4493H86.7372V10.177Z" fill="black"/>
<path d="M121.362 10.0181H125.88L135.425 32.4493H130.303L128.266 27.4542H118.848L116.812 32.4493H111.816L121.362 10.0181ZM126.516 23.1266L123.557 15.9042L120.599 23.1266H126.516Z" fill="black"/>
<path d="M140.715 10.177H145.233L155.669 23.8905V10.177H160.505V32.4493H156.337L145.551 18.2907V32.4493H140.715V10.177Z" fill="black"/>
<path d="M178.14 32.8308C176.506 32.8308 174.99 32.5336 173.589 31.9401C172.189 31.3467 170.98 30.535 169.962 29.506C168.944 28.4773 168.148 27.2628 167.576 25.8629C167.003 24.4627 166.717 22.9673 166.717 21.3764V21.313C166.717 19.7221 167.003 18.2323 167.576 16.8427C168.148 15.4534 168.944 14.2337 169.962 13.1838C170.98 12.1339 172.2 11.3062 173.621 10.7018C175.042 10.0974 176.612 9.7952 178.33 9.7952C179.369 9.7952 180.318 9.88045 181.177 10.0496C182.036 10.2198 182.816 10.4527 183.516 10.7496C184.217 11.0468 184.863 11.4074 185.457 11.8313C186.05 12.2559 186.602 12.7223 187.111 13.2315L183.994 16.8268C183.123 16.0422 182.238 15.4266 181.337 14.9814C180.435 14.5362 179.422 14.3133 178.298 14.3133C177.365 14.3133 176.5 14.4937 175.705 14.8543C174.91 15.2149 174.226 15.7132 173.653 16.3494C173.081 16.9857 172.635 17.7231 172.316 18.5607C171.999 19.399 171.84 20.295 171.84 21.2493V21.3127C171.84 22.2671 171.999 23.169 172.316 24.0169C172.635 24.8658 173.074 25.6079 173.637 26.2441C174.199 26.8804 174.878 27.3846 175.673 27.7558C176.469 28.1273 177.344 28.3124 178.298 28.3124C179.571 28.3124 180.647 28.0792 181.527 27.6125C182.408 27.1464 183.283 26.5098 184.152 25.7034L187.271 28.8535C186.698 29.4688 186.103 30.0205 185.489 30.5078C184.874 30.9961 184.2 31.4147 183.468 31.765C182.737 32.1146 181.935 32.3803 181.066 32.5601C180.196 32.7403 179.221 32.8308 178.14 32.8308Z" fill="black"/>
<path d="M193.037 10.177H209.805V14.5362H197.874V19.0543H208.374V23.4132H197.874V28.0905H209.965V32.4493H193.037V10.177Z" fill="black"/>
</g>
<defs>
<clipPath id="clip0_525_2515">
<rect width="209.655" height="42" fill="black" transform="translate(0.150391)"/>
</clipPath>
</defs>
</svg>
