<svg width="130" height="50" viewBox="0 0 130 50" fill="none" xmlns="http://www.w3.org/2000/svg">
<path d="M9.82697 6.32209C12.2449 6.32209 14.2857 7.18722 15.9494 8.87311C17.6131 10.5812 18.4561 12.7551 18.4561 15.3727C18.4561 17.9902 17.6131 20.1642 15.9494 21.8722C14.2857 23.5803 12.2449 24.4232 9.82697 24.4232C7.63088 24.4232 5.87844 23.6247 4.52529 22.0275V23.913H0V0H4.52529V8.71783C5.85626 7.12067 7.63088 6.32209 9.82697 6.32209ZM5.76752 18.9441C6.74357 19.8092 7.87489 20.2529 9.18367 20.2529C10.4925 20.2529 11.6016 19.8314 12.5333 18.9663C13.465 18.1012 13.9308 16.9255 13.9308 15.3727C13.9308 13.8421 13.465 12.6442 12.5111 11.7791C11.5794 10.9139 10.4481 10.4925 9.13931 10.4925C7.83052 10.4925 6.6992 10.9139 5.74534 11.7791C4.79148 12.622 4.32564 13.8199 4.32564 15.3283C4.30346 16.8811 4.79148 18.079 5.76752 18.9441Z" fill="white"/>
<path d="M26.575 6.83226H22.0054V23.913H26.575V6.83226Z" fill="white"/>
<path d="M42.0364 18.9663L44.8536 21.961C43.2787 23.6025 41.4597 24.4455 39.3523 24.4455C37.0453 24.4455 35.2485 23.8022 33.9619 22.5156C32.6753 21.229 32.032 19.4987 32.032 17.3026V11.4242L33.2077 8.89533L32.032 6.85452V2.26268H36.6016V17.3026C36.6016 19.1881 37.5777 20.1198 39.5076 20.1198C40.4393 20.1198 41.2822 19.7427 42.0364 18.9663Z" fill="white"/>
<path d="M53.527 24.4676C50.5767 24.4676 48.181 23.3806 46.4064 21.2289L49.4454 18.8332C51.0204 20.1419 52.4844 20.8074 53.882 20.8074C54.7027 20.8074 55.346 20.6521 55.7897 20.3194C56.2333 19.9867 56.4552 19.5874 56.4552 19.0993C56.4552 18.7222 56.2777 18.4117 55.9228 18.1455C55.5679 17.8793 55.2129 17.6796 54.858 17.5909C54.5031 17.48 53.9263 17.3025 53.1499 17.0807C52.2848 16.8145 51.575 16.6149 51.0648 16.4596C50.5324 16.3043 49.9334 16.0381 49.2458 15.6388C48.5581 15.2617 48.0479 14.7515 47.7373 14.1304C47.4046 13.5093 47.2493 12.7329 47.2493 11.8234C47.2493 10.1153 47.8483 8.76217 49.0683 7.76394C50.2884 6.76572 51.7968 6.27769 53.6601 6.27769C56.5439 6.27769 58.7622 7.32029 60.3593 9.42765L57.3647 11.8678C56.3221 10.6255 55.102 9.98222 53.7267 9.98222C53.0168 9.98222 52.4623 10.1375 52.063 10.4702C51.6637 10.803 51.464 11.2023 51.464 11.6459C51.464 12.023 51.6415 12.3336 51.9742 12.622C52.307 12.8882 52.6619 13.0878 53.0168 13.1765C53.3718 13.2653 53.9485 13.4206 54.7249 13.6424C55.4126 13.842 55.945 13.9751 56.3221 14.086C56.6992 14.1969 57.1872 14.3744 57.8305 14.6406C58.4516 14.9068 58.9396 15.2174 59.2502 15.5279C59.5608 15.8607 59.8491 16.2821 60.1153 16.8367C60.3815 17.3913 60.4924 18.0124 60.4924 18.7222C60.4924 20.4303 59.8713 21.8278 58.6069 22.8926C57.3203 23.9352 55.6344 24.4676 53.527 24.4676Z" fill="white"/>
<path d="M76.6194 12.4667C75.3771 11.1801 73.9353 10.5368 72.3603 10.5368C71.0515 10.5368 69.9424 10.9805 69.0329 11.89C68.1234 12.7773 67.6575 13.9973 67.6575 15.5057C67.6575 16.9033 68.1234 18.0346 69.0772 18.8775C70.0089 19.7427 71.1624 20.1641 72.4934 20.1641C74.1349 20.1641 75.599 19.543 76.8412 18.323L79.7028 21.0071C77.7285 23.2919 75.2884 24.4232 72.3603 24.4232C69.6762 24.4232 67.4801 23.5803 65.7498 21.8722C64.0195 20.1863 63.1544 18.0124 63.1544 15.3948C63.1544 12.7773 64.0195 10.6033 65.772 8.87309C67.5244 7.14283 69.7427 6.29989 72.4046 6.29989C75.2884 6.29989 77.662 7.40903 79.5253 9.62731L76.6194 12.4667Z" fill="white"/>
<path d="M95.0311 6.8323H99.5564V23.913H95.0311V22.0275C93.7002 23.6247 91.9255 24.4233 89.7294 24.4233C87.3115 24.4233 85.2707 23.5803 83.607 21.8722C81.9433 20.1642 81.1003 18.0124 81.1003 15.3727C81.1003 12.7551 81.9433 10.5812 83.607 8.87312C85.2707 7.16504 87.3115 6.3221 89.7294 6.3221C91.9255 6.3221 93.678 7.12068 95.0311 8.71784V6.8323ZM87.0231 18.9663C87.9548 19.8314 89.064 20.2529 90.3727 20.2529C91.6815 20.2529 92.8129 19.8092 93.7889 18.9441C94.7649 18.079 95.2308 16.8811 95.2308 15.3727C95.2308 13.8421 94.7428 12.6442 93.8111 11.7791C92.8572 10.9361 91.7259 10.4925 90.4171 10.4925C89.1083 10.4925 87.977 10.9139 87.0453 11.7791C86.1136 12.6442 85.6256 13.8199 85.6256 15.3727C85.6256 16.9255 86.0915 18.1012 87.0231 18.9663Z" fill="white"/>
<path d="M108.851 0H104.281V23.913H108.851V0Z" fill="white"/>
<path d="M129.814 14.7293C129.814 15.4614 129.747 16.1712 129.636 16.8589L116.859 16.9033C117.169 18.0789 117.768 19.0106 118.634 19.7427C119.499 20.4747 120.586 20.8296 121.894 20.8296C123.403 20.8296 125 20.2085 126.686 18.9884L129.126 21.6282C127.218 23.4694 124.756 24.401 121.739 24.401C118.966 24.401 116.726 23.5581 114.996 21.85C113.265 20.1419 112.4 17.9459 112.4 15.2839C112.4 12.6442 113.243 10.4703 114.951 8.80654C116.637 7.14283 118.811 6.29989 121.473 6.29989C124.002 6.29989 126.043 7.0541 127.551 8.58472C129.037 10.1375 129.814 12.1783 129.814 14.7293ZM121.451 9.91568C120.364 9.91568 119.41 10.2262 118.589 10.8252C117.768 11.4463 117.214 12.2671 116.925 13.3318H125.599C125.377 12.2449 124.889 11.4019 124.157 10.803C123.381 10.2041 122.493 9.91568 121.451 9.91568Z" fill="white"/>
<path d="M42.3248 6.83228H32.0542V11.4019H42.3248V6.83228Z" fill="url(#paint0_linear_535_273)"/>
<path d="M63.1322 39.9733C63.1322 36.8234 65.5058 34.5164 68.5448 34.5164C70.9184 34.5164 72.9148 35.9582 73.5803 38.2209H72.5155C71.9609 36.5794 70.4303 35.4702 68.567 35.4702C66.0825 35.4702 64.1748 37.3779 64.1748 39.9733C64.1748 42.5687 66.0825 44.4764 68.5448 44.4764C70.4303 44.4764 71.9609 43.3451 72.5155 41.7258H73.5803C72.937 44.0106 70.8962 45.4303 68.5448 45.4303C65.5058 45.4303 63.1322 43.1233 63.1322 39.9733Z" fill="white"/>
<path d="M85.914 34.716V45.2306H84.8936V42.724C84.0728 44.3433 82.4756 45.4303 80.5014 45.4303C77.5511 45.4303 75.5103 43.1233 75.5103 39.9733C75.5103 36.8234 77.5733 34.5164 80.4792 34.5164C82.4756 34.5164 84.0728 35.6033 84.8936 37.2448V34.716H85.914ZM84.9158 39.9733C84.9158 37.3779 83.0524 35.4702 80.6345 35.4702C78.2166 35.4702 76.5307 37.3558 76.5307 39.9733C76.5307 42.5687 78.2166 44.4542 80.6345 44.4542C83.0746 44.4542 84.9158 42.5909 84.9158 39.9733Z" fill="white"/>
<path d="M99.5563 39.9733C99.5563 43.1233 97.5155 45.4303 94.5874 45.4303C92.5909 45.4303 90.9938 44.3433 90.173 42.7018V50H89.1526V34.716H90.173V37.2449C90.9938 35.6033 92.5909 34.5164 94.5874 34.5164C97.4933 34.4942 99.5563 36.8234 99.5563 39.9733ZM98.5359 39.9733C98.5359 37.378 96.8722 35.4702 94.4321 35.4702C92.0142 35.4702 90.1508 37.3558 90.1508 39.9733C90.1508 42.5909 92.0142 44.4543 94.4321 44.4543C96.85 44.4543 98.5359 42.5687 98.5359 39.9733Z" fill="white"/>
<path d="M103.216 34.7161H102.196V45.2307H103.216V34.7161Z" fill="white"/>
<path d="M113.776 44.8313C113.243 45.0975 112.178 45.4525 111.091 45.4525C108.762 45.4525 107.409 43.8997 107.409 41.2377V35.6699H105.302V34.716H107.409V32.0762H108.43V34.716H113.576V35.6699H108.43V41.1934C108.43 43.2564 109.339 44.4764 111.269 44.4764C112.068 44.4764 112.866 44.2768 113.598 43.9662L113.776 44.8313Z" fill="white"/>
<path d="M125.555 34.716V45.2306H124.534V42.724C123.713 44.3433 122.116 45.4303 120.142 45.4303C117.192 45.4303 115.151 43.1233 115.151 39.9733C115.151 36.8234 117.214 34.5164 120.12 34.5164C122.116 34.5164 123.713 35.6033 124.534 37.2448V34.716H125.555ZM124.579 39.9733C124.579 37.3779 122.715 35.4702 120.297 35.4702C117.879 35.4702 116.193 37.3558 116.193 39.9733C116.193 42.5687 117.879 44.4542 120.297 44.4542C122.715 44.4542 124.579 42.5909 124.579 39.9733Z" fill="white"/>
<path d="M129.814 30.5013H128.771V45.2085H129.814V30.5013Z" fill="white"/>
<path d="M42.3026 6.83228H37.7329V11.4019H42.3026V6.83228Z" fill="white"/>
<defs>
<linearGradient id="paint0_linear_535_273" x1="32.095" y1="9.12784" x2="41.073" y2="9.12784" gradientUnits="userSpaceOnUse">
<stop stop-color="#FFFFFE"/>
<stop offset="1"/>
</linearGradient>
</defs>
</svg>
