<svg width="61" height="60" viewBox="0 0 61 60" fill="none" xmlns="http://www.w3.org/2000/svg">
<path d="M45.0768 29.9999L49.6222 18.1817H18.7131L23.2586 9.09082H51.895L56.4404 13.6363V32.2726L45.0768 29.9999Z" fill="#010038"/>
<mask id="path-2-outside-1_904_3259" maskUnits="userSpaceOnUse" x="16.7131" y="8.09082" width="41" height="26" fill="black">
<rect fill="white" x="16.7131" y="8.09082" width="41" height="26"/>
<path fill-rule="evenodd" clip-rule="evenodd" d="M23.2586 9.09082L18.7131 18.1817L23.7131 23.1817H38.7131L35.0768 29.9999L46.895 32.7272L56.4404 32.2726V13.6363L51.895 9.09082H23.2586Z"/>
</mask>
<path d="M18.7131 18.1817L17.9082 17.7792L17.6181 18.3594L18.0767 18.8181L18.7131 18.1817ZM23.2586 9.09082V8.19082H22.7024L22.4536 8.68833L23.2586 9.09082ZM23.7131 23.1817L23.0767 23.8181L23.3403 24.0817H23.7131V23.1817ZM38.7131 23.1817L39.5073 23.6053L40.2131 22.2817H38.7131V23.1817ZM35.0768 29.9999L34.2827 29.5764L33.7299 30.6128L34.8744 30.8769L35.0768 29.9999ZM46.895 32.7272L46.6926 33.6041L46.8137 33.6321L46.9378 33.6262L46.895 32.7272ZM56.4404 32.2726L56.4832 33.1716L57.3404 33.1308V32.2726H56.4404ZM56.4404 13.6363H57.3404V13.2635L57.0768 12.9999L56.4404 13.6363ZM51.895 9.09082L52.5313 8.45442L52.2677 8.19082H51.895V9.09082ZM19.5181 18.5842L24.0636 9.49331L22.4536 8.68833L17.9082 17.7792L19.5181 18.5842ZM24.3495 22.5453L19.3495 17.5453L18.0767 18.8181L23.0767 23.8181L24.3495 22.5453ZM38.7131 22.2817H23.7131V24.0817H38.7131V22.2817ZM35.8709 30.4234L39.5073 23.6053L37.919 22.7582L34.2827 29.5764L35.8709 30.4234ZM47.0973 31.8502L35.2791 29.123L34.8744 30.8769L46.6926 33.6041L47.0973 31.8502ZM56.3976 31.3737L46.8521 31.8282L46.9378 33.6262L56.4832 33.1716L56.3976 31.3737ZM55.5404 13.6363V32.2726H57.3404V13.6363H55.5404ZM51.2586 9.72722L55.804 14.2727L57.0768 12.9999L52.5313 8.45442L51.2586 9.72722ZM23.2586 9.99082H51.895V8.19082H23.2586V9.99082Z" fill="#010038" mask="url(#path-2-outside-1_904_3259)"/>
<path d="M16.4403 30.0001L11.8949 41.8183H42.804L38.2585 50.9092H9.62214L5.07668 46.3637V27.7274L16.4403 30.0001Z" fill="#010038"/>
<mask id="path-5-outside-2_904_3259" maskUnits="userSpaceOnUse" x="3.80396" y="25.9092" width="41" height="26" fill="black">
<rect fill="white" x="3.80396" y="25.9092" width="41" height="26"/>
<path fill-rule="evenodd" clip-rule="evenodd" d="M38.2585 50.9092L42.804 41.8183L37.804 36.8183H22.804L26.4403 30.0001L14.6221 27.2728L5.07668 27.7274V46.3637L9.62214 50.9092H38.2585Z"/>
</mask>
<path d="M42.804 41.8183L43.6089 42.2208L43.899 41.6406L43.4404 41.1819L42.804 41.8183ZM38.2585 50.9092V51.8092H38.8147L39.0635 51.3117L38.2585 50.9092ZM37.804 36.8183L38.4404 36.1819L38.1767 35.9183H37.804V36.8183ZM22.804 36.8183L22.0098 36.3947L21.304 37.7183H22.804V36.8183ZM26.4403 30.0001L27.2344 30.4236L27.7872 29.3872L26.6427 29.1231L26.4403 30.0001ZM14.6221 27.2728L14.8245 26.3959L14.7034 26.3679L14.5793 26.3738L14.6221 27.2728ZM5.07668 27.7274L5.03387 26.8284L4.17668 26.8692V27.7274H5.07668ZM5.07668 46.3637H4.17668V46.7365L4.44029 47.0001L5.07668 46.3637ZM9.62214 50.9092L8.98574 51.5456L9.24935 51.8092H9.62214V50.9092ZM41.999 41.4158L37.4535 50.5067L39.0635 51.3117L43.6089 42.2208L41.999 41.4158ZM37.1676 37.4547L42.1676 42.4547L43.4404 41.1819L38.4404 36.1819L37.1676 37.4547ZM22.804 37.7183H37.804V35.9183H22.804V37.7183ZM25.6462 29.5766L22.0098 36.3947L23.5981 37.2418L27.2344 30.4236L25.6462 29.5766ZM14.4198 28.1498L26.2379 30.877L26.6427 29.1231L14.8245 26.3959L14.4198 28.1498ZM5.11949 28.6263L14.6649 28.1718L14.5793 26.3738L5.03387 26.8284L5.11949 28.6263ZM5.97668 46.3637V27.7274H4.17668V46.3637H5.97668ZM10.2585 50.2728L5.71308 45.7273L4.44029 47.0001L8.98574 51.5456L10.2585 50.2728ZM38.2585 50.0092H9.62214V51.8092H38.2585V50.0092Z" fill="#010038" mask="url(#path-5-outside-2_904_3259)"/>
</svg>
