<svg width="160" height="54" viewBox="0 0 160 54" fill="none" xmlns="http://www.w3.org/2000/svg">
<path d="M63.0405 12.0001H69.464V37.7144H75.8875V5.57154H69.464C65.9311 5.57154 63.0405 8.46444 63.0405 12.0001Z" fill="white"/>
<path d="M82.3113 37.7144H88.7348V24.8572C88.7348 21.3215 85.8442 18.4286 82.3113 18.4286V37.7144Z" fill="white"/>
<path d="M95.1582 18.4286V37.7144H101.582V24.8572H108.005V31.2858C108.005 34.8215 110.896 37.7144 114.429 37.7144V24.8572C114.429 21.3215 111.539 18.4286 108.005 18.4286H95.1582Z" fill="white"/>
<path d="M152.97 18.4287H146.546V12.0001C146.546 8.46444 143.656 5.57154 140.123 5.57154V31.2858H127.276V24.8572H133.7V18.4287H127.276C123.743 18.4287 120.852 21.3215 120.852 24.8572V31.2858C120.852 34.8216 123.743 37.7144 127.276 37.7144H146.546V24.8572H152.97V31.2858C152.97 34.8216 155.861 37.7144 159.393 37.7144V24.8572C159.393 21.3215 156.503 18.4287 152.97 18.4287Z" fill="white"/>
<path d="M82.3113 12.0001H88.7348C88.7348 8.46444 85.8442 5.57154 82.3113 5.57154V12.0001Z" fill="white"/>
<path fill-rule="evenodd" clip-rule="evenodd" d="M73.0553 44.1431V48.2982H72.4668L70.1548 45.4193V48.2982H69.4641V44.1431H70.0527L72.3648 47.0339V44.1431H73.0553ZM86.1219 48.2982H83.6297V44.1431H86.0618V44.8257H84.3682V45.8585H85.8817V46.5412H84.3682V47.6155H86.1219V48.2982ZM96.6961 44.8257H98.0593V48.2982H98.798V44.8257H100.161V44.1431H96.6961V44.8257ZM115.882 44.1431H116.591L115.39 48.2982H114.699L113.684 45.2947L112.687 48.2982H111.991L110.735 44.1431H111.564L112.411 47.1051L113.347 44.1431H114.081L115.041 47.111L115.882 44.1431ZM127.777 44.7604C127.37 45.172 127.165 45.6804 127.165 46.2859C127.165 46.9231 127.372 47.4394 127.784 47.8352C128.196 48.2309 128.719 48.4288 129.351 48.4288C129.98 48.4288 130.502 48.227 130.919 47.8233C131.335 47.4197 131.543 46.9072 131.543 46.2859C131.543 45.6528 131.335 45.1363 130.919 44.7367C130.506 44.3409 129.984 44.1431 129.351 44.1431C128.719 44.1431 128.194 44.3489 127.777 44.7604ZM128.349 47.3307C128.08 47.0537 127.946 46.7054 127.946 46.2859C127.946 45.8585 128.079 45.5083 128.342 45.2353C128.611 44.9622 128.946 44.8257 129.351 44.8257C129.747 44.8257 130.082 44.9622 130.354 45.2353C130.626 45.5123 130.763 45.8625 130.763 46.2859C130.763 46.7054 130.634 47.0537 130.379 47.3307C130.126 47.6077 129.784 47.7462 129.351 47.7462C128.951 47.7462 128.616 47.6077 128.349 47.3307ZM142.856 46.7549V48.3101H142.117V44.155C142.325 44.155 142.552 44.153 142.796 44.149C143.04 44.1451 143.241 44.1431 143.396 44.1431C144.413 44.1431 144.922 44.5704 144.922 45.4252C144.922 45.7418 144.84 46.003 144.675 46.2088C144.512 46.4067 144.323 46.5412 144.111 46.6124L145.426 48.3101H144.532L143.373 46.7549H142.856ZM143.361 44.8257C143.341 44.8257 143.309 44.8277 143.264 44.8317C143.221 44.8317 143.159 44.8337 143.079 44.8375H142.856V46.0722H143.336C143.573 46.0722 143.765 46.0149 143.913 45.9001C144.065 45.7853 144.141 45.629 144.141 45.4312C144.141 45.0275 143.881 44.8257 143.361 44.8257ZM156.001 48.2982H156.739V46.1553L158.456 48.2982H159.393L157.555 46.0782L159.285 44.1431H158.396L156.739 46.1138V44.1431H156.001V48.2982Z" fill="white"/>
<path d="M13.7149 29.7352L15.2136 18.4383L2.19263 9.39144L14.0895 13.4227L16.8999 9.11022L27.1574 2.73517L49.7803 15.2039L50.9512 34.2352L40.881 48.2508L32.9185 49.4695L37.0403 41.9227V34.657L34.0427 28.9852L30.9982 26.9696L26.3143 31.7977V36.907L22.661 40.3289L18.024 40.8914L15.9631 42.0633L12.5908 40.9852L11.1855 35.9227L13.7149 32.3602V29.7352Z" fill="white"/>
<path d="M34.5109 9.29756C32.0285 8.782 29.3118 8.92256 29.3118 8.92256C29.3118 8.92256 28.4219 13.0476 22.895 14.1257C22.9418 14.1257 30.2018 16.6101 34.5109 9.29756Z" fill="#94A6C3"/>
<path d="M36.759 46.7039C39.7567 44.3601 42.0049 41.1258 43.0353 37.4696C43.0822 37.3289 43.5038 37.0946 43.7848 36.907C44.2531 36.6258 44.7216 36.3914 44.8152 36.0164C45.0026 34.9382 45.0962 33.8132 45.0962 32.6882C45.0962 32.2664 44.6747 31.8446 44.2531 31.4227C43.9253 31.1414 43.5975 30.8132 43.5975 30.5789C43.129 26.3132 41.1619 22.3289 38.0237 19.4227L37.6958 19.7508C40.7403 22.6101 42.7076 26.5008 43.129 30.6258C43.1759 31.0008 43.5506 31.3758 43.9253 31.7508C44.2531 32.032 44.6279 32.4539 44.6279 32.6414C44.6279 33.7196 44.5342 34.7977 44.3469 35.8758C44.3 36.0632 43.8785 36.2508 43.5506 36.4382C43.0822 36.6727 42.6607 36.907 42.567 37.282C41.4429 41.2664 38.8668 44.7351 35.4476 46.9851C36.0565 45.6727 37.9769 41.407 39.0073 39.2508L38.8199 32.3132L32.8715 26.5477L29.4991 27.0164L25.7989 33.0164C25.7989 33.0164 27.5319 35.2196 25.0963 37.7977C22.7076 40.3289 20.834 40.8914 20.834 40.8914L19.101 39.9539C19.6162 39.2977 20.6467 38.3132 21.4429 37.657C22.8012 36.532 24.1596 36.4382 24.1596 35.2196C24.2065 32.6882 21.4898 33.3914 21.4898 33.3914L20.5062 34.3289L20.0847 37.7977L18.0238 40.3758L17.7896 40.3289L14.4172 39.5789C14.4172 39.5789 16.4781 38.5008 16.806 37.282C17.1338 36.1101 16.1502 32.2196 16.1033 31.9851C16.1502 32.032 17.087 32.8289 17.5086 34.1414C18.2579 32.0789 19.2416 30.1101 19.5226 29.9227C19.8036 29.7351 23.5975 27.7196 23.5975 27.7196L22.3329 31.0477L23.2697 30.532L25.5179 25.0008C25.5179 25.0008 27.7192 23.9227 29.3586 23.9227C32.3095 23.8758 36.6653 20.2664 34.6981 13.7977C35.2602 14.032 45.0026 18.907 46.6888 28.4696C47.9533 35.8289 43.7848 42.7196 36.759 46.7039Z" fill="#94A6C3"/>
<path d="M25.6117 10.3289C26.689 9.06333 26.2674 7.18829 26.2674 7.18829L23.1293 11.8289C23.0824 11.8289 24.2534 11.8758 25.6117 10.3289Z" fill="#0A192B"/>
<path d="M15.0731 35.6884L15.4478 33.8134C15.4478 33.8134 13.9021 36.5321 13.7617 36.9071C13.6211 37.329 13.8554 38.079 14.4643 38.0321C15.0731 37.9852 15.8226 37.0947 15.8226 36.4384C15.8226 35.5947 15.0731 35.6884 15.0731 35.6884Z" fill="#0A192B"/>
<path d="M42.8951 5.87585C42.8951 5.87585 45.2369 5.9696 47.6726 6.25085C42.1925 1.93835 36.9935 0.672724 32.7781 0.672724C26.9701 0.672724 23.0356 3.06335 22.8015 3.20398L24.6282 0.297724C24.6282 0.297724 17.3214 -0.405398 14.7453 7.32897C14.0895 5.68835 13.4806 3.29772 13.4806 3.29772C13.4806 3.29772 9.68676 6.62585 11.4666 12.1571C7.11066 10.5633 0.881171 8.36022 0.646982 8.31333C0.319115 8.26645 0.225438 8.40711 0.225438 8.40711C0.225438 8.40711 0.13176 8.54778 0.412793 8.78211C0.928004 9.204 10.7641 16.4696 12.9186 17.8759C12.4502 19.5633 12.4502 20.3602 12.9186 21.1571C13.5743 22.2352 13.6212 22.7977 13.5275 23.5946C13.4338 24.3914 12.5907 31.2821 12.4034 32.1259C12.2161 32.9696 10.2488 35.9696 10.3425 36.8602C10.4362 37.7509 11.6539 41.5477 12.7313 41.9696C13.5275 42.2509 15.4947 42.8602 16.8062 42.8602C17.2745 42.8602 17.6961 42.7664 17.8835 42.579C18.6797 41.8759 18.9138 41.7352 19.4759 41.7352C19.5228 41.7352 19.5696 41.7352 19.6165 41.7352C19.8506 41.7352 20.1317 41.7821 20.4595 41.7821C21.2089 41.7821 22.1926 41.6414 22.8952 40.9852C23.9256 39.954 25.7054 38.5477 26.2675 37.8914C26.9701 37.0009 27.3447 35.7821 27.1574 34.5633C27.0169 33.4383 27.6258 32.454 28.3284 31.4696C29.2183 30.2977 30.8576 28.1883 30.8576 28.1883C34.0895 30.6259 36.1035 34.329 36.1035 38.454C36.1035 45.7664 29.7335 51.6727 21.8647 51.6727C20.6469 51.6727 19.4759 51.5321 18.3049 51.2509C21.9115 52.5164 24.9561 52.9383 27.4385 52.9383C32.7312 52.9383 35.5415 51.0164 35.5415 51.0164C35.5415 51.0164 34.5578 52.2821 32.9654 53.7352C33.0122 53.7352 33.0122 53.7352 33.0122 53.7352C41.7709 52.5164 46.0333 45.2977 46.0333 45.2977C46.0333 45.2977 45.7054 47.6414 45.2838 49.2352C56.9465 40.4696 54.9794 29.5009 54.9325 29.1259C55.0262 29.2664 56.1972 30.6727 56.8061 31.4227C58.6795 12.1102 42.8951 5.87585 42.8951 5.87585ZM24.9561 36.7196C24.7687 36.954 23.9724 37.6571 23.4104 38.1727C22.8483 38.6883 22.2394 39.204 21.7711 39.6727C21.5837 39.8602 21.2089 39.954 20.6469 39.954C20.4595 39.954 20.2722 39.954 20.1317 39.954C20.0381 39.954 19.9443 39.954 19.8506 39.954C19.7569 39.954 19.7102 39.954 19.6633 39.954C19.5228 39.954 19.3823 39.954 19.2417 39.954C19.9443 39.0164 22.0052 36.8602 22.7078 36.3914C23.5508 35.829 23.9724 35.2664 23.4572 34.2821C22.9419 33.2977 21.5837 33.5321 21.5837 33.5321C21.5837 33.5321 22.3799 33.204 23.0825 33.204C22.1926 32.9696 21.0685 33.204 20.5533 33.7196C19.9912 34.2352 20.0848 36.0633 19.8506 37.2352C19.6165 38.454 18.8202 39.0633 17.6024 40.1883C16.9467 40.7977 16.4783 40.9852 16.1036 40.9852C15.3074 40.8446 14.3706 40.6102 13.7148 40.3759C13.2465 39.7664 12.5438 37.7509 12.3565 36.9071C12.4971 36.4383 13.0591 35.454 13.3402 34.8914C13.9022 33.8133 14.2301 33.204 14.3237 32.6414C14.5111 31.8446 15.1199 26.9227 15.3542 24.8602C15.9631 25.6571 16.8062 26.9696 16.6188 27.8133C17.9772 25.8914 16.9935 24.0164 16.5252 23.2664C16.1036 22.5164 15.5415 21.0164 16.0099 19.4227C16.4783 17.829 18.1645 13.4227 18.1645 13.4227C18.1645 13.4227 18.7265 14.4071 19.5228 14.2196C20.3191 14.0321 26.7358 4.37585 26.7358 4.37585C26.7358 4.37585 28.4689 8.17267 26.6422 10.9383C24.7687 13.704 22.9419 14.2196 22.9419 14.2196C22.9419 14.2196 25.5181 14.6883 27.9068 12.954C28.8904 15.2509 29.8272 17.6414 29.8741 17.9696C29.7335 18.2977 27.8599 22.7977 27.6726 23.079C27.5789 23.1727 26.9233 23.3602 26.4548 23.454C25.6586 23.6883 25.1902 23.829 25.0028 23.9696C24.6749 24.2509 23.1762 28.3759 22.4736 30.3914C21.6305 30.6259 20.7874 31.0946 20.1785 32.0321C20.5064 31.7977 21.5368 31.6571 22.2863 31.5633C22.9419 31.5164 24.9561 32.5946 25.4713 34.6102C25.4713 34.6571 25.4713 34.6571 25.4713 34.704C25.5649 35.454 25.3307 36.1571 24.9561 36.7196ZM20.5533 37.2821C20.9747 36.6727 20.9279 35.6414 20.9747 35.3133C21.0216 34.9852 21.1153 34.3759 21.4899 34.2821C21.8647 34.1883 22.7546 34.329 22.7546 34.9852C22.7546 35.5946 22.0989 35.7352 21.6305 36.1571C21.3026 36.4852 20.6469 37.1883 20.5533 37.2821ZM39.2417 28.329C39.7101 25.9383 39.7569 23.8759 39.6164 22.1883C41.4431 24.6259 42.5672 27.579 42.8951 30.6259C42.9419 31.0009 43.3166 31.3759 43.6913 31.7509C44.0192 32.0321 44.3939 32.4071 44.3939 32.6414C44.3939 33.7196 44.3002 34.7977 44.1128 35.8759C44.0661 36.0164 43.6445 36.2509 43.3166 36.4383C42.8483 36.6727 42.4267 36.9071 42.3331 37.2821C41.3026 40.8914 39.1012 44.079 36.1504 46.329C40.5063 41.7821 42.6141 34.2821 39.2417 28.329ZM36.2908 46.7509C39.3354 44.4071 41.6773 41.1259 42.7077 37.4227C42.7545 37.2821 43.1761 37.0477 43.4572 36.8602C43.9255 36.6259 44.3939 36.3446 44.4876 35.9696C44.6749 34.8914 44.7686 33.7664 44.7686 32.6414C44.7686 32.2196 44.3471 31.7977 43.9255 31.3759C43.6913 31.0946 43.3166 30.7664 43.3166 30.5321C42.9419 27.1102 41.5836 23.8759 39.4758 21.204C38.5392 15.579 34.7921 13.8446 34.6984 13.7977C34.7921 13.9383 37.2276 17.454 35.5415 21.579C33.8085 25.7509 29.3588 25.0946 28.9842 25.1414C28.6094 25.1414 27.1574 27.0164 25.3307 30.4852C25.0965 30.3914 24.1129 30.1571 22.9888 30.3446C23.8319 28.0009 25.0965 24.6727 25.3307 24.3914C25.4244 24.2977 26.1269 24.1102 26.5954 23.9696C27.4853 23.7352 27.9068 23.5946 28.0474 23.4071C28.1411 23.2664 28.6094 22.1883 29.0778 21.0633C29.4993 21.0633 30.5766 20.9696 30.6703 20.9227C30.7639 20.829 31.6538 18.5321 31.6538 18.2509C31.6538 18.0164 29.8272 13.4696 29.1246 11.7352C29.4525 11.3602 29.7804 10.8914 30.1083 10.3759C39.7101 11.4071 47.2042 19.5633 47.2042 29.454C47.2042 37.0477 42.7545 43.6571 36.2908 46.7509Z" fill="#0A192B"/>
<path d="M23.8319 21.4383C24.7218 20.4071 24.2534 18.4852 22.6141 18.1571C23.0356 17.1727 23.6446 15.204 23.6446 15.204C23.6446 15.204 18.867 22.704 18.4454 22.8446C18.0239 22.9852 17.6023 21.3446 17.6023 21.3446C16.7124 24.7664 19.1012 25.2352 19.3822 24.1571C20.6937 23.829 22.9419 22.4227 23.8319 21.4383Z" fill="#0A192B"/>
<path d="M19.7571 23.2666L22.1926 19.0948C22.1926 19.0948 23.5977 19.7979 22.8952 20.9229C22.0053 22.2353 19.7571 23.2666 19.7571 23.2666Z" fill="#FFD923"/>
<path d="M49.8739 42.579C49.1713 43.5166 48.375 44.5009 47.4382 45.4385C53.4805 33.8135 47.7193 23.1728 47.4851 22.7509C47.9067 23.1728 48.3282 23.6416 48.7029 24.0633C53.3399 29.2197 53.902 36.954 49.8739 42.579Z" fill="#D82122"/>
<path d="M55.4945 27.6259C53.3868 21.954 50.3892 17.1259 43.7849 12.7665C37.4149 8.54779 30.5766 8.87591 30.2018 8.92279C30.155 8.92279 30.1082 8.92279 30.1082 8.92279C30.3424 8.82902 30.5766 8.78213 30.8107 8.73524C32.2627 8.26646 34.1363 7.89152 36.0098 7.65714C40.9746 6.95402 45.9864 8.64146 49.4055 12.2509C49.4524 12.2978 49.4524 12.2978 49.4992 12.3447C53.3868 16.4697 55.4008 21.6259 55.4945 27.6259Z" fill="#D82122"/>
<path d="M42.2861 4.42288C35.3072 3.11038 30.8107 3.76662 27.5789 4.98538C27.4852 4.61038 27.1574 3.86038 26.8764 3.251C25.8927 4.42288 24.8622 5.82912 24.2066 6.71975C22.4267 7.9385 21.6772 9.11034 21.6772 9.11034C22.7077 5.59475 25.7054 2.96975 29.3587 2.3135C30.3891 2.126 31.5132 2.03226 32.7311 2.03226C35.9629 2.07912 39.1948 2.876 42.2861 4.42288Z" fill="#D82122"/>
<path d="M16.4781 13.4229C10.998 13.2353 12.8247 6.86038 12.9185 6.48538C12.9185 6.53226 13.2931 11.501 16.4781 13.4229Z" fill="#D82122"/>
<path d="M21.8645 1.93842C17.649 4.46968 18.4921 10.5166 18.4921 10.5166C14.464 4.37592 21.5367 2.07905 21.8645 1.93842Z" fill="#D82122"/>
<path d="M14.9325 15.1102C15.2135 15.3447 15.4945 15.7665 15.1667 16.3759C14.9793 16.704 14.6983 16.6571 14.2767 16.4697C13.7147 16.1883 10.3423 14.2197 7.29785 12.204C10.7638 13.4228 14.2767 14.7352 14.8388 15.0165C14.8388 15.0165 14.8856 15.0633 14.9325 15.1102Z" fill="white"/>
</svg>
