<svg width="197" height="30" viewBox="0 0 197 30" fill="none" xmlns="http://www.w3.org/2000/svg">
<path d="M186.849 8.52523e-05C181.378 8.52523e-05 176.902 4.45457 176.902 10.0006C176.902 15.5007 181.332 19.9994 186.849 19.9994C192.319 19.9994 196.795 15.5449 196.795 10.0006C196.795 4.45457 192.363 8.52523e-05 186.849 8.52523e-05ZM186.849 17.228C185.896 17.2268 184.952 17.0375 184.073 16.671C183.193 16.3045 182.394 15.7681 181.722 15.0925C181.05 14.4168 180.518 13.6152 180.157 12.7336C179.795 11.8519 179.611 10.9076 179.615 9.95467C179.615 5.95579 182.869 2.6813 186.849 2.6813C187.801 2.68302 188.745 2.87261 189.624 3.23922C190.504 3.60583 191.302 4.14227 191.974 4.81784C192.646 5.49341 193.178 6.29484 193.54 7.17628C193.902 8.05772 194.086 9.00186 194.083 9.95467C194.086 10.9075 193.902 11.8516 193.54 12.7331C193.178 13.6145 192.646 14.4159 191.974 15.0915C191.302 15.7671 190.504 16.3035 189.624 16.6701C188.745 17.0367 187.801 17.2263 186.849 17.228ZM75.2226 8.52523e-05C72.4201 8.52523e-05 70.2961 2.22733 69.7077 4.04485V0.772H61.4805V3.50074H67.0413V16.5463H61.4805V19.2734H76.5796V16.5463H69.7077V8.27317C69.7077 7.04401 70.7927 2.54527 74.4556 2.54527C75.5864 2.54527 76.6255 2.86322 77.304 3.63677C77.0296 4.00306 76.8864 4.45102 76.8975 4.90854C76.8975 6.09018 77.8464 7.04565 79.0215 7.04565C80.2867 7.04565 81.1013 6.00004 81.1013 4.72663C81.1013 2.6813 78.7511 8.52523e-05 75.2242 8.52523e-05H75.2226ZM145.572 8.52523e-05C142.769 8.52523e-05 140.644 2.22733 140.055 4.04485V0.772H131.828V3.50074H137.387V16.5463H131.826V19.2734H146.927V16.5463H140.057V8.27317C140.057 7.04401 141.142 2.54527 144.805 2.54527C145.936 2.54527 146.975 2.86322 147.653 3.63677C147.378 4.00285 147.234 4.45082 147.245 4.90854C147.245 6.09018 148.196 7.04565 149.371 7.04565C150.636 7.04565 151.45 6.00004 151.45 4.72663C151.447 2.6813 149.143 8.52523e-05 145.572 8.52523e-05ZM100.632 8.72714C101.807 8.72714 102.757 7.77167 102.757 6.59004V6.31798C102.485 3.86294 98.6423 0.0443351 93.7141 0.0443351C88.1534 0.0443351 83.6333 4.54471 83.6333 10.0448C83.6333 15.5908 88.1534 20.0453 93.7141 20.0453C95.5359 20.0521 97.3248 19.5602 98.8869 18.6227C100.449 17.6852 101.725 16.338 102.576 14.7271L100.406 13.2275C99.0946 15.6367 96.6084 17.2723 93.7141 17.2723C89.6907 17.2723 86.526 13.9994 86.526 9.99892C86.526 6.00004 89.6907 2.72719 93.7141 2.72719C95.9758 2.72719 97.8277 3.59088 99.0946 5.04457C98.734 5.4084 98.5079 5.95415 98.5079 6.54415C98.5079 7.77331 99.4568 8.72714 100.632 8.72714ZM167.454 3.50074H169.714L164.876 16.0907L159.587 3.54663H161.893V0.773639H153.981V3.50074H156.693L163.475 19.7732L159.723 29.5H162.618L172.608 3.54663H175.413V0.773639H167.456V3.50074H167.454ZM32.5903 7.86345C32.5903 3.00088 29.3797 8.52523e-05 25.4005 8.52523e-05C22.2801 8.52523e-05 19.7037 2.27322 18.5729 4.54471C17.4896 1.68158 14.9133 8.52523e-05 11.9748 8.52523e-05C9.0346 8.52523e-05 6.50417 2.22733 5.73389 4.04485V0.772H0.128906V3.50074H3.02318V19.2275H5.73389V8.1814C5.73389 6.90962 7.22528 2.40925 11.6109 2.40925C13.6907 2.40925 16.4948 4.27266 16.4948 8.13715V19.2275H19.2055V8.13715C19.2055 6.86373 20.5625 2.40925 25.0383 2.40925C27.1181 2.40925 29.9222 4.09074 29.9222 7.90934V19.1816H35.5272V16.5004H32.6329L32.5886 7.86345H32.5903ZM48.4137 8.52523e-05C47.1053 -0.0053429 45.8088 0.248495 44.5991 0.746938C43.3894 1.24538 42.2904 1.97855 41.3656 2.90411C40.4408 3.82967 39.7085 4.92928 39.211 6.13943C38.7136 7.34957 38.4608 8.64628 38.4673 9.95467C38.4673 10.1349 38.5132 10.8642 38.5132 11.0003C39.0098 16.0448 43.3053 19.9994 48.5039 19.9994C50.3257 20.0064 52.1147 19.5145 53.6768 18.577C55.2389 17.6395 56.5145 16.2922 57.3653 14.6812L55.1954 13.1816C53.8843 15.5908 51.3981 17.228 48.5039 17.228C46.7319 17.232 45.0184 16.594 43.6804 15.4323C42.3424 14.2705 41.4703 12.6635 41.2256 10.9085H57.9094C57.9537 10.5906 57.9537 10.2267 57.9537 9.90878C57.9979 4.40868 53.9286 8.52523e-05 48.4137 8.52523e-05ZM41.3616 8.22728C41.7329 6.63595 42.6321 5.21722 43.9126 4.20213C45.1931 3.18704 46.7796 2.6354 48.4137 2.63705C51.8505 2.63705 54.3366 5.04621 55.1053 8.22728H41.3616ZM124.774 0.773639H122.062V11.7279C122.062 14.2272 119.486 17.5919 116.185 17.5919C114.103 17.5919 111.347 15.6367 111.347 12.0459V0.773639H105.742V3.50074H108.635V12.2262C108.635 17.0904 111.845 19.9535 115.823 19.9535C118.625 19.9535 120.797 18.2261 122.062 16.407V19.2717H127.667V16.5446H124.774V0.773639Z" fill="white"/>
</svg>
