<svg width="71" height="70" viewBox="0 0 71 70" fill="none" xmlns="http://www.w3.org/2000/svg">
<g clip-path="url(#clip0_457_2008)">
<path d="M5.23616 8.66753L2.89066 1.24505V8.66753H1.69702V0.153397H3.69835L5.86877 7.24719L8.0392 0.153397H10.0445V8.66753H8.8509V1.24505L6.50342 8.66753H5.23616Z" fill="black"/>
<path d="M13.8423 8.66753H12.6487V0.153397H13.8423V8.66753Z" fill="black"/>
<path d="M19.1659 0C20.7037 0 22.0525 0.693243 22.3927 2.32475H21.2309C20.9504 1.35063 19.9636 1.00998 19.1201 1.00998C18.4636 1.00998 17.3138 1.30282 17.3138 2.25503C17.3138 3.00604 17.9106 3.38254 18.7063 3.55784L19.6831 3.78494C20.9842 4.06582 22.5439 4.55987 22.5439 6.27304C22.5439 7.93043 20.9961 8.82291 19.3071 8.82291C17.3018 8.82291 16.0346 7.7193 15.8118 6.034H16.9855C17.2083 7.2073 18.0061 7.82687 19.331 7.82687C20.5982 7.82687 21.3204 7.22922 21.3204 6.39256C21.3204 5.49017 20.5565 5.13756 19.4902 4.89052L18.4338 4.66743C17.26 4.40848 16.1002 3.75107 16.1002 2.34069C16.0942 0.693243 17.7952 0 19.1659 0Z" fill="black"/>
<path d="M27.3881 0C28.9239 0 30.2727 0.693243 30.6129 2.32475H29.4611C29.1805 1.35063 28.1958 1.00998 27.3503 1.00998C26.6938 1.00998 25.5439 1.30282 25.5439 2.25503C25.5439 3.00604 26.1308 3.38254 26.9365 3.55784L27.9034 3.78494C29.2044 4.06582 30.7661 4.55987 30.7661 6.27304C30.7661 7.93043 29.2164 8.82291 27.5274 8.82291C25.5221 8.82291 24.2548 7.7193 24.032 6.034H25.2057C25.4285 7.2073 26.2263 7.82687 27.5512 7.82687C28.8185 7.82687 29.5406 7.22922 29.5406 6.39256C29.5406 5.49017 28.7767 5.13756 27.7104 4.89052L26.654 4.66743C25.4822 4.40848 24.3205 3.75107 24.3205 2.34069C24.3145 0.693243 26.0154 0 27.3881 0Z" fill="black"/>
<path d="M33.9651 8.66753H32.7715V0.153397H33.9651V8.66753Z" fill="black"/>
<path d="M40.146 8.82091C37.707 8.82091 36.1672 6.97626 36.1672 4.40448C36.1672 1.83271 37.707 0 40.146 0C42.585 0 44.1248 1.83271 44.1248 4.40448C44.1248 6.97626 42.591 8.82091 40.146 8.82091ZM40.146 7.81091C41.6938 7.81091 42.9152 6.60174 42.9152 4.40448C42.9152 2.20722 41.6938 1.01795 40.146 1.01795C38.5983 1.01795 37.3788 2.2132 37.3788 4.40448C37.3788 6.59574 38.5863 7.81091 40.146 7.81091Z" fill="black"/>
<path d="M51.4158 8.66753L47.5206 1.39446V8.66753H46.3271V0.153397H48.0858L51.9689 7.39858V0.153397H53.1628V8.66753H51.4158Z" fill="black"/>
<path d="M27.9749 30.5663C29.5107 30.5663 30.8595 31.2576 31.1997 32.8911H30.0399C29.7574 31.917 28.7727 31.5763 27.9271 31.5763C27.2707 31.5763 26.1208 31.8692 26.1208 32.8214C26.1208 33.5724 26.7176 33.9489 27.5134 34.1242L28.5081 34.3473C29.8111 34.6302 31.3708 35.1222 31.3708 36.8374C31.3708 38.4928 29.8231 39.3853 28.1341 39.3853C26.1268 39.3853 24.8615 38.2817 24.6387 36.5964H25.8105C26.0333 37.7717 26.831 38.3893 28.1559 38.3893C29.4232 38.3893 30.1453 37.8036 30.1453 36.957C30.1453 36.0525 29.3834 35.7 28.3151 35.4529L27.2587 35.2298C26.087 34.9728 24.9252 34.3154 24.9252 32.905C24.9013 31.2576 26.6022 30.5663 27.9749 30.5663Z" fill="black"/>
<path d="M34.9994 31.7517H32.2302V30.7178H38.9623V31.7517H36.1951V39.2439H35.0014L34.9994 31.7517Z" fill="black"/>
<path d="M43.9002 35.6402C43.6774 35.6522 43.4785 35.6522 43.2557 35.6522H41.7537V39.2379H40.5601V30.7178H43.2577C45.3208 30.7178 46.7986 31.1302 46.7986 33.174C46.7986 34.5246 46.1543 35.1661 45.1099 35.451L47.0812 39.2359H45.7443L43.9002 35.6402ZM41.7537 31.7278V34.6402H43.3452C44.6004 34.6402 45.5612 34.5127 45.5612 33.1959C45.5612 31.8792 44.6004 31.7278 43.3452 31.7278H41.7537Z" fill="black"/>
<path d="M49.1064 30.7178H54.8756V31.7517H50.2999V34.3414H54.6069V35.3753H50.3021V38.206H54.8778V39.2439H49.1086L49.1064 30.7178Z" fill="black"/>
<path d="M56.8806 30.7178H62.6502V31.7517H58.0745V34.3414H62.3793V35.3753H58.0763V38.206H62.6519V39.2439H56.8828L56.8806 30.7178Z" fill="black"/>
<path d="M66.4141 31.7517H63.6467V30.7178H70.3789V31.7517H67.6115V39.2439H66.418L66.4141 31.7517Z" fill="black"/>
<path d="M2.12672 61.2843L4.48615 68.5652L6.79585 61.2843H8.05116L5.16455 69.7983H3.73416L0.813721 61.2843H2.12672Z" fill="black"/>
<path d="M10.3628 61.2843H16.132V62.3183H11.5564V64.9078H15.8615V65.9378H11.5564V68.7665H16.132V69.7983H10.3628V61.2843Z" fill="black"/>
<path d="M23.823 69.7983L19.9278 62.5291V69.7983H18.7341V61.2843H20.4948L24.3741 68.5274V61.2843H25.5677V69.7983H23.823Z" fill="black"/>
<path d="M30.5295 62.3183H27.7622V61.2843H34.4943V62.3183H31.7271V69.7983H30.5334L30.5295 62.3183Z" fill="black"/>
<path d="M37.753 61.2843V66.4635C37.753 68.143 38.3498 68.9178 39.9413 68.9178C41.5706 68.9178 42.1695 68.0135 42.1695 66.3283V61.2843H43.3631V66.2404C43.3631 68.7304 42.4142 69.9517 39.9393 69.9517C37.5819 69.9517 36.5574 68.9896 36.5574 66.3339V61.2843H37.753Z" fill="black"/>
<path d="M49.7846 66.2048C49.562 66.2165 49.3628 66.2165 49.1402 66.2165H47.6381V69.8022H46.4446V61.2843H49.142C51.2072 61.2843 52.6833 61.6944 52.6833 63.7383C52.6833 65.0891 52.0385 65.7304 50.9942 66.0174L52.9659 69.8022H51.6289L49.7846 66.2048ZM47.6381 62.2943V65.2065H49.2298C50.485 65.2065 51.4459 65.077 51.4459 63.7622C51.4459 62.4474 50.485 62.2943 49.2298 62.2943H47.6381Z" fill="black"/>
<path d="M55.5898 61.2843H61.359V62.3183H56.7833V64.9078H61.0925V65.9378H56.7855V68.7665H61.3612V69.7983H55.5916L55.5898 61.2843Z" fill="black"/>
<path d="M66.6825 61.1309C68.2203 61.1309 69.5695 61.824 69.9095 63.4557H68.7477C68.4673 62.4814 67.4803 62.1409 66.6369 62.1409C65.9803 62.1409 64.8308 62.4357 64.8308 63.3857C64.8308 64.137 65.4173 64.5135 66.2234 64.6905L67.2077 64.914C68.509 65.1948 70.0686 65.6888 70.0686 67.404C70.0686 69.0592 68.5208 69.9518 66.8321 69.9518C64.8264 69.9518 63.5595 68.8483 63.3364 67.1627H64.5103C64.7329 68.3361 65.5308 68.9557 66.856 68.9557C68.1229 68.9557 68.8451 68.3679 68.8451 67.5235C68.8451 66.6192 68.0834 66.2666 67.0151 66.0192L65.9608 65.7961C64.7869 65.5374 63.6269 64.8801 63.6269 63.4696C63.6112 61.824 65.3099 61.1309 66.6825 61.1309Z" fill="black"/>
<path d="M21.8277 30.7318H1.59155V39.222H21.8277V30.7318Z" fill="black"/>
<path d="M70.3789 0H56.9006V8.69565H70.3789V0Z" fill="black"/>
<path d="M70.3789 15.2932H1.59155V23.7834H70.3789V15.2932Z" fill="black"/>
<path d="M70.3789 46.1721H1.59155V54.6626H70.3789V46.1721Z" fill="black"/>
</g>
<defs>
<clipPath id="clip0_457_2008">
<rect width="69.5652" height="70" fill="black" transform="translate(0.813721)"/>
</clipPath>
</defs>
</svg>
