<svg width="399" height="90" viewBox="0 0 399 90" fill="none" xmlns="http://www.w3.org/2000/svg">
<path d="M67.965 90H0C0 90 1.8922e-06 79.7469 1.8922e-06 67.0729V22.9273C1.8922e-06 10.2532 10.3896 5.43231e-05 23.2322 5.43231e-05H68.1092C80.8076 5.43231e-05 91.1972 0 91.1972 0V67.2152C91.1972 79.7469 80.8076 90 67.965 90Z" fill="#CAF451"/>
<path d="M50.3608 44.9998C50.3608 33.6073 40.9813 24.2087 29.2931 24.2087V33.465C35.6422 33.465 40.8371 38.5916 40.8371 44.8573C40.8371 56.2498 50.2164 65.6486 61.9046 65.6486V56.3921C55.5555 56.3921 50.3608 51.2655 50.3608 44.9998Z" fill="#1E1E1E"/>
<path d="M19.7692 56.5349C19.7692 61.6615 23.954 65.7912 29.1487 65.7912V33.6077H19.7692V56.5349Z" fill="#1E1E1E"/>
<path d="M61.904 24.0664V56.3923H71.2835V33.465C71.4279 28.3384 67.0989 24.0664 61.904 24.0664Z" fill="#1E1E1E"/>
<path d="M153.967 25.4904V52.6896L146.464 44.1454L132.322 28.4809L129.725 25.4904H119.769V64.6517H129.148V37.1676L153.679 64.5094H163.491V25.4904H153.967Z" fill="#04111D"/>
<path d="M205.915 32.6105V25.6327H171.139V64.794H180.951V49.5568H205.915V42.5788H180.951V32.6105H205.915Z" fill="#04111D"/>
<path d="M213.563 25.6327V32.753H228.28V64.6518H238.238V32.753H252.957V25.6327H213.563Z" fill="#04111D"/>
<path d="M347.04 25.6327C347.04 26.9143 347.04 37.7373 347.184 57.9588L316.305 25.6327H310.533V64.6518H315.873C315.873 62.8005 315.873 51.9776 315.727 32.3257L346.751 64.6518H352.235V25.6327H347.04Z" fill="#04111D"/>
<path d="M365.655 59.9523V46.7088H395.814V42.1518H365.655V30.4745H396.534V25.6327H360.028V64.794H397.978V59.9523H365.655Z" fill="#04111D"/>
<path d="M291.051 25.6327H270.705C264.355 25.6327 259.305 30.7593 259.305 36.8827V52.8322C259.305 59.2404 264.645 64.5093 271.137 64.5093H291.484C297.833 64.5093 302.884 59.3827 302.884 53.2593V37.4523C302.884 30.9018 297.544 25.6327 291.051 25.6327ZM291.34 59.3827H270.994C267.385 59.3827 264.501 56.5346 264.501 52.9745V37.0252C264.501 33.7498 267.242 31.044 270.561 31.044H290.762C294.37 31.044 297.257 33.8921 297.257 37.4523V53.2593C297.544 56.6771 294.803 59.3827 291.34 59.3827Z" fill="#04111D"/>
</svg>
