<svg width="178" height="41" viewBox="0 0 178 41" fill="none" xmlns="http://www.w3.org/2000/svg">
<path d="M30.6997 40.5H0.493042C0.493042 40.5 0.493043 35.943 0.493043 30.3102V10.6899C0.493043 5.05699 5.11062 0.500024 10.8185 0.500024H30.7638C36.4075 0.500024 41.0251 0.5 41.0251 0.5V30.3734C41.0251 35.943 36.4075 40.5 30.6997 40.5Z" fill="#CAF451"/>
<path d="M22.8755 20.4999C22.8755 15.4365 18.7068 11.2594 13.5121 11.2594V15.3733C16.3339 15.3733 18.6427 17.6518 18.6427 20.4365C18.6427 25.4999 22.8113 29.6771 28.0061 29.6771V25.5631C25.1843 25.5631 22.8755 23.2846 22.8755 20.4999Z" fill="#1E1E1E"/>
<path d="M9.27917 25.6267C9.27917 27.9051 11.1391 29.7406 13.4478 29.7406V15.4368H9.27917V25.6267Z" fill="#1E1E1E"/>
<path d="M28.0061 11.1962V25.5632H32.1748V15.3733C32.239 13.0948 30.315 11.1962 28.0061 11.1962Z" fill="#1E1E1E"/>
<path d="M68.9229 11.829V23.9176L65.588 20.1202L59.3029 13.1582L58.1485 11.829H53.7234V29.2341H57.892V17.0189L68.7946 29.1709H73.1557V11.829H68.9229Z" fill="#1E1E1E"/>
<path d="M92.0108 14.9935V11.8923H76.5548V29.2973H80.9159V22.5252H92.0108V19.4239H80.9159V14.9935H92.0108Z" fill="#1E1E1E"/>
<path d="M95.4099 11.8923V15.0568H101.951V29.2341H106.377V15.0568H112.919V11.8923H95.4099Z" fill="#1E1E1E"/>
<path d="M154.733 11.8923C154.733 12.4619 154.733 17.2721 154.797 26.2594L141.073 11.8923H138.507V29.2341H140.881C140.881 28.4113 140.881 23.6011 140.816 14.8669L154.604 29.2341H157.042V11.8923H154.733Z" fill="#1E1E1E"/>
<path d="M163.006 27.1454V21.2594H176.41V19.2341H163.006V14.0442H176.73V11.8923H160.505V29.2973H177.372V27.1454H163.006Z" fill="#1E1E1E"/>
<path d="M129.849 11.8923H120.806C117.985 11.8923 115.74 14.1708 115.74 16.8923V23.9809C115.74 26.829 118.113 29.1707 120.999 29.1707H130.042C132.864 29.1707 135.108 26.8923 135.108 24.1707V17.1454C135.108 14.2341 132.735 11.8923 129.849 11.8923ZM129.978 26.8923H120.935C119.331 26.8923 118.049 25.6265 118.049 24.0442V16.9556C118.049 15.4999 119.267 14.2973 120.743 14.2973H129.721C131.325 14.2973 132.607 15.5631 132.607 17.1454V24.1707C132.735 25.6898 131.517 26.8923 129.978 26.8923Z" fill="#1E1E1E"/>
</svg>
