<svg width="175" height="41" viewBox="0 0 175 41" fill="none" xmlns="http://www.w3.org/2000/svg">
<g clip-path="url(#clip0_457_2028)">
<path d="M40 20.5C40 31.5451 31.0451 40.5 20 40.5C8.95492 40.5 0 31.5451 0 20.5C0 9.45492 8.95492 0.5 20 0.5C31.0474 0.5 40 9.45492 40 20.5Z" fill="#2081E2"/>
<path d="M9.8672 21.172L9.95348 21.0364L15.1563 12.8973C15.2323 12.7781 15.4111 12.7904 15.4686 12.9199C16.3378 14.8678 17.0878 17.2905 16.7364 18.7987C16.5864 19.4193 16.1755 20.2597 15.7131 21.0364C15.6536 21.1494 15.5878 21.2604 15.5179 21.3672C15.485 21.4165 15.4296 21.4453 15.37 21.4453H10.0192C9.8754 21.4453 9.79116 21.2891 9.8672 21.172Z" fill="white"/>
<path d="M33.0578 22.6844V23.9728C33.0578 24.0467 33.0126 24.1125 32.9468 24.1412C32.5441 24.3138 31.1653 24.9467 30.592 25.744C29.129 27.7803 28.0112 30.692 25.5125 30.692H15.0884C11.3939 30.692 8.40002 27.6879 8.40002 23.981V23.8618C8.40002 23.7632 8.48014 23.683 8.57878 23.683H14.3898C14.5049 23.683 14.5891 23.7899 14.5789 23.9029C14.5377 24.281 14.6076 24.6673 14.7864 25.0186C15.1316 25.7194 15.8467 26.157 16.6193 26.157H19.496V23.9111H16.6521C16.5063 23.9111 16.42 23.7426 16.5042 23.6234C16.535 23.5762 16.57 23.5269 16.6069 23.4714C16.8761 23.0892 17.2604 22.4954 17.6426 21.8193C17.9035 21.3632 18.1563 20.8762 18.3597 20.3871C18.4008 20.2988 18.4337 20.2083 18.4665 20.12C18.522 19.9638 18.5796 19.8179 18.6207 19.672C18.6618 19.5487 18.6946 19.4193 18.7275 19.298C18.8241 18.883 18.8652 18.4432 18.8652 17.9871C18.8652 17.8083 18.857 17.6213 18.8405 17.4426C18.8323 17.2474 18.8077 17.0521 18.783 16.8569C18.7665 16.6843 18.7357 16.5138 18.7029 16.335C18.6618 16.074 18.6042 15.8152 18.5385 15.5542L18.5159 15.4556C18.4665 15.2768 18.4255 15.1062 18.3679 14.9275C18.2056 14.3665 18.0186 13.8199 17.8213 13.3083C17.7494 13.1048 17.6672 12.9096 17.585 12.7144C17.4638 12.4206 17.3405 12.1535 17.2275 11.9007C17.17 11.7856 17.1207 11.6808 17.0713 11.574C17.0159 11.4528 16.9583 11.3315 16.9008 11.2165C16.8597 11.1281 16.8124 11.0459 16.7795 10.9637L16.4282 10.3144C16.3789 10.226 16.4611 10.1212 16.5576 10.148L18.7563 10.7438H18.7625C18.7665 10.7438 18.7686 10.7459 18.7707 10.7459L19.0604 10.826L19.3789 10.9165L19.496 10.9493V9.64248C19.496 9.01164 20.0015 8.5 20.6262 8.5C20.9385 8.5 21.2221 8.6274 21.4255 8.83492C21.6289 9.04248 21.7563 9.32604 21.7563 9.64248V11.5822L21.9906 11.648C22.0091 11.6542 22.0275 11.6624 22.044 11.6747C22.1015 11.7178 22.1837 11.7815 22.2885 11.8596C22.3707 11.9254 22.4591 12.0055 22.5659 12.0877C22.7775 12.2582 23.0303 12.4781 23.3077 12.7309C23.3817 12.7946 23.4536 12.8603 23.5193 12.9261C23.8769 13.259 24.2776 13.6494 24.6598 14.0809C24.7666 14.2021 24.8714 14.3254 24.9783 14.4548C25.0851 14.5864 25.1981 14.7158 25.2967 14.8453C25.4262 15.0179 25.5659 15.1966 25.6872 15.3836C25.7447 15.472 25.8105 15.5624 25.8659 15.6508C26.0221 15.887 26.1598 16.1316 26.2913 16.3761C26.3468 16.4891 26.4043 16.6124 26.4536 16.7336C26.5995 17.0604 26.7146 17.3932 26.7885 17.7261C26.8111 17.798 26.8276 17.8761 26.8358 17.946V17.9624C26.8605 18.061 26.8687 18.1658 26.8769 18.2727C26.9098 18.6138 26.8933 18.9549 26.8194 19.298C26.7885 19.444 26.7475 19.5816 26.6981 19.7275C26.6488 19.8672 26.5995 20.0131 26.5358 20.1508C26.4125 20.4364 26.2666 20.722 26.094 20.9892C26.0385 21.0878 25.9728 21.1926 25.907 21.2912C25.8351 21.396 25.7611 21.4946 25.6954 21.5912C25.605 21.7145 25.5084 21.844 25.4098 21.959C25.3214 22.0803 25.231 22.2015 25.1324 22.3084C24.9947 22.4707 24.8632 22.6248 24.7255 22.7728C24.6433 22.8693 24.555 22.968 24.4645 23.0563C24.3762 23.1549 24.2858 23.2433 24.2036 23.3255C24.0659 23.4632 23.9509 23.57 23.8543 23.6584L23.6283 23.8659C23.5954 23.8947 23.5522 23.9111 23.507 23.9111H21.7563V26.157H23.9591C24.4522 26.157 24.9207 25.9824 25.2988 25.6618C25.4283 25.5488 25.9933 25.0598 26.6611 24.3221C26.6837 24.2974 26.7125 24.2789 26.7454 24.2707L32.8297 22.5118C32.9427 22.4789 33.0578 22.5652 33.0578 22.6844Z" fill="white"/>
<path d="M59.4892 30.0986C57.6812 30.0986 56.0192 29.6935 54.5036 28.8831C53.006 28.0728 51.8096 26.9454 50.9148 25.5009C50.0384 24.0388 49.6 22.4005 49.6 20.5861C49.6 18.7717 50.0384 17.1422 50.9148 15.6977C51.8096 14.2532 53.006 13.1258 54.5036 12.3155C56.0192 11.5051 57.6812 11.1 59.4892 11.1C61.2972 11.1 62.95 11.5051 64.4476 12.3155C65.9636 13.1258 67.1504 14.2532 68.0088 15.6977C68.8856 17.1422 69.3236 18.7717 69.3236 20.5861C69.3236 22.4005 68.8856 24.0388 68.0088 25.5009C67.1324 26.9454 65.9452 28.0728 64.4476 28.8831C62.95 29.6935 61.2972 30.0986 59.4892 30.0986ZM59.4892 25.9765C61.0232 25.9765 62.2468 25.4833 63.16 24.4968C64.0916 23.5103 64.5572 22.2067 64.5572 20.5861C64.5572 18.9478 64.0916 17.6443 63.16 16.6754C62.2468 15.6889 61.0232 15.1957 59.4892 15.1957C57.9368 15.1957 56.6952 15.6801 55.7636 16.6489C54.8504 17.6178 54.394 18.9302 54.394 20.5861C54.394 22.2243 54.8504 23.5367 55.7636 24.5232C56.6952 25.4921 57.9368 25.9765 59.4892 25.9765Z" fill="#04111D"/>
<path d="M76.6143 17.2567C77.0707 16.5697 77.7007 16.0148 78.5043 15.592C79.3079 15.1692 80.2483 14.9578 81.3259 14.9578C82.5859 14.9578 83.7275 15.2661 84.7503 15.8827C85.7727 16.4992 86.5763 17.38 87.1607 18.525C87.7635 19.6701 88.0647 21.0001 88.0647 22.515C88.0647 24.03 87.7635 25.3688 87.1607 26.5314C86.5763 27.6765 85.7727 28.566 84.7503 29.2002C83.7275 29.8168 82.5859 30.125 81.3259 30.125C80.2667 30.125 79.3263 29.9137 78.5043 29.4909C77.7007 29.0681 77.0707 28.522 76.6143 27.8526V34.3H71.9299V15.1692H76.6143V17.2567ZM83.2983 22.515C83.2983 21.3876 82.9695 20.5068 82.3119 19.8727C81.6727 19.2209 80.8783 18.895 79.9287 18.895C78.9975 18.895 78.2031 19.2209 77.5455 19.8727C76.9063 20.5244 76.5867 21.414 76.5867 22.5414C76.5867 23.6689 76.9063 24.5585 77.5455 25.2102C78.2031 25.862 78.9975 26.1879 79.9287 26.1879C80.8603 26.1879 81.6547 25.862 82.3119 25.2102C82.9695 24.5408 83.2983 23.6424 83.2983 22.515Z" fill="#04111D"/>
<path d="M104.932 22.3036C104.932 22.7264 104.904 23.1668 104.85 23.6248H94.248C94.3212 24.5408 94.6224 25.2455 95.152 25.7387C95.7 26.2143 96.3664 26.4521 97.152 26.4521C98.3208 26.4521 99.1332 25.9765 99.59 25.0253H104.576C104.32 25.9941 103.854 26.8661 103.178 27.6412C102.521 28.4163 101.69 29.0241 100.686 29.4645C99.6812 29.9048 98.558 30.125 97.3164 30.125C95.8188 30.125 94.4856 29.8168 93.3168 29.2002C92.148 28.5837 91.2348 27.7029 90.5772 26.5578C89.92 25.4128 89.5912 24.074 89.5912 22.5414C89.5912 21.0089 89.9108 19.6701 90.55 18.525C91.2072 17.38 92.1204 16.4992 93.2892 15.8827C94.458 15.2661 95.8004 14.9578 97.3164 14.9578C98.7956 14.9578 100.11 15.2573 101.261 15.8563C102.412 16.4552 103.306 17.3095 103.946 18.4193C104.603 19.5291 104.932 20.8239 104.932 22.3036ZM100.138 21.1145C100.138 20.3395 99.864 19.7229 99.316 19.2649C98.768 18.8069 98.0832 18.5779 97.2616 18.5779C96.476 18.5779 95.8096 18.7981 95.2616 19.2385C94.732 19.6789 94.4032 20.3042 94.2756 21.1145H100.138Z" fill="#04111D"/>
<path d="M116.717 15.0107C118.507 15.0107 119.931 15.5744 120.99 16.7018C122.068 17.8116 122.607 19.3442 122.607 21.2995V29.9136H117.95V21.9072C117.95 20.9208 117.685 20.1545 117.155 19.6084C116.626 19.0623 115.914 18.7892 115.019 18.7892C114.124 18.7892 113.412 19.0623 112.882 19.6084C112.352 20.1545 112.088 20.9208 112.088 21.9072V29.9136H107.403V15.1692H112.088V17.1246C112.562 16.4728 113.202 15.9619 114.005 15.592C114.808 15.2044 115.712 15.0107 116.717 15.0107Z" fill="#04111D"/>
<path d="M132.82 30.0986C131.414 30.0986 130.154 29.8784 129.04 29.438C127.926 28.9976 127.031 28.3459 126.355 27.4827C125.698 26.6195 125.35 25.5802 125.314 24.3647H130.3C130.373 25.0517 130.619 25.5802 131.04 25.9501C131.46 26.3024 132.007 26.4786 132.683 26.4786C133.377 26.4786 133.925 26.3288 134.327 26.0294C134.728 25.7123 134.93 25.2807 134.93 24.7346C134.93 24.2766 134.765 23.8979 134.436 23.5984C134.126 23.2989 133.733 23.0523 133.258 22.8585C132.802 22.6647 132.144 22.4445 131.286 22.1979C130.044 21.828 129.03 21.4581 128.245 21.0881C127.46 20.7182 126.784 20.1721 126.218 19.4499C125.652 18.7276 125.369 17.7852 125.369 16.6225C125.369 14.8962 126.017 13.5486 127.314 12.5797C128.61 11.5932 130.3 11.1 132.382 11.1C134.5 11.1 136.208 11.5932 137.504 12.5797C138.801 13.5486 139.495 14.905 139.586 16.6489H134.518C134.482 16.05 134.254 15.5832 133.834 15.2485C133.414 14.8962 132.875 14.72 132.217 14.72C131.651 14.72 131.195 14.8697 130.848 15.1692C130.501 15.4511 130.327 15.8651 130.327 16.4111C130.327 17.0101 130.619 17.4769 131.204 17.8116C131.788 18.1463 132.701 18.5074 133.943 18.895C135.185 19.3001 136.19 19.6877 136.956 20.0576C137.742 20.4275 138.418 20.9648 138.984 21.6695C139.55 22.3741 139.833 23.2813 139.833 24.3911C139.833 25.4481 139.55 26.4081 138.984 27.2713C138.436 28.1345 137.632 28.8215 136.573 29.3323C135.514 29.8432 134.263 30.0986 132.82 30.0986Z" fill="#04111D"/>
<path d="M157.125 22.3036C157.125 22.7264 157.098 23.1668 157.043 23.6248H146.441C146.514 24.5408 146.816 25.2455 147.345 25.7387C147.893 26.2143 148.56 26.4521 149.345 26.4521C150.514 26.4521 151.327 25.9765 151.783 25.0253H156.769C156.513 25.9941 156.048 26.8661 155.372 27.6412C154.714 28.4163 153.884 29.0241 152.879 29.4645C151.874 29.9048 150.751 30.125 149.51 30.125C148.012 30.125 146.679 29.8168 145.51 29.2002C144.341 28.5837 143.428 27.7029 142.77 26.5578C142.113 25.4128 141.784 24.074 141.784 22.5414C141.784 21.0089 142.104 19.6701 142.743 18.525C143.4 17.38 144.314 16.4992 145.482 15.8827C146.651 15.2661 147.994 14.9578 149.51 14.9578C150.989 14.9578 152.304 15.2573 153.454 15.8563C154.605 16.4552 155.5 17.3095 156.139 18.4193C156.796 19.5291 157.125 20.8239 157.125 22.3036ZM152.331 21.1145C152.331 20.3395 152.057 19.7229 151.509 19.2649C150.961 18.8069 150.276 18.5779 149.455 18.5779C148.67 18.5779 148.003 18.7981 147.455 19.2385C146.925 19.6789 146.596 20.3042 146.469 21.1145H152.331Z" fill="#04111D"/>
<path d="M158.665 22.515C158.665 21.0001 158.957 19.6701 159.542 18.525C160.144 17.38 160.957 16.4992 161.98 15.8827C163.002 15.2661 164.144 14.9578 165.404 14.9578C166.481 14.9578 167.422 15.1692 168.226 15.592C169.047 16.0148 169.677 16.5697 170.116 17.2567V15.1692H174.8V29.9137H170.116V27.8262C169.659 28.5132 169.02 29.0681 168.198 29.4909C167.394 29.9137 166.454 30.125 165.376 30.125C164.134 30.125 163.002 29.8168 161.98 29.2002C160.957 28.566 160.144 27.6765 159.542 26.5314C158.957 25.3688 158.665 24.03 158.665 22.515ZM170.116 22.5414C170.116 21.414 169.787 20.5244 169.13 19.8727C168.49 19.2209 167.705 18.895 166.774 18.895C165.842 18.895 165.048 19.2209 164.39 19.8727C163.751 20.5068 163.432 21.3876 163.432 22.515C163.432 23.6424 163.751 24.5408 164.39 25.2102C165.048 25.862 165.842 26.1879 166.774 26.1879C167.705 26.1879 168.49 25.862 169.13 25.2102C169.787 24.5585 170.116 23.6689 170.116 22.5414Z" fill="#04111D"/>
</g>
<defs>
<clipPath id="clip0_457_2028">
<rect width="174.8" height="40" fill="white" transform="translate(0 0.5)"/>
</clipPath>
</defs>
</svg>
