<svg width="201" height="41" viewBox="0 0 201 41" fill="none" xmlns="http://www.w3.org/2000/svg">
<g clip-path="url(#clip0_483_3199)">
<path d="M38.9807 28.9309C38.479 28.9309 38.2281 28.8078 37.9773 28.6847C37.8519 28.4386 37.7264 28.1924 37.7264 27.8232V14.0386C37.7264 13.6693 37.8519 13.3001 37.9773 13.177C38.2281 12.9309 38.479 12.8078 38.9807 12.8078H44.8755C47.1331 12.8078 48.7636 13.3001 49.8923 14.1616C50.8957 15.1463 51.5228 16.5001 51.5228 18.3463C51.5228 20.1924 51.0211 21.5463 49.8923 22.5309C48.889 23.3924 47.1331 23.8847 44.8755 23.8847H42.6179V27.7001C42.6179 28.0693 42.4925 28.4386 42.367 28.5617C42.1162 28.8078 41.8654 28.8078 41.3637 28.8078H38.9807V28.9309ZM44.4992 20.4386C45.1263 20.4386 45.628 20.3155 46.0043 19.9463C46.3805 19.577 46.506 19.0847 46.506 18.3463C46.506 17.6078 46.3805 17.1155 46.0043 16.7463C45.628 16.377 45.1263 16.254 44.4992 16.254H42.6179V20.4386H44.4992Z" fill="black"/>
<path d="M57.1668 29.3001C55.6617 29.3001 54.4075 28.8078 53.5295 27.8232C52.6516 26.8386 52.1499 25.4847 52.1499 23.7616C52.1499 22.4078 52.4007 21.3001 53.0279 20.3155C53.655 19.3309 54.5329 18.5924 55.6617 17.977C56.7905 17.4847 58.1701 17.1155 59.5498 17.1155C60.804 17.1155 61.8074 17.2386 62.8107 17.4847C63.8141 17.7309 64.5666 18.1001 65.4446 18.5924V28.0693C65.4446 28.3155 65.4446 28.5616 65.3192 28.6847C65.1938 28.8078 64.9429 28.8078 64.6921 28.8078H62.1836C62.0582 28.8078 61.8074 28.8078 61.8074 28.6847C61.682 28.5616 61.6819 28.5616 61.5565 28.4386L61.1803 27.7001C60.6786 28.1924 60.1769 28.5616 59.5498 28.8078C58.9227 29.177 58.0447 29.3001 57.1668 29.3001ZM58.9227 26.1001C59.5498 26.1001 60.0515 25.977 60.4277 25.6078C60.804 25.3616 60.9294 24.8693 60.9294 24.377V20.6847C60.6786 20.5616 60.1769 20.4386 59.8006 20.4386C58.9227 20.4386 58.2956 20.6847 57.7939 21.3001C57.2922 21.9155 57.0413 22.6539 57.0413 23.7616C57.0413 25.2386 57.6685 26.1001 58.9227 26.1001Z" fill="black"/>
<path d="M68.831 28.9309C68.3293 28.9309 68.0785 28.8078 67.8276 28.6848C67.5768 28.4386 67.5768 28.1924 67.5768 27.8232V18.2232C67.5768 17.977 67.5768 17.7309 67.7022 17.6078C67.8276 17.4847 68.0785 17.4847 68.3293 17.4847H70.8377C71.0886 17.4847 71.214 17.4847 71.214 17.6078C71.3394 17.6078 71.3394 17.7309 71.4649 17.854L71.5903 18.5924C72.092 18.1001 72.5936 17.854 73.3462 17.6078C74.0987 17.3617 74.8512 17.2386 75.8546 17.2386C77.1088 17.2386 78.2376 17.6078 78.9901 18.3463C79.7427 19.0847 80.2444 20.0694 80.2444 21.5463V27.8232C80.2444 28.1924 80.1189 28.5617 79.9935 28.6848C79.8681 28.9309 79.4918 28.9309 78.9901 28.9309H76.6071C76.1054 28.9309 75.8546 28.8078 75.6038 28.6848C75.3529 28.4386 75.3529 28.1924 75.3529 27.8232V21.7924C75.3529 21.3001 75.2275 20.9309 74.9767 20.8078C74.7258 20.5617 74.475 20.4386 73.9733 20.4386C73.4716 20.4386 73.0953 20.5617 72.8445 20.8078C72.5936 21.054 72.4682 21.4232 72.4682 21.7924V27.7001C72.4682 28.0694 72.3428 28.4386 72.2174 28.5617C72.092 28.8078 71.7157 28.8078 71.214 28.8078H68.831V28.9309Z" fill="black"/>
<path d="M88.7732 29.3001C86.5156 29.3001 84.7597 28.8078 83.5055 27.7001C82.2513 26.7155 81.6241 25.2386 81.6241 23.2694C81.6241 22.0386 81.875 21.054 82.5021 20.0694C83.0038 19.2078 83.8817 18.4694 84.8851 17.977C86.0139 17.4847 87.2681 17.2386 88.6478 17.2386C89.7766 17.2386 90.6545 17.3617 91.407 17.6078C92.1596 17.854 92.9121 18.1001 93.4138 18.5924C93.5392 18.7155 93.6646 18.8386 93.6646 18.9617C93.6646 19.0847 93.5392 19.2078 93.4138 19.454L92.4104 21.177C92.285 21.4232 92.1596 21.5463 92.0342 21.5463C91.9087 21.5463 91.7833 21.4232 91.5325 21.3001C91.1562 21.054 90.6545 20.8078 90.2782 20.6847C89.902 20.5617 89.4003 20.4386 88.8986 20.4386C88.1461 20.4386 87.3935 20.6847 86.8919 21.177C86.3902 21.6694 86.1393 22.4078 86.1393 23.2694C86.1393 24.1309 86.3902 24.8694 86.8919 25.3617C87.3935 25.854 88.0207 26.1001 88.8986 26.1001C89.4003 26.1001 89.902 25.977 90.2782 25.854C90.6545 25.7309 91.1562 25.4847 91.5325 25.2386C91.7833 25.1155 91.9087 24.9924 92.0342 24.9924C92.1596 24.9924 92.285 25.1155 92.4104 25.3617L93.5392 27.2078C93.6646 27.3309 93.6646 27.454 93.6646 27.577C93.6646 27.7001 93.5392 27.8232 93.4138 27.9463C92.7867 28.3155 92.0341 28.6847 91.1562 28.9309C90.7799 29.177 89.902 29.3001 88.7732 29.3001Z" fill="black"/>
<path d="M100.187 29.3001C98.6815 29.3001 97.4273 28.8078 96.5493 27.8232C95.6714 26.8386 95.1697 25.4847 95.1697 23.7616C95.1697 22.4078 95.4205 21.3001 96.0476 20.3155C96.6747 19.3309 97.5527 18.5924 98.6815 17.977C99.8103 17.4847 101.19 17.1155 102.57 17.1155C103.824 17.1155 104.827 17.2386 105.831 17.4847C106.834 17.7309 107.586 18.1001 108.464 18.5924V28.0693C108.464 28.3155 108.464 28.5616 108.339 28.6847C108.214 28.8078 107.963 28.8078 107.712 28.8078H105.203C105.078 28.8078 104.827 28.8078 104.827 28.6847C104.702 28.5616 104.702 28.5616 104.576 28.4386L104.2 27.7001C103.698 28.1924 103.197 28.5616 102.57 28.8078C101.942 29.177 101.19 29.3001 100.187 29.3001ZM102.068 26.1001C102.695 26.1001 103.197 25.977 103.573 25.6078C103.949 25.3616 104.075 24.8693 104.075 24.377V20.6847C103.824 20.5616 103.322 20.4386 102.946 20.4386C102.068 20.4386 101.441 20.6847 100.939 21.3001C100.437 21.9155 100.187 22.6539 100.187 23.7616C100.061 25.2386 100.688 26.1001 102.068 26.1001Z" fill="black"/>
<path d="M123.766 28.0693C123.891 28.1924 123.891 28.3155 123.891 28.4386C123.891 28.5617 123.891 28.6847 123.766 28.8078C123.64 28.9309 123.515 28.9309 123.389 28.9309H119.627C119.376 28.9309 119.251 28.9309 119.125 28.9309C119 28.9309 118.874 28.8078 118.749 28.6847L115.488 24.254V27.7001C115.488 28.0693 115.362 28.4386 115.237 28.5617C114.986 28.8078 114.735 28.8078 114.234 28.8078H111.851C111.349 28.8078 111.098 28.6847 110.847 28.5617C110.722 28.3155 110.596 28.0693 110.596 27.7001V14.0386C110.596 13.6693 110.722 13.3001 110.847 13.177C111.098 12.9309 111.349 12.8078 111.851 12.8078H114.234C114.735 12.8078 114.986 12.9309 115.237 13.177C115.488 13.4232 115.488 13.6693 115.488 14.0386V21.9155L118.623 17.854C118.749 17.7309 118.874 17.6078 119 17.6078C119.125 17.6078 119.251 17.4847 119.501 17.4847H123.264C123.389 17.4847 123.515 17.4847 123.64 17.6078C123.766 17.7309 123.766 17.854 123.766 17.977C123.766 18.1001 123.766 18.2232 123.64 18.3463L119.501 23.0232L123.766 28.0693Z" fill="black"/>
<path d="M131.542 29.3C130.162 29.3 129.033 29.0539 127.905 28.6846C126.901 28.1923 126.023 27.577 125.396 26.7154C124.769 25.8539 124.518 24.7462 124.518 23.5154C124.518 21.5462 125.145 19.9462 126.274 18.9616C127.403 17.8539 129.159 17.3616 131.291 17.3616C133.423 17.3616 135.054 17.8539 136.057 18.9616C137.186 19.9462 137.687 21.4231 137.687 23.2693C137.687 24.0077 137.311 24.5 136.684 24.5H129.159C129.159 25.2385 129.41 25.7308 129.911 26.1C130.413 26.4693 131.291 26.5923 132.294 26.5923C132.921 26.5923 133.549 26.5923 133.925 26.4693C134.427 26.3462 134.803 26.1 135.304 25.977C135.555 25.8539 135.681 25.8539 135.681 25.8539C135.806 25.8539 135.932 25.977 136.057 26.1L136.935 27.577C137.06 27.7 137.06 27.8231 137.06 27.9462C137.06 28.0693 136.935 28.1923 136.81 28.3154C136.182 28.6846 135.43 29.0539 134.552 29.3C133.549 29.177 132.671 29.3 131.542 29.3ZM133.423 21.9154C133.423 21.3 133.298 20.8077 132.921 20.5616C132.545 20.1923 132.044 20.0693 131.291 20.0693C130.538 20.0693 130.037 20.1923 129.66 20.5616C129.284 20.9308 129.159 21.3 129.159 21.9154H133.423Z" fill="black"/>
<path d="M146.091 29.3001C144.711 29.3001 143.457 29.177 142.203 28.9308C140.949 28.6847 140.071 28.1924 139.318 27.7001C139.067 27.577 138.942 27.3309 138.942 27.2078C138.942 27.0847 138.942 26.9616 139.067 26.8385L140.196 24.9924C140.321 24.7462 140.447 24.7462 140.572 24.7462C140.698 24.7462 140.823 24.7462 140.949 24.8693C141.576 25.2385 142.203 25.4847 142.955 25.7308C143.708 25.977 144.46 26.1001 145.213 26.1001C145.965 26.1001 146.467 25.977 146.843 25.7308C147.22 25.4847 147.345 25.1155 147.345 24.6232C147.345 24.1309 147.094 23.7616 146.718 23.5155C146.342 23.2693 145.589 22.9001 144.46 22.5308C142.83 21.9155 141.576 21.3001 140.698 20.5616C139.82 19.8232 139.318 18.7155 139.318 17.4847C139.318 15.8847 139.945 14.777 141.074 13.9155C142.203 13.0539 143.708 12.6847 145.589 12.6847C146.969 12.6847 148.098 12.8078 148.976 13.0539C149.979 13.3001 150.731 13.6693 151.359 14.0385C151.609 14.2847 151.735 14.4078 151.735 14.6539C151.735 14.777 151.735 14.9001 151.609 15.0232L150.481 16.8693C150.355 17.1155 150.23 17.1155 150.104 17.1155C149.979 17.1155 149.853 17.1155 149.728 16.9924C148.85 16.377 147.721 16.1308 146.342 16.1308C145.589 16.1308 145.087 16.2539 144.711 16.5001C144.335 16.7462 144.209 17.1155 144.209 17.6078C144.209 17.977 144.335 18.2232 144.46 18.4693C144.711 18.7155 144.962 18.8385 145.213 19.0847C145.589 19.2078 146.091 19.4539 146.718 19.7001L147.22 19.8232C148.348 20.3155 149.352 20.6847 149.979 21.177C150.731 21.5462 151.233 22.1616 151.609 22.777C151.986 23.3924 152.111 24.1308 152.111 24.9924C152.111 26.3462 151.609 27.577 150.481 28.3155C149.728 28.8078 148.098 29.3001 146.091 29.3001Z" fill="black"/>
<path d="M157.504 28.9308C157.253 28.9308 157.128 28.9308 157.002 28.8077C156.877 28.6846 156.752 28.5615 156.752 28.3154L153.616 18.1C153.616 17.9769 153.616 17.9769 153.616 17.8538C153.616 17.6077 153.742 17.4846 154.118 17.4846H157.253C157.504 17.4846 157.63 17.4846 157.755 17.6077C157.88 17.7308 157.88 17.7308 158.006 17.9769L159.26 23.3923L160.891 19.0846C161.016 18.8385 161.016 18.7154 161.141 18.7154C161.267 18.5923 161.392 18.5923 161.643 18.5923H163.148C163.399 18.5923 163.524 18.5923 163.65 18.7154C163.775 18.8385 163.775 18.9615 163.901 19.0846L165.531 23.3923L166.911 17.9769C166.911 17.8538 167.036 17.7308 167.162 17.6077C167.287 17.4846 167.412 17.4846 167.538 17.4846H170.799C171.175 17.4846 171.301 17.6077 171.301 17.8538C171.301 17.8538 171.301 17.9769 171.301 18.1L168.165 28.3154C168.04 28.5615 168.04 28.6846 167.914 28.8077C167.789 28.9308 167.663 28.9308 167.412 28.9308H165.029C164.779 28.9308 164.653 28.9308 164.528 28.8077C164.402 28.6846 164.277 28.5615 164.277 28.3154L162.646 24.0077L161.016 28.3154C160.891 28.5615 160.891 28.6846 160.765 28.8077C160.64 28.9308 160.514 28.9308 160.263 28.9308H157.504Z" fill="black"/>
<path d="M177.07 29.3001C175.565 29.3001 174.311 28.8078 173.433 27.8232C172.555 26.8386 172.053 25.4847 172.053 23.7616C172.053 22.4078 172.304 21.3001 172.931 20.3155C173.558 19.3309 174.436 18.5924 175.565 17.977C176.694 17.4847 178.073 17.1155 179.453 17.1155C180.707 17.1155 181.711 17.2386 182.714 17.4847C183.717 17.7309 184.47 18.1001 185.348 18.5924V28.0693C185.348 28.3155 185.348 28.5616 185.222 28.6847C185.097 28.8078 184.846 28.8078 184.595 28.8078H182.087C181.962 28.8078 181.836 28.8078 181.711 28.6847C181.585 28.5616 181.585 28.5616 181.46 28.4386L181.084 27.7001C180.582 28.1924 180.08 28.5616 179.453 28.8078C178.826 29.177 178.073 29.3001 177.07 29.3001ZM178.951 26.1001C179.579 26.1001 180.08 25.977 180.456 25.6078C180.833 25.3616 180.958 24.8693 180.958 24.377V20.6847C180.707 20.5616 180.206 20.4386 179.829 20.4386C178.951 20.4386 178.324 20.6847 177.823 21.3001C177.321 21.9155 177.07 22.6539 177.07 23.7616C176.945 25.2386 177.572 26.1001 178.951 26.1001Z" fill="black"/>
<path d="M188.734 33.7308C188.232 33.7308 187.981 33.6077 187.731 33.4846C187.605 33.2385 187.48 32.9923 187.48 32.6231V19.0847C188.232 18.5923 189.11 18.1 190.239 17.8539C191.368 17.4847 192.497 17.3616 193.625 17.3616C198.517 17.3616 200.9 19.3308 200.9 23.3923C200.9 25.2385 200.398 26.7154 199.395 27.8231C198.391 28.9308 196.886 29.4231 195.005 29.4231C194.503 29.4231 194.002 29.3 193.5 29.177C192.998 29.0539 192.622 28.9308 192.246 28.6846V32.6231C192.246 32.9923 192.12 33.3616 191.995 33.4846C191.744 33.7308 191.493 33.7308 190.992 33.7308H188.734ZM194.002 26.1C194.754 26.1 195.256 25.8539 195.507 25.3616C195.883 24.8693 196.008 24.1308 196.008 23.2693C196.008 22.2846 195.758 21.5462 195.381 21.0539C195.005 20.6846 194.378 20.4385 193.5 20.4385C192.998 20.4385 192.497 20.5616 192.246 20.6846V24.377C192.246 24.8693 192.371 25.3616 192.747 25.6077C192.998 25.977 193.5 26.1 194.002 26.1Z" fill="black"/>
<path fill-rule="evenodd" clip-rule="evenodd" d="M5.74395 10.1C5.24226 7.63845 7.24901 5.29999 9.75745 5.29999C12.015 5.29999 13.8964 7.14614 13.8964 9.36153V14.2846C14.5235 14.2846 15.0252 14.2846 15.6523 14.2846C16.1539 14.2846 16.7811 14.2846 17.2827 14.2846V9.36153C17.2827 7.14614 19.1641 5.29999 21.4217 5.29999C23.9301 5.29999 25.9368 7.63845 25.4352 10.1L24.3064 15.8846C28.069 17.4846 30.9537 20.3154 30.9537 23.8846V25.9769C30.9537 28.9308 28.947 31.3923 26.1877 32.9923C23.4284 34.7154 19.6658 35.7 15.5268 35.7C11.3879 35.7 7.62528 34.7154 4.866 32.9923C2.10672 31.3923 0.0999756 28.9308 0.0999756 25.9769V23.8846C0.0999756 20.3154 2.98467 17.4846 6.74732 15.8846L5.74395 10.1ZM22.9267 16.7461L24.1809 9.97691C24.5572 8.25383 23.1776 6.65383 21.4217 6.65383C19.7912 6.65383 18.537 7.88461 18.537 9.48461V15.7615C18.1607 15.7615 17.659 15.6385 17.2827 15.6385C16.7811 15.6385 16.1539 15.6385 15.6523 15.6385C15.0252 15.6385 14.5235 15.6385 13.8964 15.7615C13.5201 15.7615 13.0184 15.8846 12.6421 15.8846V9.60768C12.6421 8.00768 11.3879 6.77691 9.75745 6.77691C8.00154 6.77691 6.6219 8.37691 6.99817 10.1L8.25239 16.9923C4.23889 18.4692 1.47961 21.1769 1.47961 24.2538V26.3461C1.47961 31.0231 7.7507 34.8385 15.5268 34.8385C23.303 34.8385 29.5741 31.0231 29.5741 26.3461V24.2538C29.6995 20.9308 26.9402 18.2231 22.9267 16.7461Z" fill="#633001"/>
<path d="M29.6994 26.1001C29.6994 30.777 23.4284 34.5924 15.6522 34.5924C7.87607 34.5924 1.60498 30.777 1.60498 26.1001V24.0078H29.8249V26.1001H29.6994Z" fill="#FEDC90"/>
<path fill-rule="evenodd" clip-rule="evenodd" d="M6.99818 9.85384C6.62191 8.13076 8.00155 6.53076 9.75746 6.53076C11.3879 6.53076 12.6422 7.76153 12.6422 9.36153V15.7615C13.6455 15.6385 14.6489 15.5154 15.6523 15.5154C16.6556 15.5154 17.659 15.6385 18.537 15.6385V9.36153C18.537 7.76153 19.7912 6.53076 21.4217 6.53076C23.1776 6.53076 24.5572 8.13076 24.181 9.85384L22.9267 16.6231C27.0657 18.1 29.8249 20.8077 29.8249 23.8846C29.8249 28.5615 23.5538 32.3769 15.7777 32.3769C8.00155 32.3769 1.73047 28.5615 1.73047 23.8846C1.73047 20.8077 4.48975 18.1 8.50324 16.6231L6.99818 9.85384Z" fill="#D1884F"/>
<path d="M11.7641 23.3922C11.7641 24.623 11.0116 25.7306 10.2591 25.7306C9.50656 25.7306 8.75403 24.746 8.75403 23.3922C8.75403 22.1614 9.50656 21.0537 10.2591 21.0537C11.0116 21.0537 11.7641 22.0383 11.7641 23.3922Z" fill="#633001"/>
<path d="M22.5504 23.3922C22.5504 24.623 21.7979 25.7306 21.0453 25.7306C20.1674 25.7306 19.5403 24.746 19.5403 23.3922C19.5403 22.1614 20.2928 21.0537 21.0453 21.0537C21.7979 21.0537 22.5504 22.0383 22.5504 23.3922Z" fill="#633001"/>
</g>
<defs>
<clipPath id="clip0_483_3199">
<rect width="200.8" height="40" fill="white" transform="translate(0.0999756 0.5)"/>
</clipPath>
</defs>
</svg>
