<svg width="248" height="40" viewBox="0 0 248 40" fill="none" xmlns="http://www.w3.org/2000/svg">
<path d="M20.8664 8.9L7.78745 0H36.0419L22.8631 8.9C22.2641 9.3 21.4654 9.3 20.8664 8.9ZM43.8293 21.8V14.1L37.9388 18.1C36.9404 18.8 36.4412 19.9 36.4412 21V28.7L42.3317 24.7C43.2303 24.1 43.8293 23 43.8293 21.8ZM23.1627 31.5L31.5491 40H12.2802L20.6667 31.5C21.3656 30.9 22.4638 30.9 23.1627 31.5ZM7.48794 28.7V21C7.48794 19.8 6.8889 18.7 5.99035 18.1L0.0998535 14.1V21.8C0.0998535 23 0.698887 24.1 1.59744 24.7L7.48794 28.7Z" fill="white"/>
<path d="M43.8293 7.7V0L26.5572 11.7C24.9597 12.8 24.0612 14.5 24.0612 16.5V24C24.0612 24.9 24.4605 25.8 25.0596 26.5L31.9485 33.4V19.9C31.9485 18.4 32.6473 17.1 33.8454 16.2L42.2319 10.5C43.2303 10 43.8293 8.9 43.8293 7.7ZM19.6683 24C19.6683 24.9 19.2689 25.8 18.6699 26.5L11.781 33.4V20C11.781 18.5 11.0821 17.2 9.88406 16.3L1.49758 10.6C0.599034 10 0 8.9 0 7.7V0L17.1723 11.7C18.7697 12.8 19.6683 14.5 19.6683 16.5V24Z" fill="white"/>
<path d="M93.1497 12.7C94.9468 10.9 97.5426 9.89999 100.538 9.89999C105.33 9.89999 109.024 12.6 110.122 16.8L110.222 17H106.428V16.9C105.43 14.5 103.233 13.4 100.638 13.4C98.6409 13.4 97.0434 14.1 95.8454 15.3C94.5475 16.3 93.8486 18 93.8486 20C93.8486 22 94.5475 23.7 95.7455 24.9C96.9436 26.1 98.6409 26.8 100.638 26.8C104.032 26.8 106.129 24.9 106.129 23V22.9C106.129 22.8 106.129 22.7 106.029 22.7C106.029 22.7 105.929 22.6 105.829 22.6H99.5394V19.4H108.126C108.625 19.4 109.124 19.6 109.423 19.9C109.723 20.2 109.923 20.7 109.923 21.2V21.8C109.923 24.6 108.824 26.7 107.127 28.1C105.43 29.5 103.034 30.2 100.538 30.2C97.5426 30.2 94.9468 29.2 93.0499 27.4C91.1529 25.6 90.1545 23.1 90.1545 20C90.2544 17 91.3526 14.5 93.1497 12.7Z" fill="white"/>
<path fill-rule="evenodd" clip-rule="evenodd" d="M199.578 9.89999C198.779 9.89999 198.18 10.1 197.681 10.5L196.583 12.3L189.894 29.9H193.588L195.485 24.7H203.971L205.868 29.9H209.662L202.973 12.3C202.673 11.5 202.274 10.9 201.775 10.5C201.076 10.1 200.477 9.89999 199.578 9.89999ZM199.378 13.8L196.583 21.4H202.473L199.678 13.8C199.678 13.7 199.578 13.7 199.578 13.7H199.378C199.478 13.7 199.478 13.7 199.378 13.8Z" fill="white"/>
<path d="M63.3977 10.1H80.1707V13.5H73.5813V29.9H69.9871V13.5H63.3977V10.1ZM86.9597 10.1H83.3655V30H86.9597V10.1ZM114.515 10.9C115.114 10.3 115.813 10 116.812 10H127.694V13.4H117.81C117.61 13.4 117.411 13.5 117.311 13.6C117.211 13.7 117.111 13.8 117.111 14V18H127.095V21.3H117.111V25.8C117.111 26 117.211 26.2 117.311 26.3C117.411 26.4 117.61 26.5 117.81 26.5H127.794V29.9H116.812C115.813 29.9 115.014 29.6 114.515 29.1C113.916 28.5 113.617 27.8 113.617 26.8V13.2C113.717 12.3 114.016 11.5 114.515 10.9Z" fill="white"/>
<path fill-rule="evenodd" clip-rule="evenodd" d="M131.688 13.2C131.688 11.4 132.986 10 134.882 10H140.973C142.87 10 144.567 10.6 145.765 11.7C146.963 12.8 147.762 14.5 147.762 16.5C147.762 19.5 145.765 21.5 143.169 22.4L148.261 29.8H144.068L139.475 22.9H135.282V29.8H131.688V13.2ZM135.282 14.1C135.282 13.8 135.581 13.5 135.881 13.5H140.973C141.871 13.5 142.67 13.8 143.269 14.3C143.868 14.8 144.167 15.6 144.167 16.6C144.167 17.6 143.768 18.4 143.269 18.9C142.67 19.4 141.871 19.7 140.973 19.7H135.282V14.1Z" fill="white"/>
<path d="M169.626 10.1H152.854V13.5H159.443V29.9H163.037V13.5H169.626V10.1Z" fill="white"/>
<path fill-rule="evenodd" clip-rule="evenodd" d="M175.517 10.1C173.72 10.1 172.322 11.4 172.322 13.3V30H175.916V23H180.109L184.702 29.9H188.895L183.804 22.5C186.299 21.6 188.396 19.6 188.396 16.6C188.396 14.6 187.597 12.9 186.399 11.8C185.201 10.7 183.504 10.1 181.607 10.1H175.517ZM176.515 13.5C176.116 13.5 175.916 13.8 175.916 14.1V19.7H181.607C182.506 19.7 183.304 19.4 183.903 18.9C184.502 18.4 184.802 17.6 184.802 16.6C184.802 15.6 184.403 14.8 183.903 14.3C183.304 13.8 182.506 13.5 181.607 13.5H176.515ZM215.353 10.1C214.354 10.1 213.556 10.4 213.056 11C212.457 11.6 212.158 12.4 212.158 13.3V26.8C212.158 27.8 212.457 28.6 213.056 29.1C213.655 29.7 214.454 29.9 215.353 29.9H219.845C222.741 29.9 225.337 29 227.233 27.2C229.13 25.5 230.229 23 230.229 19.9C230.229 16.8 229.13 14.3 227.233 12.6C225.337 10.9 222.741 9.89999 219.845 9.89999H215.353V10.1ZM215.852 13.7C215.752 13.8 215.652 14 215.652 14.2V26C215.652 26.2 215.752 26.3 215.852 26.4C215.952 26.5 216.151 26.6 216.351 26.6H219.845C221.742 26.6 223.44 26 224.638 24.8C225.836 23.7 226.634 22 226.634 20C226.634 18 225.936 16.4 224.638 15.2C223.44 14.1 221.742 13.4 219.845 13.4H216.351C216.151 13.5 215.952 13.6 215.852 13.7Z" fill="white"/>
<path d="M234.721 10.9C235.321 10.3 236.119 10 237.018 10H247.9V13.4H238.016C237.816 13.4 237.617 13.5 237.517 13.6C237.417 13.7 237.317 13.8 237.317 14V18H247.301V21.3H237.317V25.8C237.317 26 237.417 26.2 237.517 26.3C237.617 26.4 237.816 26.5 238.016 26.5H248V29.9H237.018C236.019 29.9 235.221 29.6 234.721 29.1C234.122 28.5 233.823 27.8 233.823 26.8V13.2C233.823 12.3 234.122 11.5 234.721 10.9ZM155.349 28.1C155.349 29.2 154.451 30.2 153.253 30.2C152.155 30.2 151.156 29.3 151.156 28.1C151.156 27 152.055 26 153.253 26C154.451 26 155.349 27 155.349 28.1Z" fill="white"/>
</svg>
