<svg width="641" height="90" viewBox="0 0 641 90" fill="none" xmlns="http://www.w3.org/2000/svg">
<path d="M133.585 22.6432C134.496 22.6432 134.731 22.8782 134.996 23.2307L146.846 39.0362H147.258L158.697 23.3189C159.021 22.9076 159.521 22.6726 160.168 22.6726H167.343C168.078 22.6726 168.342 23.3189 167.989 23.7302L151.934 43.8835L169.813 66.3283C170.225 66.9162 169.989 67.4742 169.225 67.4742H161.99C161.343 67.4742 160.756 67.2391 160.344 66.6518L146.993 48.731H146.582L133.849 66.5926C133.349 67.1805 132.79 67.5035 132.114 67.5035H124.939C124.351 67.5035 124.028 67.0041 124.439 66.4461L142.053 44.0598L126.174 23.9064C125.85 23.3189 125.998 22.6726 126.762 22.6726H133.585V22.6432Z" fill="#151516"/>
<path d="M204.571 22.6432C214.363 22.6432 221.45 29.7233 221.45 38.6836C221.45 47.9084 214.363 54.8123 204.571 54.8123H190.338V66.3283C190.338 67.0627 190.015 67.4742 189.339 67.4742H183.986C183.251 67.4742 182.84 67.0627 182.84 66.3283V23.8183C182.84 23.0839 183.251 22.6726 183.986 22.6726H204.571V22.6432ZM204.571 47.8202C210.569 47.8202 213.951 43.9423 213.951 38.6836C213.951 33.5131 210.569 29.6352 204.571 29.6352H190.338V47.8202H204.571Z" fill="#151516"/>
<path d="M237.182 57.1921C240.152 57.1921 242.711 59.6598 242.711 62.6269C242.711 65.594 240.152 68.1501 237.182 68.1501C234.212 68.1501 231.742 65.594 231.742 62.6269C231.742 59.6598 234.212 57.1921 237.182 57.1921Z" fill="#151516"/>
<path d="M292.348 67.4741C291.76 67.4741 291.289 67.2391 290.936 66.7397L276.204 48.1433L265.265 33.1017L264.853 33.1899L265.353 46.5275V66.3575C265.353 67.092 264.941 67.5034 264.118 67.5034H258.943C258.296 67.5034 257.943 67.092 257.943 66.3575V23.8182C257.943 23.0838 258.266 22.6725 259.001 22.6725H263.854C264.677 22.6725 265.324 22.9075 265.736 23.4951L281.556 43.2371L291.436 56.8977L291.848 56.8098L291.26 43.5603V23.8182C291.26 23.0838 291.672 22.6725 292.407 22.6725H297.582C298.318 22.6725 298.641 23.0838 298.641 23.8182V66.3575C298.641 67.092 298.318 67.5034 297.582 67.5034H292.348V67.4741Z" fill="#151516"/>
<path d="M348.661 22.6432C349.248 22.6432 349.808 23.1426 349.808 23.7889V28.4895C349.808 29.077 349.219 29.547 348.661 29.547H322.636V40.652H346.337C347.073 40.652 347.484 41.0633 347.484 41.7977V46.4982C347.484 47.2327 347.073 47.5558 346.337 47.5558H322.636V60.4821H349.484C350.219 60.4821 350.543 60.8056 350.543 61.4809V66.3283C350.543 67.0627 350.219 67.4742 349.484 67.4742H316.226C315.49 67.4742 315.167 67.0627 315.167 66.3283V23.8183C315.167 23.0839 315.49 22.6726 316.226 22.6726H348.661V22.6432Z" fill="#151516"/>
<path d="M402.003 22.6432C402.738 22.6432 403.15 23.0545 403.15 23.7889V28.4895C403.15 29.2239 402.738 29.6352 402.003 29.6352H386.771V66.3283C386.771 66.9162 386.359 67.4742 385.624 67.4742H380.448C379.713 67.4742 379.302 67.0627 379.302 66.3283V29.6352H364.069C363.334 29.6352 362.923 29.2239 362.923 28.4895V23.7889C362.923 23.0545 363.334 22.6432 364.069 22.6432H402.003Z" fill="#151516"/>
<path d="M421.205 22.6432C421.94 22.6432 422.352 22.8782 422.528 23.4658L432.909 58.7488H433.32L443.289 23.4658C443.466 22.8782 443.877 22.6432 444.436 22.6432H449.964C450.552 22.6432 450.964 22.8782 451.111 23.4658L461.315 58.7488H461.727L472.019 23.5539C472.195 22.9663 472.607 22.6432 473.166 22.6432H479.253C479.988 22.6432 480.252 22.9663 479.988 23.7008L465.991 66.4754C465.755 67.1219 465.256 67.4742 464.579 67.4742H457.757C457.11 67.4742 456.698 67.1512 456.434 66.4168L447.377 34.9232H446.965L437.996 66.5047C437.82 67.1512 437.408 67.5035 436.849 67.5035H429.939C429.204 67.5035 428.704 67.1805 428.469 66.5047L414.383 23.5539C414.148 22.9663 414.383 22.6432 415.118 22.6432H421.205Z" fill="#151516"/>
<path d="M514.334 21.9968C527.332 21.9968 537.477 31.6916 537.477 45.1174C537.477 58.4551 527.361 68.15 514.334 68.15C501.337 68.15 491.192 58.4551 491.192 45.1174C491.192 31.6916 501.307 21.9968 514.334 21.9968ZM498.749 45.1174C498.749 54.3422 505.101 61.1579 514.305 61.1579C523.538 61.1579 529.86 54.3422 529.86 45.1174C529.86 35.8339 523.509 28.9888 514.305 28.9888C505.101 28.9888 498.749 35.8046 498.749 45.1174Z" fill="#151516"/>
<path d="M574.026 22.6432C583.819 22.6432 590.995 29.7233 590.995 38.6836C590.995 44.9412 587.613 50.1998 582.44 52.8439L589.936 66.1817C590.349 66.9162 589.936 67.5035 589.024 67.5035H583.026C582.293 67.5035 581.702 66.9161 581.381 66.3576L575.383 54.7536C575.144 54.8416 574.732 54.8416 574.233 54.8416H559.826V66.3576C559.826 67.092 559.5 67.5035 558.767 67.5035H553.589C552.682 67.5035 552.357 66.9161 552.357 66.3576V23.8183C552.357 23.0839 552.769 22.6726 553.502 22.6726H574.026V22.6432ZM574.026 47.8202C580.03 47.8202 583.498 43.9423 583.498 38.6836C583.498 33.5131 580.03 29.6352 574.026 29.6352H559.793V47.8202H574.026Z" fill="#151516"/>
<path d="M612.963 22.6432C613.696 22.6432 614.108 23.0545 614.108 23.7889V43.531L635.338 23.5539C635.93 22.9663 636.75 22.6432 637.721 22.6432H645.131C645.869 22.6432 646.189 23.3776 645.63 23.9652L625.871 41.974L646.689 66.0639C647.28 66.6518 646.927 67.4742 646.043 67.4742H639.458C638.459 67.4742 637.634 67.1512 636.988 66.4168L620.432 46.8507L614.081 51.9626V66.3576C614.081 67.092 613.669 67.5035 612.93 67.5035H607.757C607.024 67.5035 606.612 67.092 606.612 66.3576V23.8183C606.612 23.0839 607.024 22.6726 607.757 22.6726H612.963V22.6432Z" fill="#151516"/>
<path d="M59.6867 87.8627L49.9535 78.1386C47.1894 75.3767 42.7196 75.3767 39.9849 78.1386L30.2515 87.8627C27.3991 90.7126 22.7529 90.7126 19.9005 87.8627L15.1956 83.1619L30.1044 68.2674C38.3088 60.0707 51.6003 60.0707 59.8045 68.2674L74.7137 83.1619L70.0085 87.8627C67.1853 90.7126 62.5686 90.7126 59.6867 87.8627Z" fill="#E22440"/>
<path d="M6.84426 74.7892L2.13929 70.0889C-0.713097 67.2391 -0.713097 62.5974 2.13929 59.7476L11.8727 50.0235C14.6369 47.262 14.6369 42.7965 11.8727 40.0644L2.13929 30.3402C-0.713097 27.4905 -0.713097 22.8488 2.13929 19.9991L6.84426 15.2986L21.7531 30.1933C29.9574 38.3898 29.9574 51.6687 21.7531 59.8654L6.84426 74.7892Z" fill="#E22440"/>
<path d="M45.1015 27.8725C39.7201 27.8725 34.3389 25.8454 30.2514 21.7324L15.3425 6.83775L20.0475 2.13726C22.8999 -0.712419 27.5461 -0.712419 30.3984 2.13726L40.1319 11.8614C42.8666 14.5936 47.3658 14.5936 50.1005 11.8614L59.8338 2.13726C62.6863 -0.712419 67.3323 -0.712419 70.1849 2.13726L74.8901 6.83775L59.9809 21.7324C55.8641 25.7866 50.4828 27.8725 45.1015 27.8725Z" fill="#E22440"/>
<path d="M83.241 74.6721L68.3324 59.777C60.1281 51.5807 60.1281 38.3017 68.3324 30.1053L83.241 15.2106L87.9462 19.911C90.7988 22.7608 90.7988 27.4025 87.9462 30.2522L78.2129 39.9763C75.4488 42.7379 75.4488 47.2033 78.2129 49.9355L87.9462 59.6597C90.7988 62.5096 90.7988 67.1512 87.9462 70.0005L83.241 74.6721Z" fill="#E22440"/>
</svg>
