<svg width="50" height="37" viewBox="0 0 50 37" fill="none" xmlns="http://www.w3.org/2000/svg">
<path d="M39.441 4.83033C36.6735 3.54939 33.7143 2.61846 30.6206 2.08838C30.2406 2.76793 29.7967 3.68193 29.4907 4.40902C26.2019 3.91975 22.9435 3.91975 19.7152 4.40902C19.4092 3.68193 18.9552 2.76793 18.5719 2.08838C15.4748 2.61846 12.5122 3.55282 9.74469 4.83712C4.16253 13.1818 2.6493 21.3192 3.40592 29.341C7.1083 32.0761 10.6963 33.7376 14.2238 34.8249C15.0948 33.6391 15.8716 32.3785 16.5408 31.0501C15.2663 30.571 14.0456 29.9798 12.8922 29.2935C13.1982 29.0692 13.4975 28.8348 13.7867 28.5935C20.8215 31.8485 28.4651 31.8485 35.4158 28.5935C35.7084 28.8348 36.0077 29.0692 36.3103 29.2935C35.1535 29.9832 33.9295 30.5744 32.655 31.0535C33.3242 32.3785 34.0977 33.6425 34.972 34.8282C38.5028 33.741 42.0942 32.0796 45.7966 29.341C46.6844 20.0417 44.28 11.979 39.441 4.83033ZM17.4992 24.4077C15.3874 24.4077 13.6555 22.4574 13.6555 20.0824C13.6555 17.7075 15.3504 15.7538 17.4992 15.7538C19.648 15.7538 21.3798 17.704 21.3428 20.0824C21.3461 22.4574 19.648 24.4077 17.4992 24.4077ZM31.7034 24.4077C29.5916 24.4077 27.8598 22.4574 27.8598 20.0824C27.8598 17.7075 29.5546 15.7538 31.7034 15.7538C33.8521 15.7538 35.584 17.704 35.547 20.0824C35.547 22.4574 33.8521 24.4077 31.7034 24.4077Z" fill="#5865F2"/>
</svg>
