<svg width="44" height="33" viewBox="0 0 44 33" fill="none" xmlns="http://www.w3.org/2000/svg">
<path d="M37.191 2.87202C34.4235 1.59108 31.4643 0.660148 28.3706 0.130066C27.9906 0.809612 27.5467 1.72362 27.2407 2.4507C23.9519 1.96144 20.6935 1.96144 17.4652 2.4507C17.1592 1.72362 16.7052 0.809612 16.3219 0.130066C13.2248 0.660148 10.2622 1.5945 7.49469 2.8788C1.91253 11.2235 0.399305 19.3609 1.15592 27.3827C4.8583 30.1178 8.44635 31.7793 11.9738 32.8666C12.8448 31.6808 13.6216 30.4202 14.2908 29.0918C13.0163 28.6127 11.7956 28.0215 10.6422 27.3352C10.9482 27.1109 11.2475 26.8765 11.5367 26.6352C18.5715 29.8902 26.2151 29.8902 33.1658 26.6352C33.4584 26.8765 33.7577 27.1109 34.0603 27.3352C32.9035 28.0249 31.6795 28.6161 30.405 29.0952C31.0742 30.4202 31.8477 31.6842 32.722 32.8699C36.2528 31.7827 39.8442 30.1212 43.5466 27.3827C44.4344 18.0833 42.03 10.0207 37.191 2.87202ZM15.2492 22.4493C13.1374 22.4493 11.4055 20.4991 11.4055 18.1241C11.4055 15.7491 13.1004 13.7955 15.2492 13.7955C17.398 13.7955 19.1298 15.7457 19.0928 18.1241C19.0961 20.4991 17.398 22.4493 15.2492 22.4493ZM29.4534 22.4493C27.3416 22.4493 25.6098 20.4991 25.6098 18.1241C25.6098 15.7491 27.3046 13.7955 29.4534 13.7955C31.6021 13.7955 33.334 15.7457 33.297 18.1241C33.297 20.4991 31.6021 22.4493 29.4534 22.4493Z" fill="#5865F2"/>
</svg>
