<svg width="37" height="37" viewBox="0 0 37 37" fill="none" xmlns="http://www.w3.org/2000/svg">
<path d="M36.6956 18.5C36.6956 8.55891 28.5492 0.500042 18.5 0.500042C8.45079 0.500042 0.304321 8.55891 0.304321 18.5C0.304321 27.4844 6.95821 34.931 15.6569 36.2814V23.7032H11.0369V18.5H15.6569V14.5344C15.6569 10.0232 18.3734 7.53129 22.5297 7.53129C24.5204 7.53129 26.6027 7.88285 26.6027 7.88285V12.3125H24.3083C22.0479 12.3125 21.343 13.7001 21.343 15.1235V18.5H26.3895L25.5828 23.7032H21.343V36.2814C30.0417 34.931 36.6956 27.4844 36.6956 18.5Z" fill="#1877F2"/>
<path d="M25.5827 23.7031L26.3894 18.5H21.343V15.1235C21.343 13.7 22.0479 12.3125 24.3082 12.3125H26.6027V7.88281C26.6027 7.88281 24.5204 7.53125 22.5296 7.53125C18.3733 7.53125 15.6569 10.0231 15.6569 14.5344V18.5H11.0369V23.7031H15.6569V36.2813C16.5832 36.4251 17.5327 36.5 18.4999 36.5C19.4671 36.5 20.4166 36.4251 21.343 36.2813V23.7031H25.5827Z" fill="white"/>
</svg>
