<svg width="50" height="37" viewBox="0 0 50 37" fill="none" xmlns="http://www.w3.org/2000/svg">
<g clip-path="url(#clip0_1996_4667)">
<path d="M42.9456 18.4584C42.9456 8.51728 34.7992 0.458412 24.75 0.458412C14.7008 0.458412 6.55432 8.51728 6.55432 18.4584C6.55432 27.4427 13.2082 34.8894 21.9069 36.2397V23.6615H17.2869V18.4584H21.9069V14.4928C21.9069 9.98154 24.6234 7.48966 28.7797 7.48966C30.7704 7.48966 32.8527 7.84122 32.8527 7.84122V12.2709H30.5583C28.2979 12.2709 27.593 13.6584 27.593 15.0819V18.4584H32.6395L31.8328 23.6615H27.593V36.2397C36.2917 34.8894 42.9456 27.4427 42.9456 18.4584Z" fill="#1877F2"/>
<path d="M31.8327 23.6616L32.6394 18.4585H27.593V15.082C27.593 13.6585 28.2979 12.271 30.5582 12.271H32.8527V7.84131C32.8527 7.84131 30.7704 7.48975 28.7796 7.48975C24.6233 7.48975 21.9069 9.98162 21.9069 14.4929V18.4585H17.2869V23.6616H21.9069V36.2398C22.8332 36.3836 23.7827 36.4585 24.7499 36.4585C25.7171 36.4585 26.6666 36.3836 27.593 36.2398V23.6616H31.8327Z" fill="white"/>
</g>
<defs>
<clipPath id="clip0_1996_4667">
<rect width="48.5217" height="36" fill="white" transform="translate(0.489136 0.458496)"/>
</clipPath>
</defs>
</svg>
