<svg width="49" height="37" viewBox="0 0 49 37" fill="none" xmlns="http://www.w3.org/2000/svg">
<path d="M27.6042 18.6077C27.6042 25.9685 21.5449 31.9356 14.0707 31.9356C6.59654 31.9356 0.536743 25.9685 0.536743 18.6077C0.536743 11.2468 6.59608 5.2793 14.0707 5.2793C21.5453 5.2793 27.6042 11.2468 27.6042 18.6077Z" fill="#010038"/>
<path d="M42.4507 18.6077C42.4507 25.5363 39.4211 31.1553 35.6837 31.1553C31.9464 31.1553 28.9167 25.5363 28.9167 18.6077C28.9167 11.6791 31.946 6.06006 35.6833 6.06006C39.4206 6.06006 42.4503 11.6773 42.4503 18.6077" fill="#010038"/>
<path d="M48.5235 18.6076C48.5235 24.814 47.4581 29.8483 46.1435 29.8483C44.829 29.8483 43.764 24.8153 43.764 18.6076C43.764 12.3999 44.8294 7.36694 46.1435 7.36694C47.4577 7.36694 48.5235 12.3995 48.5235 18.6076Z" fill="#010038"/>
</svg>
