<svg width="37" height="37" viewBox="0 0 37 37" fill="none" xmlns="http://www.w3.org/2000/svg">
<path d="M18.4999 36.5C28.549 36.5 36.6955 28.4411 36.6955 18.5C36.6955 8.55888 28.549 0.5 18.4999 0.5C8.45067 0.5 0.304199 8.55888 0.304199 18.5C0.304199 28.4411 8.45067 36.5 18.4999 36.5Z" fill="#FF4500"/>
<path d="M30.6374 18.5C30.6374 17.0394 29.4434 15.8795 27.9884 15.8795C27.272 15.8795 26.6204 16.1586 26.1428 16.6098C24.3191 15.321 21.8219 14.4834 19.0425 14.3761L20.2584 8.74829L24.2102 9.58589C24.2539 10.574 25.0788 11.3688 26.0995 11.3688C27.1417 11.3688 27.9884 10.5312 27.9884 9.49981C27.9884 8.46883 27.1417 7.63123 26.0995 7.63123C25.3613 7.63123 24.7096 8.06084 24.4057 8.68383L19.9981 7.76015C19.8678 7.73853 19.7375 7.76015 19.6505 7.82461C19.542 7.88907 19.4768 7.99637 19.4554 8.1253L18.1088 14.3973C15.2862 14.4834 12.7457 15.321 10.9001 16.6314C10.4225 16.1802 9.77088 15.9011 9.0545 15.9011C7.57803 15.9011 6.40552 17.0823 6.40552 18.5216C6.40552 19.5955 7.05674 20.4975 7.96901 20.9059C7.9253 21.1634 7.90384 21.4212 7.90384 21.7007C7.90384 25.7385 12.6591 29.0253 18.5217 29.0253C24.3842 29.0253 29.1395 25.7601 29.1395 21.7007C29.1395 21.4428 29.1176 21.1634 29.0743 20.9059C29.9862 20.4975 30.6374 19.5738 30.6374 18.5ZM12.4417 20.3686C12.4417 19.3376 13.2884 18.5 14.331 18.5C15.3732 18.5 16.2199 19.3376 16.2199 20.3686C16.2199 21.3996 15.3732 22.2376 14.331 22.2376C13.2884 22.2588 12.4417 21.3996 12.4417 20.3686ZM23.0162 25.3305C21.7134 26.6194 19.238 26.7055 18.5217 26.7055C17.7834 26.7055 15.3081 26.5977 14.0267 25.3305C13.8316 25.1372 13.8316 24.8365 14.0267 24.6431C14.2222 24.4501 14.5261 24.4501 14.7216 24.6431C15.5469 25.4595 17.284 25.7385 18.5217 25.7385C19.7593 25.7385 21.5179 25.4595 22.3213 24.6431C22.5168 24.4501 22.8207 24.4501 23.0162 24.6431C23.1899 24.8365 23.1899 25.1372 23.0162 25.3305ZM22.6686 22.2588C21.6264 22.2588 20.7797 21.4212 20.7797 20.3902C20.7797 19.3592 21.6264 18.5216 22.6686 18.5216C23.7112 18.5216 24.5579 19.3592 24.5579 20.3902C24.5579 21.3996 23.7112 22.2588 22.6686 22.2588Z" fill="white"/>
</svg>
