<svg width="50" height="37" viewBox="0 0 50 37" fill="none" xmlns="http://www.w3.org/2000/svg">
<path d="M24.75 36.4585C34.7992 36.4585 42.9456 28.3996 42.9456 18.4585C42.9456 8.51737 34.7992 0.458496 24.75 0.458496C14.7008 0.458496 6.55432 8.51737 6.55432 18.4585C6.55432 28.3996 14.7008 36.4585 24.75 36.4585Z" fill="#FF4500"/>
<path d="M36.8875 18.4586C36.8875 16.998 35.6935 15.8381 34.2385 15.8381C33.5221 15.8381 32.8705 16.1172 32.3929 16.5684C30.5692 15.2796 28.072 14.442 25.2927 14.3347L26.5085 8.70691L30.4603 9.54451C30.504 10.5327 31.3289 11.3274 32.3496 11.3274C33.3918 11.3274 34.2385 10.4898 34.2385 9.45843C34.2385 8.42744 33.3918 7.58984 32.3496 7.58984C31.6114 7.58984 30.9598 8.01945 30.6558 8.64245L26.2482 7.71877C26.1179 7.69715 25.9876 7.71877 25.9006 7.78323C25.7921 7.84769 25.7269 7.95499 25.7055 8.08392L24.3589 14.3559C21.5363 14.442 18.9958 15.2796 17.1502 16.59C16.6726 16.1388 16.021 15.8597 15.3046 15.8597C13.8282 15.8597 12.6556 17.0409 12.6556 18.4802C12.6556 19.5541 13.3069 20.4561 14.2191 20.8645C14.1754 21.122 14.154 21.3798 14.154 21.6593C14.154 25.6971 18.9092 28.9839 24.7718 28.9839C30.6344 28.9839 35.3896 25.7188 35.3896 21.6593C35.3896 21.4014 35.3677 21.122 35.3244 20.8645C36.2363 20.4561 36.8875 19.5325 36.8875 18.4586ZM18.6919 20.3272C18.6919 19.2962 19.5386 18.4586 20.5812 18.4586C21.6233 18.4586 22.47 19.2962 22.47 20.3272C22.47 21.3582 21.6233 22.1962 20.5812 22.1962C19.5386 22.2174 18.6919 21.3582 18.6919 20.3272ZM29.2663 25.2892C27.9635 26.578 25.4882 26.6641 24.7718 26.6641C24.0335 26.6641 21.5582 26.5564 20.2768 25.2892C20.0817 25.0958 20.0817 24.7951 20.2768 24.6017C20.4723 24.4087 20.7762 24.4087 20.9717 24.6017C21.797 25.4181 23.5341 25.6971 24.7718 25.6971C26.0095 25.6971 27.768 25.4181 28.5714 24.6017C28.7669 24.4087 29.0709 24.4087 29.2663 24.6017C29.44 24.7951 29.44 25.0958 29.2663 25.2892ZM28.9187 22.2174C27.8765 22.2174 27.0298 21.3798 27.0298 20.3488C27.0298 19.3178 27.8765 18.4802 28.9187 18.4802C29.9613 18.4802 30.808 19.3178 30.808 20.3488C30.808 21.3582 29.9613 22.2174 28.9187 22.2174Z" fill="white"/>
</svg>
