<svg width="50" height="37" viewBox="0 0 50 37" fill="none" xmlns="http://www.w3.org/2000/svg">
<path d="M18.2739 34.0584C32.465 34.0584 40.2255 22.0561 40.2255 11.6481C40.2255 11.3072 40.2187 10.9679 40.2037 10.63C41.7101 9.51826 43.0194 8.13086 44.0522 6.55147C42.6698 7.17877 41.1822 7.60105 39.6216 7.79147C41.2145 6.81636 42.4373 5.27385 43.0143 3.43502C41.5236 4.33719 39.8728 4.99289 38.1152 5.3469C36.7073 3.81595 34.7029 2.8584 32.4836 2.8584C28.223 2.8584 24.768 6.38574 24.768 10.7337C24.768 11.3518 24.8356 11.9529 24.968 12.5296C18.5558 12.2002 12.8699 9.06605 9.06463 4.30033C8.40205 5.46431 8.01999 6.8164 8.01999 8.2591C8.01999 10.9917 9.38206 13.4041 11.4533 14.8154C10.1875 14.7754 8.99845 14.4207 7.95917 13.8303C7.95803 13.8633 7.95803 13.8955 7.95803 13.9308C7.95803 17.7453 10.6174 20.9301 14.1476 21.6518C13.4993 21.8322 12.8173 21.929 12.1133 21.929C11.6169 21.929 11.1333 21.8791 10.6632 21.7869C11.6454 24.9164 14.4936 27.1938 17.8704 27.2574C15.2298 29.3704 11.9034 30.6289 8.28814 30.6289C7.66616 30.6289 7.05171 30.5928 6.44781 30.5199C9.86232 32.7542 13.9167 34.0579 18.2744 34.0579" fill="#1DA1F2"/>
</svg>
