<svg width="39" height="33" viewBox="0 0 39 33" fill="none" xmlns="http://www.w3.org/2000/svg">
<path d="M12.524 32.1C26.715 32.1 34.4755 20.0977 34.4755 9.68977C34.4755 9.34886 34.4687 9.0095 34.4538 8.67167C35.9602 7.55989 37.2695 6.17248 38.3022 4.5931C36.9198 5.22039 35.4322 5.64268 33.8717 5.83309C35.4645 4.85798 36.6874 3.31548 37.2643 1.47664C35.7737 2.37881 34.1229 3.03451 32.3652 3.38852C30.9574 1.85758 28.953 0.900024 26.7336 0.900024C22.473 0.900024 19.018 4.42736 19.018 8.77531C19.018 9.39338 19.0857 9.99457 19.2181 10.5712C12.8059 10.2419 7.12 7.10768 3.31469 2.34195C2.65211 3.50593 2.27005 4.85802 2.27005 6.30073C2.27005 9.03335 3.63212 11.4457 5.70336 12.857C4.43757 12.8171 3.24851 12.4623 2.20923 11.8719C2.20809 11.9049 2.20809 11.9371 2.20809 11.9725C2.20809 15.787 4.86749 18.9717 8.39771 19.6934C7.74941 19.8738 7.06731 19.9706 6.36331 19.9706C5.86694 19.9706 5.38334 19.9207 4.91329 19.8285C5.89551 22.9581 8.74371 25.2354 12.1205 25.2991C9.47988 27.412 6.15347 28.6705 2.5382 28.6705C1.91622 28.6705 1.30177 28.6344 0.697876 28.5615C4.11238 30.7958 8.16678 32.0995 12.5244 32.0995" fill="#1DA1F2"/>
</svg>
