<svg width="156" height="36" viewBox="0 0 156 36" fill="none" xmlns="http://www.w3.org/2000/svg">
<g clip-path="url(#clip0_1535_8666)">
<path d="M27.2885 35.5H0.857666C0.857666 35.5 0.857667 31.5127 0.857667 26.5839V9.41617C0.857667 4.48737 4.89805 0.500021 9.89242 0.500021H27.3446C32.2828 0.500021 36.3232 0.5 36.3232 0.5V26.6392C36.3232 31.5127 32.2828 35.5 27.2885 35.5Z" fill="#CDCDCD"/>
<path d="M20.4413 17.9998C20.4413 13.5694 16.7937 9.91443 12.2483 9.91443V13.5141C14.7174 13.5141 16.7376 15.5078 16.7376 17.9444C16.7376 22.3748 20.3851 26.0299 24.9305 26.0299V22.4302C22.4615 22.4302 20.4413 20.4365 20.4413 17.9998Z" fill="#010038"/>
<path d="M8.54517 22.4857C8.54517 24.4794 10.1726 26.0854 12.1927 26.0854V13.5696H8.54517V22.4857Z" fill="#010038"/>
<path d="M24.9319 9.85913V22.4303H28.5795V13.5141C28.6356 11.5205 26.9521 9.85913 24.9319 9.85913Z" fill="#010038"/>
<path d="M60.7334 10.4128V20.9903L57.8153 17.6676L52.3159 11.5758L51.3058 10.4128H47.4338V25.6423H51.0813V14.954L60.6212 25.5869H64.4371V10.4128H60.7334Z" fill="white"/>
<path d="M80.9364 13.1818V10.4683H67.4124V25.6977H71.2283V19.7721H80.9364V17.0584H71.2283V13.1818H80.9364Z" fill="white"/>
<path d="M83.9104 10.4683V13.2373H89.6339V25.6423H93.5064V13.2373H99.2306V10.4683H83.9104Z" fill="white"/>
<path d="M135.817 10.4683C135.817 10.9667 135.817 15.1756 135.873 23.0395L123.864 10.4683H121.619V25.6423H123.696C123.696 24.9224 123.696 20.7135 123.639 13.0711L135.704 25.6423H137.837V10.4683H135.817Z" fill="white"/>
<path d="M143.058 23.8148V18.6645H154.786V16.8923H143.058V12.3512H155.066V10.4683H140.869V25.6977H155.628V23.8148H143.058Z" fill="white"/>
<path d="M114.043 10.4683H106.131C103.662 10.4683 101.698 12.4619 101.698 14.8433V21.0458C101.698 23.5379 103.774 25.5869 106.299 25.5869H114.212C116.681 25.5869 118.645 23.5933 118.645 21.2119V15.0648C118.645 12.5173 116.568 10.4683 114.043 10.4683ZM114.156 23.5933H106.243C104.84 23.5933 103.718 22.4857 103.718 21.1012V14.8987C103.718 13.6249 104.784 12.5727 106.075 12.5727H113.931C115.334 12.5727 116.457 13.6803 116.457 15.0648V21.2119C116.568 22.5411 115.503 23.5933 114.156 23.5933Z" fill="white"/>
</g>
<defs>
<clipPath id="clip0_1535_8666">
<rect width="155" height="35" fill="white" transform="translate(0.857666 0.5)"/>
</clipPath>
</defs>
</svg>
