<svg width="170" height="46" viewBox="0 0 170 46" fill="none" xmlns="http://www.w3.org/2000/svg">
<path d="M66.2336 32.9273C64.3915 32.9273 62.7232 32.5276 61.2288 31.7282C59.7516 30.9115 58.5873 29.7906 57.7358 28.3656C56.9017 26.9407 56.4846 25.3332 56.4846 23.5433C56.4846 21.7534 56.9104 20.1459 57.7619 18.721C58.6134 17.296 59.7777 16.1838 61.2548 15.3844C62.7493 14.5677 64.4176 14.1593 66.2596 14.1593C67.7541 14.1593 69.1183 14.42 70.3521 14.9413C71.5859 15.4626 72.6286 16.2186 73.4801 17.2091L71.2905 19.2684C69.9698 17.8434 68.345 17.1309 66.416 17.1309C65.1648 17.1309 64.044 17.4089 63.0534 17.965C62.0629 18.5037 61.2896 19.2597 60.7335 20.2328C60.1774 21.206 59.8994 22.3095 59.8994 23.5433C59.8994 24.7771 60.1774 25.8806 60.7335 26.8538C61.2896 27.8269 62.0629 28.5915 63.0534 29.1476C64.044 29.6863 65.1648 29.9557 66.416 29.9557C68.345 29.9557 69.9698 29.2345 71.2905 27.7922L73.4801 29.8775C72.6286 30.868 71.5772 31.624 70.326 32.1453C69.0922 32.6666 67.728 32.9273 66.2336 32.9273Z" fill="white"/>
<path d="M88.6655 32.6666L84.938 27.323C84.7816 27.3403 84.547 27.349 84.2342 27.349H80.1157V32.6666H76.727V14.42H84.2342C85.8156 14.42 87.1884 14.6806 88.3527 15.202C89.5344 15.7233 90.4381 16.4705 91.0637 17.4437C91.6893 18.4169 92.0021 19.5725 92.0021 20.9106C92.0021 22.2834 91.6632 23.4651 90.9855 24.4556C90.3251 25.4462 89.3693 26.1847 88.1181 26.6713L92.3149 32.6666H88.6655ZM88.5873 20.9106C88.5873 19.7463 88.205 18.8513 87.4404 18.2257C86.6758 17.6001 85.5549 17.2873 84.0778 17.2873H80.1157V24.5599H84.0778C85.5549 24.5599 86.6758 24.2471 87.4404 23.6215C88.205 22.9785 88.5873 22.0749 88.5873 20.9106Z" fill="white"/>
<path d="M104.317 32.9273C102.458 32.9273 100.781 32.5276 99.2863 31.7282C97.7918 30.9115 96.6188 29.7906 95.7673 28.3656C94.9158 26.9233 94.49 25.3158 94.49 23.5433C94.49 21.7708 94.9158 20.172 95.7673 18.747C96.6188 17.3047 97.7918 16.1838 99.2863 15.3844C100.781 14.5677 102.458 14.1593 104.317 14.1593C106.177 14.1593 107.854 14.5677 109.348 15.3844C110.843 16.1838 112.016 17.296 112.867 18.721C113.719 20.1459 114.144 21.7534 114.144 23.5433C114.144 25.3332 113.719 26.9407 112.867 28.3656C112.016 29.7906 110.843 30.9115 109.348 31.7282C107.854 32.5276 106.177 32.9273 104.317 32.9273ZM104.317 29.9557C105.534 29.9557 106.628 29.6863 107.602 29.1476C108.575 28.5915 109.339 27.8269 109.895 26.8538C110.452 25.8632 110.73 24.7597 110.73 23.5433C110.73 22.3269 110.452 21.2321 109.895 20.2589C109.339 19.2684 108.575 18.5037 107.602 17.965C106.628 17.4089 105.534 17.1309 104.317 17.1309C103.101 17.1309 102.006 17.4089 101.033 17.965C100.06 18.5037 99.295 19.2684 98.7389 20.2589C98.1828 21.2321 97.9048 22.3269 97.9048 23.5433C97.9048 24.7597 98.1828 25.8632 98.7389 26.8538C99.295 27.8269 100.06 28.5915 101.033 29.1476C102.006 29.6863 103.101 29.9557 104.317 29.9557Z" fill="white"/>
<path d="M143.817 14.42L137.769 32.6666H134.172L129.663 19.1641L125.075 32.6666H121.452L115.404 14.42H118.923L123.459 28.2874L128.177 14.42H131.305L135.919 28.3656L140.585 14.42H143.817Z" fill="white"/>
<path d="M146.578 14.42H154.554C156.5 14.42 158.229 14.8023 159.741 15.5669C161.253 16.3141 162.426 17.3829 163.26 18.7731C164.094 20.1459 164.511 21.736 164.511 23.5433C164.511 25.3506 164.094 26.9493 163.26 28.3396C162.426 29.7124 161.253 30.7811 159.741 31.5458C158.229 32.293 156.5 32.6666 154.554 32.6666H146.578V14.42ZM154.398 29.7993C155.736 29.7993 156.909 29.5473 157.917 29.0434C158.942 28.522 159.724 27.7922 160.263 26.8538C160.819 25.898 161.097 24.7945 161.097 23.5433C161.097 22.2921 160.819 21.1973 160.263 20.2589C159.724 19.3031 158.942 18.5733 157.917 18.0693C156.909 17.548 155.736 17.2873 154.398 17.2873H149.966V29.7993H154.398Z" fill="white"/>
<path d="M33.8099 23L37.0843 14.5217H14.8186L18.093 8H38.7214L41.9958 11.2609V24.6304L33.8099 23Z" fill="#CDCDCD"/>
<mask id="path-3-outside-1_1535_8668" maskUnits="userSpaceOnUse" x="12.8186" y="7" width="31" height="19" fill="black">
<rect fill="white" x="12.8186" y="7" width="31" height="19"/>
<path fill-rule="evenodd" clip-rule="evenodd" d="M18.093 8L14.8186 14.5217L18.4204 18.1087H29.2258L26.6063 23L35.1196 24.9565L41.9958 24.6304V11.2609L38.7214 8H18.093Z"/>
</mask>
<path d="M14.8186 14.5217L14.0143 14.1179L13.7221 14.6999L14.1835 15.1594L14.8186 14.5217ZM18.093 8V7.1H17.5378L17.2886 7.59618L18.093 8ZM18.4204 18.1087L17.7853 18.7464L18.0487 19.0087H18.4204V18.1087ZM29.2258 18.1087L30.0192 18.5336L30.7287 17.2087H29.2258V18.1087ZM26.6063 23L25.8129 22.5751L25.2569 23.6133L26.4047 23.8771L26.6063 23ZM35.1196 24.9565L34.9181 25.8337L35.0387 25.8614L35.1623 25.8555L35.1196 24.9565ZM41.9958 24.6304L42.0384 25.5294L42.8958 25.4888V24.6304H41.9958ZM41.9958 11.2609H42.8958V10.887L42.6309 10.6232L41.9958 11.2609ZM38.7214 8L39.3565 7.36229L39.0931 7.1H38.7214V8ZM15.6229 14.9256L18.8973 8.40382L17.2886 7.59618L14.0143 14.1179L15.6229 14.9256ZM19.0555 17.471L15.4537 13.884L14.1835 15.1594L17.7853 18.7464L19.0555 17.471ZM29.2258 17.2087H18.4204V19.0087H29.2258V17.2087ZM27.3997 23.4249L30.0192 18.5336L28.4324 17.6838L25.8129 22.5751L27.3997 23.4249ZM35.3212 24.0794L26.8079 22.1229L26.4047 23.8771L34.9181 25.8337L35.3212 24.0794ZM41.9532 23.7314L35.077 24.0575L35.1623 25.8555L42.0384 25.5294L41.9532 23.7314ZM41.0958 11.2609V24.6304H42.8958V11.2609H41.0958ZM38.0864 8.63771L41.3607 11.8986L42.6309 10.6232L39.3565 7.36229L38.0864 8.63771ZM18.093 8.9H38.7214V7.1H18.093V8.9Z" fill="#CDCDCD" mask="url(#path-3-outside-1_1535_8668)"/>
<path d="M13.1828 23L9.90841 31.4783H32.1741L28.8997 38H8.27123L4.99687 34.7391V21.3696L13.1828 23Z" fill="#CDCDCD"/>
<mask id="path-6-outside-2_1535_8668" maskUnits="userSpaceOnUse" x="3.17407" y="20" width="31" height="19" fill="black">
<rect fill="white" x="3.17407" y="20" width="31" height="19"/>
<path fill-rule="evenodd" clip-rule="evenodd" d="M28.8997 38L32.1741 31.4783L28.5723 27.8913H17.7669L20.3864 23L11.873 21.0435L4.99687 21.3696V34.7391L8.27123 38H28.8997Z"/>
</mask>
<path d="M32.1741 31.4783L32.9784 31.8821L33.2706 31.3001L32.8092 30.8406L32.1741 31.4783ZM28.8997 38V38.9H29.4549L29.704 38.4038L28.8997 38ZM28.5723 27.8913L29.2074 27.2536L28.944 26.9913H28.5723V27.8913ZM17.7669 27.8913L16.9735 27.4664L16.264 28.7913H17.7669V27.8913ZM20.3864 23L21.1798 23.4249L21.7358 22.3867L20.588 22.1229L20.3864 23ZM11.873 21.0435L12.0746 20.1663L11.954 20.1386L11.8304 20.1445L11.873 21.0435ZM4.99687 21.3696L4.95423 20.4706L4.09687 20.5112V21.3696H4.99687ZM4.99687 34.7391H4.09687V35.113L4.36179 35.3768L4.99687 34.7391ZM8.27123 38L7.63615 38.6377L7.89952 38.9H8.27123V38ZM31.3698 31.0744L28.0954 37.5962L29.704 38.4038L32.9784 31.8821L31.3698 31.0744ZM27.9372 28.529L31.539 32.116L32.8092 30.8406L29.2074 27.2536L27.9372 28.529ZM17.7669 28.7913H28.5723V26.9913H17.7669V28.7913ZM19.593 22.5751L16.9735 27.4664L18.5603 28.3162L21.1798 23.4249L19.593 22.5751ZM11.6714 21.9206L20.1848 23.8771L20.588 22.1229L12.0746 20.1663L11.6714 21.9206ZM5.0395 22.2686L11.9157 21.9425L11.8304 20.1445L4.95423 20.4706L5.0395 22.2686ZM5.89687 34.7391V21.3696H4.09687V34.7391H5.89687ZM8.90631 37.3623L5.63195 34.1014L4.36179 35.3768L7.63615 38.6377L8.90631 37.3623ZM28.8997 37.1H8.27123V38.9H28.8997V37.1Z" fill="#CDCDCD" mask="url(#path-6-outside-2_1535_8668)"/>
</svg>
