<svg width="229" height="32" viewBox="0 0 229 32" fill="none" xmlns="http://www.w3.org/2000/svg">
<g clip-path="url(#clip0_1535_8665)">
<path d="M47.3664 8.18237C47.6881 8.18237 47.771 8.26533 47.8645 8.38975L52.0472 13.9684H52.1926L56.2301 8.42087C56.3443 8.2757 56.5207 8.19274 56.7491 8.19274H59.2816C59.541 8.19274 59.6343 8.42087 59.5098 8.56604L53.8428 15.6793L60.1533 23.6014C60.2988 23.8089 60.2156 24.0058 59.9458 24.0058H57.3925C57.1641 24.0058 56.9566 23.9229 56.8114 23.7156L52.0991 17.3903H51.9539L47.4597 23.6947C47.2832 23.9022 47.0861 24.0162 46.8473 24.0162H44.3149C44.1074 24.0162 43.9932 23.8399 44.1384 23.6429L50.3554 15.7415L44.7507 8.62825C44.6365 8.42087 44.6885 8.19274 44.9584 8.19274H47.3664V8.18237Z" fill="white"/>
<path d="M72.4229 8.18237C75.8791 8.18237 78.3806 10.6813 78.3806 13.844C78.3806 17.0999 75.8791 19.5367 72.4229 19.5367H67.3995V23.6014C67.3995 23.8606 67.2854 24.0058 67.0466 24.0058H65.1575C64.8981 24.0058 64.7529 23.8606 64.7529 23.6014V8.59714C64.7529 8.33791 64.8981 8.19274 65.1575 8.19274H72.4229V8.18237ZM72.4229 17.0688C74.5403 17.0688 75.7339 15.7001 75.7339 13.844C75.7339 12.019 74.5403 10.6503 72.4229 10.6503H67.3995V17.0688H72.4229Z" fill="white"/>
<path d="M83.9328 20.3767C84.9812 20.3767 85.8842 21.2477 85.8842 22.2949C85.8842 23.3422 84.9812 24.2444 83.9328 24.2444C82.8846 24.2444 82.0126 23.3422 82.0126 22.2949C82.0126 21.2477 82.8846 20.3767 83.9328 20.3767Z" fill="white"/>
<path d="M103.404 24.0057C103.197 24.0057 103.03 23.9227 102.906 23.7465L97.7061 17.1827L93.8451 11.8737L93.6997 11.9048L93.8761 16.6124V23.6116C93.8761 23.8708 93.7309 24.0161 93.4402 24.0161H91.6136C91.3852 24.0161 91.2607 23.8708 91.2607 23.6116V8.59702C91.2607 8.3378 91.3749 8.19263 91.6343 8.19263H93.3469C93.6374 8.19263 93.8658 8.27559 94.0112 8.48297L99.595 15.4511L103.082 20.2727L103.228 20.2417L103.02 15.5652V8.59702C103.02 8.3378 103.166 8.19263 103.425 8.19263H105.252C105.511 8.19263 105.625 8.3378 105.625 8.59702V23.6116C105.625 23.8708 105.511 24.0161 105.252 24.0161H103.404V24.0057Z" fill="white"/>
<path d="M123.28 8.18237C123.487 8.18237 123.685 8.35866 123.685 8.58677V10.2459C123.685 10.4532 123.477 10.6191 123.28 10.6191H114.094V14.5387H122.46C122.719 14.5387 122.865 14.6839 122.865 14.9431V16.6022C122.865 16.8614 122.719 16.9755 122.46 16.9755H114.094V21.5379H123.571C123.83 21.5379 123.944 21.6521 123.944 21.8904V23.6014C123.944 23.8606 123.83 24.0058 123.571 24.0058H111.832C111.572 24.0058 111.458 23.8606 111.458 23.6014V8.59714C111.458 8.33791 111.572 8.19274 111.832 8.19274H123.28V8.18237Z" fill="white"/>
<path d="M142.107 8.18237C142.367 8.18237 142.512 8.32754 142.512 8.58677V10.2459C142.512 10.5051 142.367 10.6503 142.107 10.6503H136.731V23.6014C136.731 23.8089 136.585 24.0058 136.326 24.0058H134.499C134.24 24.0058 134.095 23.8606 134.095 23.6014V10.6503H128.718C128.459 10.6503 128.313 10.5051 128.313 10.2459V8.58677C128.313 8.32754 128.459 8.18237 128.718 8.18237H142.107Z" fill="white"/>
<path d="M148.885 8.18237C149.145 8.18237 149.29 8.26533 149.352 8.47271L153.016 20.9261H153.161L156.68 8.47271C156.742 8.26533 156.887 8.18237 157.085 8.18237H159.036C159.244 8.18237 159.389 8.26533 159.441 8.47271L163.042 20.9261H163.188L166.82 8.50383C166.883 8.29643 167.028 8.18237 167.225 8.18237H169.374C169.633 8.18237 169.726 8.29643 169.633 8.55567L164.693 23.6533C164.609 23.8815 164.433 24.0058 164.194 24.0058H161.787C161.558 24.0058 161.413 23.8918 161.319 23.6326L158.123 12.5167H157.977L154.812 23.6636C154.749 23.8918 154.604 24.0162 154.407 24.0162H151.968C151.708 24.0162 151.532 23.9022 151.449 23.6636L146.477 8.50383C146.394 8.29643 146.477 8.18237 146.737 8.18237H148.885Z" fill="white"/>
<path d="M181.755 7.9541C186.343 7.9541 189.924 11.3759 189.924 16.1147C189.924 20.8223 186.353 24.2442 181.755 24.2442C177.168 24.2442 173.587 20.8223 173.587 16.1147C173.587 11.3759 177.157 7.9541 181.755 7.9541ZM176.254 16.1147C176.254 19.3706 178.496 21.7763 181.745 21.7763C185.004 21.7763 187.235 19.3706 187.235 16.1147C187.235 12.838 184.993 10.422 181.745 10.422C178.496 10.422 176.254 12.8277 176.254 16.1147Z" fill="white"/>
<path d="M202.825 8.18237C206.282 8.18237 208.814 10.6813 208.814 13.844C208.814 16.0526 207.621 17.9087 205.795 18.8419L208.441 23.5496C208.586 23.8089 208.441 24.0162 208.119 24.0162H206.002C205.743 24.0162 205.534 23.8089 205.421 23.6117L203.304 19.516C203.22 19.547 203.074 19.547 202.898 19.547H197.813V23.6117C197.813 23.8709 197.698 24.0162 197.439 24.0162H195.612C195.292 24.0162 195.177 23.8089 195.177 23.6117V8.59714C195.177 8.33791 195.322 8.19274 195.581 8.19274H202.825V8.18237ZM202.825 17.0688C204.944 17.0688 206.168 15.7001 206.168 13.844C206.168 12.019 204.944 10.6503 202.825 10.6503H197.802V17.0688H202.825Z" fill="white"/>
<path d="M216.569 8.18237C216.827 8.18237 216.973 8.32754 216.973 8.58677V15.5549L224.466 8.50383C224.675 8.29643 224.964 8.18237 225.307 8.18237H227.923C228.183 8.18237 228.296 8.4416 228.099 8.64898L221.125 15.0053L228.473 23.5081C228.681 23.7156 228.557 24.0058 228.245 24.0058H225.92C225.568 24.0058 225.277 23.8918 225.049 23.6326L219.205 16.7266L216.963 18.5309V23.6117C216.963 23.8709 216.818 24.0162 216.557 24.0162H214.731C214.473 24.0162 214.327 23.8709 214.327 23.6117V8.59714C214.327 8.33791 214.473 8.19274 214.731 8.19274H216.569V8.18237Z" fill="white"/>
<path d="M21.2845 31.2021L17.8491 27.7699C16.8735 26.7951 15.2958 26.7951 14.3306 27.7699L10.8951 31.2021C9.88833 32.208 8.24842 32.208 7.24165 31.2021L5.58099 29.5429L10.8432 24.2858C13.739 21.3927 18.4303 21.3927 21.3261 24.2858L26.5884 29.5429L24.9277 31.2021C23.9312 32.208 22.3017 32.208 21.2845 31.2021Z" fill="#CDCDCD"/>
<path d="M2.63345 26.5877L0.972792 24.9286C-0.0339809 23.9228 -0.0339809 22.2845 0.972792 21.2786L4.40828 17.8464C5.38391 16.8717 5.38391 15.2956 4.40828 14.3312L0.972792 10.899C-0.0339809 9.8932 -0.0339809 8.25486 0.972792 7.24905L2.63345 5.58997L7.89565 10.8472C10.7914 13.7402 10.7914 18.4271 7.89565 21.3202L2.63345 26.5877Z" fill="#CDCDCD"/>
<path d="M16.1374 10.028C14.238 10.028 12.3386 9.31251 10.8959 7.86082L5.63373 2.60362L7.29439 0.944547C8.30115 -0.0612683 9.94106 -0.0612683 10.9478 0.944547L14.3833 4.37677C15.3486 5.3411 16.9366 5.3411 17.9018 4.37677L21.3373 0.944547C22.3441 -0.0612683 23.9839 -0.0612683 24.9908 0.944547L26.6515 2.60362L21.3892 7.86082C19.9361 9.29178 18.0367 10.028 16.1374 10.028Z" fill="#CDCDCD"/>
<path d="M29.5989 26.5462L24.3368 21.2889C21.441 18.396 21.441 13.709 24.3368 10.816L29.5989 5.55884L31.2596 7.21791C32.2665 8.22374 32.2665 9.86207 31.2596 10.8679L27.8242 14.3001C26.8486 15.2748 26.8486 16.8509 27.8242 17.8153L31.2596 21.2475C32.2665 22.2534 32.2665 23.8917 31.2596 24.8974L29.5989 26.5462Z" fill="#CDCDCD"/>
</g>
<defs>
<clipPath id="clip0_1535_8665">
<rect width="228.571" height="31.8046" fill="white" transform="translate(0.131775 0.0976562)"/>
</clipPath>
</defs>
</svg>
