<svg width="45" height="36" viewBox="0 0 74 60" fill="none" xmlns="http://www.w3.org/2000/svg">
<path d="M61.2218 7.28672C56.6589 5.15182 51.7799 3.60027 46.6791 2.7168C46.0527 3.84937 45.3208 5.37271 44.8162 6.58453C39.3939 5.76908 34.0215 5.76908 28.699 6.58453C28.1945 5.37271 27.446 3.84937 26.8139 2.7168C21.7076 3.60027 16.8231 5.15752 12.2601 7.29803C3.05657 21.2058 0.561637 34.7681 1.80911 48.1379C7.91338 52.6964 13.8292 55.4656 19.6451 57.2776C21.0811 55.3013 22.3618 53.2004 23.4651 50.9863C21.3638 50.1878 19.3513 49.2025 17.4496 48.0586C17.9541 47.6849 18.4476 47.2941 18.9244 46.892C30.523 52.317 43.1252 52.317 54.5853 46.892C55.0677 47.2941 55.5611 47.6849 56.0601 48.0586C54.1528 49.2081 52.1347 50.1934 50.0335 50.992C51.1368 53.2004 52.412 55.307 53.8535 57.2832C59.675 55.4712 65.5963 52.7021 71.7006 48.1379C73.1643 32.6389 69.2001 19.2012 61.2218 7.28672ZM25.0453 39.9156C21.5635 39.9156 18.7081 36.6651 18.7081 32.7069C18.7081 28.7486 21.5025 25.4925 25.0453 25.4925C28.5881 25.4925 31.4434 28.7429 31.3824 32.7069C31.3879 36.6651 28.5881 39.9156 25.0453 39.9156ZM48.4644 39.9156C44.9826 39.9156 42.1273 36.6651 42.1273 32.7069C42.1273 28.7486 44.9216 25.4925 48.4644 25.4925C52.0072 25.4925 54.8625 28.7429 54.8016 32.7069C54.8016 36.6651 52.0072 39.9156 48.4644 39.9156Z" fill="#E465A3"/>
</svg>
