<svg width="60" height="60" viewBox="0 0 60 60" fill="none" xmlns="http://www.w3.org/2000/svg">
<path fill-rule="evenodd" clip-rule="evenodd" d="M30 0C46.5686 0 60 13.4314 60 30C60 44.9739 49.0294 57.385 34.6875 59.6356V38.6719H41.6777L43.0078 30H34.6875V24.3725C34.6875 24.0759 34.7057 23.7803 34.7447 23.49C35.0181 21.458 36.3155 19.6875 39.5764 19.6875H43.3594V12.3047C43.3594 12.3047 43.1448 12.2681 42.7717 12.2131C41.6522 12.0483 39.1056 11.7188 36.6439 11.7188C35.7874 11.7188 34.9679 11.7836 34.1896 11.9119C28.7416 12.8096 25.3125 16.8117 25.3125 23.3906V30H17.6953V38.6719H25.3125V59.6356C10.9706 57.385 0 44.9739 0 30C0 13.4314 13.4314 0 30 0Z" fill="#E465A3"/>
</svg>
