<svg width="45" height="36" viewBox="0 0 45 36" fill="none" xmlns="http://www.w3.org/2000/svg">
<path d="M36.9997 4.37208C34.2619 3.09114 31.3346 2.16021 28.2741 1.63013C27.8982 2.30967 27.4591 3.22368 27.1564 3.95077C23.903 3.4615 20.6795 3.4615 17.486 3.95077C17.1833 3.22368 16.7342 2.30967 16.355 1.63013C13.2912 2.16021 10.3605 3.09456 7.6227 4.37887C2.10057 12.7235 0.603608 20.8609 1.35209 28.8828C5.01466 31.6179 8.56412 33.2794 12.0537 34.3666C12.9153 33.1808 13.6837 31.9203 14.3457 30.5918C13.0849 30.1127 11.8774 29.5216 10.7364 28.8352C11.0391 28.611 11.3352 28.3765 11.6212 28.1353C18.5804 31.3903 26.1418 31.3903 33.0178 28.1353C33.3072 28.3765 33.6033 28.611 33.9027 28.8352C32.7583 29.5249 31.5475 30.1161 30.2867 30.5952C30.9487 31.9203 31.7138 33.1842 32.5787 34.37C36.0716 33.2827 39.6244 31.6213 43.287 28.8828C44.1652 19.5834 41.7867 11.5207 36.9997 4.37208ZM15.2938 23.9494C13.2047 23.9494 11.4915 21.9991 11.4915 19.6242C11.4915 17.2492 13.1681 15.2956 15.2938 15.2956C17.4195 15.2956 19.1327 17.2458 19.0961 19.6242C19.0994 21.9991 17.4195 23.9494 15.2938 23.9494ZM29.3453 23.9494C27.2562 23.9494 25.543 21.9991 25.543 19.6242C25.543 17.2492 27.2196 15.2956 29.3453 15.2956C31.4709 15.2956 33.1842 17.2458 33.1476 19.6242C33.1476 21.9991 31.4709 23.9494 29.3453 23.9494Z" fill="white"/>
</svg>
