<svg width="37" height="36" viewBox="0 0 37 36" fill="none" xmlns="http://www.w3.org/2000/svg">
<g clip-path="url(#clip0_1684_9958)">
<path fill-rule="evenodd" clip-rule="evenodd" d="M18.6666 0C28.6078 0 36.6666 8.05887 36.6666 18C36.6666 26.9843 30.0843 34.431 21.4791 35.7813V23.2031H25.6733L26.4713 18H21.4791V14.6235C21.4791 14.4456 21.49 14.2682 21.5135 14.094C21.6775 12.8748 22.456 11.8125 24.4125 11.8125H26.6823V7.38281C26.6823 7.38281 26.5535 7.36084 26.3296 7.32788C25.658 7.229 24.13 7.03125 22.653 7.03125C22.139 7.03125 21.6473 7.07019 21.1804 7.14713C17.9116 7.68577 15.8541 10.087 15.8541 14.0344V18H11.2838V23.2031H15.8541V35.7813C7.24897 34.431 0.666626 26.9843 0.666626 18C0.666626 8.05887 8.72549 0 18.6666 0Z" fill="white"/>
</g>
<defs>
<clipPath id="clip0_1684_9958">
<rect width="36" height="36" fill="white" transform="translate(0.666626)"/>
</clipPath>
</defs>
</svg>
