<svg width="37" height="36" viewBox="0 0 37 36" fill="none" xmlns="http://www.w3.org/2000/svg">
<g clip-path="url(#clip0_1684_9956)">
<path fill-rule="evenodd" clip-rule="evenodd" d="M36.3334 18C36.3334 27.9411 28.2745 36 18.3334 36C8.39225 36 0.333374 27.9411 0.333374 18C0.333374 8.05887 8.39225 0 18.3334 0C28.2745 0 36.3334 8.05887 36.3334 18ZM18.9783 13.2884C17.2275 14.0166 13.7285 15.5238 8.4811 17.81C7.62901 18.1488 7.18265 18.4803 7.14202 18.8045C7.07334 19.3523 7.75933 19.568 8.69347 19.8617C8.82053 19.9016 8.95219 19.943 9.08717 19.9869C10.0062 20.2857 11.2425 20.6352 11.8852 20.6491C12.4682 20.6617 13.1189 20.4213 13.8372 19.928C18.74 16.6185 21.2708 14.9457 21.4297 14.9097C21.5418 14.8842 21.6972 14.8522 21.8024 14.9458C21.9077 15.0393 21.8973 15.2165 21.8862 15.264C21.8182 15.5537 19.1254 18.0572 17.7319 19.3527C17.2975 19.7566 16.9894 20.043 16.9264 20.1085C16.7853 20.255 16.6415 20.3937 16.5032 20.5269C15.6494 21.35 15.0091 21.9672 16.5387 22.9752C17.2737 23.4596 17.8619 23.8601 18.4487 24.2597C19.0895 24.6961 19.7287 25.1314 20.5557 25.6735C20.7664 25.8116 20.9676 25.9551 21.1636 26.0948C21.9094 26.6265 22.5794 27.1041 23.4071 27.028C23.8881 26.9837 24.385 26.5314 24.6373 25.1825C25.2336 21.9947 26.4057 15.0877 26.6766 12.2415C26.7003 11.9921 26.6705 11.673 26.6465 11.5329C26.6225 11.3928 26.5724 11.1932 26.3903 11.0454C26.1747 10.8704 25.8417 10.8335 25.6928 10.8361C25.0158 10.8481 23.9771 11.2092 18.9783 13.2884Z" fill="white"/>
</g>
<defs>
<clipPath id="clip0_1684_9956">
<rect width="36" height="36" fill="white" transform="translate(0.333374)"/>
</clipPath>
</defs>
</svg>
