<svg width="36" height="36" viewBox="0 0 36 36" fill="none" xmlns="http://www.w3.org/2000/svg">
<path fill-rule="evenodd" clip-rule="evenodd" d="M36 18C36 27.9411 27.9411 36 18 36C8.05888 36 0 27.9411 0 18C0 8.05888 8.05888 0 18 0C27.9411 0 36 8.05888 36 18ZM27.3871 15.3795C28.8265 15.3795 30.0076 16.5394 30.0076 18C30.0076 19.0738 29.3634 19.9975 28.4614 20.4059C28.5042 20.6634 28.5258 20.9428 28.5258 21.2007C28.5258 25.2601 23.8217 28.5253 18.0222 28.5253C12.2226 28.5253 7.51854 25.2385 7.51854 21.2007C7.51854 20.9212 7.53976 20.6634 7.58301 20.4059C6.68054 19.9975 6.03633 19.0955 6.03633 18.0216C6.03633 16.5823 7.19624 15.4011 8.65683 15.4011C9.36551 15.4011 10.0101 15.6802 10.4826 16.1314C12.3083 14.821 14.8215 13.9834 17.6138 13.8973L18.9459 7.6253C18.9671 7.49637 19.0315 7.38907 19.1388 7.32461C19.2249 7.26015 19.3539 7.23853 19.4828 7.26015L23.8429 8.18383C24.1436 7.56084 24.7882 7.13123 25.5185 7.13123C26.5495 7.13123 27.3871 7.96883 27.3871 8.99981C27.3871 10.0312 26.5495 10.8688 25.5185 10.8688C24.5088 10.8688 23.6928 10.074 23.6496 9.08589L19.7402 8.24829L18.5375 13.8761C21.2869 13.9834 23.7573 14.821 25.5614 16.1098C26.0338 15.6586 26.6785 15.3795 27.3871 15.3795ZM13.8766 18C12.8452 18 12.0076 18.8376 12.0076 19.8686C12.0076 20.8996 12.8452 21.7588 13.8766 21.7376C14.9076 21.7376 15.7452 20.8996 15.7452 19.8686C15.7452 18.8376 14.9076 18 13.8766 18ZM18.0222 26.2055C18.7309 26.2055 21.1796 26.1194 22.4684 24.8305C22.6402 24.6372 22.6402 24.3365 22.4684 24.1431C22.275 23.9501 21.9744 23.9501 21.781 24.1431C20.9862 24.9595 19.2466 25.2385 18.0222 25.2385C16.7978 25.2385 15.0794 24.9595 14.263 24.1431C14.0696 23.9501 13.7689 23.9501 13.5755 24.1431C13.3825 24.3365 13.3825 24.6372 13.5755 24.8305C14.8431 26.0977 17.2919 26.2055 18.0222 26.2055ZM20.2559 19.8902C20.2559 20.9212 21.0935 21.7588 22.1245 21.7588C23.1559 21.7588 23.9935 20.8996 23.9935 19.8902C23.9935 18.8592 23.1559 18.0216 22.1245 18.0216C21.0935 18.0216 20.2559 18.8592 20.2559 19.8902Z" fill="white"/>
</svg>
