<svg width="48" height="36" viewBox="0 0 48 36" fill="none" xmlns="http://www.w3.org/2000/svg">
<g clip-path="url(#clip0_1684_9957)">
<path d="M27.0705 18.1077C27.0705 25.4685 21.0763 31.4356 13.6825 31.4356C6.28871 31.4356 0.294067 25.4685 0.294067 18.1077C0.294067 10.7468 6.28825 4.7793 13.6825 4.7793C21.0768 4.7793 27.0705 10.7468 27.0705 18.1077Z" fill="white"/>
<path d="M41.7571 18.1077C41.7571 25.0363 38.76 30.6553 35.0629 30.6553C31.3658 30.6553 28.3687 25.0363 28.3687 18.1077C28.3687 11.1791 31.3653 5.56006 35.0624 5.56006C38.7596 5.56006 41.7567 11.1773 41.7567 18.1077" fill="white"/>
<path d="M47.7653 18.1076C47.7653 24.314 46.7114 29.3483 45.4109 29.3483C44.1105 29.3483 43.057 24.3153 43.057 18.1076C43.057 11.8999 44.1109 6.86694 45.4109 6.86694C46.7109 6.86694 47.7653 11.8995 47.7653 18.1076Z" fill="white"/>
</g>
<defs>
<clipPath id="clip0_1684_9957">
<rect width="48" height="36" fill="white"/>
</clipPath>
</defs>
</svg>
