<svg width="40" height="36" viewBox="0 0 40 36" fill="none" xmlns="http://www.w3.org/2000/svg">
<path d="M12.899 33.6C26.9374 33.6 34.6145 21.5977 34.6145 11.1898C34.6145 10.8489 34.6077 10.5095 34.5929 10.1717C36.0832 9.05989 37.3784 7.67248 38.4 6.0931C37.0325 6.72039 35.5609 7.14268 34.0171 7.33309C35.5928 6.35798 36.8026 4.81548 37.3733 2.97664C35.8987 3.87881 34.2656 4.53451 32.5269 4.88852C31.1341 3.35758 29.1513 2.40002 26.9558 2.40002C22.741 2.40002 19.3232 5.92736 19.3232 10.2753C19.3232 10.8934 19.3901 11.4946 19.5211 12.0712C13.1778 11.7419 7.55308 8.60768 3.78869 3.84195C3.13323 5.00593 2.75528 6.35802 2.75528 7.80073C2.75528 10.5333 4.1027 12.9457 6.15167 14.357C4.89949 14.3171 3.72322 13.9623 2.69511 13.3719C2.69399 13.4049 2.69399 13.4371 2.69399 13.4725C2.69399 17.287 5.32479 20.4717 8.81705 21.1934C8.17572 21.3738 7.50096 21.4706 6.80453 21.4706C6.3135 21.4706 5.83509 21.4207 5.3701 21.3285C6.34176 24.4581 9.15933 26.7354 12.4998 26.7991C9.88759 28.912 6.59694 30.1705 3.02055 30.1705C2.40526 30.1705 1.79741 30.1344 1.20001 30.0615C4.5778 32.2958 8.58861 33.5995 12.8994 33.5995" fill="white"/>
</svg>
