<svg width="48" height="36" viewBox="0 0 80 60" fill="none" xmlns="http://www.w3.org/2000/svg">
<g clip-path="url(#clip0_1716_10050)">
<path d="M45.1176 30.1794C45.1176 42.4474 35.1273 52.3926 22.8043 52.3926C10.4813 52.3926 0.490234 42.4474 0.490234 30.1794C0.490234 17.9114 10.4805 7.96545 22.8043 7.96545C35.128 7.96545 45.1176 17.9114 45.1176 30.1794Z" fill="#E465A3"/>
<path d="M69.5953 30.1794C69.5953 41.7272 64.6002 51.0922 58.4383 51.0922C52.2764 51.0922 47.2812 41.7272 47.2812 30.1794C47.2812 18.6317 52.2757 9.26672 58.4375 9.26672C64.5994 9.26672 69.5946 18.6287 69.5946 30.1794" fill="#E465A3"/>
<path d="M79.6089 30.1794C79.6089 40.5233 77.8523 48.9139 75.6849 48.9139C73.5175 48.9139 71.7617 40.5256 71.7617 30.1794C71.7617 19.8332 73.5182 11.4449 75.6849 11.4449C77.8516 11.4449 79.6089 19.8325 79.6089 30.1794Z" fill="#E465A3"/>
</g>
<defs>
<clipPath id="clip0_1716_10050">
<rect width="80" height="60" fill="white"/>
</clipPath>
</defs>
</svg>
