<svg width="36" height="36" viewBox="0 0 60 60" fill="none" xmlns="http://www.w3.org/2000/svg">
<path fill-rule="evenodd" clip-rule="evenodd" d="M60 30C60 46.5685 46.5685 60 30 60C13.4315 60 0 46.5685 0 30C0 13.4315 13.4315 0 30 0C46.5685 0 60 13.4315 60 30ZM45.6452 25.6325C48.0442 25.6325 50.0127 27.5657 50.0127 30C50.0127 31.7897 48.939 33.3292 47.4356 34.0098C47.507 34.4389 47.543 34.9047 47.543 35.3344C47.543 42.1002 39.7029 47.5421 30.037 47.5421C20.3711 47.5421 12.5309 42.0642 12.5309 35.3344C12.5309 34.8687 12.5663 34.4389 12.6383 34.0098C11.1342 33.3292 10.0605 31.8258 10.0605 30.0361C10.0605 27.6371 11.9937 25.6685 14.4281 25.6685C15.6092 25.6685 16.6835 26.1337 17.471 26.8857C20.5139 24.7016 24.7025 23.3056 29.3563 23.1621L31.5764 12.7088C31.6118 12.494 31.7192 12.3151 31.8981 12.2077C32.0415 12.1002 32.2564 12.0642 32.4713 12.1002L39.7382 13.6397C40.2394 12.6014 41.3137 11.8854 42.5309 11.8854C44.2492 11.8854 45.6452 13.2814 45.6452 14.9997C45.6452 16.7187 44.2492 18.1147 42.5309 18.1147C40.848 18.1147 39.488 16.7901 39.4159 15.1432L32.9004 13.7472L30.8958 23.1268C35.4782 23.3056 39.5954 24.7016 42.6023 26.8497C43.3897 26.0976 44.4641 25.6325 45.6452 25.6325ZM23.1277 30C21.4087 30 20.0127 31.396 20.0127 33.1143C20.0127 34.8326 21.4087 36.2647 23.1277 36.2293C24.846 36.2293 26.242 34.8326 26.242 33.1143C26.242 31.396 24.846 30 23.1277 30ZM30.037 43.6758C31.2181 43.6758 35.2993 43.5323 37.4474 41.3842C37.7337 41.0619 37.7337 40.5608 37.4474 40.2385C37.1251 39.9168 36.6239 39.9168 36.3016 40.2385C34.977 41.5991 32.0776 42.0642 30.037 42.0642C27.9964 42.0642 25.1323 41.5991 23.7717 40.2385C23.4493 39.9168 22.9482 39.9168 22.6259 40.2385C22.3042 40.5608 22.3042 41.0619 22.6259 41.3842C24.7386 43.4962 28.8198 43.6758 30.037 43.6758ZM33.7599 33.1504C33.7599 34.8687 35.1559 36.2647 36.8742 36.2647C38.5931 36.2647 39.9891 34.8326 39.9891 33.1504C39.9891 31.4321 38.5931 30.0361 36.8742 30.0361C35.1559 30.0361 33.7599 31.4321 33.7599 33.1504Z" fill="#E465A3"/>
</svg>
