<svg width="60" height="60" viewBox="0 0 60 60" fill="none" xmlns="http://www.w3.org/2000/svg">
<path fill-rule="evenodd" clip-rule="evenodd" d="M60 30C60 46.5685 46.5685 60 30 60C13.4315 60 0 46.5685 0 30C0 13.4315 13.4315 0 30 0C46.5685 0 60 13.4315 60 30ZM31.0749 22.1473C28.1569 23.361 22.3252 25.873 13.5795 29.6833C12.1594 30.2481 11.4155 30.8006 11.3477 31.3408C11.2333 32.2538 12.3766 32.6133 13.9335 33.1028C14.1453 33.1694 14.3647 33.2384 14.5897 33.3115C16.1214 33.8095 18.1819 34.392 19.253 34.4151C20.2247 34.4361 21.3091 34.0355 22.5064 33.2134C30.6777 27.6975 34.8958 24.9095 35.1606 24.8494C35.3474 24.807 35.6063 24.7537 35.7817 24.9096C35.9571 25.0655 35.9399 25.3608 35.9213 25.44C35.8081 25.9229 31.3201 30.0953 28.9976 32.2545C28.2736 32.9276 27.76 33.4051 27.655 33.5141C27.4198 33.7584 27.1801 33.9895 26.9498 34.2115C25.5267 35.5833 24.4596 36.6121 27.0088 38.292C28.2339 39.0993 29.2142 39.7668 30.1921 40.4328C31.2602 41.1602 32.3255 41.8857 33.7038 42.7892C34.055 43.0194 34.3904 43.2585 34.717 43.4913C35.96 44.3775 37.0767 45.1736 38.4563 45.0466C39.2579 44.9728 40.086 44.2191 40.5065 41.9709C41.5003 36.6579 43.4539 25.1461 43.9054 20.4024C43.9449 19.9868 43.8952 19.4549 43.8552 19.2214C43.8152 18.9879 43.7317 18.6553 43.4282 18.409C43.0688 18.1173 42.5139 18.0558 42.2657 18.0602C41.1374 18.0801 39.4062 18.682 31.0749 22.1473Z" fill="#E465A3"/>
</svg>
