<svg width="40" height="36" viewBox="0 0 66 60" fill="none" xmlns="http://www.w3.org/2000/svg">
<path d="M21.4983 56C44.8957 56 57.6908 35.9962 57.6908 18.6496C57.6908 18.0814 57.6796 17.5158 57.6549 16.9527C60.1386 15.0998 62.2973 12.7874 64 10.1551C61.7208 11.2006 59.2681 11.9044 56.6951 12.2218C59.3213 10.5966 61.3376 8.02576 62.2888 4.96103C59.8311 6.46465 57.1094 7.55748 54.2114 8.1475C51.8902 5.59592 48.5855 4 44.9263 4C37.9017 4 32.2053 9.8789 32.2053 17.1255C32.2053 18.1556 32.3169 19.1576 32.5351 20.1187C21.963 19.5697 12.5884 14.3461 6.31446 6.40321C5.22203 8.34318 4.59211 10.5967 4.59211 13.0012C4.59211 17.5555 6.83782 21.5761 10.2528 23.9283C8.1658 23.8617 6.20534 23.2705 4.49183 22.2864C4.48996 22.3415 4.48996 22.3952 4.48996 22.4541C4.48996 28.8115 8.87463 34.1195 14.6951 35.3223C13.6262 35.623 12.5016 35.7843 11.3409 35.7843C10.5225 35.7843 9.72513 35.7012 8.95015 35.5475C10.5696 40.7634 15.2655 44.559 20.833 44.6651C16.4793 48.1867 10.9949 50.2842 5.03422 50.2842C4.00874 50.2842 2.99567 50.224 2 50.1025C7.62965 53.8263 14.3143 55.9992 21.4989 55.9992" fill="#E465A3"/>
</svg>
