<svg width="427" height="52" viewBox="0 0 427 52" fill="none" xmlns="http://www.w3.org/2000/svg">
<path d="M22.0871 25.13C23.6325 25.586 24.8231 26.384 25.6591 27.524C26.5205 28.6387 26.9511 30.0193 26.9511 31.666C26.9511 33.9207 26.1151 35.7067 24.4431 37.024C22.7965 38.3413 20.5165 39 17.6031 39H7.64714C6.76047 39 6.07647 38.7593 5.59513 38.278C5.1138 37.7967 4.87313 37.1127 4.87313 36.226V14.984C4.87313 14.0973 5.1138 13.4133 5.59513 12.932C6.07647 12.4507 6.76047 12.21 7.64714 12.21H17.2231C20.0098 12.21 22.2138 12.8307 23.8351 14.072C25.4818 15.3133 26.3051 17.0107 26.3051 19.164C26.3051 20.5573 25.9251 21.786 25.1651 22.85C24.4305 23.8887 23.4045 24.6487 22.0871 25.13ZM10.6491 23.116H16.2351C17.7551 23.116 18.8698 22.8627 19.5791 22.356C20.3138 21.824 20.6811 21.026 20.6811 19.962C20.6811 18.8473 20.3138 18.0367 19.5791 17.53C18.8698 16.998 17.7551 16.732 16.2351 16.732H10.6491V23.116ZM16.9191 34.478C18.4898 34.478 19.6298 34.212 20.3391 33.68C21.0485 33.148 21.4031 32.2867 21.4031 31.096C21.4031 29.9053 21.0485 29.0313 20.3391 28.474C19.6298 27.9167 18.4898 27.638 16.9191 27.638H10.6491V34.478H16.9191ZM45.7024 19.962C46.589 19.962 47.2857 20.2027 47.7924 20.684C48.3244 21.1653 48.5904 21.824 48.5904 22.66V36.606C48.5904 37.3913 48.3117 38.0247 47.7544 38.506C47.2224 38.9873 46.5257 39.228 45.6644 39.228C44.8537 39.228 44.2077 39 43.7264 38.544C43.245 38.088 43.0044 37.48 43.0044 36.72V36.34C42.4217 37.3027 41.649 38.0373 40.6864 38.544C39.749 39.0507 38.685 39.304 37.4944 39.304C35.1384 39.304 33.3777 38.658 32.2124 37.366C31.0724 36.0487 30.5024 34.0727 30.5024 31.438V22.66C30.5024 21.824 30.7557 21.1653 31.2624 20.684C31.7944 20.2027 32.5037 19.962 33.3904 19.962C34.277 19.962 34.9737 20.2027 35.4804 20.684C35.987 21.1653 36.2404 21.824 36.2404 22.66V31.552C36.2404 32.6667 36.4684 33.49 36.9244 34.022C37.4057 34.554 38.1277 34.82 39.0904 34.82C40.205 34.82 41.1044 34.44 41.7884 33.68C42.4977 32.92 42.8524 31.9193 42.8524 30.678V22.66C42.8524 21.824 43.1057 21.1653 43.6124 20.684C44.119 20.2027 44.8157 19.962 45.7024 19.962ZM55.8813 39.228C55.0453 39.228 54.3486 39 53.7913 38.544C53.2593 38.088 52.9933 37.4167 52.9933 36.53V22.66C52.9933 21.7733 53.272 21.102 53.8293 20.646C54.3866 20.19 55.0706 19.962 55.8813 19.962C56.692 19.962 57.3633 20.19 57.8953 20.646C58.4526 21.102 58.7313 21.7733 58.7313 22.66V36.53C58.7313 37.4167 58.4526 38.088 57.8953 38.544C57.3633 39 56.692 39.228 55.8813 39.228ZM55.8813 16.922C54.868 16.922 54.07 16.6687 53.4873 16.162C52.9046 15.63 52.6133 14.9207 52.6133 14.034C52.6133 13.1473 52.9046 12.4507 53.4873 11.944C54.07 11.4373 54.868 11.184 55.8813 11.184C56.8693 11.184 57.6546 11.45 58.2373 11.982C58.8453 12.4887 59.1493 13.1727 59.1493 14.034C59.1493 14.9207 58.858 15.63 58.2753 16.162C57.6926 16.6687 56.8946 16.922 55.8813 16.922ZM66.0122 39.228C65.1762 39.228 64.4795 39 63.9222 38.544C63.3902 38.088 63.1242 37.4167 63.1242 36.53V14.718C63.1242 13.8313 63.3902 13.16 63.9222 12.704C64.4795 12.248 65.1762 12.02 66.0122 12.02C66.8228 12.02 67.4942 12.248 68.0262 12.704C68.5835 13.16 68.8622 13.8313 68.8622 14.718V36.53C68.8622 37.4167 68.5835 38.088 68.0262 38.544C67.4942 39 66.8228 39.228 66.0122 39.228ZM83.629 35.048C84.389 35.0987 84.9464 35.2887 85.301 35.618C85.6557 35.9473 85.833 36.4287 85.833 37.062C85.833 37.7967 85.5417 38.354 84.959 38.734C84.3764 39.114 83.5404 39.266 82.451 39.19L81.387 39.114C76.9537 38.7593 74.737 36.4413 74.737 32.16V24.636H73.217C72.381 24.636 71.7477 24.4587 71.317 24.104C70.8864 23.724 70.671 23.192 70.671 22.508C70.671 21.7987 70.8864 21.2667 71.317 20.912C71.7477 20.532 72.381 20.342 73.217 20.342H74.737V17.378C74.737 16.542 74.9904 15.8833 75.497 15.402C76.029 14.9207 76.7384 14.68 77.625 14.68C78.5117 14.68 79.2084 14.9207 79.715 15.402C80.2217 15.8833 80.475 16.542 80.475 17.378V20.342H83.135C84.8577 20.342 85.719 21.064 85.719 22.508C85.719 23.192 85.5037 23.724 85.073 24.104C84.6424 24.4587 83.9964 24.636 83.135 24.636H80.475V32.578C80.475 33.338 80.6524 33.9207 81.007 34.326C81.3617 34.706 81.881 34.9213 82.565 34.972L83.629 35.048ZM107.532 39.304C105.556 39.304 103.82 38.9113 102.326 38.126C100.831 37.3153 99.6783 36.188 98.8676 34.744C98.057 33.2747 97.6516 31.552 97.6516 29.576C97.6516 27.6 98.057 25.89 98.8676 24.446C99.6783 22.9767 100.831 21.8493 102.326 21.064C103.82 20.2787 105.556 19.886 107.532 19.886C109.508 19.886 111.243 20.2787 112.738 21.064C114.232 21.8493 115.385 22.9767 116.196 24.446C117.006 25.89 117.412 27.6 117.412 29.576C117.412 31.552 117.006 33.2747 116.196 34.744C115.385 36.188 114.232 37.3153 112.738 38.126C111.243 38.9113 109.508 39.304 107.532 39.304ZM107.532 34.934C110.318 34.934 111.712 33.148 111.712 29.576C111.712 27.7773 111.344 26.4347 110.61 25.548C109.9 24.6613 108.874 24.218 107.532 24.218C104.745 24.218 103.352 26.004 103.352 29.576C103.352 33.148 104.745 34.934 107.532 34.934ZM132.607 19.886C134.837 19.886 136.496 20.5447 137.585 21.862C138.675 23.154 139.219 25.1173 139.219 27.752V36.53C139.219 37.366 138.953 38.0247 138.421 38.506C137.915 38.9873 137.218 39.228 136.331 39.228C135.445 39.228 134.748 38.9873 134.241 38.506C133.735 38.0247 133.481 37.366 133.481 36.53V28.018C133.481 26.7513 133.241 25.8267 132.759 25.244C132.303 24.6613 131.581 24.37 130.593 24.37C129.403 24.37 128.44 24.75 127.705 25.51C126.996 26.27 126.641 27.2833 126.641 28.55V36.53C126.641 37.366 126.388 38.0247 125.881 38.506C125.375 38.9873 124.678 39.228 123.791 39.228C122.905 39.228 122.195 38.9873 121.663 38.506C121.157 38.0247 120.903 37.366 120.903 36.53V22.584C120.903 21.7987 121.169 21.1653 121.701 20.684C122.259 20.2027 122.968 19.962 123.829 19.962C124.615 19.962 125.248 20.2027 125.729 20.684C126.236 21.14 126.489 21.7353 126.489 22.47V23.002C127.148 21.9887 127.997 21.216 129.035 20.684C130.099 20.152 131.29 19.886 132.607 19.886Z" fill="url(#paint0_linear_1_25)"/>
<g clip-path="url(#clip0_1_25)">
<path d="M215.504 29.9561C215.504 33.9477 218.46 37.0356 222.584 37.0356C226.707 37.0356 229.682 33.9477 229.682 29.9561C229.682 25.9644 226.707 22.8766 222.584 22.8766C218.46 22.8766 215.504 25.9644 215.504 29.9561ZM218.197 29.9561C218.197 27.4519 220.023 25.5314 222.584 25.5314C225.163 25.5314 226.971 27.4519 226.971 29.9561C226.971 32.4602 225.163 34.3807 222.584 34.3807C220.023 34.3807 218.197 32.4602 218.197 29.9561ZM240.781 36.8284H243.511L239.03 23.0837H236.262L231.743 36.8284H234.417L235.057 34.8703H240.14L240.781 36.8284ZM235.904 32.272L237.599 27.0565L239.293 32.272H235.904ZM253.327 27.0941H256.02C256.02 24.59 253.93 22.8766 251.105 22.8766C248.225 22.8766 246.229 24.7029 246.229 27.2071C246.229 28.9582 247.208 30.3326 249.016 30.841C250.239 31.1799 251.689 31.0858 252.574 31.4059C253.12 31.5941 253.553 32.0272 253.553 32.705C253.553 33.7029 252.706 34.4749 251.256 34.4749C249.844 34.4749 248.79 33.7406 248.79 32.6485H246.116C246.116 35.2469 248.3 37.0356 251.218 37.0356C254.231 37.0356 256.227 35.1527 256.227 32.5544C256.227 30.7092 255.154 29.3724 253.403 28.8452C252.085 28.4498 250.748 28.6192 249.863 28.2992C249.279 28.092 248.903 27.659 248.903 27.0753C248.903 26.1527 249.731 25.4372 251.068 25.4372C252.386 25.4372 253.29 26.0962 253.327 27.0941ZM259.974 36.8284H262.667V23.0837H259.974V36.8284ZM273.679 27.0941H276.371C276.371 24.59 274.281 22.8766 271.457 22.8766C268.576 22.8766 266.58 24.7029 266.58 27.2071C266.58 28.9582 267.56 30.3326 269.367 30.841C270.591 31.1799 272.041 31.0858 272.926 31.4059C273.472 31.5941 273.905 32.0272 273.905 32.705C273.905 33.7029 273.057 34.4749 271.608 34.4749C270.196 34.4749 269.141 33.7406 269.141 32.6485H266.467C266.467 35.2469 268.652 37.0356 271.57 37.0356C274.583 37.0356 276.578 35.1527 276.578 32.5544C276.578 30.7092 275.505 29.3724 273.754 28.8452C272.436 28.4498 271.099 28.6192 270.214 28.2992C269.631 28.092 269.254 27.659 269.254 27.0753C269.254 26.1527 270.083 25.4372 271.419 25.4372C272.737 25.4372 273.641 26.0962 273.679 27.0941ZM287.274 36.8284H289.967V31.2364H294.391V28.6004H289.967V25.7197H297.95V23.0837H287.274V36.8284ZM300.387 29.9561C300.387 33.9477 303.343 37.0356 307.467 37.0356C311.59 37.0356 314.565 33.9477 314.565 29.9561C314.565 25.9644 311.59 22.8766 307.467 22.8766C303.343 22.8766 300.387 25.9644 300.387 29.9561ZM303.08 29.9561C303.08 27.4519 304.906 25.5314 307.467 25.5314C310.046 25.5314 311.854 27.4519 311.854 29.9561C311.854 32.4602 310.046 34.3807 307.467 34.3807C304.906 34.3807 303.08 32.4602 303.08 29.9561ZM329.266 23.0837H326.592V31.5377C326.592 33.1381 325.425 34.3807 323.787 34.3807C322.13 34.3807 320.962 33.1381 320.962 31.5377V23.0837H318.27V31.6506C318.27 34.682 320.567 37.0356 323.787 37.0356C326.893 37.0356 329.266 34.7385 329.266 31.6506V23.0837ZM341.985 23.0837V32.0648L336.243 23.0837H333.569V36.8284H336.243V27.8473L341.985 36.8284H344.659V23.0837H341.985ZM353.662 23.0837H349.068V36.8284H353.662C357.654 36.8284 360.535 33.8724 360.535 29.9749C360.535 26.0774 357.654 23.0837 353.662 23.0837ZM351.76 25.7197H353.643C356.091 25.7197 357.842 27.5648 357.842 29.9749C357.842 32.3849 356.091 34.1925 353.643 34.1925H351.76V25.7197ZM371.645 36.8284H374.376L369.894 23.0837H367.127L362.608 36.8284H365.281L365.922 34.8703H371.005L371.645 36.8284ZM366.769 32.272L368.463 27.0565L370.158 32.272H366.769ZM379.162 36.8284H381.855V25.7197H385.846V23.0837H375.171V25.7197H379.162V36.8284ZM389.295 36.8284H391.987V23.0837H389.295V36.8284ZM395.788 29.9561C395.788 33.9477 398.744 37.0356 402.867 37.0356C406.991 37.0356 409.966 33.9477 409.966 29.9561C409.966 25.9644 406.991 22.8766 402.867 22.8766C398.744 22.8766 395.788 25.9644 395.788 29.9561ZM398.48 29.9561C398.48 27.4519 400.307 25.5314 402.867 25.5314C405.447 25.5314 407.254 27.4519 407.254 29.9561C407.254 32.4602 405.447 34.3807 402.867 34.3807C400.307 34.3807 398.48 32.4602 398.48 29.9561ZM422.181 23.0837V32.0648L416.438 23.0837H413.765V36.8284H416.438V27.8473L422.181 36.8284H424.855V23.0837H422.181Z" fill="#0092F6"/>
<path fill-rule="evenodd" clip-rule="evenodd" d="M199.558 22.9724C197.657 20.541 194.868 19.0023 191.783 19.0023C185.817 19.0023 181.452 24.5463 181.452 30.5523C181.452 34.7392 184.231 37.8725 187.322 37.8725C187.611 37.8725 187.897 37.8463 188.18 37.7943C186.11 36.2845 184.785 33.5345 184.785 30.5523C184.785 25.8036 187.997 22.1031 191.783 22.1031C195.912 22.1031 198.783 26.2032 198.783 30.5523C198.772 33.7643 197.627 36.9578 195.612 39.3142C193.853 41.3711 191.575 42.6755 189.071 43.0893C189.071 43.0893 189.279 43.1047 189.553 43.1047C196.485 43.1047 202.105 37.4847 202.105 30.5523C202.105 27.7043 201.156 25.0784 199.558 22.9724ZM197.652 30.5524C197.652 26.3651 194.874 23.2319 191.783 23.2319C191.494 23.2319 191.208 23.2581 190.925 23.3104C192.995 24.8201 194.32 27.5702 194.32 30.5524C194.32 35.301 191.108 39.0016 187.322 39.0016C183.193 39.0016 180.322 34.9015 180.322 30.5524C180.333 27.3404 181.478 24.1468 183.493 21.7905C185.252 19.7336 187.53 18.4292 190.034 18.0153C190.034 18.0153 189.825 18 189.552 18C182.62 18 177 23.62 177 30.5524C177 33.4001 177.949 36.0259 179.547 38.1327C181.447 40.5633 184.237 42.1024 187.322 42.1024C193.288 42.1024 197.652 36.5584 197.652 30.5524Z" fill="#0092F6"/>
</g>
<defs>
<linearGradient id="paint0_linear_1_25" x1="53.9883" y1="26" x2="88.7678" y2="26" gradientUnits="userSpaceOnUse">
<stop stop-color="#110F75"/>
<stop offset="1" stop-color="#E465A3"/>
</linearGradient>
<clipPath id="clip0_1_25">
<rect width="250" height="25.1046" fill="white" transform="translate(177 18)"/>
</clipPath>
</defs>
</svg>
