<svg width="344" height="52" viewBox="0 0 344 52" fill="none" xmlns="http://www.w3.org/2000/svg">
<path d="M22.0871 25.13C23.6325 25.586 24.8231 26.384 25.6591 27.524C26.5205 28.6387 26.9511 30.0193 26.9511 31.666C26.9511 33.9207 26.1151 35.7067 24.4431 37.024C22.7965 38.3413 20.5165 39 17.6031 39H7.64714C6.76047 39 6.07647 38.7593 5.59513 38.278C5.1138 37.7967 4.87313 37.1127 4.87313 36.226V14.984C4.87313 14.0973 5.1138 13.4133 5.59513 12.932C6.07647 12.4507 6.76047 12.21 7.64714 12.21H17.2231C20.0098 12.21 22.2138 12.8307 23.8351 14.072C25.4818 15.3133 26.3051 17.0107 26.3051 19.164C26.3051 20.5573 25.9251 21.786 25.1651 22.85C24.4305 23.8887 23.4045 24.6487 22.0871 25.13ZM10.6491 23.116H16.2351C17.7551 23.116 18.8698 22.8627 19.5791 22.356C20.3138 21.824 20.6811 21.026 20.6811 19.962C20.6811 18.8473 20.3138 18.0367 19.5791 17.53C18.8698 16.998 17.7551 16.732 16.2351 16.732H10.6491V23.116ZM16.9191 34.478C18.4898 34.478 19.6298 34.212 20.3391 33.68C21.0485 33.148 21.4031 32.2867 21.4031 31.096C21.4031 29.9053 21.0485 29.0313 20.3391 28.474C19.6298 27.9167 18.4898 27.638 16.9191 27.638H10.6491V34.478H16.9191ZM45.7024 19.962C46.589 19.962 47.2857 20.2027 47.7924 20.684C48.3244 21.1653 48.5904 21.824 48.5904 22.66V36.606C48.5904 37.3913 48.3117 38.0247 47.7544 38.506C47.2224 38.9873 46.5257 39.228 45.6644 39.228C44.8537 39.228 44.2077 39 43.7264 38.544C43.245 38.088 43.0044 37.48 43.0044 36.72V36.34C42.4217 37.3027 41.649 38.0373 40.6864 38.544C39.749 39.0507 38.685 39.304 37.4944 39.304C35.1384 39.304 33.3777 38.658 32.2124 37.366C31.0724 36.0487 30.5024 34.0727 30.5024 31.438V22.66C30.5024 21.824 30.7557 21.1653 31.2624 20.684C31.7944 20.2027 32.5037 19.962 33.3904 19.962C34.277 19.962 34.9737 20.2027 35.4804 20.684C35.987 21.1653 36.2404 21.824 36.2404 22.66V31.552C36.2404 32.6667 36.4684 33.49 36.9244 34.022C37.4057 34.554 38.1277 34.82 39.0904 34.82C40.205 34.82 41.1044 34.44 41.7884 33.68C42.4977 32.92 42.8524 31.9193 42.8524 30.678V22.66C42.8524 21.824 43.1057 21.1653 43.6124 20.684C44.119 20.2027 44.8157 19.962 45.7024 19.962ZM55.8813 39.228C55.0453 39.228 54.3486 39 53.7913 38.544C53.2593 38.088 52.9933 37.4167 52.9933 36.53V22.66C52.9933 21.7733 53.272 21.102 53.8293 20.646C54.3866 20.19 55.0706 19.962 55.8813 19.962C56.692 19.962 57.3633 20.19 57.8953 20.646C58.4526 21.102 58.7313 21.7733 58.7313 22.66V36.53C58.7313 37.4167 58.4526 38.088 57.8953 38.544C57.3633 39 56.692 39.228 55.8813 39.228ZM55.8813 16.922C54.868 16.922 54.07 16.6687 53.4873 16.162C52.9046 15.63 52.6133 14.9207 52.6133 14.034C52.6133 13.1473 52.9046 12.4507 53.4873 11.944C54.07 11.4373 54.868 11.184 55.8813 11.184C56.8693 11.184 57.6546 11.45 58.2373 11.982C58.8453 12.4887 59.1493 13.1727 59.1493 14.034C59.1493 14.9207 58.858 15.63 58.2753 16.162C57.6926 16.6687 56.8946 16.922 55.8813 16.922ZM66.0122 39.228C65.1762 39.228 64.4795 39 63.9222 38.544C63.3902 38.088 63.1242 37.4167 63.1242 36.53V14.718C63.1242 13.8313 63.3902 13.16 63.9222 12.704C64.4795 12.248 65.1762 12.02 66.0122 12.02C66.8228 12.02 67.4942 12.248 68.0262 12.704C68.5835 13.16 68.8622 13.8313 68.8622 14.718V36.53C68.8622 37.4167 68.5835 38.088 68.0262 38.544C67.4942 39 66.8228 39.228 66.0122 39.228ZM83.629 35.048C84.389 35.0987 84.9464 35.2887 85.301 35.618C85.6557 35.9473 85.833 36.4287 85.833 37.062C85.833 37.7967 85.5417 38.354 84.959 38.734C84.3764 39.114 83.5404 39.266 82.451 39.19L81.387 39.114C76.9537 38.7593 74.737 36.4413 74.737 32.16V24.636H73.217C72.381 24.636 71.7477 24.4587 71.317 24.104C70.8864 23.724 70.671 23.192 70.671 22.508C70.671 21.7987 70.8864 21.2667 71.317 20.912C71.7477 20.532 72.381 20.342 73.217 20.342H74.737V17.378C74.737 16.542 74.9904 15.8833 75.497 15.402C76.029 14.9207 76.7384 14.68 77.625 14.68C78.5117 14.68 79.2084 14.9207 79.715 15.402C80.2217 15.8833 80.475 16.542 80.475 17.378V20.342H83.135C84.8577 20.342 85.719 21.064 85.719 22.508C85.719 23.192 85.5037 23.724 85.073 24.104C84.6424 24.4587 83.9964 24.636 83.135 24.636H80.475V32.578C80.475 33.338 80.6524 33.9207 81.007 34.326C81.3617 34.706 81.881 34.9213 82.565 34.972L83.629 35.048ZM107.532 39.304C105.556 39.304 103.82 38.9113 102.326 38.126C100.831 37.3153 99.6783 36.188 98.8676 34.744C98.057 33.2747 97.6516 31.552 97.6516 29.576C97.6516 27.6 98.057 25.89 98.8676 24.446C99.6783 22.9767 100.831 21.8493 102.326 21.064C103.82 20.2787 105.556 19.886 107.532 19.886C109.508 19.886 111.243 20.2787 112.738 21.064C114.232 21.8493 115.385 22.9767 116.196 24.446C117.006 25.89 117.412 27.6 117.412 29.576C117.412 31.552 117.006 33.2747 116.196 34.744C115.385 36.188 114.232 37.3153 112.738 38.126C111.243 38.9113 109.508 39.304 107.532 39.304ZM107.532 34.934C110.318 34.934 111.712 33.148 111.712 29.576C111.712 27.7773 111.344 26.4347 110.61 25.548C109.9 24.6613 108.874 24.218 107.532 24.218C104.745 24.218 103.352 26.004 103.352 29.576C103.352 33.148 104.745 34.934 107.532 34.934ZM132.607 19.886C134.837 19.886 136.496 20.5447 137.585 21.862C138.675 23.154 139.219 25.1173 139.219 27.752V36.53C139.219 37.366 138.953 38.0247 138.421 38.506C137.915 38.9873 137.218 39.228 136.331 39.228C135.445 39.228 134.748 38.9873 134.241 38.506C133.735 38.0247 133.481 37.366 133.481 36.53V28.018C133.481 26.7513 133.241 25.8267 132.759 25.244C132.303 24.6613 131.581 24.37 130.593 24.37C129.403 24.37 128.44 24.75 127.705 25.51C126.996 26.27 126.641 27.2833 126.641 28.55V36.53C126.641 37.366 126.388 38.0247 125.881 38.506C125.375 38.9873 124.678 39.228 123.791 39.228C122.905 39.228 122.195 38.9873 121.663 38.506C121.157 38.0247 120.903 37.366 120.903 36.53V22.584C120.903 21.7987 121.169 21.1653 121.701 20.684C122.259 20.2027 122.968 19.962 123.829 19.962C124.615 19.962 125.248 20.2027 125.729 20.684C126.236 21.14 126.489 21.7353 126.489 22.47V23.002C127.148 21.9887 127.997 21.216 129.035 20.684C130.099 20.152 131.29 19.886 132.607 19.886Z" fill="url(#paint0_linear_2_261)"/>
<path d="M212.682 7.78453H220.877C222.959 7.78453 224.482 8.34397 225.467 9.30621C226.43 10.1342 226.855 11.2531 226.855 12.3496C226.855 12.7748 226.855 13.3118 226.721 13.737C226.452 14.4307 226.027 15.1244 225.467 15.6839C225.198 15.9524 224.907 16.1091 224.638 16.2433C225.601 16.5119 226.452 17.0713 227.146 17.765C227.706 18.4587 227.974 19.2867 227.974 20.5398C227.974 21.2336 227.84 22.0615 227.549 22.621C227.28 23.1804 226.721 23.7399 226.161 24.1427C225.467 24.5678 224.773 24.8364 224.079 25.1049C223.25 25.3734 222.265 25.3734 221.302 25.3734H212.816V7.73977H212.682V7.78453ZM220.183 14.9902C220.877 14.9902 221.571 14.8559 222.265 14.565C222.825 14.2965 223.093 13.737 223.093 13.1776C223.093 12.6181 222.825 12.0587 222.399 11.7901C221.84 11.365 221.145 11.2307 220.451 11.365H216.555V15.1021H220.16V14.9902H220.183ZM221.145 22.0839C221.84 22.0839 222.534 21.9496 223.228 21.6587C223.787 21.3902 224.056 20.8308 223.922 20.137C223.922 19.5776 223.653 19.0182 223.228 18.7496C222.802 18.4811 221.974 18.1902 221.011 18.1902H216.421V22.0839H221.145Z" fill="#010038"/>
<path d="M232.811 7.7845H236.707V25.5524H232.811V7.7845Z" fill="#010038"/>
<path d="M242.684 7.7845H246.289L254.618 18.7496V7.7845H258.491V25.5524H255.178L246.423 14.2964V25.5524H242.684V7.7845Z" fill="#010038"/>
<path d="M270.315 7.65023H273.92L281.555 25.5524H277.525L275.868 21.5244H268.367L266.71 25.5524H262.68L270.315 7.65023ZM274.48 18.1901L272.129 12.3719L269.778 18.1901H274.48Z" fill="#010038"/>
<path d="M285.719 7.7845H289.324L297.653 18.7496V7.7845H301.549V25.5524H298.213L289.593 14.2964V25.5524H285.719V7.7845Z" fill="#010038"/>
<path d="M315.699 25.821C314.445 25.821 313.191 25.5525 312.094 25.1273C309.877 24.165 308.198 22.4867 307.235 20.2713C306.81 19.1524 306.541 17.9216 306.541 16.6685C306.541 14.3188 307.504 11.9468 309.183 10.1566C310.012 9.32859 310.997 8.63488 312.094 8.2097C313.348 7.65026 314.602 7.51599 315.833 7.51599C316.527 7.51599 317.356 7.51599 318.05 7.65026C318.744 7.78452 319.304 7.91879 319.863 8.2097C320.423 8.47823 320.983 8.76915 321.386 9.03768C321.811 9.30621 322.349 9.73139 322.774 10.1566L320.423 13.0657C319.729 12.5062 319.035 11.9468 318.341 11.544C317.647 11.1412 316.818 10.9845 315.99 10.9845C315.296 10.9845 314.602 11.1188 313.908 11.4097C313.214 11.6782 312.654 12.1034 312.251 12.6629C311.848 13.2223 311.422 13.7818 311.131 14.4755C310.863 15.1692 310.706 15.8629 310.706 16.5566C310.706 17.2503 310.84 18.0783 311.131 18.772C311.422 19.4657 311.691 20.0251 312.251 20.5846C313.214 21.7035 314.602 22.2405 315.99 22.2405C316.818 22.2405 317.804 22.1063 318.632 21.6811C319.326 21.2559 320.155 20.7189 320.714 20.1594L323.2 22.6433C322.774 23.0685 322.237 23.6056 321.811 24.0308C321.252 24.4559 320.692 24.7245 320.155 24.993C319.595 25.2615 318.901 25.5525 318.207 25.6867C317.221 25.821 316.393 25.821 315.699 25.821Z" fill="#010038"/>
<path d="M327.656 7.7845H340.979V11.2531H331.396V14.8559H339.859V18.3244H331.396V22.0839H341.113V25.5524H327.656V7.7845Z" fill="#010038"/>
<path d="M217.675 43.0294C216.712 43.0294 215.727 42.8952 214.899 42.47C214.07 42.2015 213.242 41.642 212.391 40.9483L213.779 39.4266C214.339 39.9861 214.899 40.2546 215.593 40.6798C216.287 40.9483 216.981 41.105 217.675 41.105C218.235 41.105 218.795 40.9707 219.332 40.6798C219.757 40.4112 219.892 39.9861 219.892 39.5609C219.892 39.4266 219.892 39.1357 219.757 39.0015C219.623 38.8672 219.489 38.5763 219.332 38.442C219.063 38.3078 218.772 38.1735 218.503 38.0168C218.078 37.8826 217.541 37.7483 217.115 37.5917C216.555 37.4574 215.861 37.3231 215.302 37.0322C214.876 36.898 214.339 36.6071 214.048 36.3385C213.779 36.07 213.488 35.7791 213.219 35.3763C212.951 34.8168 212.951 34.2574 212.951 33.8546C212.951 33.2952 213.085 32.8924 213.219 32.3329C213.354 31.9077 213.779 31.5049 214.048 31.214C214.473 30.9455 214.876 30.6546 215.436 30.5203C215.996 30.3861 216.555 30.2518 217.093 30.2518C217.921 30.2518 218.75 30.3861 219.601 30.677C220.295 30.9455 220.989 31.3707 221.683 31.7959L220.563 33.4518C220.004 33.0266 219.444 32.7581 218.906 32.4896C218.347 32.221 217.787 32.221 217.25 32.221C216.69 32.221 216.13 32.3553 215.727 32.6462C215.458 32.9147 215.167 33.3399 215.167 33.7651C215.167 34.0336 215.167 34.1903 215.302 34.4588C215.436 34.5931 215.57 34.884 215.727 35.0182C215.996 35.1525 216.287 35.2868 216.69 35.4434C217.115 35.5777 217.518 35.7119 218.212 35.8686C218.772 36.0029 219.332 36.1371 220.026 36.428C220.451 36.5623 220.854 36.8532 221.28 37.1217C221.549 37.3903 221.84 37.8154 221.974 38.084C222.108 38.5091 222.243 38.9119 222.243 39.4714C222.243 40.0308 222.108 40.5903 221.974 40.9931C221.705 41.4182 221.414 41.821 221.011 42.2462C220.586 42.5147 220.183 42.8057 219.623 42.9399C218.929 42.8952 218.235 43.0294 217.675 43.0294Z" fill="#010038"/>
<path d="M224.615 30.4084H226.989L230.728 36.2266L234.624 30.4084H236.975V42.8952H234.758V33.877L230.862 39.6951H230.728L226.855 33.877V42.8952H224.615V30.4084Z" fill="#010038"/>
<path d="M244.476 30.2741H246.559L251.977 42.761H249.626L248.372 39.7176H242.551L241.297 42.761H239.08L244.476 30.2741ZM247.678 37.905L245.462 32.9147L243.379 37.905H247.678Z" fill="#010038"/>
<path d="M254.193 30.4084H259.746C260.44 30.4084 261.134 30.5427 261.828 30.6769C262.388 30.8112 262.948 31.2364 263.351 31.6392C263.619 31.9077 263.911 32.3329 264.179 32.8923C264.314 33.3175 264.448 33.8546 264.448 34.414C264.448 34.8392 264.314 35.3763 264.179 35.8014C264.045 36.2266 263.754 36.4951 263.619 36.9203C263.351 37.1888 263.06 37.4798 262.657 37.7483C262.231 38.0168 261.828 38.1735 261.403 38.3077L264.739 43.0294H262.097L259.052 38.7329H256.275V43.0294H254.059L254.193 30.4084ZM259.612 36.5175C260.306 36.5175 261 36.3833 261.425 35.9581C261.851 35.5329 262.119 34.9958 262.119 34.4364C262.119 33.877 261.851 33.3175 261.425 32.9147C260.865 32.4895 260.171 32.3553 259.477 32.3553H256.275V36.5175H259.612Z" fill="#010038"/>
<path d="M270.156 32.3553H266.125V30.4084H276.268V32.3553H272.238V42.8952H270.021L270.156 32.3553Z" fill="#010038"/>
<path d="M289.747 43.0294C288.918 43.0294 288.09 42.8952 287.239 42.47C285.717 41.7763 284.463 40.6574 283.903 39.1357C283.634 38.3077 283.343 37.4798 283.477 36.6294C283.477 35.8014 283.612 34.9735 283.903 34.1231C284.463 32.6014 285.717 31.3483 287.239 30.6546C288.067 30.386 288.896 30.0951 289.881 30.0951C290.441 30.0951 291.001 30.0951 291.404 30.2294C291.829 30.3637 292.232 30.4979 292.658 30.6546C293.083 30.7888 293.352 31.0797 293.777 31.214C294.046 31.4825 294.471 31.7735 294.74 32.042L293.352 33.6979C292.926 33.2728 292.389 32.87 291.829 32.579C291.269 32.3105 290.575 32.1539 289.881 32.1539C289.321 32.1539 288.762 32.2881 288.224 32.4224C287.664 32.6909 287.261 32.9818 286.836 33.3846C286.411 33.8098 286.142 34.2126 286.008 34.7721C285.873 35.3315 285.739 35.8909 285.739 36.428C285.739 36.9875 285.873 37.5469 286.008 38.084C286.142 38.621 286.433 39.0462 286.836 39.4714C287.261 39.8966 287.664 40.1651 288.224 40.4336C288.784 40.7021 289.344 40.8588 289.881 40.7022C290.575 40.7022 291.269 40.5679 291.829 40.277C292.389 40.0084 292.949 39.5833 293.486 39.0238L294.874 40.4112C294.605 40.6798 294.18 41.1049 293.911 41.3735C293.486 41.642 293.217 41.9329 292.792 42.0672C292.366 42.2014 291.963 42.4924 291.404 42.4924C290.844 43.0294 290.284 43.0294 289.747 43.0294Z" fill="#010038"/>
<path d="M297.092 30.4084H299.174V35.5329H305.153V30.4084H307.369V42.8952H305.153V37.614H299.174V42.8952H297.092V30.4084Z" fill="#010038"/>
<path d="M315.006 30.2741H317.088L322.507 42.761H320.156L318.902 39.7176H313.08L311.826 42.761H309.61L315.006 30.2741ZM318.073 37.905L315.991 32.9147L313.909 37.905H318.073Z" fill="#010038"/>
<path d="M324.723 30.4084H326.962V42.8952H324.723V30.4084Z" fill="#010038"/>
<path d="M330.274 30.4084H332.222L338.894 39.0014V30.4084H341.111V42.8952H339.297L332.513 34.0112V42.8952H330.274V30.4084Z" fill="#010038"/>
<path d="M188.254 42.0672V47.4826L183.529 50.2575L178.939 47.4826V42.0672L183.529 44.8421L188.254 42.0672ZM162.975 23.337L167.565 26.1119V35.3987L175.469 40.1204V45.5358L162.975 38.1735V23.337V23.337ZM204.084 23.337V38.1959L191.455 45.5582V40.1427L199.359 35.421V26.1343L204.084 23.337ZM191.433 15.9748L196.157 18.7496V24.165L188.254 28.8867V38.3078L183.664 41.0826L179.096 38.3078V28.8643L170.901 24.1426V18.7272L175.625 15.9524L183.529 20.6741L191.433 15.9748ZM170.901 28.0364L175.491 30.8112V36.2266L170.901 33.4518V28.0364ZM196.157 28.0364V33.4518L191.567 36.2266V30.8112L196.157 28.0364ZM167.565 11.2531L172.289 14.0279L167.565 16.8027V22.2182L162.975 19.4433V14.0279L167.565 11.2531ZM199.493 11.2531L204.218 14.0279V19.4433L199.493 22.2182V16.8027L194.903 14.0279L199.493 11.2531ZM183.529 11.2531L188.254 14.0279L183.529 16.8027L178.939 14.0279L183.529 11.2531ZM183.529 1.96629L196.157 9.32857L191.567 12.1034L183.664 7.3817L175.603 12.1034L171.013 9.32857L183.529 1.96629Z" fill="#010038"/>
<defs>
<linearGradient id="paint0_linear_2_261" x1="53.9883" y1="26" x2="88.7678" y2="26" gradientUnits="userSpaceOnUse">
<stop stop-color="#110F75"/>
<stop offset="1" stop-color="#E465A3"/>
</linearGradient>
</defs>
</svg>
