<svg width="1300" height="52" viewBox="0 0 1300 52" fill="none" xmlns="http://www.w3.org/2000/svg">
<path d="M500.087 25.13C501.632 25.586 502.823 26.384 503.659 27.524C504.52 28.6387 504.951 30.0193 504.951 31.666C504.951 33.9207 504.115 35.7067 502.443 37.024C500.796 38.3413 498.516 39 495.603 39H485.647C484.76 39 484.076 38.7593 483.595 38.278C483.114 37.7967 482.873 37.1127 482.873 36.226V14.984C482.873 14.0973 483.114 13.4133 483.595 12.932C484.076 12.4507 484.76 12.21 485.647 12.21H495.223C498.01 12.21 500.214 12.8307 501.835 14.072C503.482 15.3133 504.305 17.0107 504.305 19.164C504.305 20.5573 503.925 21.786 503.165 22.85C502.43 23.8887 501.404 24.6487 500.087 25.13ZM488.649 23.116H494.235C495.755 23.116 496.87 22.8627 497.579 22.356C498.314 21.824 498.681 21.026 498.681 19.962C498.681 18.8473 498.314 18.0367 497.579 17.53C496.87 16.998 495.755 16.732 494.235 16.732H488.649V23.116ZM494.919 34.478C496.49 34.478 497.63 34.212 498.339 33.68C499.048 33.148 499.403 32.2867 499.403 31.096C499.403 29.9053 499.048 29.0313 498.339 28.474C497.63 27.9167 496.49 27.638 494.919 27.638H488.649V34.478H494.919ZM523.702 19.962C524.589 19.962 525.286 20.2027 525.792 20.684C526.324 21.1653 526.59 21.824 526.59 22.66V36.606C526.59 37.3913 526.312 38.0247 525.754 38.506C525.222 38.9873 524.526 39.228 523.664 39.228C522.854 39.228 522.208 39 521.726 38.544C521.245 38.088 521.004 37.48 521.004 36.72V36.34C520.422 37.3027 519.649 38.0373 518.686 38.544C517.749 39.0507 516.685 39.304 515.494 39.304C513.138 39.304 511.378 38.658 510.212 37.366C509.072 36.0487 508.502 34.0727 508.502 31.438V22.66C508.502 21.824 508.756 21.1653 509.262 20.684C509.794 20.2027 510.504 19.962 511.39 19.962C512.277 19.962 512.974 20.2027 513.48 20.684C513.987 21.1653 514.24 21.824 514.24 22.66V31.552C514.24 32.6667 514.468 33.49 514.924 34.022C515.406 34.554 516.128 34.82 517.09 34.82C518.205 34.82 519.104 34.44 519.788 33.68C520.498 32.92 520.852 31.9193 520.852 30.678V22.66C520.852 21.824 521.106 21.1653 521.612 20.684C522.119 20.2027 522.816 19.962 523.702 19.962ZM533.881 39.228C533.045 39.228 532.349 39 531.791 38.544C531.259 38.088 530.993 37.4167 530.993 36.53V22.66C530.993 21.7733 531.272 21.102 531.829 20.646C532.387 20.19 533.071 19.962 533.881 19.962C534.692 19.962 535.363 20.19 535.895 20.646C536.453 21.102 536.731 21.7733 536.731 22.66V36.53C536.731 37.4167 536.453 38.088 535.895 38.544C535.363 39 534.692 39.228 533.881 39.228ZM533.881 16.922C532.868 16.922 532.07 16.6687 531.487 16.162C530.905 15.63 530.613 14.9207 530.613 14.034C530.613 13.1473 530.905 12.4507 531.487 11.944C532.07 11.4373 532.868 11.184 533.881 11.184C534.869 11.184 535.655 11.45 536.237 11.982C536.845 12.4887 537.149 13.1727 537.149 14.034C537.149 14.9207 536.858 15.63 536.275 16.162C535.693 16.6687 534.895 16.922 533.881 16.922ZM544.012 39.228C543.176 39.228 542.479 39 541.922 38.544C541.39 38.088 541.124 37.4167 541.124 36.53V14.718C541.124 13.8313 541.39 13.16 541.922 12.704C542.479 12.248 543.176 12.02 544.012 12.02C544.823 12.02 545.494 12.248 546.026 12.704C546.583 13.16 546.862 13.8313 546.862 14.718V36.53C546.862 37.4167 546.583 38.088 546.026 38.544C545.494 39 544.823 39.228 544.012 39.228ZM561.629 35.048C562.389 35.0987 562.946 35.2887 563.301 35.618C563.656 35.9473 563.833 36.4287 563.833 37.062C563.833 37.7967 563.542 38.354 562.959 38.734C562.376 39.114 561.54 39.266 560.451 39.19L559.387 39.114C554.954 38.7593 552.737 36.4413 552.737 32.16V24.636H551.217C550.381 24.636 549.748 24.4587 549.317 24.104C548.886 23.724 548.671 23.192 548.671 22.508C548.671 21.7987 548.886 21.2667 549.317 20.912C549.748 20.532 550.381 20.342 551.217 20.342H552.737V17.378C552.737 16.542 552.99 15.8833 553.497 15.402C554.029 14.9207 554.738 14.68 555.625 14.68C556.512 14.68 557.208 14.9207 557.715 15.402C558.222 15.8833 558.475 16.542 558.475 17.378V20.342H561.135C562.858 20.342 563.719 21.064 563.719 22.508C563.719 23.192 563.504 23.724 563.073 24.104C562.642 24.4587 561.996 24.636 561.135 24.636H558.475V32.578C558.475 33.338 558.652 33.9207 559.007 34.326C559.362 34.706 559.881 34.9213 560.565 34.972L561.629 35.048ZM585.532 39.304C583.556 39.304 581.82 38.9113 580.326 38.126C578.831 37.3153 577.678 36.188 576.868 34.744C576.057 33.2747 575.652 31.552 575.652 29.576C575.652 27.6 576.057 25.89 576.868 24.446C577.678 22.9767 578.831 21.8493 580.326 21.064C581.82 20.2787 583.556 19.886 585.532 19.886C587.508 19.886 589.243 20.2787 590.738 21.064C592.232 21.8493 593.385 22.9767 594.196 24.446C595.006 25.89 595.412 27.6 595.412 29.576C595.412 31.552 595.006 33.2747 594.196 34.744C593.385 36.188 592.232 37.3153 590.738 38.126C589.243 38.9113 587.508 39.304 585.532 39.304ZM585.532 34.934C588.318 34.934 589.712 33.148 589.712 29.576C589.712 27.7773 589.344 26.4347 588.61 25.548C587.9 24.6613 586.874 24.218 585.532 24.218C582.745 24.218 581.352 26.004 581.352 29.576C581.352 33.148 582.745 34.934 585.532 34.934ZM610.607 19.886C612.837 19.886 614.496 20.5447 615.585 21.862C616.675 23.154 617.219 25.1173 617.219 27.752V36.53C617.219 37.366 616.953 38.0247 616.421 38.506C615.915 38.9873 615.218 39.228 614.331 39.228C613.445 39.228 612.748 38.9873 612.241 38.506C611.735 38.0247 611.481 37.366 611.481 36.53V28.018C611.481 26.7513 611.241 25.8267 610.759 25.244C610.303 24.6613 609.581 24.37 608.593 24.37C607.403 24.37 606.44 24.75 605.705 25.51C604.996 26.27 604.641 27.2833 604.641 28.55V36.53C604.641 37.366 604.388 38.0247 603.881 38.506C603.375 38.9873 602.678 39.228 601.791 39.228C600.905 39.228 600.195 38.9873 599.663 38.506C599.157 38.0247 598.903 37.366 598.903 36.53V22.584C598.903 21.7987 599.169 21.1653 599.701 20.684C600.259 20.2027 600.968 19.962 601.829 19.962C602.615 19.962 603.248 20.2027 603.729 20.684C604.236 21.14 604.489 21.7353 604.489 22.47V23.002C605.148 21.9887 605.997 21.216 607.035 20.684C608.099 20.152 609.29 19.886 610.607 19.886Z" fill="url(#paint0_linear_1598_11177)"/>
<path d="M690.682 7.7845H698.877C700.959 7.7845 702.482 8.34395 703.467 9.30619C704.43 10.1342 704.855 11.2531 704.855 12.3496C704.855 12.7747 704.855 13.3118 704.721 13.737C704.452 14.4307 704.027 15.1244 703.467 15.6838C703.198 15.9524 702.907 16.109 702.638 16.2433C703.601 16.5118 704.452 17.0713 705.146 17.765C705.706 18.4587 705.974 19.2867 705.974 20.5398C705.974 21.2335 705.84 22.0615 705.549 22.621C705.28 23.1804 704.721 23.7398 704.161 24.1426C703.467 24.5678 702.773 24.8364 702.079 25.1049C701.25 25.3734 700.265 25.3734 699.302 25.3734H690.816V7.73975H690.682V7.7845ZM698.183 14.9901C698.877 14.9901 699.571 14.8559 700.265 14.565C700.825 14.2964 701.093 13.737 701.093 13.1775C701.093 12.6181 700.825 12.0587 700.399 11.7901C699.84 11.3649 699.145 11.2307 698.451 11.3649H694.555V15.102H698.16V14.9901H698.183ZM699.145 22.0839C699.84 22.0839 700.534 21.9496 701.228 21.6587C701.787 21.3902 702.056 20.8307 701.922 20.137C701.922 19.5776 701.653 19.0181 701.228 18.7496C700.802 18.4811 699.974 18.1902 699.011 18.1902H694.421V22.0839H699.145Z" fill="#010038"/>
<path d="M710.811 7.78442H714.707V25.5524H710.811V7.78442Z" fill="#010038"/>
<path d="M720.684 7.78442H724.289L732.618 18.7495V7.78442H736.491V25.5524H733.178L724.423 14.2963V25.5524H720.684V7.78442Z" fill="#010038"/>
<path d="M748.315 7.65015H751.92L759.555 25.5523H755.525L753.868 21.5243H746.367L744.71 25.5523H740.68L748.315 7.65015ZM752.48 18.1901L750.129 12.3719L747.778 18.1901H752.48Z" fill="#010038"/>
<path d="M763.719 7.78442H767.324L775.653 18.7495V7.78442H779.549V25.5524H776.213L767.593 14.2963V25.5524H763.719V7.78442Z" fill="#010038"/>
<path d="M793.699 25.8211C792.445 25.8211 791.191 25.5526 790.094 25.1274C787.877 24.1652 786.198 22.4868 785.235 20.2714C784.81 19.1525 784.541 17.9218 784.541 16.6686C784.541 14.3189 785.504 11.9469 787.183 10.1567C788.012 9.32871 788.997 8.635 790.094 8.20982C791.348 7.65038 792.602 7.51611 793.833 7.51611C794.527 7.51611 795.356 7.51611 796.05 7.65038C796.744 7.78465 797.304 7.91891 797.863 8.20982C798.423 8.47836 798.983 8.76927 799.386 9.0378C799.811 9.30634 800.349 9.73151 800.774 10.1567L798.423 13.0658C797.729 12.5064 797.035 11.9469 796.341 11.5441C795.647 11.1413 794.818 10.9847 793.99 10.9847C793.296 10.9847 792.602 11.1189 791.908 11.4098C791.214 11.6784 790.654 12.1036 790.251 12.663C789.848 13.2224 789.422 13.7819 789.131 14.4756C788.863 15.1693 788.706 15.863 788.706 16.5567C788.706 17.2504 788.84 18.0784 789.131 18.7721C789.422 19.4658 789.691 20.0253 790.251 20.5847C791.214 21.7036 792.602 22.2407 793.99 22.2407C794.818 22.2407 795.804 22.1064 796.632 21.6812C797.326 21.2561 798.155 20.719 798.714 20.1595L801.2 22.6435C800.774 23.0686 800.237 23.6057 799.811 24.0309C799.252 24.4561 798.692 24.7246 798.155 24.9931C797.595 25.2617 796.901 25.5526 796.207 25.6868C795.221 25.8211 794.393 25.8211 793.699 25.8211Z" fill="#010038"/>
<path d="M805.656 7.78442H818.979V11.253H809.396V14.8558H817.859V18.3243H809.396V22.0838H819.113V25.5524H805.656V7.78442Z" fill="#010038"/>
<path d="M695.675 43.0293C694.712 43.0293 693.727 42.8951 692.899 42.4699C692.07 42.2014 691.242 41.6419 690.391 40.9482L691.779 39.4265C692.339 39.986 692.899 40.2545 693.593 40.6797C694.287 40.9482 694.981 41.1049 695.675 41.1049C696.235 41.1049 696.795 40.9706 697.332 40.6797C697.757 40.4112 697.892 39.986 697.892 39.5608C697.892 39.4265 697.892 39.1356 697.757 39.0014C697.623 38.8671 697.489 38.5762 697.332 38.4419C697.063 38.3077 696.772 38.1734 696.503 38.0167C696.078 37.8825 695.541 37.7482 695.115 37.5916C694.555 37.4573 693.861 37.323 693.302 37.0321C692.876 36.8979 692.339 36.607 692.048 36.3384C691.779 36.0699 691.488 35.779 691.219 35.3762C690.951 34.8167 690.951 34.2573 690.951 33.8545C690.951 33.2951 691.085 32.8923 691.219 32.3328C691.354 31.9077 691.779 31.5049 692.048 31.2139C692.473 30.9454 692.876 30.6545 693.436 30.5202C693.996 30.386 694.555 30.2517 695.093 30.2517C695.921 30.2517 696.75 30.386 697.601 30.6769C698.295 30.9454 698.989 31.3706 699.683 31.7958L698.563 33.4517C698.004 33.0265 697.444 32.758 696.906 32.4895C696.347 32.2209 695.787 32.2209 695.25 32.2209C694.69 32.2209 694.13 32.3552 693.727 32.6461C693.458 32.9146 693.167 33.3398 693.167 33.765C693.167 34.0335 693.167 34.1902 693.302 34.4587C693.436 34.593 693.57 34.8839 693.727 35.0181C693.996 35.1524 694.287 35.2867 694.69 35.4433C695.115 35.5776 695.518 35.7119 696.212 35.8685C696.772 36.0028 697.332 36.137 698.026 36.4279C698.451 36.5622 698.854 36.8531 699.28 37.1216C699.549 37.3902 699.84 37.8153 699.974 38.0839C700.108 38.5091 700.243 38.9119 700.243 39.4713C700.243 40.0307 700.108 40.5902 699.974 40.993C699.705 41.4181 699.414 41.8209 699.011 42.2461C698.586 42.5146 698.183 42.8056 697.623 42.9398C696.929 42.8951 696.235 43.0293 695.675 43.0293Z" fill="#010038"/>
<path d="M702.615 30.4084H704.989L708.728 36.2266L712.624 30.4084H714.975V42.8952H712.758V33.877L708.862 39.6952H708.728L704.855 33.877V42.8952H702.615V30.4084Z" fill="#010038"/>
<path d="M722.476 30.2742H724.559L729.977 42.761H727.626L726.372 39.7176H720.551L719.297 42.761H717.08L722.476 30.2742ZM725.678 37.905L723.462 32.9148L721.379 37.905H725.678Z" fill="#010038"/>
<path d="M732.193 30.4084H737.746C738.44 30.4084 739.134 30.5427 739.828 30.677C740.388 30.8112 740.948 31.2364 741.351 31.6392C741.619 31.9078 741.911 32.3329 742.179 32.8924C742.314 33.3175 742.448 33.8546 742.448 34.4141C742.448 34.8392 742.314 35.3763 742.179 35.8015C742.045 36.2266 741.754 36.4952 741.619 36.9203C741.351 37.1889 741.06 37.4798 740.657 37.7483C740.231 38.0169 739.828 38.1735 739.403 38.3078L742.739 43.0295H740.097L737.052 38.7329H734.275V43.0295H732.059L732.193 30.4084ZM737.612 36.5176C738.306 36.5176 739 36.3833 739.425 35.9581C739.851 35.5329 740.119 34.9959 740.119 34.4364C740.119 33.877 739.851 33.3175 739.425 32.9147C738.865 32.4896 738.171 32.3553 737.477 32.3553H734.275V36.5176H737.612Z" fill="#010038"/>
<path d="M748.156 32.3553H744.125V30.4084H754.268V32.3553H750.238V42.8952H748.021L748.156 32.3553Z" fill="#010038"/>
<path d="M767.747 43.0295C766.918 43.0295 766.09 42.8953 765.239 42.4701C763.717 41.7764 762.463 40.6575 761.903 39.1358C761.634 38.3078 761.343 37.4799 761.477 36.6295C761.477 35.8015 761.612 34.9735 761.903 34.1232C762.463 32.6015 763.717 31.3484 765.239 30.6547C766.067 30.3861 766.896 30.0952 767.881 30.0952C768.441 30.0952 769.001 30.0952 769.404 30.2295C769.829 30.3637 770.232 30.498 770.658 30.6547C771.083 30.7889 771.352 31.0798 771.777 31.2141C772.046 31.4826 772.471 31.7735 772.74 32.0421L771.352 33.698C770.926 33.2728 770.389 32.87 769.829 32.5791C769.269 32.3106 768.575 32.154 767.881 32.154C767.321 32.154 766.762 32.2882 766.224 32.4225C765.664 32.691 765.261 32.9819 764.836 33.3847C764.411 33.8099 764.142 34.2127 764.008 34.7722C763.873 35.3316 763.739 35.891 763.739 36.4281C763.739 36.9875 763.873 37.547 764.008 38.0841C764.142 38.6211 764.433 39.0463 764.836 39.4715C765.261 39.8966 765.664 40.1652 766.224 40.4337C766.784 40.7022 767.344 40.8589 767.881 40.7022C768.575 40.7022 769.269 40.568 769.829 40.2771C770.389 40.0085 770.949 39.5834 771.486 39.0239L772.874 40.4113C772.605 40.6799 772.18 41.105 771.911 41.3736C771.486 41.6421 771.217 41.933 770.792 42.0673C770.366 42.2015 769.963 42.4925 769.404 42.4925C768.844 43.0295 768.284 43.0295 767.747 43.0295Z" fill="#010038"/>
<path d="M775.092 30.4084H777.174V35.5329H783.153V30.4084H785.369V42.8952H783.153V37.6141H777.174V42.8952H775.092V30.4084Z" fill="#010038"/>
<path d="M793.006 30.2742H795.088L800.507 42.761H798.156L796.902 39.7176H791.08L789.826 42.761H787.61L793.006 30.2742ZM796.073 37.905L793.991 32.9148L791.909 37.905H796.073Z" fill="#010038"/>
<path d="M802.723 30.4084H804.962V42.8952H802.723V30.4084Z" fill="#010038"/>
<path d="M808.274 30.4084H810.222L816.894 39.0015V30.4084H819.111V42.8952H817.297L810.513 34.0112V42.8952H808.274V30.4084Z" fill="#010038"/>
<path d="M666.254 42.0672V47.4827L661.529 50.2575L656.939 47.4827V42.0672L661.529 44.8421L666.254 42.0672ZM640.975 23.3371L645.565 26.1119V35.3987L653.469 40.1204V45.5358L640.975 38.1735V23.3371ZM682.084 23.3371V38.1959L669.455 45.5582V40.1428L677.359 35.4211V26.1343L682.084 23.3371ZM669.433 15.9748L674.157 18.7496V24.165L666.254 28.8867V38.3078L661.664 41.0826L657.096 38.3078V28.8644L648.901 24.1427V18.7272L653.625 15.9524L661.529 20.6741L669.433 15.9748ZM648.901 28.0364L653.491 30.8112V36.2267L648.901 33.4518V28.0364ZM674.157 28.0364V33.4518L669.567 36.2267V30.8112L674.157 28.0364ZM645.565 11.2531L650.289 14.0279L645.565 16.8028V22.2182L640.975 19.4433V14.0279L645.565 11.2531ZM677.493 11.2531L682.218 14.0279V19.4433L677.493 22.2182V16.8028L672.903 14.0279L677.493 11.2531ZM661.529 11.2531L666.254 14.0279L661.529 16.8028L656.939 14.0279L661.529 11.2531ZM661.529 1.96631L674.157 9.32859L669.567 12.1034L661.664 7.38172L653.603 12.1034L649.013 9.32859L661.529 1.96631Z" fill="#010038"/>
<defs>
<linearGradient id="paint0_linear_1598_11177" x1="531.988" y1="26" x2="566.768" y2="26" gradientUnits="userSpaceOnUse">
<stop stop-color="#110F75"/>
<stop offset="1" stop-color="#E465A3"/>
</linearGradient>
</defs>
</svg>
