<svg width="212" height="35" viewBox="0 0 212 35" fill="none" xmlns="http://www.w3.org/2000/svg">
<path d="M11.0741 17.2705C11.828 17.4806 12.4212 17.8638 12.8538 18.4199C13.2863 18.9637 13.5026 19.6558 13.5026 20.4962C13.5026 21.6209 13.0762 22.486 12.2235 23.0916C11.383 23.6972 10.1533 24 8.5343 24H2.34246V11.0231H8.16354C9.64661 11.0231 10.7898 11.3197 11.5932 11.9129C12.4088 12.5062 12.8167 13.328 12.8167 14.3785C12.8167 15.0583 12.656 15.6453 12.3347 16.1397C12.0257 16.6341 11.6055 17.011 11.0741 17.2705ZM4.1963 12.5247V16.6773H7.99669C8.94833 16.6773 9.67751 16.5043 10.1842 16.1582C10.7033 15.7998 10.9628 15.2807 10.9628 14.601C10.9628 13.9213 10.7033 13.4084 10.1842 13.0623C9.67751 12.7039 8.94833 12.5247 7.99669 12.5247H4.1963ZM8.46015 22.4984C9.51066 22.4984 10.3016 22.3254 10.8331 21.9793C11.3645 21.6333 11.6302 21.0895 11.6302 20.3479C11.6302 18.9019 10.5735 18.1789 8.46015 18.1789H4.1963V22.4984H8.46015ZM25.2715 14.1746V24H23.5845V22.5169C23.2261 23.0236 22.7503 23.4191 22.157 23.7034C21.5762 23.9753 20.9397 24.1112 20.2476 24.1112C18.9375 24.1112 17.9055 23.7528 17.1516 23.036C16.3978 22.3068 16.0208 21.2378 16.0208 19.8288V14.1746H17.8005V19.6249C17.8005 20.5766 18.0291 21.2996 18.4864 21.7939C18.9437 22.2759 19.5987 22.5169 20.4515 22.5169C21.3908 22.5169 22.1323 22.2327 22.6761 21.6642C23.2199 21.0956 23.4918 20.2923 23.4918 19.2542V14.1746H25.2715ZM28.6595 14.1746H30.4392V24H28.6595V14.1746ZM29.5494 12.2837C29.2033 12.2837 28.9129 12.1725 28.6781 11.95C28.4556 11.7275 28.3444 11.4556 28.3444 11.1343C28.3444 10.813 28.4556 10.5411 28.6781 10.3186C28.9129 10.0838 29.2033 9.96638 29.5494 9.96638C29.8954 9.96638 30.1797 10.0776 30.4022 10.3001C30.637 10.5102 30.7544 10.7759 30.7544 11.0972C30.7544 11.4309 30.637 11.7152 30.4022 11.95C30.1797 12.1725 29.8954 12.2837 29.5494 12.2837ZM33.8373 10.2445H35.617V24H33.8373V10.2445ZM44.7748 23.4253C44.5153 23.6478 44.194 23.8208 43.8108 23.9444C43.4277 24.0556 43.0322 24.1112 42.6244 24.1112C41.6356 24.1112 40.8694 23.8455 40.3256 23.3141C39.7818 22.7826 39.5099 22.0226 39.5099 21.0338V15.6392H37.8414V14.1746H39.5099V12.0242H41.2896V14.1746H44.1074V15.6392H41.2896V20.9597C41.2896 21.4911 41.4194 21.899 41.6789 22.1832C41.9508 22.4675 42.3339 22.6096 42.8283 22.6096C43.3721 22.6096 43.8355 22.4551 44.2187 22.1462L44.7748 23.4253ZM56.1133 24.1112C55.1369 24.1112 54.2594 23.8949 53.4808 23.4624C52.7022 23.0298 52.0904 22.4366 51.6455 21.6827C51.2129 20.9164 50.9967 20.0513 50.9967 19.0873C50.9967 18.1233 51.2129 17.2644 51.6455 16.5105C52.0904 15.7442 52.7022 15.151 53.4808 14.7308C54.2594 14.2982 55.1369 14.0819 56.1133 14.0819C57.0896 14.0819 57.9609 14.2982 58.7272 14.7308C59.5058 15.151 60.1114 15.7442 60.544 16.5105C60.9889 17.2644 61.2113 18.1233 61.2113 19.0873C61.2113 20.0513 60.9889 20.9164 60.544 21.6827C60.1114 22.4366 59.5058 23.0298 58.7272 23.4624C57.9609 23.8949 57.0896 24.1112 56.1133 24.1112ZM56.1133 22.554C56.7436 22.554 57.3059 22.4119 57.8003 22.1276C58.307 21.831 58.7025 21.4232 58.9867 20.9041C59.271 20.3726 59.4131 19.7671 59.4131 19.0873C59.4131 18.4076 59.271 17.8082 58.9867 17.2891C58.7025 16.7576 58.307 16.3498 57.8003 16.0655C57.3059 15.7813 56.7436 15.6392 56.1133 15.6392C55.483 15.6392 54.9144 15.7813 54.4077 16.0655C53.9134 16.3498 53.5179 16.7576 53.2213 17.2891C52.937 17.8082 52.7949 18.4076 52.7949 19.0873C52.7949 19.7671 52.937 20.3726 53.2213 20.9041C53.5179 21.4232 53.9134 21.831 54.4077 22.1276C54.9144 22.4119 55.483 22.554 56.1133 22.554ZM68.919 14.0819C70.1673 14.0819 71.156 14.4465 71.8852 15.1757C72.6267 15.8925 72.9975 16.9492 72.9975 18.3458V24H71.2178V18.5497C71.2178 17.5981 70.9891 16.8812 70.5318 16.3992C70.0746 15.9172 69.4195 15.6762 68.5668 15.6762C67.6028 15.6762 66.8427 15.9605 66.2865 16.529C65.7304 17.0852 65.4523 17.8885 65.4523 18.939V24H63.6726V14.1746H65.3782V15.6577C65.7366 15.151 66.2186 14.7617 66.8242 14.4898C67.4421 14.2179 68.1404 14.0819 68.919 14.0819Z" fill="white"/>
<path d="M120.65 4.7491H126.387C127.844 4.7491 128.91 5.14071 129.6 5.81428C130.274 6.39387 130.572 7.17709 130.572 7.94465C130.572 8.24227 130.572 8.61822 130.478 8.91584C130.289 9.40144 129.992 9.88703 129.6 10.2786C129.412 10.4666 129.208 10.5763 129.02 10.6703C129.694 10.8582 130.289 11.2498 130.775 11.7354C131.167 12.221 131.355 12.8006 131.355 13.6778C131.355 14.1634 131.261 14.743 131.057 15.1346C130.869 15.5262 130.478 15.9178 130.086 16.1998C129.6 16.4974 129.114 16.6854 128.628 16.8734C128.048 17.0613 127.359 17.0613 126.685 17.0613H120.744V4.71777H120.65V4.7491ZM125.901 9.79305C126.387 9.79305 126.873 9.69906 127.359 9.49542C127.75 9.30745 127.938 8.91584 127.938 8.52423C127.938 8.13262 127.75 7.74101 127.453 7.55304C127.061 7.25541 126.575 7.16143 126.089 7.25541H123.362V9.87137H125.885V9.79305H125.901ZM126.575 14.7587C127.061 14.7587 127.547 14.6647 128.032 14.461C128.424 14.2731 128.612 13.8815 128.518 13.3959C128.518 13.0043 128.33 12.6126 128.032 12.4247C127.735 12.2367 127.155 12.0331 126.481 12.0331H123.268V14.7587H126.575Z" fill="white"/>
<path d="M134.742 4.74902H137.469V17.1866H134.742V4.74902Z" fill="white"/>
<path d="M141.65 4.74902H144.174L150.004 12.4246V4.74902H152.716V17.1866H150.396L144.268 9.30737V17.1866H141.65V4.74902Z" fill="white"/>
<path d="M160.993 4.65527H163.516L168.861 17.1868H166.04L164.88 14.3672H159.629L158.47 17.1868H155.648L160.993 4.65527ZM163.908 12.0332L162.263 7.96047L160.617 12.0332H163.908Z" fill="white"/>
<path d="M171.775 4.74902H174.299L180.129 12.4246V4.74902H182.856V17.1866H180.521L174.487 9.30737V17.1866H171.775V4.74902Z" fill="white"/>
<path d="M192.764 17.3745C191.886 17.3745 191.008 17.1866 190.24 16.8889C188.689 16.2154 187.513 15.0405 186.839 13.4898C186.542 12.7065 186.354 11.845 186.354 10.9678C186.354 9.32302 187.027 7.66259 188.203 6.40944C188.783 5.82986 189.472 5.34426 190.24 5.04663C191.118 4.65502 191.996 4.56104 192.858 4.56104C193.344 4.56104 193.924 4.56104 194.41 4.65502C194.895 4.74901 195.287 4.843 195.679 5.04663C196.071 5.23461 196.463 5.43825 196.745 5.62622C197.043 5.81419 197.419 6.11182 197.717 6.40944L196.071 8.44581C195.585 8.0542 195.099 7.66259 194.613 7.38063C194.127 7.09867 193.548 6.98902 192.968 6.98902C192.482 6.98902 191.996 7.08301 191.51 7.28664C191.024 7.47462 190.632 7.77224 190.35 8.16385C190.068 8.55546 189.77 8.94707 189.567 9.43267C189.378 9.91827 189.269 10.4039 189.269 10.8895C189.269 11.3751 189.363 11.9546 189.567 12.4402C189.77 12.9258 189.958 13.3174 190.35 13.7091C191.024 14.4923 191.996 14.8682 192.968 14.8682C193.548 14.8682 194.237 14.7742 194.817 14.4766C195.303 14.179 195.883 13.803 196.275 13.4114L198.014 15.1502C197.717 15.4478 197.34 15.8238 197.043 16.1214C196.651 16.419 196.259 16.607 195.883 16.795C195.491 16.9829 195.005 17.1866 194.519 17.2805C193.83 17.3745 193.25 17.3745 192.764 17.3745Z" fill="white"/>
<path d="M201.133 4.74902H210.458V7.17701H203.75V9.69898H209.675V12.127H203.75V14.7586H210.552V17.1866H201.133V4.74902Z" fill="white"/>
<path d="M124.146 29.4204C123.472 29.4204 122.783 29.3264 122.203 29.0288C121.623 28.8408 121.043 28.4492 120.447 27.9636L121.419 26.8985C121.811 27.2901 122.203 27.478 122.689 27.7757C123.174 27.9636 123.66 28.0733 124.146 28.0733C124.538 28.0733 124.93 27.9793 125.306 27.7757C125.604 27.5877 125.698 27.2901 125.698 26.9924C125.698 26.8985 125.698 26.6948 125.604 26.6008C125.51 26.5068 125.416 26.3032 125.306 26.2092C125.118 26.1152 124.914 26.0213 124.726 25.9116C124.428 25.8176 124.052 25.7236 123.754 25.614C123.362 25.52 122.877 25.426 122.485 25.2224C122.187 25.1284 121.811 24.9247 121.607 24.7368C121.419 24.5488 121.215 24.3452 121.027 24.0632C120.839 23.6716 120.839 23.28 120.839 22.998C120.839 22.6064 120.933 22.3245 121.027 21.9329C121.121 21.6352 121.419 21.3533 121.607 21.1496C121.905 20.9617 122.187 20.758 122.579 20.664C122.971 20.5701 123.362 20.4761 123.739 20.4761C124.319 20.4761 124.898 20.5701 125.494 20.7737C125.98 20.9617 126.466 21.2593 126.952 21.5569L126.168 22.7161C125.776 22.4185 125.384 22.2305 125.008 22.0425C124.616 21.8545 124.225 21.8545 123.848 21.8545C123.457 21.8545 123.065 21.9485 122.783 22.1522C122.594 22.3401 122.391 22.6378 122.391 22.9354C122.391 23.1233 122.391 23.233 122.485 23.421C122.579 23.515 122.673 23.7186 122.783 23.8126C122.971 23.9066 123.174 24.0006 123.457 24.1102C123.754 24.2042 124.036 24.2982 124.522 24.4078C124.914 24.5018 125.306 24.5958 125.792 24.7994C126.09 24.8934 126.372 25.0971 126.67 25.285C126.858 25.473 127.061 25.7706 127.155 25.9586C127.249 26.2562 127.343 26.5382 127.343 26.9298C127.343 27.3214 127.249 27.713 127.155 27.995C126.967 28.2926 126.764 28.5745 126.481 28.8722C126.184 29.0601 125.902 29.2638 125.51 29.3578C125.024 29.3264 124.538 29.4204 124.146 29.4204Z" fill="white"/>
<path d="M129.004 20.5859H130.665L133.283 24.6587L136.01 20.5859H137.656V29.3267H136.104V23.0139L133.377 27.0867H133.283L130.571 23.0139V29.3267H129.004V20.5859Z" fill="white"/>
<path d="M142.906 20.4917H144.364L148.157 29.2325H146.511L145.633 27.1021H141.558L140.681 29.2325H139.129L142.906 20.4917ZM145.147 25.8333L143.596 22.3401L142.138 25.8333H145.147Z" fill="white"/>
<path d="M149.709 20.5859H153.596C154.082 20.5859 154.568 20.6799 155.054 20.7739C155.446 20.8679 155.837 21.1655 156.12 21.4475C156.308 21.6355 156.511 21.9331 156.699 22.3247C156.794 22.6223 156.888 22.9983 156.888 23.3899C156.888 23.6875 156.794 24.0634 156.699 24.361C156.605 24.6587 156.402 24.8466 156.308 25.1443C156.12 25.3322 155.916 25.5359 155.634 25.7239C155.336 25.9118 155.054 26.0215 154.756 26.1155L157.091 29.4206H155.242L153.11 26.4131H151.167V29.4206H149.615L149.709 20.5859ZM153.502 24.8623C153.988 24.8623 154.474 24.7683 154.772 24.4707C155.069 24.1731 155.258 23.7971 155.258 23.4055C155.258 23.0139 155.069 22.6223 154.772 22.3403C154.38 22.0427 153.894 21.9487 153.408 21.9487H151.167V24.8623H153.502Z" fill="white"/>
<path d="M160.882 21.9487H158.061V20.5859H165.161V21.9487H162.339V29.3267H160.788L160.882 21.9487Z" fill="white"/>
<path d="M174.596 29.4202C174.016 29.4202 173.436 29.3262 172.84 29.0286C171.775 28.543 170.897 27.7598 170.505 26.6946C170.317 26.115 170.113 25.5355 170.207 24.9402C170.207 24.3606 170.301 23.781 170.505 23.1858C170.897 22.1206 171.775 21.2434 172.84 20.7578C173.42 20.5698 174 20.3662 174.69 20.3662C175.082 20.3662 175.474 20.3662 175.756 20.4602C176.053 20.5542 176.336 20.6482 176.633 20.7578C176.931 20.8518 177.119 21.0554 177.417 21.1494C177.605 21.3374 177.903 21.541 178.091 21.729L177.119 22.8882C176.821 22.5906 176.445 22.3086 176.053 22.105C175.662 21.917 175.176 21.8073 174.69 21.8073C174.298 21.8073 173.906 21.9013 173.53 21.9953C173.138 22.1833 172.856 22.3869 172.558 22.6689C172.26 22.9665 172.072 23.2485 171.978 23.6401C171.884 24.0317 171.79 24.4233 171.79 24.7992C171.79 25.1908 171.884 25.5825 171.978 25.9584C172.072 26.3343 172.276 26.632 172.558 26.9296C172.856 27.2272 173.138 27.4152 173.53 27.6032C173.922 27.7911 174.314 27.9008 174.69 27.7911C175.176 27.7911 175.662 27.6971 176.053 27.4935C176.445 27.3055 176.837 27.0079 177.213 26.6163L178.185 27.5875C177.997 27.7755 177.699 28.0731 177.511 28.2611C177.213 28.449 177.025 28.6527 176.727 28.7467C176.43 28.8406 176.147 29.0443 175.756 29.0443C175.364 29.4202 174.972 29.4202 174.596 29.4202Z" fill="white"/>
<path d="M179.738 20.5859H181.196V24.1731H185.381V20.5859H186.932V29.3267H185.381V25.6299H181.196V29.3267H179.738V20.5859Z" fill="white"/>
<path d="M192.277 20.4917H193.735L197.528 29.2325H195.882L195.004 27.1021H190.929L190.052 29.2325H188.5L192.277 20.4917ZM194.425 25.8333L192.967 22.3401L191.509 25.8333H194.425Z" fill="white"/>
<path d="M199.078 20.5859H200.645V29.3267H199.078V20.5859Z" fill="white"/>
<path d="M202.965 20.5859H204.328L208.999 26.6011V20.5859H210.551V29.3267H209.281L204.532 23.1079V29.3267H202.965V20.5859Z" fill="white"/>
<path d="M103.551 28.7469V32.5377L100.243 34.4801L97.0305 32.5377V28.7469L100.243 30.6893L103.551 28.7469ZM85.8555 15.6358L89.0685 17.5782V24.0789L94.6011 27.3841V31.1749L85.8555 26.0213V15.6358V15.6358ZM114.632 15.6358V26.037L105.792 31.1906V27.3998L111.324 24.0946V17.5939L114.632 15.6358ZM105.776 10.4822L109.083 12.4246V16.2154L103.551 19.5206V26.1153L100.338 28.0577L97.1402 26.1153V19.5049L91.4038 16.1997V12.4089L94.7108 10.4665L100.243 13.7717L105.776 10.4822ZM91.4038 18.9253L94.6168 20.8677V24.6585L91.4038 22.7161V18.9253ZM109.083 18.9253V22.7161L105.87 24.6585V20.8677L109.083 18.9253ZM89.0685 7.17701L92.3755 9.11939L89.0685 11.0618V14.8526L85.8555 12.9102V9.11939L89.0685 7.17701ZM111.419 7.17701L114.726 9.11939V12.9102L111.419 14.8526V11.0618L108.206 9.11939L111.419 7.17701ZM100.243 7.17701L103.551 9.11939L100.243 11.0618L97.0305 9.11939L100.243 7.17701ZM100.243 0.67627L109.083 5.82987L105.87 7.77225L100.338 4.46706L94.6952 7.77225L91.4822 5.82987L100.243 0.67627Z" fill="white"/>
</svg>
