<svg width="212" height="35" viewBox="0 0 212 35" fill="none" xmlns="http://www.w3.org/2000/svg">
<g opacity="0.4">
<path d="M11.4028 17.2705C12.1567 17.4806 12.7499 17.8638 13.1825 18.4199C13.6151 18.9637 13.8313 19.6558 13.8313 20.4962C13.8313 21.6209 13.405 22.486 12.5522 23.0916C11.7118 23.6972 10.4821 24 8.86304 24H2.67119V11.0231H8.49227C9.97535 11.0231 11.1186 11.3197 11.9219 11.9129C12.7376 12.5062 13.1454 13.328 13.1454 14.3785C13.1454 15.0583 12.9848 15.6453 12.6634 16.1397C12.3545 16.6341 11.9342 17.011 11.4028 17.2705ZM4.52504 12.5247V16.6773H8.32542C9.27707 16.6773 10.0062 16.5043 10.513 16.1582C11.032 15.7998 11.2916 15.2807 11.2916 14.601C11.2916 13.9213 11.032 13.4084 10.513 13.0623C10.0062 12.7039 9.27707 12.5247 8.32542 12.5247H4.52504ZM8.78889 22.4984C9.8394 22.4984 10.6304 22.3254 11.1618 21.9793C11.6932 21.6333 11.959 21.0895 11.959 20.3479C11.959 18.9019 10.9023 18.1789 8.78889 18.1789H4.52504V22.4984H8.78889ZM25.6002 14.1746V24H23.9132V22.5169C23.5548 23.0236 23.079 23.4191 22.4858 23.7034C21.9049 23.9753 21.2684 24.1112 20.5763 24.1112C19.2663 24.1112 18.2343 23.7528 17.4804 23.036C16.7265 22.3068 16.3495 21.2378 16.3495 19.8288V14.1746H18.1292V19.6249C18.1292 20.5766 18.3579 21.2996 18.8152 21.7939C19.2724 22.2759 19.9275 22.5169 20.7802 22.5169C21.7195 22.5169 22.461 22.2327 23.0048 21.6642C23.5486 21.0956 23.8205 20.2923 23.8205 19.2542V14.1746H25.6002ZM28.9883 14.1746H30.768V24H28.9883V14.1746ZM29.8781 12.2837C29.5321 12.2837 29.2416 12.1725 29.0068 11.95C28.7844 11.7275 28.6731 11.4556 28.6731 11.1343C28.6731 10.813 28.7844 10.5411 29.0068 10.3186C29.2416 10.0838 29.5321 9.96638 29.8781 9.96638C30.2242 9.96638 30.5084 10.0776 30.7309 10.3001C30.9657 10.5102 31.0831 10.7759 31.0831 11.0972C31.0831 11.4309 30.9657 11.7152 30.7309 11.95C30.5084 12.1725 30.2242 12.2837 29.8781 12.2837ZM34.166 10.2445H35.9457V24H34.166V10.2445ZM45.1036 23.4253C44.844 23.6478 44.5227 23.8208 44.1396 23.9444C43.7564 24.0556 43.3609 24.1112 42.9531 24.1112C41.9644 24.1112 41.1981 23.8455 40.6543 23.3141C40.1105 22.7826 39.8386 22.0226 39.8386 21.0338V15.6392H38.1702V14.1746H39.8386V12.0242H41.6183V14.1746H44.4362V15.6392H41.6183V20.9597C41.6183 21.4911 41.7481 21.899 42.0076 22.1832C42.2795 22.4675 42.6627 22.6096 43.157 22.6096C43.7008 22.6096 44.1643 22.4551 44.5474 22.1462L45.1036 23.4253ZM56.442 24.1112C55.4656 24.1112 54.5882 23.8949 53.8095 23.4624C53.0309 23.0298 52.4192 22.4366 51.9742 21.6827C51.5417 20.9164 51.3254 20.0513 51.3254 19.0873C51.3254 18.1233 51.5417 17.2644 51.9742 16.5105C52.4192 15.7442 53.0309 15.151 53.8095 14.7308C54.5882 14.2982 55.4656 14.0819 56.442 14.0819C57.4184 14.0819 58.2897 14.2982 59.0559 14.7308C59.8345 15.151 60.4401 15.7442 60.8727 16.5105C61.3176 17.2644 61.5401 18.1233 61.5401 19.0873C61.5401 20.0513 61.3176 20.9164 60.8727 21.6827C60.4401 22.4366 59.8345 23.0298 59.0559 23.4624C58.2897 23.8949 57.4184 24.1112 56.442 24.1112ZM56.442 22.554C57.0723 22.554 57.6346 22.4119 58.129 22.1276C58.6357 21.831 59.0312 21.4232 59.3155 20.9041C59.5997 20.3726 59.7418 19.7671 59.7418 19.0873C59.7418 18.4076 59.5997 17.8082 59.3155 17.2891C59.0312 16.7576 58.6357 16.3498 58.129 16.0655C57.6346 15.7813 57.0723 15.6392 56.442 15.6392C55.8117 15.6392 55.2432 15.7813 54.7365 16.0655C54.2421 16.3498 53.8466 16.7576 53.55 17.2891C53.2657 17.8082 53.1236 18.4076 53.1236 19.0873C53.1236 19.7671 53.2657 20.3726 53.55 20.9041C53.8466 21.4232 54.2421 21.831 54.7365 22.1276C55.2432 22.4119 55.8117 22.554 56.442 22.554ZM69.2477 14.0819C70.496 14.0819 71.4847 14.4465 72.2139 15.1757C72.9554 15.8925 73.3262 16.9492 73.3262 18.3458V24H71.5465V18.5497C71.5465 17.5981 71.3179 16.8812 70.8606 16.3992C70.4033 15.9172 69.7483 15.6762 68.8955 15.6762C67.9315 15.6762 67.1714 15.9605 66.6153 16.529C66.0591 17.0852 65.781 17.8885 65.781 18.939V24H64.0014V14.1746H65.7069V15.6577C66.0653 15.151 66.5473 14.7617 67.1529 14.4898C67.7708 14.2179 68.4691 14.0819 69.2477 14.0819Z" fill="white"/>
<path d="M120.979 4.74935H126.716C128.173 4.74935 129.239 5.14096 129.929 5.81453C130.602 6.39411 130.9 7.17733 130.9 7.94489C130.9 8.24251 130.9 8.61846 130.806 8.91609C130.618 9.40168 130.32 9.88728 129.929 10.2789C129.74 10.4669 129.537 10.5765 129.349 10.6705C130.023 10.8585 130.618 11.2501 131.104 11.7357C131.496 12.2213 131.684 12.8009 131.684 13.6781C131.684 14.1637 131.59 14.7433 131.386 15.1349C131.198 15.5265 130.806 15.9181 130.414 16.2C129.929 16.4977 129.443 16.6856 128.957 16.8736C128.377 17.0616 127.687 17.0616 127.013 17.0616H121.073V4.71802H120.979V4.74935ZM126.23 9.79329C126.716 9.79329 127.201 9.69931 127.687 9.49567C128.079 9.30769 128.267 8.91609 128.267 8.52448C128.267 8.13287 128.079 7.74125 127.781 7.55328C127.389 7.25566 126.904 7.16167 126.418 7.25566H123.691V9.87161H126.214V9.79329H126.23ZM126.904 14.7589C127.389 14.7589 127.875 14.6649 128.361 14.4613C128.753 14.2733 128.941 13.8817 128.847 13.3961C128.847 13.0045 128.659 12.6129 128.361 12.4249C128.063 12.2369 127.484 12.0333 126.81 12.0333H123.597V14.7589H126.904Z" fill="white"/>
<path d="M135.071 4.74927H137.798V17.1868H135.071V4.74927Z" fill="white"/>
<path d="M141.979 4.74927H144.503L150.333 12.4248V4.74927H153.044V17.1868H150.725L144.597 9.30762V17.1868H141.979V4.74927Z" fill="white"/>
<path d="M161.322 4.65527H163.845L169.19 17.1868H166.369L165.209 14.3672H159.958L158.798 17.1868H155.977L161.322 4.65527ZM164.237 12.0332L162.591 7.96047L160.946 12.0332H164.237Z" fill="white"/>
<path d="M172.104 4.74927H174.628L180.458 12.4248V4.74927H183.185V17.1868H180.85L174.816 9.30762V17.1868H172.104V4.74927Z" fill="white"/>
<path d="M193.093 17.3748C192.215 17.3748 191.337 17.1868 190.569 16.8892C189.018 16.2156 187.842 15.0408 187.168 13.49C186.87 12.7068 186.682 11.8452 186.682 10.968C186.682 9.32326 187.356 7.66284 188.532 6.40968C189.112 5.8301 189.801 5.3445 190.569 5.04688C191.447 4.65527 192.325 4.56128 193.187 4.56128C193.673 4.56128 194.252 4.56128 194.738 4.65527C195.224 4.74925 195.616 4.84324 196.008 5.04688C196.4 5.23485 196.791 5.43849 197.074 5.62646C197.371 5.81444 197.748 6.11206 198.045 6.40968L196.4 8.44606C195.914 8.05445 195.428 7.66283 194.942 7.38088C194.456 7.09892 193.876 6.98926 193.296 6.98926C192.81 6.98926 192.325 7.08325 191.839 7.28689C191.353 7.47486 190.961 7.77249 190.679 8.1641C190.397 8.55571 190.099 8.94732 189.895 9.43292C189.707 9.91851 189.597 10.4041 189.597 10.8897C189.597 11.3753 189.692 11.9549 189.895 12.4405C190.099 12.9261 190.287 13.3177 190.679 13.7093C191.353 14.4925 192.325 14.8685 193.296 14.8685C193.876 14.8685 194.566 14.7745 195.146 14.4769C195.632 14.1792 196.212 13.8033 196.603 13.4117L198.343 15.1504C198.045 15.4481 197.669 15.824 197.371 16.1216C196.98 16.4192 196.588 16.6072 196.212 16.7952C195.82 16.9832 195.334 17.1868 194.848 17.2808C194.158 17.3748 193.578 17.3748 193.093 17.3748Z" fill="white"/>
<path d="M201.462 4.74927H210.787V7.17725H204.079V9.69923H210.003V12.1272H204.079V14.7588H210.881V17.1868H201.462V4.74927Z" fill="white"/>
<path d="M124.475 29.4207C123.801 29.4207 123.111 29.3267 122.531 29.029C121.951 28.8411 121.372 28.4495 120.776 27.9639L121.748 26.8987C122.14 27.2903 122.531 27.4783 123.017 27.7759C123.503 27.9639 123.989 28.0735 124.475 28.0735C124.867 28.0735 125.259 27.9795 125.635 27.7759C125.933 27.5879 126.027 27.2903 126.027 26.9927C126.027 26.8987 126.027 26.6951 125.932 26.6011C125.838 26.5071 125.744 26.3035 125.635 26.2095C125.447 26.1155 125.243 26.0215 125.055 25.9118C124.757 25.8179 124.381 25.7239 124.083 25.6142C123.691 25.5202 123.205 25.4262 122.814 25.2226C122.516 25.1286 122.14 24.925 121.936 24.737C121.748 24.549 121.544 24.3454 121.356 24.0635C121.168 23.6718 121.168 23.2802 121.168 22.9983C121.168 22.6067 121.262 22.3247 121.356 21.9331C121.45 21.6355 121.748 21.3535 121.936 21.1499C122.234 20.9619 122.516 20.7583 122.908 20.6643C123.299 20.5703 123.691 20.4763 124.067 20.4763C124.647 20.4763 125.227 20.5703 125.823 20.7739C126.309 20.9619 126.795 21.2595 127.28 21.5572L126.497 22.7163C126.105 22.4187 125.713 22.2307 125.337 22.0428C124.945 21.8548 124.553 21.8548 124.177 21.8548C123.785 21.8548 123.393 21.9488 123.111 22.1524C122.923 22.3404 122.719 22.638 122.719 22.9356C122.719 23.1236 122.719 23.2332 122.814 23.4212C122.908 23.5152 123.002 23.7188 123.111 23.8128C123.299 23.9068 123.503 24.0008 123.785 24.1104C124.083 24.2044 124.365 24.2984 124.851 24.4081C125.243 24.5021 125.635 24.596 126.121 24.7997C126.418 24.8937 126.7 25.0973 126.998 25.2853C127.186 25.4732 127.39 25.7709 127.484 25.9588C127.578 26.2565 127.672 26.5384 127.672 26.93C127.672 27.3216 127.578 27.7132 127.484 27.9952C127.296 28.2928 127.092 28.5748 126.81 28.8724C126.512 29.0604 126.23 29.264 125.838 29.358C125.353 29.3267 124.867 29.4207 124.475 29.4207Z" fill="white"/>
<path d="M129.333 20.5859H130.994L133.611 24.6587L136.339 20.5859H137.984V29.3267H136.433V23.0139L133.705 27.0867H133.611L130.9 23.0139V29.3267H129.333V20.5859Z" fill="white"/>
<path d="M143.235 20.4919H144.693L148.485 29.2327H146.84L145.962 27.1024H141.887L141.009 29.2327H139.458L143.235 20.4919ZM145.476 25.8335L143.925 22.3404L142.467 25.8335H145.476Z" fill="white"/>
<path d="M150.038 20.5859H153.925C154.411 20.5859 154.897 20.6799 155.383 20.7739C155.774 20.8679 156.166 21.1655 156.448 21.4475C156.636 21.6355 156.84 21.9331 157.028 22.3247C157.122 22.6223 157.216 22.9983 157.216 23.3899C157.216 23.6875 157.122 24.0634 157.028 24.361C156.934 24.6587 156.73 24.8466 156.636 25.1443C156.448 25.3322 156.245 25.5359 155.962 25.7239C155.665 25.9118 155.383 26.0215 155.085 26.1155L157.42 29.4206H155.571L153.439 26.4131H151.496V29.4206H149.944L150.038 20.5859ZM153.831 24.8623C154.317 24.8623 154.803 24.7683 155.1 24.4707C155.398 24.1731 155.586 23.7971 155.586 23.4055C155.586 23.0139 155.398 22.6223 155.1 22.3403C154.709 22.0427 154.223 21.9487 153.737 21.9487H151.496V24.8623H153.831Z" fill="white"/>
<path d="M161.21 21.9487H158.389V20.5859H165.489V21.9487H162.668V29.3267H161.116L161.21 21.9487Z" fill="white"/>
<path d="M174.925 29.4207C174.345 29.4207 173.765 29.3267 173.169 29.0291C172.103 28.5435 171.226 27.7603 170.834 26.6951C170.646 26.1155 170.442 25.5359 170.536 24.9407C170.536 24.3611 170.63 23.7815 170.834 23.1863C171.226 22.1211 172.103 21.2439 173.169 20.7583C173.749 20.5703 174.329 20.3667 175.019 20.3667C175.41 20.3667 175.802 20.3667 176.084 20.4607C176.382 20.5547 176.664 20.6487 176.962 20.7583C177.26 20.8523 177.448 21.0559 177.746 21.1499C177.934 21.3379 178.232 21.5415 178.42 21.7295L177.448 22.8887C177.15 22.591 176.774 22.3091 176.382 22.1054C175.99 21.9175 175.504 21.8078 175.019 21.8078C174.627 21.8078 174.235 21.9018 173.859 21.9958C173.467 22.1838 173.185 22.3874 172.887 22.6694C172.589 22.967 172.401 23.2489 172.307 23.6406C172.213 24.0322 172.119 24.4238 172.119 24.7997C172.119 25.1913 172.213 25.5829 172.307 25.9589C172.401 26.3348 172.605 26.6325 172.887 26.9301C173.185 27.2277 173.467 27.4157 173.859 27.6036C174.251 27.7916 174.642 27.9013 175.019 27.7916C175.504 27.7916 175.99 27.6976 176.382 27.494C176.774 27.306 177.166 27.0084 177.542 26.6168L178.514 27.588C178.326 27.776 178.028 28.0736 177.84 28.2616C177.542 28.4495 177.354 28.6532 177.056 28.7471C176.758 28.8411 176.476 29.0448 176.084 29.0448C175.693 29.4207 175.301 29.4207 174.925 29.4207Z" fill="white"/>
<path d="M180.067 20.5859H181.525V24.1731H185.709V20.5859H187.261V29.3267H185.709V25.6299H181.525V29.3267H180.067V20.5859Z" fill="white"/>
<path d="M192.606 20.4919H194.064L197.857 29.2327H196.211L195.333 27.1024H191.258L190.38 29.2327H188.829L192.606 20.4919ZM194.753 25.8335L193.296 22.3404L191.838 25.8335H194.753Z" fill="white"/>
<path d="M199.407 20.5859H200.974V29.3267H199.407V20.5859Z" fill="white"/>
<path d="M203.294 20.5859H204.657L209.328 26.6011V20.5859H210.879V29.3267H209.61L204.861 23.1079V29.3267H203.294V20.5859Z" fill="white"/>
<path d="M103.879 28.7472V32.538L100.572 34.4804L97.3592 32.538V28.7472L100.572 30.6896L103.879 28.7472ZM86.1842 15.636L89.3972 17.5784V24.0792L94.9299 27.3844V31.1751L86.1842 26.0216V15.636ZM114.96 15.636V26.0372L106.121 31.1908V27.4L111.653 24.0948V17.5941L114.96 15.636ZM106.105 10.4824L109.412 12.4248V16.2156L103.879 19.5208V26.1155L100.666 28.0579L97.4689 26.1155V19.5052L91.7325 16.2V12.4092L95.0396 10.4668L100.572 13.772L106.105 10.4824ZM91.7325 18.9256L94.9455 20.868V24.6588L91.7325 22.7164V18.9256ZM109.412 18.9256V22.7164L106.199 24.6588V20.868L109.412 18.9256ZM89.3972 7.17725L92.7043 9.11964L89.3972 11.062V14.8528L86.1842 12.9104V9.11964L89.3972 7.17725ZM111.747 7.17725L115.054 9.11964V12.9104L111.747 14.8528V11.062L108.534 9.11964L111.747 7.17725ZM100.572 7.17725L103.879 9.11964L100.572 11.062L97.3592 9.11964L100.572 7.17725ZM100.572 0.676514L109.412 5.83011L106.199 7.7725L100.666 4.4673L95.0239 7.7725L91.8109 5.83011L100.572 0.676514Z" fill="white"/>
</g>
</svg>
