<svg width="60" height="60" viewBox="0 0 60 60" fill="none" xmlns="http://www.w3.org/2000/svg">
<path fill-rule="evenodd" clip-rule="evenodd" d="M42.9999 11C42.9999 9.89543 42.1045 9 40.9999 9H18.9999C17.8954 9 16.9999 9.89543 16.9999 11V29C16.9999 30.1046 16.1045 31 14.9999 31H10.4903C8.62356 31 7.77454 33.3308 9.20388 34.5314L28.7134 50.9194C29.4572 51.5442 30.5424 51.5442 31.2862 50.9194L50.7957 34.5314C52.2251 33.3308 51.3761 31 49.5094 31H44.9999C43.8954 31 42.9999 30.1046 42.9999 29V11Z" fill="black"/>
<path d="M30.0967 19.6924V23.077" stroke="white" stroke-width="2" stroke-linecap="round" stroke-linejoin="round"/>
<path d="M30.0967 34.9231V38.3077" stroke="white" stroke-width="2" stroke-linecap="round" stroke-linejoin="round"/>
<path d="M34.1665 23.0769H27.9165C27.143 23.0769 26.4011 23.3889 25.8541 23.9443C25.3072 24.4997 24.9999 25.253 24.9999 26.0384C24.9999 26.8239 25.3072 27.5772 25.8541 28.1326C26.4011 28.688 27.143 29 27.9165 29H32.0832C32.8568 29 33.5986 29.312 34.1456 29.8674C34.6926 30.4228 34.9999 31.1761 34.9999 31.9615C34.9999 32.747 34.6926 33.5002 34.1456 34.0556C33.5986 34.611 32.8568 34.9231 32.0832 34.9231H24.9999" stroke="white" stroke-width="2" stroke-linecap="round" stroke-linejoin="round"/>
</svg>
