<svg width="133" height="35" viewBox="0 0 133 35" fill="none" xmlns="http://www.w3.org/2000/svg">
<g opacity="0.6">
<g clip-path="url(#clip0_1598_10851)">
<path d="M6.75324 4.05399C6.66584 4.62552 6.49905 5.18248 6.25756 5.70919C6.15399 5.94252 6.05781 6.13212 5.99123 6.27066C5.95814 6.34676 5.91854 6.41993 5.87286 6.4894C5.71508 6.36238 5.57787 6.2124 5.46596 6.04462C5.18998 5.63884 5.05976 5.15368 5.09605 4.66649C5.15824 4.03913 5.36853 3.43481 5.71009 2.90189C5.78408 2.77794 5.85806 2.66127 5.92464 2.56648C5.98401 2.47803 6.04822 2.39283 6.117 2.31127L6.29455 2.09253C6.4191 2.25737 6.51878 2.43911 6.59048 2.63211C6.66738 2.83179 6.71955 3.0399 6.74584 3.2519C6.78578 3.51765 6.78827 3.78757 6.75324 4.05399Z" fill="url(#paint0_linear_1598_10851)"/>
<path d="M4.25264 8.41449C4.32438 9.04796 4.30945 9.68805 4.20825 10.3176C4.20825 10.4561 4.17126 10.5801 4.14906 10.6968C4.12687 10.8134 4.11207 10.9082 4.09727 10.9957L4.03809 11.2582C3.82996 11.1701 3.63761 11.0494 3.46843 10.9009C3.28981 10.7474 3.13303 10.5708 3.00234 10.3759C2.84165 10.1174 2.72658 9.83384 2.66202 9.53739C2.54619 8.85624 2.5892 8.15806 2.78779 7.49573C2.85351 7.24785 2.93505 7.00431 3.03193 6.76656C3.10592 6.58427 3.1577 6.48218 3.1577 6.48218L3.29827 6.59885C3.41923 6.71114 3.53059 6.83308 3.63119 6.96343C3.77923 7.14809 3.90118 7.35169 3.9937 7.56865C4.11814 7.83786 4.20523 8.12237 4.25264 8.41449Z" fill="url(#paint1_linear_1598_10851)"/>
<path d="M2.97283 13.2781C3.23504 13.9284 3.4212 14.606 3.52769 15.2979C3.52769 15.4437 3.57208 15.5895 3.59428 15.7135C3.61647 15.8374 3.59428 15.9468 3.63867 16.0416C3.68306 16.1364 3.67566 16.3333 3.67566 16.3333C3.60671 16.3386 3.53745 16.3386 3.46851 16.3333C3.29392 16.3012 3.12294 16.2524 2.95803 16.1874C2.71716 16.087 2.49277 15.9518 2.29219 15.7864C2.03008 15.5654 1.81184 15.2984 1.64855 14.9989C1.30327 14.2927 1.13578 13.5148 1.16027 12.7312C1.14873 12.571 1.14873 12.4102 1.16027 12.2499C1.16027 12.1041 1.16027 11.9729 1.16027 11.8635C1.16027 11.7541 1.21205 11.5281 1.21205 11.5281C1.44544 11.6236 1.66253 11.7539 1.8557 11.9145C2.06054 12.0761 2.24663 12.2595 2.41056 12.4614C2.63212 12.7092 2.82104 12.9836 2.97283 13.2781Z" fill="url(#paint2_linear_1598_10851)"/>
<path d="M3.23171 18.3384C3.73744 18.9116 4.17435 19.5404 4.53379 20.2124L4.65216 20.4238C4.68916 20.4894 4.72615 20.5478 4.75574 20.6134C4.78533 20.679 4.88151 20.8395 4.9259 20.9342L5.07386 21.2186C5.00152 21.2419 4.92726 21.259 4.85192 21.2697C4.65768 21.2907 4.46169 21.2907 4.26746 21.2697C3.60974 21.2376 2.98416 20.9797 2.49929 20.5405C1.87984 19.9289 1.42032 19.1782 1.16021 18.353C1.09363 18.1707 1.04924 17.9957 1.00485 17.8353C0.960461 17.6749 0.930868 17.5363 0.908673 17.4197C0.864284 17.179 0.849487 17.0332 0.849487 17.0332H1.07143C1.26558 17.074 1.45608 17.13 1.6411 17.2009C1.90025 17.3049 2.14811 17.4344 2.38092 17.5874C2.52313 17.6807 2.65904 17.783 2.78782 17.8936C2.94889 18.0286 3.09745 18.1775 3.23171 18.3384Z" fill="url(#paint3_linear_1598_10851)"/>
<path d="M5.12566 23.0636L5.40679 23.224L5.68052 23.399L6.1984 23.7781L6.44254 23.975L6.56091 24.0771L6.67928 24.1719L7.10837 24.551C7.38211 24.7771 7.59666 24.9958 7.75942 25.1417L8.01096 25.3896C7.94534 25.4363 7.87607 25.4777 7.80381 25.5136C7.6207 25.6119 7.42719 25.6902 7.22675 25.7469C6.93153 25.8322 6.62412 25.8691 6.31677 25.8563C5.91061 25.8425 5.51106 25.7508 5.14045 25.5865C4.29249 25.1687 3.56103 24.5529 3.00977 23.7927C2.884 23.625 2.77303 23.4573 2.67685 23.3115C2.58067 23.1656 2.49189 23.0271 2.43271 22.9104C2.30694 22.6771 2.24036 22.5386 2.24036 22.5386L2.4845 22.4948C2.69607 22.4744 2.90917 22.4744 3.12074 22.4948L3.54984 22.5386C3.7052 22.5386 3.86796 22.5969 4.03812 22.6406C4.20828 22.6844 4.38584 22.75 4.56339 22.8229C4.75642 22.8898 4.94433 22.9702 5.12566 23.0636Z" fill="url(#paint4_linear_1598_10851)"/>
<path d="M8.42532 26.972C8.88455 27.0659 9.33686 27.1901 9.77919 27.3438C9.99374 27.4168 10.2083 27.4897 10.408 27.5699L10.704 27.6865L10.9777 27.7886C11.3402 27.9345 11.6509 28.0511 11.8655 28.1532L12.1244 28.2626L12.2132 28.299C12.1653 28.3699 12.1134 28.438 12.0578 28.5032C11.912 28.6754 11.7456 28.8297 11.5622 28.9626C11.2971 29.1558 11.0024 29.3059 10.6892 29.4074C10.4946 29.4715 10.2937 29.5155 10.0899 29.5386C9.84391 29.5627 9.5961 29.5627 9.3501 29.5386C9.10086 29.5107 8.85373 29.4669 8.61027 29.4074C8.35897 29.3333 8.11199 29.2457 7.87045 29.1449C7.62631 29.0355 7.38957 28.9188 7.13063 28.7949C6.8717 28.6709 6.70154 28.5324 6.50178 28.4011L6.36122 28.3063L6.22805 28.2042L5.99131 28.0147C5.83595 27.8907 5.70278 27.7813 5.5992 27.6792C5.49563 27.5772 5.27368 27.3511 5.27368 27.3511C5.34749 27.3074 5.4241 27.2684 5.50303 27.2345C5.713 27.1407 5.93083 27.0651 6.15407 27.0084C6.30505 26.9702 6.45822 26.941 6.61276 26.9209C6.78894 26.892 6.9669 26.875 7.14543 26.8699C7.5691 26.8535 7.99332 26.8828 8.41052 26.9574L8.42532 26.972Z" fill="url(#paint5_linear_1598_10851)"/>
<path d="M12.9087 29.5968C13.1531 29.549 13.4001 29.5149 13.6485 29.4947C13.9 29.4947 14.1516 29.4436 14.3883 29.4363C14.625 29.4291 14.8766 29.4363 15.1281 29.4363H15.7866C16.2009 29.4363 16.5264 29.4363 16.8075 29.4363H17.2144C17.1994 29.5272 17.1796 29.6173 17.1552 29.7061C17.0855 29.9318 16.9913 30.1494 16.8741 30.3551C16.7942 30.4983 16.7026 30.6348 16.6004 30.7634C16.5456 30.8374 16.4863 30.908 16.4228 30.9749C16.3548 31.0441 16.2832 31.1098 16.2083 31.1718C16.0393 31.3149 15.8586 31.4442 15.6682 31.5582C15.4325 31.6823 15.1846 31.7825 14.9284 31.8572C14.6561 31.9419 14.3761 32.0005 14.0924 32.0322C13.7981 32.0698 13.501 32.082 13.2046 32.0686C12.9095 32.0643 12.6151 32.0375 12.3242 31.9884C12.0522 31.9488 11.7829 31.8927 11.5178 31.8207L11.1553 31.7186L10.8298 31.6093C10.6226 31.5364 10.4377 31.4707 10.2971 31.4051C10.0012 31.2739 9.82361 31.179 9.82361 31.179C9.88534 31.1088 9.95209 31.043 10.0234 30.9822C10.2016 30.8147 10.3947 30.6634 10.6004 30.5301C10.9061 30.3382 11.2279 30.1723 11.5622 30.0343C11.9935 29.8405 12.445 29.6938 12.9087 29.5968Z" fill="url(#paint6_linear_1598_10851)"/>
<path d="M7.71501 4.77598C7.18071 4.99352 6.71018 5.33946 6.34634 5.78223C6.21214 5.94188 6.08857 6.10995 5.97643 6.28536L5.84326 6.48952C6.0361 6.55728 6.23803 6.5966 6.44252 6.60619C6.91548 6.64322 7.39045 6.56562 7.82598 6.38015C8.28884 6.15407 8.71516 5.86166 9.09107 5.51244L9.31302 5.30827C9.3796 5.24265 9.43879 5.1916 9.48318 5.14056L9.62375 4.98744C9.45788 4.87766 9.27567 4.79402 9.08368 4.73953C8.64005 4.59008 8.15863 4.59008 7.71501 4.73953V4.77598Z" fill="url(#paint7_linear_1598_10851)"/>
<path d="M5.48826 8.90298C4.99791 9.291 4.61175 9.79177 4.36373 10.3613C4.30454 10.4877 4.25276 10.6044 4.20837 10.7113L4.11219 10.9957C4.0604 11.1561 4.03821 11.2582 4.03821 11.2582C4.26388 11.2678 4.48992 11.2507 4.71145 11.2071C4.93597 11.165 5.15454 11.0965 5.36249 11.003C5.6279 10.8967 5.87693 10.7544 6.10231 10.5801C6.53376 10.2064 6.90321 9.76843 7.19724 9.28214C7.33041 9.07797 7.43398 8.89568 7.50797 8.76443L7.61154 8.55297L7.43399 8.50922C7.27634 8.47328 7.11489 8.45616 6.9531 8.4582C6.72589 8.45179 6.49898 8.47882 6.27987 8.53839C5.99527 8.6103 5.7268 8.73394 5.48826 8.90298Z" fill="url(#paint8_linear_1598_10851)"/>
<path d="M4.42281 13.4312C4.00912 13.9731 3.75332 14.616 3.68299 15.2906C3.68299 15.4437 3.68299 15.5823 3.646 15.7062V16.0416C3.646 16.2239 3.646 16.3333 3.646 16.3333C3.71147 16.3185 3.77575 16.299 3.83835 16.275C4.00775 16.2144 4.17119 16.1387 4.32663 16.0489C4.54217 15.9275 4.74533 15.7859 4.93328 15.626C5.16068 15.4334 5.36207 15.2128 5.53254 14.9697C5.85732 14.4735 6.10658 13.933 6.27236 13.3656C6.27236 13.2416 6.34634 13.1249 6.36854 13.0229C6.39073 12.9208 6.42032 12.826 6.44252 12.7531L6.5017 12.5052C6.25288 12.4964 6.00401 12.5209 5.76188 12.5781C5.52213 12.6364 5.29092 12.7246 5.07385 12.8406C4.82415 12.9993 4.60394 13.1991 4.42281 13.4312Z" fill="url(#paint9_linear_1598_10851)"/>
<path d="M4.7779 17.9957C4.55191 18.705 4.52887 19.4619 4.71132 20.1832C4.71132 20.2634 4.74831 20.3364 4.7631 20.4093L4.82969 20.6207C4.87408 20.752 4.91107 20.8614 4.94806 20.9561C4.97032 21.0317 5.00005 21.105 5.03684 21.1749L5.07383 21.2551L5.25139 21.1239C5.39625 20.9996 5.53221 20.8656 5.65829 20.7228C6.05308 20.2778 6.34356 19.7525 6.50908 19.1843C6.665 18.5696 6.72979 17.936 6.70143 17.303C6.70143 17.1718 6.70143 17.0478 6.70143 16.9384C6.70143 16.8291 6.70143 16.727 6.70143 16.6468C6.70143 16.5666 6.70143 16.3843 6.70143 16.3843L6.49428 16.4499C6.31509 16.5156 6.14185 16.5961 5.97641 16.6905C5.60742 16.9044 5.29548 17.2018 5.06643 17.5582C4.95517 17.6938 4.85847 17.8405 4.7779 17.9957Z" fill="url(#paint10_linear_1598_10851)"/>
<path d="M6.5906 22.1886C6.5906 22.2907 6.5906 22.3928 6.5906 22.4876C6.5906 22.5823 6.5906 22.6917 6.5906 22.7865C6.62065 22.9876 6.67019 23.1854 6.73856 23.3771L6.83474 23.6615C6.83474 23.7053 6.87173 23.749 6.89392 23.8L6.96051 23.9313C7.04189 24.099 7.13066 24.2667 7.21944 24.4198C7.37372 24.6751 7.54681 24.9188 7.73732 25.149L7.96666 25.4115C8.01531 25.3488 8.05979 25.283 8.09983 25.2146C8.20841 25.0376 8.30242 24.8523 8.38096 24.6605C8.48953 24.3938 8.57371 24.118 8.6325 23.8365C8.70237 23.5009 8.7297 23.158 8.71388 22.8157C8.66436 22.1399 8.51739 21.4745 8.27739 20.8396C8.2256 20.7084 8.18121 20.5771 8.13682 20.4678C8.09243 20.3584 8.04804 20.2636 8.01845 20.1834C7.98788 20.0934 7.95079 20.0057 7.90748 19.9209L7.71512 20.0594C7.55285 20.1849 7.40186 20.324 7.26383 20.475C7.1729 20.5764 7.08887 20.6836 7.01229 20.7959C6.93331 20.9205 6.86168 21.0496 6.79774 21.1823C6.72411 21.3372 6.66468 21.4983 6.62019 21.6636C6.59525 21.8375 6.58535 22.0131 6.5906 22.1886Z" fill="url(#paint11_linear_1598_10851)"/>
<path d="M9.62376 25.6302C9.75139 26.0423 9.95449 26.4278 10.223 26.7677C10.3497 26.9372 10.4908 27.0958 10.6447 27.2417L10.8667 27.4532L11.0886 27.6428C11.3372 27.8357 11.5992 28.0111 11.8728 28.1678L12.1244 28.2917L12.2131 28.3354C12.2367 28.2517 12.254 28.1664 12.2649 28.0802C12.3043 27.866 12.3266 27.649 12.3315 27.4313C12.3395 27.1239 12.3197 26.8164 12.2723 26.5125C12.2723 26.3448 12.2131 26.1698 12.1687 25.9948C12.1219 25.8136 12.0626 25.6358 11.9912 25.4625C11.715 24.817 11.3517 24.2112 10.911 23.6615L10.8445 23.574L10.7853 23.4427C10.7483 23.3844 10.7039 23.3334 10.6669 23.2823C10.6299 23.2313 10.5115 23.1073 10.4598 23.0344L10.2674 22.8157C10.2112 22.8803 10.1593 22.9485 10.112 23.0198C9.98379 23.1978 9.87469 23.3884 9.78652 23.5886C9.7266 23.7191 9.67472 23.853 9.63115 23.9896C9.58984 24.1432 9.55773 24.299 9.53498 24.4563C9.51617 24.6357 9.51617 24.8165 9.53498 24.9959C9.54167 25.2098 9.57143 25.4225 9.62376 25.6302Z" fill="url(#paint12_linear_1598_10851)"/>
<path d="M8.73605 1.70633C8.20681 2.17335 7.80706 2.76558 7.57453 3.42715C7.53014 3.5584 7.48576 3.67508 7.45616 3.78446C7.42657 3.89383 7.41177 3.98134 7.39698 4.06154C7.38218 4.14175 7.35999 4.30216 7.35999 4.30216C7.43812 4.27469 7.51468 4.24304 7.58933 4.20736L7.84827 4.08342L8.17379 3.9157C8.74791 3.6187 9.28641 3.25916 9.7792 2.84383C10.2535 2.4196 10.6847 1.9507 11.0665 1.44382L11.2884 1.15945C11.355 1.07195 11.4068 0.999046 11.4586 0.940713L11.5992 0.729248H11.3402H11.0443C10.9333 0.729248 10.8076 0.729238 10.667 0.787572C10.5138 0.811885 10.3629 0.84846 10.2157 0.896942L9.97155 0.969863L9.72741 1.07923L9.47587 1.1959C9.38951 1.24018 9.30555 1.28886 9.22433 1.34175L8.97279 1.50946L8.73605 1.70633Z" fill="url(#paint13_linear_1598_10851)"/>
<path d="M13.5671 27.7666C13.7087 27.9417 13.8646 28.1051 14.0332 28.2552C14.2126 28.3994 14.4004 28.5333 14.5954 28.6562C14.8026 28.7656 15.0023 28.8677 15.2095 28.9552C15.4166 29.0427 15.6238 29.101 15.8161 29.1594C16.1411 29.2448 16.4727 29.3033 16.8075 29.3343C17.0664 29.3343 17.2144 29.3343 17.2144 29.3343C17.1993 29.2435 17.1796 29.1534 17.1552 29.0646C17.0943 28.8385 17.0177 28.6168 16.9259 28.401C16.867 28.2566 16.8004 28.1154 16.7261 27.9781C16.6891 27.9052 16.6521 27.8323 16.6077 27.7594C16.5634 27.6864 16.5264 27.6062 16.4746 27.526C16.4228 27.4458 16.2748 27.2198 16.1639 27.0739C16.0462 26.9168 15.9203 26.7659 15.7865 26.6218C15.2829 26.1154 14.7219 25.6677 14.1146 25.2875L13.9296 25.1781L13.7668 25.076L13.4857 24.9083C13.4045 24.8576 13.3205 24.8114 13.2342 24.7698C13.2342 24.7698 13.1972 24.8573 13.1454 25.025C13.0819 25.247 13.0373 25.4738 13.0122 25.7031C12.9793 26.0222 12.9968 26.3445 13.064 26.6583C13.147 27.0597 13.3187 27.4382 13.5671 27.7666Z" fill="url(#paint14_linear_1598_10851)"/>
<path d="M18.1836 33.301C18.6308 32.6495 18.9032 31.8969 18.9752 31.1135C19.0092 30.8255 19.024 30.5357 19.0196 30.2458C19.0196 30.0343 19.0196 29.9031 19.0196 29.9031C18.7298 29.979 18.4512 30.0917 18.191 30.2385C17.6002 30.5556 17.0933 31.0052 16.7113 31.551C16.3323 32.1596 16.0551 32.8244 15.8901 33.5198C15.8901 33.6656 15.8236 33.8041 15.794 33.9281C15.7644 34.052 15.7422 34.1541 15.7274 34.2489C15.7126 34.3437 15.683 34.5333 15.683 34.5333C15.9781 34.5284 16.2714 34.4868 16.556 34.4093C16.8452 34.3283 17.1215 34.208 17.3772 34.052C17.6929 33.8556 17.9667 33.6005 18.1836 33.301Z" fill="url(#paint15_linear_1598_10851)"/>
<path d="M19.8406 33.301C19.3934 32.6495 19.121 31.8969 19.049 31.1135C19.0132 30.8257 19.0009 30.5355 19.012 30.2458C19.012 30.0343 19.012 29.9031 19.012 29.9031C19.3018 29.979 19.5804 30.0917 19.8406 30.2385C20.4329 30.5536 20.9402 31.0036 21.3203 31.551C21.6993 32.1596 21.9765 32.8244 22.1415 33.5198C22.1415 33.6656 22.2155 33.8041 22.2377 33.9281C22.2599 34.052 22.2894 34.1541 22.3042 34.2489C22.3251 34.3427 22.3399 34.4377 22.3486 34.5333C22.0535 34.5284 21.7602 34.4868 21.4756 34.4093C21.187 34.3269 20.9108 34.2067 20.6544 34.052C20.3373 33.8548 20.0612 33.5999 19.8406 33.301Z" fill="url(#paint16_linear_1598_10851)"/>
<path d="M30.3462 4.96547C30.8622 5.17938 31.3169 5.5149 31.6705 5.94255C31.8013 6.09795 31.9224 6.26111 32.033 6.43111C32.1144 6.55506 32.1588 6.63527 32.1588 6.63527C31.9684 6.70253 31.7689 6.74182 31.5669 6.75192C31.1073 6.78991 30.6453 6.71736 30.2204 6.54048C29.7624 6.32594 29.3407 6.04311 28.9701 5.70194L28.7556 5.49777L28.5928 5.34463C28.5427 5.29658 28.4958 5.24544 28.4523 5.19151C28.6186 5.08083 28.8006 4.99484 28.9923 4.9363C29.1891 4.87624 29.3931 4.84193 29.599 4.83423C29.8539 4.83537 30.1066 4.87976 30.3462 4.96547Z" fill="url(#paint17_linear_1598_10851)"/>
<path d="M32.5804 8.99788C33.0708 9.3842 33.4549 9.88563 33.6976 10.4562C33.7568 10.5802 33.8011 10.6968 33.8455 10.7989C33.8832 10.8918 33.9153 10.9867 33.9417 11.0833C33.9935 11.2437 34.0157 11.3385 34.0157 11.3385C33.7928 11.3532 33.5688 11.3385 33.3499 11.2947C33.1242 11.251 32.9037 11.1851 32.6914 11.0979C32.4273 10.9891 32.1786 10.8469 31.9516 10.675C31.5234 10.3112 31.1564 9.88304 30.8641 9.40621C30.7383 9.20204 30.6273 9.02704 30.5607 8.89579L30.4572 8.68434L30.6347 8.64059C30.793 8.60831 30.954 8.59121 31.1156 8.58955C31.3423 8.58436 31.5687 8.60888 31.7888 8.66247C32.0712 8.72576 32.3395 8.83943 32.5804 8.99788Z" fill="url(#paint18_linear_1598_10851)"/>
<path d="M33.7198 13.4531C34.1317 13.9877 34.3876 14.6231 34.4596 15.2906C34.4596 15.4365 34.4596 15.575 34.504 15.699V16.0198C34.504 16.2094 34.504 16.3188 34.504 16.3188L34.3043 16.2531C34.1393 16.1906 33.9787 16.1176 33.8234 16.0344C33.6068 15.9175 33.4034 15.7781 33.2167 15.6187C32.9874 15.4309 32.7857 15.2125 32.6175 14.9698C32.289 14.4835 32.0393 13.9496 31.8777 13.3875C31.8777 13.2708 31.8037 13.1615 31.7741 13.0594C31.7445 12.9573 31.7297 12.8625 31.7075 12.7896L31.6483 12.549C31.8969 12.535 32.1461 12.5572 32.3881 12.6146C32.6299 12.6663 32.862 12.7549 33.0762 12.8771C33.3244 13.029 33.5426 13.2241 33.7198 13.4531Z" fill="url(#paint19_linear_1598_10851)"/>
<path d="M33.3794 17.9593C33.6058 18.6507 33.6315 19.3908 33.4534 20.0958C33.4405 20.172 33.4232 20.2475 33.4016 20.3218C33.4016 20.3947 33.3572 20.4677 33.335 20.526C33.3128 20.5843 33.2611 20.7739 33.2241 20.8687C33.2007 20.9416 33.171 21.0123 33.1353 21.0802V21.1604L32.9577 21.0291C32.8111 20.9068 32.675 20.7726 32.5508 20.6281C32.1522 20.1901 31.8589 19.6692 31.6926 19.1041C31.5364 18.497 31.4715 17.8705 31.5003 17.2447C31.5003 17.1135 31.5003 16.9895 31.5003 16.8802C31.5003 16.7708 31.5003 16.676 31.5003 16.5958C31.5003 16.5156 31.5003 16.3406 31.5003 16.3406C31.5713 16.3559 31.6406 16.3779 31.7074 16.4062C31.8879 16.4658 32.0615 16.544 32.2253 16.6395C32.4562 16.7706 32.6657 16.9353 32.8468 17.1281C32.9547 17.2445 33.0537 17.3688 33.1427 17.4999C33.2349 17.6461 33.3141 17.7998 33.3794 17.9593Z" fill="url(#paint20_linear_1598_10851)"/>
<path d="M31.6335 22.1376C31.6335 22.2324 31.6335 22.3345 31.6335 22.4366C31.6403 22.5361 31.6403 22.636 31.6335 22.7355C31.6051 22.9339 31.558 23.1291 31.4929 23.3189C31.4929 23.4137 31.4263 23.5085 31.3893 23.596C31.3523 23.6835 31.3523 23.6907 31.3376 23.7345L31.271 23.8657C31.1896 24.0407 31.1008 24.2012 31.012 24.3543C30.8607 24.6096 30.69 24.8534 30.5016 25.0835L30.2722 25.3387C30.2213 25.2775 30.1767 25.2116 30.139 25.1418C30.0305 24.9648 29.9364 24.7795 29.8579 24.5876C29.7493 24.3234 29.6651 24.0501 29.6064 23.771C29.5379 23.4351 29.5081 23.0926 29.5176 22.7501C29.5655 22.0795 29.71 21.4191 29.9467 20.7887C29.9985 20.6574 30.0355 20.5262 30.0799 20.4168C30.1242 20.3074 30.1686 20.2126 30.1982 20.1324C30.2278 20.0522 30.3092 19.8772 30.3092 19.8772L30.5016 20.0157C30.6656 20.1392 30.8168 20.2784 30.9528 20.4314C31.0439 20.5301 31.1279 20.6348 31.2044 20.7449C31.2902 20.8694 31.3644 21.0011 31.4263 21.1387C31.4986 21.2908 31.5556 21.4495 31.5965 21.6126C31.624 21.7863 31.6364 21.9619 31.6335 22.1376Z" fill="url(#paint21_linear_1598_10851)"/>
<path d="M28.6594 25.5573C28.5308 25.9654 28.3305 26.3479 28.0675 26.6876C27.9365 26.8536 27.7957 27.0118 27.6458 27.1615L27.4239 27.373L27.1945 27.5553C26.9632 27.7503 26.7157 27.9259 26.4547 28.0803C26.3511 28.1459 26.2624 28.1751 26.2032 28.2115H26.1144C26.1144 28.2115 26.1144 28.124 26.0626 27.9636C26.0237 27.7468 26.0014 27.5274 25.996 27.3073C25.9883 27 26.0081 26.6925 26.0552 26.3886C26.0552 26.2282 26.1144 26.0532 26.1588 25.8782C26.2064 25.6981 26.2632 25.5204 26.3289 25.3459C26.6084 24.7035 26.9688 24.0985 27.4017 23.5449C27.4278 23.5215 27.4502 23.4945 27.4683 23.4646L27.5348 23.3771L27.6532 23.224C27.7346 23.1292 27.8086 23.049 27.8604 22.9761C27.9122 22.9032 28.0527 22.7646 28.0527 22.7646C28.1104 22.8256 28.1623 22.8915 28.2081 22.9615C28.3363 23.1394 28.4454 23.3301 28.5336 23.5303C28.5967 23.6594 28.6487 23.7936 28.689 23.9313C28.7339 24.084 28.766 24.2401 28.7851 24.398C28.8004 24.5775 28.8004 24.758 28.7851 24.9376C28.7653 25.1479 28.7232 25.3557 28.6594 25.5573Z" fill="url(#paint22_linear_1598_10851)"/>
<path d="M24.7457 27.7666C24.6062 27.9434 24.4501 28.107 24.2796 28.2552C24.1015 28.4011 23.9137 28.5351 23.7174 28.6562C23.5179 28.766 23.313 28.8658 23.1033 28.9552C22.8962 29.0354 22.6964 29.101 22.4967 29.1593C22.1717 29.2447 21.8401 29.3033 21.5053 29.3343C21.2538 29.3343 21.0984 29.3343 21.0984 29.3343C21.1134 29.2435 21.1332 29.1534 21.1576 29.0645C21.2185 28.8384 21.2951 28.6167 21.3869 28.401C21.4461 28.2624 21.5127 28.1239 21.5867 27.9781C21.6607 27.8322 21.6607 27.8323 21.705 27.7593L21.8382 27.526C21.9349 27.3691 22.0412 27.2182 22.1563 27.0739C22.2694 26.9134 22.3956 26.7622 22.5336 26.6218C23.034 26.1119 23.5955 25.6638 24.2056 25.2875L24.3832 25.1781L24.546 25.076L24.8419 24.901C24.9231 24.8503 25.0071 24.8041 25.0934 24.7625C25.131 24.8446 25.1607 24.9301 25.1822 25.0177C25.2493 25.2388 25.2939 25.466 25.3154 25.6958C25.3482 26.0149 25.3308 26.3371 25.2636 26.651C25.1807 27.0573 25.0034 27.4391 24.7457 27.7666Z" fill="url(#paint23_linear_1598_10851)"/>
<path d="M31.3079 4.24376C31.387 4.8083 31.549 5.3585 31.7888 5.87709C31.885 6.10313 31.9812 6.29272 32.0478 6.43126C32.1143 6.5698 32.1587 6.6427 32.1587 6.6427C32.3201 6.5172 32.4599 6.36705 32.573 6.19792C32.8516 5.79851 32.9846 5.31787 32.9503 4.83438C32.8944 4.21469 32.689 3.61716 32.3511 3.09166C32.2845 2.975 32.2105 2.86564 32.1439 2.76355L31.959 2.51562L31.7814 2.29688C31.6569 2.46172 31.5572 2.64346 31.4855 2.83645C31.4093 3.03433 31.3547 3.23966 31.3227 3.44895C31.2766 3.71157 31.2716 3.97965 31.3079 4.24376Z" fill="url(#paint24_linear_1598_10851)"/>
<path d="M33.8159 8.51673C33.7345 9.13978 33.747 9.77125 33.8529 10.3907C33.8529 10.5219 33.8529 10.6532 33.912 10.7626C33.9226 10.8608 33.9399 10.9583 33.9638 11.0542C33.9638 11.222 34.0156 11.3167 34.0156 11.3167C34.2237 11.2316 34.4161 11.1134 34.5853 10.9667C34.7681 10.8174 34.9255 10.6402 35.0514 10.4417C35.2176 10.1905 35.3355 9.91115 35.3991 9.61778C35.5174 8.94206 35.4769 8.24859 35.2807 7.5907C35.2167 7.34318 35.1377 7.09968 35.044 6.86153C34.97 6.67924 34.9182 6.57715 34.9182 6.57715L34.7702 6.69382C34.6493 6.80611 34.5379 6.92805 34.4373 7.0584C34.2934 7.24322 34.1718 7.44387 34.0748 7.65632C33.9491 7.93015 33.862 8.21963 33.8159 8.51673Z" fill="url(#paint25_linear_1598_10851)"/>
<path d="M35.1329 13.2999C34.8676 13.9391 34.6813 14.6074 34.578 15.2905C34.578 15.4364 34.5336 15.5749 34.5114 15.6989C34.4893 15.8228 34.5114 15.9322 34.4597 16.027C34.4079 16.1218 34.4597 16.3187 34.4597 16.3187H34.6594C34.8367 16.2878 35.0102 16.2389 35.1773 16.1728C35.4186 16.0763 35.6432 15.9435 35.8431 15.7791C36.1031 15.5617 36.3211 15.2999 36.4868 15.0061C36.8291 14.3067 36.9965 13.5366 36.9751 12.7603C36.9751 12.5926 36.9751 12.4322 36.9751 12.2864C36.9751 12.1405 36.9751 12.0166 36.9751 11.9072C36.9751 11.7978 36.9233 11.5718 36.9233 11.5718C36.6937 11.6702 36.4794 11.8003 36.287 11.9582C36.078 12.1148 35.8891 12.296 35.7248 12.4978C35.4948 12.7402 35.2961 13.0096 35.1329 13.2999Z" fill="url(#paint26_linear_1598_10851)"/>
<path d="M34.9257 18.3385C34.4269 18.9074 33.9927 19.5285 33.6311 20.1906L33.5201 20.3948C33.4757 20.4604 33.4461 20.526 33.4091 20.5844C33.3721 20.6427 33.2907 20.8104 33.2464 20.9052C33.202 21 33.0984 21.1896 33.0984 21.1896L33.3203 21.2406C33.5121 21.2618 33.7056 21.2618 33.8974 21.2406C34.5558 21.2117 35.1824 20.9533 35.6656 20.5115C36.2876 19.9032 36.7454 19.1512 36.9972 18.324C37.0638 18.1417 37.1082 17.9667 37.1526 17.8135C37.197 17.6604 37.2266 17.5146 37.2488 17.3979C37.2932 17.1573 37.308 17.0187 37.308 17.0187C37.2341 17.012 37.1598 17.012 37.086 17.0187C36.8911 17.053 36.7002 17.1067 36.5164 17.1792C36.2572 17.2832 36.0093 17.4126 35.7765 17.5656C35.634 17.6558 35.498 17.7557 35.3696 17.8646C35.209 18.0106 35.0606 18.1691 34.9257 18.3385Z" fill="url(#paint27_linear_1598_10851)"/>
<path d="M33.0983 23.0052C33.0021 23.0563 32.9133 23.1146 32.8246 23.173C32.729 23.2244 32.6375 23.2829 32.5508 23.348C32.3659 23.4646 32.1957 23.5959 32.0255 23.7198L31.7888 23.9167L31.6704 24.0115L31.5521 24.1063L31.123 24.4782C30.8492 24.7115 30.6421 24.9302 30.4719 25.0761L30.2278 25.3167L30.4275 25.4407C30.6139 25.5375 30.8097 25.6157 31.012 25.674C31.3068 25.7619 31.6142 25.8013 31.922 25.7907C32.3258 25.7769 32.7229 25.6852 33.0909 25.5209C33.9306 25.1065 34.6546 24.4956 35.1994 23.7417C35.3251 23.574 35.4287 23.4063 35.5323 23.2605C35.6359 23.1146 35.7099 22.9761 35.769 22.8594C35.8282 22.7428 35.9614 22.4948 35.9614 22.4948C35.8842 22.4725 35.8049 22.4578 35.7247 22.4511C35.5106 22.4307 35.2951 22.4307 35.081 22.4511L34.6519 22.4948C34.4873 22.5198 34.3243 22.5539 34.1636 22.5969C33.9874 22.6444 33.8144 22.7028 33.6458 22.7719C33.4579 22.8368 33.2749 22.9147 33.0983 23.0052Z" fill="url(#paint28_linear_1598_10851)"/>
<path d="M29.8579 26.9355C29.3978 27.0227 28.9451 27.1445 28.504 27.3001C28.2969 27.3803 28.0823 27.446 27.8826 27.5262L27.5866 27.6428L27.3055 27.7449C26.9504 27.8907 26.6397 28.0074 26.4251 28.1022L26.1736 28.2116H26.0774C26.1253 28.2824 26.1772 28.3506 26.2328 28.4158C26.3824 28.5844 26.5484 28.7383 26.7284 28.8751C26.9931 29.0708 27.2878 29.2234 27.6014 29.3272C27.797 29.3879 27.9975 29.4318 28.2007 29.4585C28.4467 29.4828 28.6945 29.4828 28.9405 29.4585C29.1903 29.4342 29.4377 29.3903 29.6803 29.3272C29.9316 29.2531 30.1786 29.1655 30.4201 29.0647C30.6643 28.9626 30.8936 28.8387 31.16 28.722C31.4263 28.6053 31.5891 28.4595 31.7814 28.3283L31.922 28.2335L32.0551 28.1314L32.2993 27.9418C32.4473 27.8178 32.5804 27.7084 32.684 27.6064L33.0095 27.2855C32.9371 27.2373 32.8604 27.1958 32.7802 27.1616C32.5702 27.0678 32.3524 26.9922 32.1291 26.9355C31.9783 26.8966 31.8251 26.8674 31.6704 26.848C31.4943 26.8188 31.3163 26.8017 31.1378 26.797C30.9383 26.7825 30.738 26.7825 30.5385 26.797C30.3081 26.8246 30.0805 26.871 29.8579 26.9355Z" fill="url(#paint29_linear_1598_10851)"/>
<path d="M28.3562 3.10631C28.8465 3.49926 29.3801 3.83678 29.9468 4.11256C30.0577 4.17089 30.1687 4.21465 30.2649 4.2584C30.3489 4.30219 30.4353 4.34115 30.5238 4.37507L30.7606 4.48444L30.7162 4.24383C30.7162 4.16362 30.6792 4.06882 30.6496 3.96674L30.5312 3.61673C30.2852 2.96891 29.8782 2.39229 29.3475 1.93966C29.2718 1.87728 29.1927 1.81885 29.1108 1.76464L28.8666 1.60423L28.6225 1.47298C28.5411 1.42923 28.4523 1.40007 28.371 1.36361L28.1342 1.26882L27.8975 1.20319L27.6755 1.14487L27.461 1.1084H27.0911H26.8099H26.5658L26.7064 1.31256L26.8765 1.53133C26.9357 1.61154 27.0097 1.70632 27.0911 1.80112C27.4654 2.27849 27.8894 2.71592 28.3562 3.10631Z" fill="url(#paint30_linear_1598_10851)"/>
<path d="M25.4041 29.5968C25.1597 29.549 24.9127 29.5149 24.6643 29.4947C24.4128 29.4947 24.1612 29.4436 23.9245 29.4363C23.6878 29.4291 23.4362 29.4363 23.1847 29.4363H22.5262C22.1119 29.4363 21.7864 29.4363 21.5053 29.4363H21.0984C21.1142 29.5277 21.1365 29.6178 21.165 29.7061C21.2283 29.9329 21.3202 30.1509 21.4387 30.3551C21.5186 30.4983 21.6102 30.6348 21.7124 30.7634C21.7642 30.8364 21.8308 30.902 21.89 30.9749L22.1045 31.1718C22.2697 31.2813 22.4428 31.3788 22.6224 31.4634C22.8581 31.5875 23.106 31.6877 23.3622 31.7624C23.6368 31.848 23.9193 31.9066 24.2056 31.9374C24.4999 31.9753 24.797 31.9875 25.0934 31.9739C25.3861 31.9692 25.6779 31.9423 25.9664 31.8936C26.2386 31.8547 26.5079 31.7987 26.7728 31.7259L27.1353 31.6238L27.4608 31.5145C27.668 31.4416 27.853 31.3759 28.0009 31.3103C28.2968 31.1791 28.467 31.0843 28.467 31.0843C28.4068 31.015 28.3426 30.9492 28.2746 30.8874C28.0936 30.7201 27.898 30.5689 27.6902 30.4353C27.3845 30.2434 27.0627 30.0775 26.7284 29.9395C26.3005 29.7796 25.8566 29.6648 25.4041 29.5968Z" fill="url(#paint31_linear_1598_10851)"/>
<path d="M23.0504 17.302V18.8259H15.9017V17.6206L19.7531 13.9631C20.1872 13.5475 20.4782 13.1873 20.626 12.8825C20.783 12.5685 20.8615 12.2591 20.8615 11.9543C20.8615 11.5017 20.7091 11.1553 20.4043 10.9152C20.0995 10.6751 19.6515 10.555 19.0604 10.555C18.0722 10.555 17.3148 10.8921 16.7884 11.5663L15.5276 10.5966C15.9063 10.0886 16.4143 9.69603 17.0516 9.41895C17.6981 9.13263 18.4185 8.98947 19.2128 8.98947C20.2657 8.98947 21.1062 9.23884 21.7343 9.73759C22.3623 10.2363 22.6764 10.9152 22.6764 11.7742C22.6764 12.3006 22.5655 12.7947 22.3439 13.2566C22.1222 13.7184 21.6973 14.2448 21.0693 14.8359L18.4786 17.302H23.0504Z" fill="white"/>
</g>
<path d="M54.4577 5.575V14.5H52.8002V10.675H48.1847V14.5H46.5272V5.575H48.1847V9.25975H52.8002V5.575H54.4577ZM62.6378 12.4345H58.1753L57.2955 14.5H55.587L59.6033 5.575H61.2353L65.2643 14.5H63.5303L62.6378 12.4345ZM62.0895 11.134L60.4065 7.2325L58.7363 11.134H62.0895ZM70.4058 14.6275C69.5048 14.6275 68.6888 14.432 67.9578 14.041C67.2353 13.6415 66.6658 13.0932 66.2493 12.3962C65.8413 11.6992 65.6373 10.913 65.6373 10.0375C65.6373 9.162 65.8455 8.37575 66.262 7.67875C66.6785 6.98175 67.248 6.43775 67.9705 6.04675C68.7015 5.64725 69.5175 5.4475 70.4185 5.4475C71.1495 5.4475 71.8168 5.575 72.4203 5.83C73.0238 6.085 73.5338 6.45475 73.9503 6.93925L72.8793 7.9465C72.2333 7.2495 71.4385 6.901 70.495 6.901C69.883 6.901 69.3348 7.037 68.8503 7.309C68.3658 7.5725 67.9875 7.94225 67.7155 8.41825C67.4435 8.89425 67.3075 9.434 67.3075 10.0375C67.3075 10.641 67.4435 11.1807 67.7155 11.6567C67.9875 12.1327 68.3658 12.5067 68.8503 12.7787C69.3348 13.0422 69.883 13.174 70.495 13.174C71.4385 13.174 72.2333 12.8212 72.8793 12.1157L73.9503 13.1357C73.5338 13.6202 73.0195 13.99 72.4075 14.245C71.804 14.5 71.1368 14.6275 70.4058 14.6275ZM78.6112 10.7642L77.196 12.2177V14.5H75.5385V5.575H77.196V10.1522L81.6075 5.575H83.469L79.7205 9.56575L83.6985 14.5H81.7605L78.6112 10.7642ZM90.2296 12.4345H85.7671L84.8873 14.5H83.1788L87.1951 5.575H88.8271L92.8561 14.5H91.1221L90.2296 12.4345ZM89.6813 11.134L87.9983 7.2325L86.3281 11.134H89.6813ZM95.3534 6.9775H92.3954V5.575H99.9689V6.9775H97.0109V14.5H95.3534V6.9775ZM109.143 5.575V14.5H107.486V10.675H102.87V14.5H101.213V5.575H102.87V9.25975H107.486V5.575H109.143ZM115.704 14.6275C114.795 14.6275 113.974 14.432 113.243 14.041C112.512 13.6415 111.939 13.0932 111.522 12.3962C111.106 11.6907 110.897 10.9045 110.897 10.0375C110.897 9.1705 111.106 8.3885 111.522 7.6915C111.939 6.986 112.512 6.43775 113.243 6.04675C113.974 5.64725 114.795 5.4475 115.704 5.4475C116.614 5.4475 117.434 5.64725 118.165 6.04675C118.896 6.43775 119.47 6.98175 119.886 7.67875C120.303 8.37575 120.511 9.162 120.511 10.0375C120.511 10.913 120.303 11.6992 119.886 12.3962C119.47 13.0932 118.896 13.6415 118.165 14.041C117.434 14.432 116.614 14.6275 115.704 14.6275ZM115.704 13.174C116.299 13.174 116.835 13.0422 117.311 12.7787C117.787 12.5067 118.161 12.1327 118.433 11.6567C118.705 11.1722 118.841 10.6325 118.841 10.0375C118.841 9.4425 118.705 8.907 118.433 8.431C118.161 7.9465 117.787 7.5725 117.311 7.309C116.835 7.037 116.299 6.901 115.704 6.901C115.109 6.901 114.574 7.037 114.098 7.309C113.622 7.5725 113.248 7.9465 112.976 8.431C112.704 8.907 112.568 9.4425 112.568 10.0375C112.568 10.6325 112.704 11.1722 112.976 11.6567C113.248 12.1327 113.622 12.5067 114.098 12.7787C114.574 13.0422 115.109 13.174 115.704 13.174ZM130.198 5.575V14.5H128.834L123.912 8.4565V14.5H122.268V5.575H123.632L128.553 11.6185V5.575H130.198ZM59.5705 21.575L56.6125 30.5H54.853L52.6472 23.8955L50.4032 30.5H48.631L45.673 21.575H47.3942L49.6127 28.358L51.9205 21.575H53.4505L55.7072 28.3962L57.9895 21.575H59.5705ZM60.9208 21.575H62.5783V30.5H60.9208V21.575ZM72.9228 21.575V30.5H71.5586L66.6371 24.4565V30.5H64.9923V21.575H66.3566L71.2781 27.6185V21.575H72.9228ZM83.2448 21.575V30.5H81.8806L76.9591 24.4565V30.5H75.3143V21.575H76.6786L81.6001 27.6185V21.575H83.2448ZM92.3301 29.1102V30.5H85.6364V21.575H92.1516V22.9647H87.2939V25.2852H91.6034V26.6495H87.2939V29.1102H92.3301ZM100.017 30.5L98.1941 27.8862C98.1176 27.8947 98.0029 27.899 97.8499 27.899H95.8354V30.5H94.1779V21.575H97.8499C98.6234 21.575 99.2949 21.7025 99.8644 21.9575C100.442 22.2125 100.884 22.578 101.19 23.054C101.496 23.53 101.649 24.0952 101.649 24.7497C101.649 25.4212 101.484 25.9992 101.152 26.4837C100.829 26.9682 100.362 27.3295 99.7496 27.5675L101.802 30.5H100.017ZM99.9791 24.7497C99.9791 24.1802 99.7921 23.7425 99.4181 23.4365C99.0441 23.1305 98.4959 22.9775 97.7734 22.9775H95.8354V26.5347H97.7734C98.4959 26.5347 99.0441 26.3817 99.4181 26.0757C99.7921 25.7612 99.9791 25.3192 99.9791 24.7497Z" fill="white"/>
</g>
<defs>
<linearGradient id="paint0_linear_1598_10851" x1="5.93393" y1="2.09253" x2="5.93393" y2="6.4894" gradientUnits="userSpaceOnUse">
<stop stop-color="white"/>
<stop offset="1" stop-color="white" stop-opacity="0.23"/>
</linearGradient>
<linearGradient id="paint1_linear_1598_10851" x1="3.44786" y1="6.48218" x2="3.44786" y2="11.2582" gradientUnits="userSpaceOnUse">
<stop stop-color="white"/>
<stop offset="1" stop-color="white" stop-opacity="0.23"/>
</linearGradient>
<linearGradient id="paint2_linear_1598_10851" x1="2.41387" y1="11.5281" x2="2.41387" y2="16.3373" gradientUnits="userSpaceOnUse">
<stop stop-color="white"/>
<stop offset="1" stop-color="white" stop-opacity="0.23"/>
</linearGradient>
<linearGradient id="paint3_linear_1598_10851" x1="2.96167" y1="17.0332" x2="2.96167" y2="21.2855" gradientUnits="userSpaceOnUse">
<stop stop-color="white"/>
<stop offset="1" stop-color="white" stop-opacity="0.23"/>
</linearGradient>
<linearGradient id="paint4_linear_1598_10851" x1="5.12566" y1="22.4795" x2="5.12566" y2="25.8588" gradientUnits="userSpaceOnUse">
<stop stop-color="white"/>
<stop offset="1" stop-color="white" stop-opacity="0.23"/>
</linearGradient>
<linearGradient id="paint5_linear_1598_10851" x1="8.74344" y1="26.8655" x2="8.74344" y2="29.5567" gradientUnits="userSpaceOnUse">
<stop stop-color="white"/>
<stop offset="1" stop-color="white" stop-opacity="0.23"/>
</linearGradient>
<linearGradient id="paint6_linear_1598_10851" x1="13.519" y1="29.4331" x2="13.519" y2="32.0739" gradientUnits="userSpaceOnUse">
<stop stop-color="white"/>
<stop offset="1" stop-color="white" stop-opacity="0.23"/>
</linearGradient>
<linearGradient id="paint7_linear_1598_10851" x1="7.7335" y1="4.62744" x2="7.7335" y2="6.61519" gradientUnits="userSpaceOnUse">
<stop stop-color="white"/>
<stop offset="1" stop-color="white" stop-opacity="0.23"/>
</linearGradient>
<linearGradient id="paint8_linear_1598_10851" x1="5.82487" y1="8.45728" x2="5.82487" y2="11.2608" gradientUnits="userSpaceOnUse">
<stop stop-color="white"/>
<stop offset="1" stop-color="white" stop-opacity="0.23"/>
</linearGradient>
<linearGradient id="paint9_linear_1598_10851" x1="5.07385" y1="12.5034" x2="5.07385" y2="16.3333" gradientUnits="userSpaceOnUse">
<stop stop-color="white"/>
<stop offset="1" stop-color="white" stop-opacity="0.23"/>
</linearGradient>
<linearGradient id="paint10_linear_1598_10851" x1="5.64876" y1="16.3843" x2="5.64876" y2="21.2551" gradientUnits="userSpaceOnUse">
<stop stop-color="white"/>
<stop offset="1" stop-color="white" stop-opacity="0.23"/>
</linearGradient>
<linearGradient id="paint11_linear_1598_10851" x1="7.65373" y1="19.9209" x2="7.65373" y2="25.4115" gradientUnits="userSpaceOnUse">
<stop stop-color="white"/>
<stop offset="1" stop-color="white" stop-opacity="0.23"/>
</linearGradient>
<linearGradient id="paint12_linear_1598_10851" x1="10.927" y1="22.8157" x2="10.927" y2="28.3354" gradientUnits="userSpaceOnUse">
<stop stop-color="white"/>
<stop offset="1" stop-color="white" stop-opacity="0.23"/>
</linearGradient>
<linearGradient id="paint13_linear_1598_10851" x1="9.47957" y1="0.729248" x2="9.47957" y2="4.30216" gradientUnits="userSpaceOnUse">
<stop stop-color="white"/>
<stop offset="1" stop-color="white" stop-opacity="0.23"/>
</linearGradient>
<linearGradient id="paint14_linear_1598_10851" x1="15.1052" y1="24.7698" x2="15.1052" y2="29.3343" gradientUnits="userSpaceOnUse">
<stop stop-color="white"/>
<stop offset="1" stop-color="white" stop-opacity="0.23"/>
</linearGradient>
<linearGradient id="paint15_linear_1598_10851" x1="17.3517" y1="29.9031" x2="17.3517" y2="34.5333" gradientUnits="userSpaceOnUse">
<stop stop-color="white"/>
<stop offset="1" stop-color="white" stop-opacity="0.23"/>
</linearGradient>
<linearGradient id="paint16_linear_1598_10851" x1="20.6783" y1="29.9031" x2="20.6783" y2="34.5333" gradientUnits="userSpaceOnUse">
<stop stop-color="white"/>
<stop offset="1" stop-color="white" stop-opacity="0.23"/>
</linearGradient>
<linearGradient id="paint17_linear_1598_10851" x1="30.3055" y1="4.83423" x2="30.3055" y2="6.76174" gradientUnits="userSpaceOnUse">
<stop stop-color="white"/>
<stop offset="1" stop-color="white" stop-opacity="0.23"/>
</linearGradient>
<linearGradient id="paint18_linear_1598_10851" x1="32.2364" y1="8.58887" x2="32.2364" y2="11.344" gradientUnits="userSpaceOnUse">
<stop stop-color="white"/>
<stop offset="1" stop-color="white" stop-opacity="0.23"/>
</linearGradient>
<linearGradient id="paint19_linear_1598_10851" x1="33.0762" y1="12.5449" x2="33.0762" y2="16.3188" gradientUnits="userSpaceOnUse">
<stop stop-color="white"/>
<stop offset="1" stop-color="white" stop-opacity="0.23"/>
</linearGradient>
<linearGradient id="paint20_linear_1598_10851" x1="32.532" y1="16.3406" x2="32.532" y2="21.1604" gradientUnits="userSpaceOnUse">
<stop stop-color="white"/>
<stop offset="1" stop-color="white" stop-opacity="0.23"/>
</linearGradient>
<linearGradient id="paint21_linear_1598_10851" x1="30.5772" y1="19.8772" x2="30.5772" y2="25.3387" gradientUnits="userSpaceOnUse">
<stop stop-color="white"/>
<stop offset="1" stop-color="white" stop-opacity="0.23"/>
</linearGradient>
<linearGradient id="paint22_linear_1598_10851" x1="27.3955" y1="22.7646" x2="27.3955" y2="28.2115" gradientUnits="userSpaceOnUse">
<stop stop-color="white"/>
<stop offset="1" stop-color="white" stop-opacity="0.23"/>
</linearGradient>
<linearGradient id="paint23_linear_1598_10851" x1="23.2149" y1="24.7625" x2="23.2149" y2="29.3343" gradientUnits="userSpaceOnUse">
<stop stop-color="white"/>
<stop offset="1" stop-color="white" stop-opacity="0.23"/>
</linearGradient>
<linearGradient id="paint24_linear_1598_10851" x1="32.1198" y1="2.29687" x2="32.1198" y2="6.6427" gradientUnits="userSpaceOnUse">
<stop stop-color="white"/>
<stop offset="1" stop-color="white" stop-opacity="0.23"/>
</linearGradient>
<linearGradient id="paint25_linear_1598_10851" x1="34.6141" y1="6.57715" x2="34.6141" y2="11.3167" gradientUnits="userSpaceOnUse">
<stop stop-color="white"/>
<stop offset="1" stop-color="white" stop-opacity="0.23"/>
</linearGradient>
<linearGradient id="paint26_linear_1598_10851" x1="35.7068" y1="11.5718" x2="35.7068" y2="16.3187" gradientUnits="userSpaceOnUse">
<stop stop-color="white"/>
<stop offset="1" stop-color="white" stop-opacity="0.23"/>
</linearGradient>
<linearGradient id="paint27_linear_1598_10851" x1="35.2032" y1="17.0137" x2="35.2032" y2="21.2565" gradientUnits="userSpaceOnUse">
<stop stop-color="white"/>
<stop offset="1" stop-color="white" stop-opacity="0.23"/>
</linearGradient>
<linearGradient id="paint28_linear_1598_10851" x1="33.0946" y1="22.4358" x2="33.0946" y2="25.7924" gradientUnits="userSpaceOnUse">
<stop stop-color="white"/>
<stop offset="1" stop-color="white" stop-opacity="0.23"/>
</linearGradient>
<linearGradient id="paint29_linear_1598_10851" x1="29.5435" y1="26.7861" x2="29.5435" y2="29.4767" gradientUnits="userSpaceOnUse">
<stop stop-color="white"/>
<stop offset="1" stop-color="white" stop-opacity="0.23"/>
</linearGradient>
<linearGradient id="paint30_linear_1598_10851" x1="28.6632" y1="1.1084" x2="28.6632" y2="4.48444" gradientUnits="userSpaceOnUse">
<stop stop-color="white"/>
<stop offset="1" stop-color="white" stop-opacity="0.23"/>
</linearGradient>
<linearGradient id="paint31_linear_1598_10851" x1="24.7827" y1="29.4331" x2="24.7827" y2="31.9793" gradientUnits="userSpaceOnUse">
<stop stop-color="white"/>
<stop offset="1" stop-color="white" stop-opacity="0.23"/>
</linearGradient>
<clipPath id="clip0_1598_10851">
<rect width="37.9167" height="35" fill="white" transform="translate(0.120361)"/>
</clipPath>
</defs>
</svg>
