<svg width="193" height="52" viewBox="0 0 193 52" fill="none" xmlns="http://www.w3.org/2000/svg">
<path d="M10.3289 6.45561C10.2018 7.28638 9.9594 8.09595 9.60839 8.86157C9.45783 9.20073 9.31803 9.47633 9.22125 9.67771C9.17316 9.78832 9.11559 9.89468 9.04919 9.99566C8.81985 9.81102 8.62041 9.59302 8.45773 9.34914C8.05658 8.75931 7.86729 8.0541 7.92004 7.34592C8.01044 6.43401 8.31611 5.5556 8.8126 4.78096C8.92014 4.60078 9.02768 4.4312 9.12446 4.29342C9.21075 4.16485 9.30409 4.041 9.40406 3.92245L9.66215 3.60449C9.8432 3.8441 9.98808 4.10827 10.0923 4.3888C10.2041 4.67906 10.2799 4.98156 10.3181 5.28972C10.3762 5.67601 10.3798 6.06835 10.3289 6.45561V6.45561Z" fill="url(#paint0_linear_21_1450)"/>
<path d="M6.69419 12.7941C6.79847 13.7149 6.77677 14.6453 6.62966 15.5604C6.62966 15.7618 6.5759 15.942 6.54363 16.1115C6.51137 16.2811 6.48986 16.4189 6.46836 16.5461L6.38233 16.9277C6.0798 16.7995 5.8002 16.6242 5.55428 16.4083C5.29464 16.1851 5.06675 15.9285 4.87679 15.6452C4.64321 15.2694 4.47595 14.8572 4.38212 14.4263C4.21374 13.4362 4.27626 12.4214 4.56493 11.4586C4.66045 11.0983 4.77898 10.7443 4.91981 10.3987C5.02735 10.1338 5.10262 9.98535 5.10262 9.98535L5.30694 10.1549C5.48278 10.3182 5.64463 10.4954 5.79087 10.6849C6.00605 10.9533 6.18331 11.2493 6.3178 11.5646C6.49868 11.9559 6.62528 12.3695 6.69419 12.7941V12.7941Z" fill="url(#paint1_linear_21_1450)"/>
<path d="M4.83379 19.8636C5.21494 20.8088 5.48553 21.7938 5.64033 22.7995C5.64033 23.0114 5.70485 23.2234 5.73711 23.4036C5.76937 23.5838 5.73711 23.7428 5.80164 23.8806C5.86616 24.0184 5.8554 24.3045 5.8554 24.3045C5.75519 24.3123 5.65451 24.3123 5.5543 24.3045C5.30052 24.258 5.05199 24.1869 4.81228 24.0925C4.46216 23.9465 4.13599 23.7501 3.84444 23.5096C3.46344 23.1884 3.14622 22.8002 2.90886 22.3649C2.40697 21.3384 2.16351 20.2077 2.1991 19.0686C2.18233 18.8358 2.18233 18.602 2.1991 18.3691C2.1991 18.1571 2.1991 17.9664 2.1991 17.8074C2.1991 17.6484 2.27438 17.3198 2.27438 17.3198C2.61363 17.4587 2.92918 17.6481 3.20996 17.8816C3.50772 18.1164 3.77821 18.383 4.0165 18.6765C4.33855 19.0367 4.61315 19.4355 4.83379 19.8636V19.8636Z" fill="url(#paint2_linear_21_1450)"/>
<path d="M5.21005 27.2185C5.94516 28.0517 6.58025 28.9657 7.10272 29.9425L7.27478 30.2498C7.32855 30.3452 7.38232 30.43 7.42533 30.5254C7.46835 30.6208 7.60815 30.854 7.67267 30.9917L7.88774 31.4051C7.78258 31.439 7.67464 31.4638 7.56513 31.4793C7.2828 31.5099 6.99791 31.5099 6.71558 31.4793C5.75954 31.4327 4.85022 31.0577 4.14542 30.4194C3.24501 29.5304 2.57706 28.4393 2.19897 27.2397C2.10219 26.9747 2.03767 26.7204 1.97315 26.4872C1.90862 26.254 1.86561 26.0526 1.83334 25.883C1.76882 25.5333 1.74731 25.3213 1.74731 25.3213H2.06993C2.35213 25.3805 2.62904 25.4621 2.89797 25.5651C3.27467 25.7162 3.63495 25.9044 3.97335 26.1268C4.18007 26.2624 4.37764 26.4112 4.56482 26.572C4.79895 26.7682 5.01488 26.9845 5.21005 27.2185V27.2185Z" fill="url(#paint3_linear_21_1450)"/>
<path d="M7.96303 34.0873L8.37168 34.3204L8.76957 34.5748L9.52234 35.1259L9.87721 35.4121L10.0493 35.5605L10.2213 35.6983L10.8451 36.2494C11.2429 36.578 11.5548 36.896 11.7914 37.1079L12.157 37.4683C12.0616 37.5361 11.961 37.5964 11.8559 37.6485C11.5898 37.7915 11.3085 37.9052 11.0171 37.9877C10.588 38.1116 10.1412 38.1653 9.6944 38.1467C9.10402 38.1266 8.52325 37.9934 7.98454 37.7545C6.75196 37.1472 5.68873 36.2521 4.88744 35.1472C4.70462 34.9034 4.54332 34.6596 4.40352 34.4476C4.26372 34.2357 4.13467 34.0343 4.04864 33.8647C3.86583 33.5255 3.76904 33.3241 3.76904 33.3241L4.12392 33.2606C4.43146 33.2309 4.74121 33.2309 5.04875 33.2606L5.67247 33.3241C5.8983 33.3241 6.13488 33.4089 6.38222 33.4725C6.62956 33.5361 6.88765 33.6315 7.14574 33.7375C7.42632 33.8346 7.69946 33.9515 7.96303 34.0873V34.0873Z" fill="url(#paint4_linear_21_1450)"/>
<path d="M12.7594 39.7681C13.4269 39.9046 14.0843 40.0852 14.7273 40.3086C15.0392 40.4146 15.351 40.5206 15.6414 40.6372L16.0715 40.8068L16.4694 40.9551C16.9964 41.1671 17.448 41.3367 17.7599 41.4851L18.1363 41.6441L18.2653 41.6971C18.1956 41.8 18.1202 41.8991 18.0395 41.9938C17.8275 42.2442 17.5855 42.4684 17.319 42.6616C16.9337 42.9424 16.5053 43.1606 16.05 43.3081C15.7672 43.4013 15.4752 43.4652 15.179 43.4989C14.8214 43.5339 14.4612 43.5339 14.1036 43.4989C13.7413 43.4584 13.3821 43.3946 13.0282 43.3081C12.6629 43.2004 12.3039 43.0731 11.9528 42.9266C11.5979 42.7676 11.2538 42.598 10.8774 42.4178C10.5011 42.2376 10.2537 42.0362 9.96336 41.8454L9.75904 41.7077L9.56547 41.5593L9.22134 41.2837C8.99551 41.1035 8.80195 40.9445 8.65139 40.7962C8.50084 40.6478 8.17822 40.3192 8.17822 40.3192C8.28551 40.2556 8.39686 40.199 8.51159 40.1496C8.81681 40.0134 9.13344 39.9034 9.45793 39.8211C9.67738 39.7655 9.90003 39.723 10.1247 39.6939C10.3808 39.6519 10.6394 39.6271 10.8989 39.6197C11.5148 39.5959 12.1314 39.6385 12.7378 39.7469L12.7594 39.7681Z" fill="url(#paint5_linear_21_1450)"/>
<path d="M19.2758 43.5836C19.6312 43.5142 19.9902 43.4646 20.3512 43.4352C20.7169 43.4352 21.0825 43.361 21.4266 43.3504C21.7707 43.3398 22.1364 43.3504 22.502 43.3504H23.4591C24.0613 43.3504 24.5345 43.3504 24.9431 43.3504H25.5346C25.5127 43.4825 25.484 43.6134 25.4485 43.7426C25.3472 44.0706 25.2102 44.3869 25.0399 44.6859C24.9237 44.894 24.7907 45.0925 24.642 45.2794C24.5624 45.387 24.4762 45.4896 24.3839 45.5868C24.285 45.6874 24.1809 45.7829 24.0721 45.873C23.8264 46.0811 23.5638 46.2689 23.287 46.4347C22.9444 46.6151 22.5841 46.7607 22.2116 46.8693C21.8158 46.9924 21.4089 47.0776 20.9965 47.1236C20.5687 47.1783 20.1369 47.196 19.706 47.1766C19.277 47.1703 18.8492 47.1314 18.4263 47.06C18.0309 47.0024 17.6395 46.921 17.2541 46.8163L16.7272 46.6679L16.254 46.5089C15.9529 46.4029 15.6841 46.3075 15.4797 46.2121C15.0496 46.0214 14.7915 45.8835 14.7915 45.8835C14.8812 45.7814 14.9783 45.6858 15.0819 45.5974C15.3409 45.354 15.6216 45.1341 15.9207 44.9403C16.365 44.6613 16.8327 44.4202 17.3187 44.2195C17.9456 43.9379 18.6019 43.7246 19.2758 43.5836V43.5836Z" fill="url(#paint6_linear_21_1450)"/>
<path d="M11.7268 7.50448C10.9502 7.82069 10.2662 8.32354 9.73736 8.96714C9.54229 9.19921 9.36268 9.4435 9.19967 9.69847L9.0061 9.99524C9.2864 10.0937 9.57992 10.1509 9.87716 10.1648C10.5646 10.2187 11.255 10.1059 11.8881 9.83626C12.5609 9.50764 13.1806 9.0826 13.727 8.57498L14.0496 8.27821C14.1464 8.18282 14.2325 8.10862 14.297 8.03443L14.5013 7.81186C14.2602 7.65228 13.9954 7.53071 13.7163 7.4515C13.0714 7.23427 12.3717 7.23427 11.7268 7.4515V7.50448Z" fill="url(#paint7_linear_21_1450)"/>
<path d="M8.48983 13.5038C7.77707 14.0678 7.21577 14.7957 6.85525 15.6236C6.76922 15.8073 6.69394 15.9769 6.62942 16.1324L6.48962 16.5457C6.41434 16.7789 6.38208 16.9273 6.38208 16.9273C6.71012 16.9413 7.03868 16.9164 7.36068 16.8531C7.68704 16.7918 8.00475 16.6922 8.30701 16.5563C8.69282 16.4019 9.05479 16.1949 9.3824 15.9416C10.0095 15.3984 10.5466 14.7618 10.974 14.0549C11.1675 13.7582 11.3181 13.4932 11.4256 13.3024L11.5762 12.9951L11.3181 12.9315C11.0889 12.8792 10.8543 12.8543 10.6191 12.8573C10.2888 12.848 9.95899 12.8873 9.64049 12.9739C9.22681 13.0784 8.83657 13.2581 8.48983 13.5038V13.5038Z" fill="url(#paint8_linear_21_1450)"/>
<path d="M6.94141 20.0859C6.34008 20.8736 5.96826 21.8081 5.86602 22.7886C5.86602 23.0112 5.86602 23.2126 5.81226 23.3928V23.8803C5.81226 24.1453 5.81226 24.3043 5.81226 24.3043C5.90742 24.2828 6.00087 24.2544 6.09186 24.2195C6.3381 24.1315 6.57567 24.0215 6.80161 23.8909C7.11491 23.7144 7.41021 23.5086 7.68342 23.2762C8.01396 22.9962 8.3067 22.6756 8.55448 22.3223C9.02658 21.601 9.38889 20.8154 9.62986 19.9905C9.62986 19.8103 9.7374 19.6407 9.76966 19.4924C9.80192 19.344 9.84494 19.2062 9.8772 19.1002L9.96323 18.7398C9.60156 18.7271 9.23979 18.7627 8.88785 18.8458C8.53936 18.9305 8.20327 19.0587 7.88774 19.2274C7.52479 19.4581 7.2047 19.7485 6.94141 20.0859V20.0859Z" fill="url(#paint9_linear_21_1450)"/>
<path d="M7.45754 26.7208C7.12905 27.7517 7.09556 28.852 7.36076 29.9005C7.36076 30.0171 7.41453 30.123 7.43604 30.229L7.53282 30.5364C7.59735 30.7272 7.65112 30.8862 7.70488 31.024C7.73724 31.1338 7.78046 31.2404 7.83393 31.3419L7.8877 31.4585L8.14579 31.2677C8.35637 31.0871 8.55399 30.8923 8.73725 30.6848C9.31111 30.0379 9.73334 29.2743 9.97394 28.4484C10.2006 27.555 10.2948 26.6339 10.2535 25.7139C10.2535 25.5231 10.2535 25.3429 10.2535 25.1839C10.2535 25.0249 10.2535 24.8766 10.2535 24.76C10.2535 24.6434 10.2535 24.3784 10.2535 24.3784L9.95243 24.4738C9.69197 24.5693 9.44015 24.6863 9.19966 24.8236C8.66332 25.1344 8.20988 25.5668 7.87695 26.0848C7.71522 26.282 7.57467 26.4951 7.45754 26.7208V26.7208Z" fill="url(#paint10_linear_21_1450)"/>
<path d="M10.0921 32.8153C10.0921 32.9637 10.0921 33.1121 10.0921 33.2499C10.0921 33.3877 10.0921 33.5466 10.0921 33.6844C10.1358 33.9767 10.2078 34.2642 10.3071 34.5429L10.4469 34.9563C10.4469 35.0199 10.5007 35.0835 10.533 35.1577L10.6298 35.3485C10.7481 35.5922 10.8771 35.836 11.0061 36.0586C11.2304 36.4296 11.482 36.7838 11.7589 37.1185L12.0923 37.5001C12.163 37.4089 12.2277 37.3133 12.2858 37.2139C12.4437 36.9565 12.5803 36.6872 12.6945 36.4084C12.8523 36.0207 12.9747 35.6198 13.0601 35.2107C13.1617 34.7228 13.2014 34.2244 13.1784 33.7268C13.1064 32.7445 12.8928 31.7774 12.5439 30.8545C12.4687 30.6637 12.4041 30.4729 12.3396 30.314C12.2751 30.155 12.2106 30.0172 12.1676 29.9006C12.1231 29.7698 12.0692 29.6423 12.0062 29.519L11.7266 29.7204C11.4908 29.9028 11.2713 30.105 11.0707 30.3245C10.9385 30.4719 10.8164 30.6277 10.705 30.7909C10.5902 30.9721 10.4861 31.1596 10.3932 31.3526C10.2861 31.5778 10.1998 31.8119 10.1351 32.0522C10.0988 32.3049 10.0844 32.5602 10.0921 32.8153V32.8153Z" fill="url(#paint11_linear_21_1450)"/>
<path d="M14.5014 37.8177C14.6869 38.4167 14.9821 38.9771 15.3724 39.4712C15.5566 39.7175 15.7616 39.948 15.9854 40.1601L16.308 40.4675L16.6306 40.7431C16.992 41.0235 17.3729 41.2785 17.7705 41.5062L18.1361 41.6864L18.2652 41.7499C18.2995 41.6283 18.3246 41.5043 18.3405 41.379C18.3977 41.0675 18.4301 40.7521 18.4373 40.4357C18.4489 39.9889 18.4201 39.542 18.3512 39.1002C18.3512 38.8564 18.2652 38.6021 18.2007 38.3477C18.1326 38.0843 18.0463 37.8258 17.9426 37.574C17.5412 36.6356 17.0131 35.755 16.3725 34.956L16.2757 34.8288L16.1897 34.6381C16.1359 34.5533 16.0714 34.4791 16.0176 34.4049C15.9639 34.3307 15.7918 34.1505 15.7165 34.0445L15.4369 33.7266C15.3552 33.8205 15.2797 33.9197 15.2111 34.0233C15.0247 34.282 14.8661 34.559 14.7379 34.85C14.6509 35.0397 14.5754 35.2344 14.5121 35.433C14.4521 35.6562 14.4054 35.8827 14.3723 36.1113C14.345 36.3721 14.345 36.6349 14.3723 36.8956C14.382 37.2067 14.4253 37.5158 14.5014 37.8177V37.8177Z" fill="url(#paint12_linear_21_1450)"/>
<path d="M13.2107 3.04233C12.4414 3.72117 11.8603 4.58203 11.5223 5.54367C11.4578 5.73445 11.3933 5.90405 11.3503 6.06304C11.3072 6.22202 11.2857 6.34921 11.2642 6.4658C11.2427 6.58239 11.2104 6.81555 11.2104 6.81555C11.324 6.77562 11.4353 6.72962 11.5438 6.67776L11.9202 6.4976L12.3934 6.25381C13.2279 5.82209 14.0106 5.29947 14.7269 4.69576C15.4164 4.07912 16.0431 3.39753 16.5981 2.66075L16.9207 2.2474C17.0175 2.12022 17.0928 2.01424 17.1681 1.92945L17.3724 1.62207H16.996H16.5659C16.4045 1.62207 16.2217 1.62206 16.0174 1.70685C15.7947 1.74219 15.5753 1.79535 15.3614 1.86583L15.0066 1.97182L14.6517 2.1308L14.286 2.30039C14.1605 2.36474 14.0385 2.43551 13.9204 2.51238L13.5548 2.75617L13.2107 3.04233Z" fill="url(#paint13_linear_21_1450)"/>
<path d="M20.2333 40.9231C20.4391 41.1776 20.6657 41.4151 20.9108 41.6332C21.1716 41.8428 21.4445 42.0374 21.7281 42.2161C22.0292 42.3751 22.3195 42.5235 22.6206 42.6507C22.9218 42.7779 23.2229 42.8627 23.5025 42.9475C23.9748 43.0716 24.4568 43.1567 24.9435 43.2018C25.3199 43.2018 25.5349 43.2018 25.5349 43.2018C25.513 43.0697 25.4843 42.9389 25.4489 42.8097C25.3603 42.481 25.249 42.1587 25.1155 41.8452C25.03 41.6353 24.9331 41.4301 24.8252 41.2304C24.7714 41.1244 24.7176 41.0185 24.6531 40.9125C24.5886 40.8065 24.5348 40.6899 24.4595 40.5733C24.3843 40.4567 24.1692 40.1281 24.0079 39.9162C23.8369 39.6878 23.6538 39.4684 23.4594 39.259C22.7274 38.5228 21.9119 37.872 21.0291 37.3194L20.7602 37.1604L20.5237 37.012L20.115 36.7683C19.997 36.6946 19.8749 36.6274 19.7494 36.5669C19.7494 36.5669 19.6956 36.6941 19.6203 36.9379C19.528 37.2605 19.4633 37.5902 19.4268 37.9236C19.379 38.3874 19.4044 38.8558 19.502 39.312C19.6226 39.8955 19.8723 40.4456 20.2333 40.9231V40.9231Z" fill="url(#paint14_linear_21_1450)"/>
<path d="M26.9434 48.9684C27.5935 48.0214 27.9894 46.9275 28.094 45.7887C28.1435 45.3701 28.165 44.9488 28.1586 44.5274C28.1586 44.2201 28.1586 44.0293 28.1586 44.0293C27.7373 44.1396 27.3324 44.3035 26.9541 44.5169C26.0954 44.9778 25.3586 45.6314 24.8034 46.4247C24.2525 47.3094 23.8495 48.2756 23.6097 49.2864C23.6097 49.4984 23.5129 49.6998 23.4699 49.8799C23.4269 50.0601 23.3946 50.2085 23.3731 50.3463C23.3516 50.4841 23.3086 50.7596 23.3086 50.7596C23.7376 50.7526 24.164 50.692 24.5775 50.5795C24.9979 50.4617 25.3996 50.2868 25.7712 50.0601C26.2301 49.7746 26.6282 49.4038 26.9434 48.9684V48.9684Z" fill="url(#paint15_linear_21_1450)"/>
<path d="M29.3523 48.9684C28.7022 48.0214 28.3063 46.9275 28.2017 45.7887C28.1496 45.3704 28.1316 44.9486 28.1479 44.5274C28.1479 44.2201 28.1479 44.0293 28.1479 44.0293C28.5691 44.1396 28.974 44.3035 29.3523 44.5169C30.2132 44.9749 30.9506 45.629 31.5031 46.4247C32.054 47.3094 32.457 48.2756 32.6967 49.2864C32.6967 49.4984 32.8043 49.6998 32.8365 49.8799C32.8688 50.0601 32.9118 50.2085 32.9333 50.3463C32.9636 50.4826 32.9851 50.6207 32.9979 50.7596C32.5689 50.7526 32.1425 50.692 31.7289 50.5795C31.3093 50.4597 30.9078 50.285 30.5352 50.0601C30.0743 49.7734 29.6729 49.4029 29.3523 48.9684V48.9684Z" fill="url(#paint16_linear_21_1450)"/>
<path d="M44.6231 7.78062C45.3731 8.09155 46.0341 8.57925 46.548 9.20087C46.7382 9.42675 46.9142 9.66392 47.075 9.91102C47.1933 10.0912 47.2578 10.2078 47.2578 10.2078C46.981 10.3056 46.6911 10.3627 46.3975 10.3773C45.7294 10.4326 45.0578 10.3271 44.4403 10.07C43.7745 9.75815 43.1615 9.34704 42.6229 8.85112L42.311 8.55435L42.0744 8.33175C42.0016 8.2619 41.9334 8.18757 41.8701 8.10918C42.1119 7.9483 42.3764 7.82331 42.6551 7.73821C42.9412 7.65091 43.2377 7.60104 43.537 7.58984C43.9074 7.5915 44.2749 7.65603 44.6231 7.78062Z" fill="url(#paint17_linear_21_1450)"/>
<path d="M47.8703 13.6414C48.583 14.2029 49.1413 14.9318 49.4941 15.7612C49.5801 15.9414 49.6447 16.111 49.7092 16.2593C49.7639 16.3943 49.8106 16.5324 49.849 16.6727C49.9243 16.9059 49.9565 17.0437 49.9565 17.0437C49.6325 17.065 49.307 17.0437 48.9887 16.9801C48.6607 16.9165 48.3401 16.8207 48.0316 16.6939C47.6476 16.5357 47.2862 16.3291 46.9562 16.0792C46.3338 15.5505 45.8003 14.928 45.3754 14.2349C45.1926 13.9382 45.0313 13.6838 44.9345 13.493L44.7839 13.1857L45.042 13.1221C45.2721 13.0751 45.5061 13.0503 45.741 13.0479C46.0706 13.0403 46.3996 13.076 46.7196 13.1539C47.1301 13.2459 47.5201 13.4111 47.8703 13.6414V13.6414Z" fill="url(#paint18_linear_21_1450)"/>
<path d="M49.5265 20.1175C50.1252 20.8945 50.4971 21.8182 50.6018 22.7884C50.6018 23.0004 50.6018 23.2018 50.6664 23.382V23.8483C50.6664 24.1239 50.6664 24.2829 50.6664 24.2829L50.376 24.1875C50.1362 24.0967 49.9027 23.9904 49.677 23.8695C49.3621 23.6996 49.0665 23.497 48.7952 23.2654C48.4618 22.9923 48.1686 22.6749 47.9241 22.3221C47.4466 21.6152 47.0838 20.8392 46.8488 20.0221C46.8488 19.8525 46.7412 19.6935 46.6982 19.5452C46.6552 19.3968 46.6337 19.259 46.6014 19.153L46.5154 18.8032C46.8766 18.783 47.239 18.8151 47.5908 18.8986C47.9422 18.9738 48.2796 19.1026 48.5909 19.2802C48.9518 19.5009 49.2688 19.7847 49.5265 20.1175V20.1175Z" fill="url(#paint19_linear_21_1450)"/>
<path d="M49.0319 26.6674C49.361 27.6724 49.3982 28.7481 49.1394 29.7729C49.1206 29.8837 49.0955 29.9934 49.0641 30.1015C49.0641 30.2075 48.9996 30.3135 48.9674 30.3982C48.9351 30.483 48.8598 30.7586 48.806 30.8964C48.772 31.0023 48.7289 31.1052 48.677 31.2038V31.3203L48.4189 31.1296C48.2057 30.9517 48.0079 30.7568 47.8274 30.5466C47.2481 29.91 46.8217 29.1528 46.58 28.3314C46.3529 27.4489 46.2586 26.5383 46.3004 25.6287C46.3004 25.4379 46.3004 25.2578 46.3004 25.0988C46.3004 24.9398 46.3004 24.802 46.3004 24.6854C46.3004 24.5688 46.3004 24.3145 46.3004 24.3145C46.4036 24.3368 46.5044 24.3687 46.6015 24.4098C46.8639 24.4964 47.1162 24.6101 47.3543 24.749C47.6899 24.9396 47.9945 25.179 48.2576 25.4591C48.4146 25.6284 48.5584 25.8091 48.6878 25.9997C48.8217 26.2121 48.9369 26.4355 49.0319 26.6674V26.6674Z" fill="url(#paint20_linear_21_1450)"/>
<path d="M46.4939 32.7408C46.4939 32.8785 46.4939 33.0269 46.4939 33.1753C46.5038 33.32 46.5038 33.4652 46.4939 33.6099C46.4526 33.8982 46.3842 34.182 46.2895 34.4578C46.2895 34.5956 46.1928 34.7334 46.139 34.8606C46.0852 34.9877 46.0852 34.9983 46.0637 35.0619L45.9669 35.2527C45.8486 35.5071 45.7196 35.7403 45.5905 35.9629C45.3705 36.334 45.1225 36.6883 44.8485 37.0227L44.5152 37.3937C44.4412 37.3049 44.3764 37.209 44.3216 37.1075C44.1638 36.8502 44.0271 36.5809 43.913 36.302C43.755 35.918 43.6327 35.5207 43.5473 35.1149C43.4478 34.6267 43.4045 34.1289 43.4183 33.6311C43.4879 32.6564 43.698 31.6964 44.042 30.7799C44.1173 30.5892 44.171 30.3984 44.2356 30.2394C44.3001 30.0804 44.3646 29.9426 44.4076 29.826C44.4506 29.7095 44.5689 29.4551 44.5689 29.4551L44.8485 29.6565C45.087 29.8359 45.3068 30.0383 45.5045 30.2606C45.6368 30.4041 45.759 30.5564 45.8701 30.7164C45.9948 30.8972 46.1028 31.0888 46.1928 31.2887C46.2978 31.5098 46.3807 31.7406 46.4401 31.9776C46.4801 32.23 46.4981 32.4853 46.4939 32.7408V32.7408Z" fill="url(#paint21_linear_21_1450)"/>
<path d="M42.1709 37.7117C41.984 38.3048 41.6928 38.8609 41.3106 39.3546C41.1201 39.5959 40.9155 39.8259 40.6976 40.0435L40.375 40.3509L40.0416 40.6159C39.7054 40.8993 39.3457 41.1546 38.9662 41.379C38.8157 41.4744 38.6866 41.5168 38.6006 41.5698H38.4716C38.4716 41.5698 38.4716 41.4426 38.3963 41.2094C38.3397 40.8943 38.3074 40.5754 38.2995 40.2555C38.2882 39.8087 38.317 39.3618 38.3855 38.92C38.3855 38.6868 38.4716 38.4325 38.5361 38.1781C38.6053 37.9163 38.6879 37.658 38.7834 37.4044C39.1897 36.4707 39.7135 35.5911 40.3427 34.7864C40.3807 34.7525 40.4133 34.7132 40.4395 34.6698L40.5363 34.5427L40.7084 34.3201C40.8266 34.1823 40.9342 34.0657 41.0095 33.9597C41.0847 33.8537 41.2891 33.6523 41.2891 33.6523C41.3728 33.7409 41.4484 33.8367 41.5149 33.9385C41.7013 34.1971 41.8599 34.4742 41.9881 34.7652C42.0798 34.953 42.1553 35.148 42.2139 35.3482C42.2792 35.5702 42.3259 35.797 42.3537 36.0265C42.3758 36.2875 42.3758 36.5498 42.3537 36.8108C42.3249 37.1166 42.2636 37.4186 42.1709 37.7117V37.7117Z" fill="url(#paint22_linear_21_1450)"/>
<path d="M36.4821 40.9234C36.2792 41.1804 36.0524 41.4182 35.8046 41.6336C35.5457 41.8457 35.2726 42.0404 34.9873 42.2165C34.6974 42.3761 34.3995 42.5212 34.0947 42.651C33.7936 42.7676 33.5032 42.863 33.2129 42.9478C32.7406 43.072 32.2586 43.157 31.7719 43.2022C31.4063 43.2022 31.1804 43.2022 31.1804 43.2022C31.2023 43.0701 31.231 42.9392 31.2665 42.81C31.355 42.4814 31.4664 42.1591 31.5998 41.8455C31.6859 41.6441 31.7826 41.4428 31.8902 41.2308C31.9977 41.0188 31.9977 41.0188 32.0622 40.9128L32.2558 40.5737C32.3964 40.3456 32.5508 40.1262 32.7182 39.9165C32.8826 39.6832 33.0661 39.4634 33.2667 39.2594C33.994 38.5181 34.8101 37.8668 35.697 37.3198L35.9551 37.1608L36.1917 37.0124L36.6219 36.758C36.7399 36.6844 36.862 36.6171 36.9875 36.5566C37.042 36.6761 37.0852 36.8003 37.1165 36.9276C37.214 37.2491 37.2788 37.5792 37.3101 37.9133C37.3579 38.3772 37.3325 38.8456 37.2348 39.3018C37.1143 39.8924 36.8567 40.4474 36.4821 40.9234V40.9234Z" fill="url(#paint23_linear_21_1450)"/>
<path d="M46.0207 6.7313C46.1357 7.55191 46.3712 8.35166 46.7197 9.10546C46.8595 9.43403 46.9993 9.70961 47.0961 9.91099C47.1929 10.1124 47.2574 10.2183 47.2574 10.2183C47.4919 10.0359 47.6952 9.81765 47.8596 9.57182C48.2645 8.99125 48.4578 8.29259 48.4081 7.58982C48.3268 6.68906 48.0282 5.8205 47.537 5.05665C47.4402 4.88707 47.3327 4.7281 47.2359 4.57972L46.9671 4.21932L46.709 3.90137C46.5279 4.14098 46.3831 4.40515 46.2788 4.68568C46.1681 4.97331 46.0888 5.27177 46.0422 5.57599C45.9751 5.95773 45.9679 6.34739 46.0207 6.7313V6.7313Z" fill="url(#paint24_linear_21_1450)"/>
<path d="M49.6663 12.9424C49.5481 13.848 49.5662 14.7659 49.7201 15.6663C49.7201 15.8571 49.7201 16.0479 49.8061 16.2068C49.8214 16.3497 49.8466 16.4913 49.8814 16.6308C49.8814 16.8746 49.9566 17.0124 49.9566 17.0124C50.2591 16.8886 50.5388 16.7168 50.7847 16.5036C51.0505 16.2866 51.2792 16.029 51.4622 15.7405C51.7039 15.3753 51.8752 14.9693 51.9676 14.5428C52.1396 13.5606 52.0807 12.5526 51.7956 11.5963C51.7025 11.2365 51.5876 10.8826 51.4514 10.5364C51.3439 10.2714 51.2686 10.123 51.2686 10.123L51.0535 10.2926C50.8777 10.4559 50.7158 10.6331 50.5696 10.8226C50.3605 11.0912 50.1836 11.3829 50.0427 11.6917C49.8599 12.0897 49.7333 12.5105 49.6663 12.9424Z" fill="url(#paint25_linear_21_1450)"/>
<path d="M51.5804 19.8948C51.1947 20.8239 50.9239 21.7954 50.7739 22.7883C50.7739 23.0003 50.7094 23.2016 50.6771 23.3818C50.6448 23.562 50.6771 23.721 50.6018 23.8588C50.5265 23.9965 50.6018 24.2827 50.6018 24.2827H50.8922C51.1498 24.2378 51.4021 24.1668 51.6449 24.0708C51.9957 23.9305 52.3222 23.7374 52.6128 23.4984C52.9907 23.1824 53.3076 22.8018 53.5484 22.3749C54.046 21.3582 54.2894 20.2389 54.2581 19.1104C54.2581 18.8667 54.2581 18.6335 54.2581 18.4215C54.2581 18.2095 54.2581 18.0293 54.2581 17.8704C54.2581 17.7114 54.1828 17.3828 54.1828 17.3828C53.8491 17.5259 53.5377 17.715 53.258 17.9446C52.9541 18.1722 52.6797 18.4355 52.4407 18.7289C52.1065 19.0813 51.8176 19.4728 51.5804 19.8948V19.8948Z" fill="url(#paint26_linear_21_1450)"/>
<path d="M51.2795 27.2188C50.5543 28.0457 49.9232 28.9485 49.3976 29.9109L49.2363 30.2077C49.1717 30.3031 49.1287 30.3984 49.0749 30.4832C49.0212 30.568 48.9029 30.8118 48.8384 30.9496C48.7738 31.0874 48.6233 31.363 48.6233 31.363L48.9459 31.4372C49.2246 31.4679 49.506 31.4679 49.7847 31.4372C50.7418 31.3951 51.6526 31.0195 52.3549 30.3773C53.2591 29.4931 53.9245 28.4 54.2906 27.1976C54.3873 26.9326 54.4519 26.6782 54.5164 26.4556C54.5809 26.233 54.6239 26.0211 54.6562 25.8515C54.7207 25.5017 54.7422 25.3003 54.7422 25.3003C54.6349 25.2905 54.5269 25.2905 54.4196 25.3003C54.1362 25.3501 53.8588 25.4282 53.5916 25.5335C53.2149 25.6847 52.8546 25.8729 52.5162 26.0953C52.3089 26.2263 52.1113 26.3715 51.9247 26.5298C51.6913 26.7421 51.4755 26.9725 51.2795 27.2188V27.2188Z" fill="url(#paint27_linear_21_1450)"/>
<path d="M48.6232 34.0021C48.4834 34.0762 48.3543 34.161 48.2253 34.2458C48.0863 34.3206 47.9533 34.4056 47.8274 34.5002C47.5585 34.6698 47.3112 34.8606 47.0639 35.0408L46.7197 35.3269L46.5477 35.4647L46.3756 35.6025L45.7519 36.1431C45.354 36.4822 45.0529 36.8002 44.8056 37.0122L44.4507 37.3619L44.741 37.5421C45.012 37.6829 45.2966 37.7966 45.5906 37.8813C46.0191 38.009 46.4659 38.0663 46.9133 38.0509C47.5002 38.0308 48.0775 37.8976 48.6124 37.6587C49.833 37.0563 50.8853 36.1684 51.6773 35.0726C51.8601 34.8288 52.0106 34.585 52.1612 34.373C52.3117 34.161 52.4193 33.9597 52.5053 33.7901C52.5913 33.6205 52.7849 33.2601 52.7849 33.2601C52.6726 33.2276 52.5574 33.2063 52.4408 33.1966C52.1296 33.1669 51.8163 33.1669 51.5052 33.1966L50.8815 33.2601C50.6423 33.2964 50.4053 33.346 50.1717 33.4085C49.9156 33.4775 49.6641 33.5624 49.419 33.6629C49.1458 33.7571 48.8799 33.8705 48.6232 34.0021V34.0021Z" fill="url(#paint28_linear_21_1450)"/>
<path d="M43.9129 39.7152C43.2441 39.8418 42.5862 40.019 41.945 40.2452C41.6439 40.3618 41.332 40.4572 41.0417 40.5737L40.6115 40.7433L40.2029 40.8917C39.6867 41.1037 39.235 41.2733 38.9232 41.4111L38.5575 41.57H38.4177C38.4874 41.673 38.5628 41.7721 38.6436 41.8668C38.8611 42.112 39.1024 42.3357 39.3641 42.5346C39.7488 42.8189 40.1772 43.0408 40.633 43.1917C40.9172 43.2799 41.2087 43.3437 41.5041 43.3825C41.8616 43.4179 42.2219 43.4179 42.5795 43.3825C42.9425 43.3472 43.3021 43.2834 43.6548 43.1917C44.0201 43.084 44.3791 42.9566 44.7302 42.8101C45.0851 42.6617 45.4185 42.4815 45.8056 42.312C46.1927 42.1424 46.4293 41.9304 46.7089 41.7396L46.9132 41.6018L47.1068 41.4534L47.4617 41.1779C47.6768 40.9977 47.8703 40.8387 48.0209 40.6903L48.4941 40.224C48.3889 40.1538 48.2773 40.0935 48.1607 40.0438C47.8555 39.9075 47.5388 39.7976 47.2144 39.7152C46.9951 39.6587 46.7724 39.6162 46.5476 39.588C46.2916 39.5455 46.0329 39.5207 45.7733 39.5138C45.4834 39.4928 45.1922 39.4928 44.9023 39.5138C44.5674 39.554 44.2365 39.6213 43.9129 39.7152V39.7152Z" fill="url(#paint29_linear_21_1450)"/>
<path d="M41.7299 5.07793C42.4427 5.64911 43.2182 6.13973 44.0419 6.54059C44.2032 6.62539 44.3646 6.68899 44.5044 6.75259C44.6264 6.81624 44.7521 6.87287 44.8807 6.92217L45.2249 7.08115L45.1603 6.7314C45.1603 6.61481 45.1066 6.47702 45.0635 6.32863L44.8915 5.81987C44.5339 4.87822 43.9423 4.04005 43.1709 3.38212C43.0608 3.29145 42.9459 3.20652 42.8268 3.12773L42.4719 2.89455L42.117 2.70378C41.9987 2.64018 41.8697 2.59779 41.7514 2.5448L41.4073 2.40701L41.0631 2.31162L40.7405 2.22684L40.4287 2.17383H39.891H39.4823H39.1274L39.3318 2.4706L39.5791 2.78859C39.6651 2.90517 39.7727 3.04296 39.891 3.18074C40.4351 3.87464 41.0514 4.51048 41.7299 5.07793Z" fill="url(#paint30_linear_21_1450)"/>
<path d="M37.4391 43.5836C37.0838 43.5142 36.7248 43.4646 36.3638 43.4352C35.9981 43.4352 35.6325 43.361 35.2884 43.3504C34.9443 43.3398 34.5786 43.3504 34.213 43.3504H33.2559C32.6537 43.3504 32.1805 43.3504 31.7719 43.3504H31.1804C31.2034 43.4832 31.2358 43.6142 31.2772 43.7426C31.3692 44.0722 31.5029 44.3891 31.6751 44.6859C31.7913 44.894 31.9243 45.0925 32.073 45.2794C32.1483 45.3854 32.245 45.4808 32.3311 45.5868L32.6429 45.873C32.883 46.0322 33.1346 46.1739 33.3957 46.2969C33.7383 46.4773 34.0986 46.6229 34.4711 46.7315C34.8702 46.8559 35.2809 46.9411 35.697 46.9858C36.1248 47.0409 36.5566 47.0587 36.9875 47.0389C37.4129 47.0321 37.8371 46.9931 38.2564 46.9223C38.652 46.8657 39.0435 46.7842 39.4286 46.6785L39.9555 46.5301L40.4287 46.3711C40.7298 46.2651 40.9987 46.1697 41.2137 46.0744C41.6439 45.8836 41.8912 45.7458 41.8912 45.7458C41.8038 45.6451 41.7104 45.5495 41.6116 45.4596C41.3485 45.2165 41.0642 44.9966 40.7621 44.8025C40.3177 44.5235 39.85 44.2824 39.3641 44.0817C38.742 43.8494 38.0968 43.6824 37.4391 43.5836V43.5836Z" fill="url(#paint31_linear_21_1450)"/>
<path d="M23.6265 29.0312V27.2792L29.2248 21.9628C29.6947 21.5198 30.0438 21.1304 30.272 20.7948C30.5003 20.4592 30.6479 20.1504 30.7151 19.8685C30.7956 19.5731 30.8359 19.2979 30.8359 19.0428C30.8359 18.3984 30.6144 17.9016 30.1713 17.5526C29.7283 17.1901 29.0772 17.0089 28.2179 17.0089C27.5333 17.0089 26.909 17.1297 26.3451 17.3713C25.7947 17.613 25.3181 17.9822 24.9153 18.4789L23.0828 17.0693C23.6332 16.3309 24.3716 15.7603 25.2979 15.3575C26.2377 14.9413 27.2849 14.7333 28.4395 14.7333C29.4598 14.7333 30.3459 14.9011 31.0977 15.2367C31.8629 15.5589 32.4469 16.0221 32.8497 16.6262C33.2659 17.2304 33.474 17.9486 33.474 18.781C33.474 19.2375 33.4136 19.6939 33.2927 20.1504C33.1719 20.5934 32.9437 21.0633 32.608 21.56C32.2724 22.0568 31.7824 22.6139 31.138 23.2315L26.325 27.8028L25.7812 26.8161H34.0177V29.0312H23.6265Z" fill="white"/>
<path d="M77.2615 8.02687H79.6708V21H77.2615V8.02687ZM70.5525 21H68.1432V8.02687H70.5525V21ZM77.4468 15.4401H70.3487V13.3829H77.4468V15.4401ZM81.3123 21L87.1502 8.02687H89.5224L95.3788 21H92.8583L87.8359 9.30565H88.7996L83.7957 21H81.3123ZM83.9995 17.9976L84.6482 16.1073H91.6537L92.3023 17.9976H83.9995ZM102.852 21.1853C101.864 21.1853 100.944 21.0247 100.091 20.7035C99.2508 20.3699 98.5157 19.9066 97.8856 19.3135C97.2678 18.7081 96.7859 17.9976 96.44 17.1822C96.094 16.3667 95.9211 15.4772 95.9211 14.5134C95.9211 13.5497 96.094 12.6601 96.44 11.8447C96.7859 11.0292 97.274 10.325 97.9041 9.73191C98.5342 9.1265 99.2694 8.66318 100.11 8.34194C100.95 8.00834 101.87 7.84154 102.871 7.84154C103.934 7.84154 104.903 8.02687 105.781 8.39754C106.658 8.75584 107.399 9.2933 108.005 10.0099L106.448 11.474C105.978 10.9675 105.453 10.5906 104.873 10.3435C104.292 10.084 103.662 9.95431 102.982 9.95431C102.303 9.95431 101.679 10.0655 101.11 10.2879C100.554 10.5103 100.066 10.8254 99.6462 11.2331C99.2385 11.6408 98.9172 12.1227 98.6825 12.6787C98.4601 13.2347 98.3489 13.8462 98.3489 14.5134C98.3489 15.1806 98.4601 15.7922 98.6825 16.3482C98.9172 16.9042 99.2385 17.3861 99.6462 17.7938C100.066 18.2015 100.554 18.5166 101.11 18.739C101.679 18.9614 102.303 19.0726 102.982 19.0726C103.662 19.0726 104.292 18.949 104.873 18.7019C105.453 18.4424 105.978 18.0532 106.448 17.5343L108.005 19.017C107.399 19.7212 106.658 20.2587 105.781 20.6293C104.903 21 103.927 21.1853 102.852 21.1853ZM112.463 17.942L112.333 15.088L119.135 8.02687H121.841L116.188 14.0316L114.854 15.4957L112.463 17.942ZM110.313 21V8.02687H112.722V21H110.313ZM119.357 21L114.39 15.088L115.984 13.3273L122.174 21H119.357ZM121.419 21L127.257 8.02687H129.629L135.485 21H132.965L127.943 9.30565H128.906L123.902 21H121.419ZM124.106 17.9976L124.755 16.1073H131.76L132.409 17.9976H124.106ZM139.115 21V10.0655H134.816V8.02687H145.824V10.0655H141.525V21H139.115ZM156.751 8.02687H159.16V21H156.751V8.02687ZM150.042 21H147.633V8.02687H150.042V21ZM156.936 15.4401H149.838V13.3829H156.936V15.4401ZM168.715 21.1853C167.702 21.1853 166.769 21.0185 165.917 20.6849C165.064 20.3513 164.323 19.888 163.693 19.295C163.063 18.6895 162.575 17.9853 162.229 17.1822C161.883 16.3667 161.71 15.4772 161.71 14.5134C161.71 13.5497 161.883 12.6663 162.229 11.8632C162.575 11.0478 163.063 10.3435 163.693 9.75045C164.323 9.14503 165.064 8.67553 165.917 8.34194C166.769 8.00834 167.696 7.84154 168.697 7.84154C169.71 7.84154 170.636 8.00834 171.477 8.34194C172.329 8.67553 173.07 9.14503 173.701 9.75045C174.331 10.3435 174.819 11.0478 175.165 11.8632C175.511 12.6663 175.684 13.5497 175.684 14.5134C175.684 15.4772 175.511 16.3667 175.165 17.1822C174.819 17.9976 174.331 18.7019 173.701 19.295C173.07 19.888 172.329 20.3513 171.477 20.6849C170.636 21.0185 169.716 21.1853 168.715 21.1853ZM168.697 19.0726C169.352 19.0726 169.957 18.9614 170.513 18.739C171.069 18.5166 171.551 18.2015 171.958 17.7938C172.366 17.3737 172.681 16.8918 172.904 16.3482C173.138 15.7922 173.256 15.1806 173.256 14.5134C173.256 13.8462 173.138 13.2408 172.904 12.6972C172.681 12.1412 172.366 11.6593 171.958 11.2516C171.551 10.8315 171.069 10.5103 170.513 10.2879C169.957 10.0655 169.352 9.95431 168.697 9.95431C168.042 9.95431 167.436 10.0655 166.88 10.2879C166.337 10.5103 165.855 10.8315 165.435 11.2516C165.027 11.6593 164.706 12.1412 164.471 12.6972C164.249 13.2408 164.138 13.8462 164.138 14.5134C164.138 15.1683 164.249 15.7737 164.471 16.3297C164.706 16.8857 165.027 17.3737 165.435 17.7938C165.843 18.2015 166.324 18.5166 166.88 18.739C167.436 18.9614 168.042 19.0726 168.697 19.0726ZM178.237 21V8.02687H180.22L188.356 18.0162H187.374V8.02687H189.765V21H187.782L179.646 11.0107H180.628V21H178.237ZM71.2012 44L66.9015 31.0269H69.4035L73.2398 42.7583H71.9981L75.9827 31.0269H78.2067L82.0801 42.7583H80.8754L84.8044 31.0269H87.1025L82.8029 44H80.2453L76.7055 33.4176H77.3727L73.7773 44H71.2012ZM89.0653 44V31.0269H91.4746V44H89.0653ZM94.9836 44V31.0269H96.9666L105.103 41.0162H104.12V31.0269H106.511V44H104.528L96.3921 34.0107H97.3743V44H94.9836ZM109.987 44V31.0269H111.97L120.106 41.0162H119.124V31.0269H121.515V44H119.532L111.396 34.0107H112.378V44H109.987ZM127.215 36.42H133.665V38.403H127.215V36.42ZM127.4 41.9799H134.721V44H124.991V31.0269H134.462V33.047H127.4V41.9799ZM137.407 44V31.0269H142.744C143.893 31.0269 144.876 31.2122 145.691 31.5829C146.519 31.9535 147.155 32.4848 147.6 33.1767C148.045 33.8686 148.267 34.6902 148.267 35.6416C148.267 36.593 148.045 37.4146 147.6 38.1065C147.155 38.786 146.519 39.3111 145.691 39.6818C144.876 40.0401 143.893 40.2193 142.744 40.2193H138.741L139.816 39.1258V44H137.407ZM145.895 44L142.615 39.2926H145.191L148.49 44H145.895ZM139.816 39.3853L138.741 38.2362H142.633C143.696 38.2362 144.493 38.0077 145.024 37.5505C145.568 37.0934 145.839 36.4571 145.839 35.6416C145.839 34.8138 145.568 34.1775 145.024 33.7327C144.493 33.2879 143.696 33.0655 142.633 33.0655H138.741L139.816 31.8794V39.3853Z" fill="white"/>
<defs>
<linearGradient id="paint0_linear_21_1450" x1="9.13796" y1="3.60449" x2="9.13796" y2="9.99566" gradientUnits="userSpaceOnUse">
<stop stop-color="white"/>
<stop offset="1" stop-color="white" stop-opacity="0.23"/>
</linearGradient>
<linearGradient id="paint1_linear_21_1450" x1="5.52438" y1="9.98535" x2="5.52438" y2="16.9277" gradientUnits="userSpaceOnUse">
<stop stop-color="white"/>
<stop offset="1" stop-color="white" stop-opacity="0.23"/>
</linearGradient>
<linearGradient id="paint2_linear_21_1450" x1="4.0213" y1="17.3198" x2="4.0213" y2="24.3104" gradientUnits="userSpaceOnUse">
<stop stop-color="white"/>
<stop offset="1" stop-color="white" stop-opacity="0.23"/>
</linearGradient>
<linearGradient id="paint3_linear_21_1450" x1="4.81753" y1="25.3213" x2="4.81753" y2="31.5023" gradientUnits="userSpaceOnUse">
<stop stop-color="white"/>
<stop offset="1" stop-color="white" stop-opacity="0.23"/>
</linearGradient>
<linearGradient id="paint4_linear_21_1450" x1="7.96303" y1="33.2383" x2="7.96303" y2="38.1503" gradientUnits="userSpaceOnUse">
<stop stop-color="white"/>
<stop offset="1" stop-color="white" stop-opacity="0.23"/>
</linearGradient>
<linearGradient id="paint5_linear_21_1450" x1="13.2218" y1="39.6133" x2="13.2218" y2="43.5251" gradientUnits="userSpaceOnUse">
<stop stop-color="white"/>
<stop offset="1" stop-color="white" stop-opacity="0.23"/>
</linearGradient>
<linearGradient id="paint6_linear_21_1450" x1="20.163" y1="43.3457" x2="20.163" y2="47.1842" gradientUnits="userSpaceOnUse">
<stop stop-color="white"/>
<stop offset="1" stop-color="white" stop-opacity="0.23"/>
</linearGradient>
<linearGradient id="paint7_linear_21_1450" x1="11.7537" y1="7.28857" x2="11.7537" y2="10.1779" gradientUnits="userSpaceOnUse">
<stop stop-color="white"/>
<stop offset="1" stop-color="white" stop-opacity="0.23"/>
</linearGradient>
<linearGradient id="paint8_linear_21_1450" x1="8.97913" y1="12.856" x2="8.97913" y2="16.9311" gradientUnits="userSpaceOnUse">
<stop stop-color="white"/>
<stop offset="1" stop-color="white" stop-opacity="0.23"/>
</linearGradient>
<linearGradient id="paint9_linear_21_1450" x1="7.88774" y1="18.7373" x2="7.88774" y2="24.3043" gradientUnits="userSpaceOnUse">
<stop stop-color="white"/>
<stop offset="1" stop-color="white" stop-opacity="0.23"/>
</linearGradient>
<linearGradient id="paint10_linear_21_1450" x1="8.7234" y1="24.3784" x2="8.7234" y2="31.4585" gradientUnits="userSpaceOnUse">
<stop stop-color="white"/>
<stop offset="1" stop-color="white" stop-opacity="0.23"/>
</linearGradient>
<linearGradient id="paint11_linear_21_1450" x1="11.6374" y1="29.519" x2="11.6374" y2="37.5001" gradientUnits="userSpaceOnUse">
<stop stop-color="white"/>
<stop offset="1" stop-color="white" stop-opacity="0.23"/>
</linearGradient>
<linearGradient id="paint12_linear_21_1450" x1="16.3958" y1="33.7266" x2="16.3958" y2="41.7499" gradientUnits="userSpaceOnUse">
<stop stop-color="white"/>
<stop offset="1" stop-color="white" stop-opacity="0.23"/>
</linearGradient>
<linearGradient id="paint13_linear_21_1450" x1="14.2914" y1="1.62207" x2="14.2914" y2="6.81555" gradientUnits="userSpaceOnUse">
<stop stop-color="white"/>
<stop offset="1" stop-color="white" stop-opacity="0.23"/>
</linearGradient>
<linearGradient id="paint14_linear_21_1450" x1="22.4691" y1="36.5669" x2="22.4691" y2="43.2018" gradientUnits="userSpaceOnUse">
<stop stop-color="white"/>
<stop offset="1" stop-color="white" stop-opacity="0.23"/>
</linearGradient>
<linearGradient id="paint15_linear_21_1450" x1="25.7341" y1="44.0293" x2="25.7341" y2="50.7596" gradientUnits="userSpaceOnUse">
<stop stop-color="white"/>
<stop offset="1" stop-color="white" stop-opacity="0.23"/>
</linearGradient>
<linearGradient id="paint16_linear_21_1450" x1="30.57" y1="44.0293" x2="30.57" y2="50.7596" gradientUnits="userSpaceOnUse">
<stop stop-color="white"/>
<stop offset="1" stop-color="white" stop-opacity="0.23"/>
</linearGradient>
<linearGradient id="paint17_linear_21_1450" x1="44.5639" y1="7.58984" x2="44.5639" y2="10.3916" gradientUnits="userSpaceOnUse">
<stop stop-color="white"/>
<stop offset="1" stop-color="white" stop-opacity="0.23"/>
</linearGradient>
<linearGradient id="paint18_linear_21_1450" x1="47.3702" y1="13.0469" x2="47.3702" y2="17.0517" gradientUnits="userSpaceOnUse">
<stop stop-color="white"/>
<stop offset="1" stop-color="white" stop-opacity="0.23"/>
</linearGradient>
<linearGradient id="paint19_linear_21_1450" x1="48.5909" y1="18.7974" x2="48.5909" y2="24.2829" gradientUnits="userSpaceOnUse">
<stop stop-color="white"/>
<stop offset="1" stop-color="white" stop-opacity="0.23"/>
</linearGradient>
<linearGradient id="paint20_linear_21_1450" x1="47.8001" y1="24.3145" x2="47.8001" y2="31.3203" gradientUnits="userSpaceOnUse">
<stop stop-color="white"/>
<stop offset="1" stop-color="white" stop-opacity="0.23"/>
</linearGradient>
<linearGradient id="paint21_linear_21_1450" x1="44.9585" y1="29.4551" x2="44.9585" y2="37.3937" gradientUnits="userSpaceOnUse">
<stop stop-color="white"/>
<stop offset="1" stop-color="white" stop-opacity="0.23"/>
</linearGradient>
<linearGradient id="paint22_linear_21_1450" x1="40.3337" y1="33.6523" x2="40.3337" y2="41.5698" gradientUnits="userSpaceOnUse">
<stop stop-color="white"/>
<stop offset="1" stop-color="white" stop-opacity="0.23"/>
</linearGradient>
<linearGradient id="paint23_linear_21_1450" x1="34.257" y1="36.5566" x2="34.257" y2="43.2022" gradientUnits="userSpaceOnUse">
<stop stop-color="white"/>
<stop offset="1" stop-color="white" stop-opacity="0.23"/>
</linearGradient>
<linearGradient id="paint24_linear_21_1450" x1="47.2008" y1="3.90137" x2="47.2008" y2="10.2183" gradientUnits="userSpaceOnUse">
<stop stop-color="white"/>
<stop offset="1" stop-color="white" stop-opacity="0.23"/>
</linearGradient>
<linearGradient id="paint25_linear_21_1450" x1="50.8266" y1="10.123" x2="50.8266" y2="17.0124" gradientUnits="userSpaceOnUse">
<stop stop-color="white"/>
<stop offset="1" stop-color="white" stop-opacity="0.23"/>
</linearGradient>
<linearGradient id="paint26_linear_21_1450" x1="52.4146" y1="17.3828" x2="52.4146" y2="24.2827" gradientUnits="userSpaceOnUse">
<stop stop-color="white"/>
<stop offset="1" stop-color="white" stop-opacity="0.23"/>
</linearGradient>
<linearGradient id="paint27_linear_21_1450" x1="51.6828" y1="25.293" x2="51.6828" y2="31.4602" gradientUnits="userSpaceOnUse">
<stop stop-color="white"/>
<stop offset="1" stop-color="white" stop-opacity="0.23"/>
</linearGradient>
<linearGradient id="paint28_linear_21_1450" x1="48.6178" y1="33.1743" x2="48.6178" y2="38.0533" gradientUnits="userSpaceOnUse">
<stop stop-color="white"/>
<stop offset="1" stop-color="white" stop-opacity="0.23"/>
</linearGradient>
<linearGradient id="paint29_linear_21_1450" x1="43.4559" y1="39.498" x2="43.4559" y2="43.409" gradientUnits="userSpaceOnUse">
<stop stop-color="white"/>
<stop offset="1" stop-color="white" stop-opacity="0.23"/>
</linearGradient>
<linearGradient id="paint30_linear_21_1450" x1="42.1761" y1="2.17383" x2="42.1761" y2="7.08115" gradientUnits="userSpaceOnUse">
<stop stop-color="white"/>
<stop offset="1" stop-color="white" stop-opacity="0.23"/>
</linearGradient>
<linearGradient id="paint31_linear_21_1450" x1="36.5358" y1="43.3457" x2="36.5358" y2="47.0467" gradientUnits="userSpaceOnUse">
<stop stop-color="white"/>
<stop offset="1" stop-color="white" stop-opacity="0.23"/>
</linearGradient>
</defs>
</svg>
