<svg width="60" height="60" viewBox="0 0 60 60" fill="none" xmlns="http://www.w3.org/2000/svg">
<path d="M38.1238 9.19232L24.2337 10.6161C23.478 10.6936 22.8314 11.1925 22.5648 11.9038L15.5063 30.7382C15.2613 31.3919 15.7446 32.0891 16.4427 32.0891H26.8463C27.4551 32.0891 27.9226 32.6285 27.8362 33.2311L25.5441 49.2076C25.3978 50.2272 26.7022 50.7753 27.3281 49.9573L46.7699 24.5483C47.2733 23.8903 46.8042 22.9406 45.9757 22.9406H34.1735C33.417 22.9406 32.9345 22.133 33.2929 21.4668L39.1064 10.6609C39.4865 9.95444 38.9219 9.11051 38.1238 9.19232Z" fill="black"/>
<path d="M27.5 20L24.5 26.5M35.5 28L32.5 34.5" stroke="white" stroke-width="1.76471" stroke-linecap="round" stroke-linejoin="round"/>
</svg>
