<svg width="39" height="39" viewBox="0 0 39 39" fill="none" xmlns="http://www.w3.org/2000/svg">
<circle cx="19.5" cy="19.5" r="19.5" fill="#F8F8F8"/>
<path fill-rule="evenodd" clip-rule="evenodd" d="M14.6664 12.3362C14.2425 11.8651 13.5781 11.8924 13.1824 12.3971L8.28239 18.6471C7.90587 19.1274 7.90587 19.8726 8.28239 20.3529L13.1824 26.6029C13.5781 27.1076 14.2425 27.1349 14.6664 26.6638C15.0904 26.1928 15.1133 25.4018 14.7176 24.8971L10.4863 19.5L14.7176 14.1029C15.1133 13.5982 15.0904 12.8072 14.6664 12.3362Z" fill="black"/>
<path fill-rule="evenodd" clip-rule="evenodd" d="M24.3336 12.3362C24.7575 11.8651 25.4219 11.8924 25.8176 12.3971L30.7176 18.6471C31.0941 19.1274 31.0941 19.8726 30.7176 20.3529L25.8176 26.6029C25.4219 27.1076 24.7575 27.1349 24.3336 26.6638C23.9096 26.1928 23.8867 25.4018 24.2824 24.8971L28.5137 19.5L24.2824 14.1029C23.8867 13.5982 23.9096 12.8072 24.3336 12.3362Z" fill="black"/>
</svg>
