<svg width="219" height="50" viewBox="0 0 219 50" fill="none" xmlns="http://www.w3.org/2000/svg">
<g clip-path="url(#clip0_829_2707)">
<path d="M50 25C50 38.8064 38.8064 50 25 50C11.1937 50 0 38.8064 0 25C0 11.1937 11.1937 0 25 0C38.8092 0 50 11.1937 50 25Z" fill="#2081E2"/>
<path d="M12.3341 25.84L12.4419 25.6705L18.9454 15.4966C19.0405 15.3476 19.2639 15.363 19.3358 15.5248C20.4223 17.9598 21.3598 20.9881 20.9206 22.8734C20.7331 23.6491 20.2194 24.6996 19.6415 25.6705C19.567 25.8118 19.4848 25.9505 19.3975 26.084C19.3564 26.1457 19.287 26.1816 19.2125 26.1816H12.5241C12.3443 26.1816 12.239 25.9864 12.3341 25.84Z" fill="white"/>
<path d="M41.3222 27.7305V29.341C41.3222 29.4334 41.2657 29.5156 41.1835 29.5515C40.6801 29.7673 38.9566 30.5584 38.24 31.555C36.4112 34.1004 35.014 37.74 31.8906 37.74H18.8605C14.2424 37.74 10.5 33.9848 10.5 29.3512V29.2022C10.5 29.0789 10.6001 28.9788 10.7234 28.9788H17.9872C18.131 28.9788 18.2364 29.1123 18.2236 29.2536C18.1722 29.7262 18.2595 30.2091 18.483 30.6483C18.9145 31.5242 19.8083 32.0713 20.774 32.0713H24.37V29.2639H20.8151C20.6328 29.2639 20.525 29.0533 20.6303 28.9043C20.6688 28.8452 20.7125 28.7836 20.7586 28.7143C21.0951 28.2365 21.5754 27.4942 22.0532 26.6492C22.3794 26.079 22.6953 25.4702 22.9496 24.8589C23.001 24.7485 23.0421 24.6354 23.0832 24.525C23.1525 24.3298 23.2245 24.1474 23.2758 23.965C23.3272 23.8109 23.3682 23.6491 23.4093 23.4975C23.5301 22.9787 23.5814 22.4291 23.5814 21.8589C23.5814 21.6354 23.5712 21.4016 23.5506 21.1782C23.5403 20.9342 23.5096 20.6902 23.4787 20.4461C23.4582 20.2304 23.4196 20.0172 23.3785 19.7938C23.3272 19.4676 23.2552 19.1439 23.173 18.8177L23.1448 18.6945C23.0831 18.471 23.0318 18.2578 22.9599 18.0343C22.757 17.3331 22.5232 16.6499 22.2766 16.0103C22.1867 15.756 22.084 15.5121 21.9813 15.2681C21.8298 14.9008 21.6756 14.5669 21.5343 14.2509C21.4624 14.1071 21.4008 13.976 21.3391 13.8425C21.2698 13.6909 21.1979 13.5394 21.1259 13.3956C21.0746 13.2852 21.0155 13.1824 20.9744 13.0796L20.5352 12.268C20.4735 12.1575 20.5763 12.0265 20.697 12.0599L23.4454 12.8048H23.4531C23.4582 12.8048 23.4608 12.8074 23.4633 12.8074L23.8255 12.9075L24.2236 13.0206L24.37 13.0617V11.4281C24.37 10.6395 25.0018 10 25.7827 10C26.1731 10 26.5276 10.1592 26.7819 10.4186C27.0361 10.6781 27.1954 11.0325 27.1954 11.4281V13.8528L27.4882 13.9349C27.5113 13.9427 27.5344 13.953 27.555 13.9684C27.6269 14.0223 27.7296 14.1019 27.8606 14.1995C27.9634 14.2817 28.0738 14.3819 28.2073 14.4846C28.4719 14.6978 28.7878 14.9727 29.1346 15.2886C29.227 15.3682 29.317 15.4504 29.3992 15.5326C29.8461 15.9487 30.3469 16.4367 30.8247 16.9761C30.9583 17.1277 31.0892 17.2818 31.2228 17.4436C31.3563 17.608 31.4977 17.7698 31.6209 17.9316C31.7827 18.1474 31.9574 18.3708 32.109 18.6045C32.1809 18.715 32.2631 18.828 32.3324 18.9384C32.5276 19.2338 32.6997 19.5395 32.8641 19.8451C32.9335 19.9864 33.0054 20.1405 33.067 20.292C33.2494 20.7004 33.3932 21.1166 33.4856 21.5326C33.5139 21.6226 33.5345 21.7202 33.5448 21.8075V21.8281C33.5756 21.9513 33.5858 22.0823 33.5961 22.2159C33.6372 22.6423 33.6166 23.0686 33.5242 23.4975C33.4857 23.6799 33.4343 23.852 33.3727 24.0344C33.311 24.2091 33.2493 24.3914 33.1698 24.5635C33.0156 24.9205 32.8333 25.2775 32.6175 25.6115C32.5482 25.7347 32.466 25.8658 32.3838 25.989C32.2939 26.12 32.2014 26.2433 32.1192 26.364C32.0062 26.5182 31.8855 26.6799 31.7622 26.8238C31.6517 26.9753 31.5387 27.1269 31.4154 27.2605C31.2433 27.4634 31.079 27.656 30.9069 27.841C30.8042 27.9617 30.6937 28.0849 30.5807 28.1954C30.4703 28.3186 30.3572 28.4291 30.2544 28.5319C30.0824 28.704 29.9386 28.8375 29.8178 28.948L29.5353 29.2074C29.4942 29.2433 29.4403 29.2639 29.3838 29.2639H27.1954V32.0713H29.9488C30.5652 32.0713 31.1509 31.8529 31.6235 31.4522C31.7853 31.311 32.4917 30.6997 33.3264 29.7776C33.3547 29.7467 33.3907 29.7236 33.4318 29.7134L41.0371 27.5147C41.1784 27.4736 41.3222 27.5815 41.3222 27.7305Z" fill="white"/>
<path d="M74.3615 36.9983C72.1015 36.9983 70.024 36.4918 68.1295 35.479C66.2575 34.466 64.762 33.0567 63.6435 31.2512C62.548 29.4235 62 27.3757 62 25.1077C62 22.8396 62.548 20.8028 63.6435 18.9972C64.762 17.1916 66.2575 15.7822 68.1295 14.7694C70.024 13.7565 72.1015 13.25 74.3615 13.25C76.6215 13.25 78.6875 13.7565 80.5595 14.7694C82.4545 15.7822 83.938 17.1916 85.011 18.9972C86.107 20.8028 86.6545 22.8396 86.6545 25.1077C86.6545 27.3757 86.107 29.4235 85.011 31.2512C83.9155 33.0567 82.4315 34.466 80.5595 35.479C78.6875 36.4918 76.6215 36.9983 74.3615 36.9983ZM74.3615 31.8456C76.279 31.8456 77.8085 31.2291 78.95 29.996C80.1145 28.7629 80.6965 27.1335 80.6965 25.1077C80.6965 23.0598 80.1145 21.4303 78.95 20.2192C77.8085 18.9861 76.279 18.3696 74.3615 18.3696C72.421 18.3696 70.869 18.9751 69.7045 20.1862C68.563 21.3973 67.9925 23.0378 67.9925 25.1077C67.9925 27.1555 68.563 28.796 69.7045 30.0291C70.869 31.2402 72.421 31.8456 74.3615 31.8456Z" fill="white"/>
<path d="M95.7681 20.9459C96.3386 20.0871 97.1261 19.3935 98.1306 18.865C99.1351 18.3365 100.311 18.0723 101.658 18.0723C103.233 18.0723 104.66 18.4576 105.938 19.2283C107.216 19.999 108.221 21.1 108.951 22.5313C109.705 23.9626 110.081 25.6251 110.081 27.5188C110.081 29.4125 109.705 31.086 108.951 32.5393C108.221 33.9706 107.216 35.0825 105.938 35.8753C104.66 36.646 103.233 37.0313 101.658 37.0313C100.334 37.0313 99.1581 36.7671 98.1306 36.2386C97.1261 35.7101 96.3386 35.0275 95.7681 34.1907V42.25H89.9126V18.3365H95.7681V20.9459ZM104.123 27.5188C104.123 26.1095 103.712 25.0085 102.89 24.2158C102.091 23.4011 101.098 22.9937 99.9111 22.9937C98.7471 22.9937 97.7541 23.4011 96.9321 24.2158C96.1331 25.0305 95.7336 26.1425 95.7336 27.5518C95.7336 28.9611 96.1331 30.0731 96.9321 30.8878C97.7541 31.7025 98.7471 32.1099 99.9111 32.1099C101.076 32.1099 102.069 31.7025 102.89 30.8878C103.712 30.051 104.123 28.928 104.123 27.5188Z" fill="white"/>
<path d="M131.164 27.2545C131.164 27.783 131.13 28.3335 131.062 28.906H117.81C117.901 30.051 118.278 30.9318 118.94 31.5484C119.625 32.1429 120.458 32.4402 121.44 32.4402C122.901 32.4402 123.916 31.8456 124.487 30.6566H130.719C130.4 31.8677 129.818 32.9576 128.973 33.9265C128.151 34.8954 127.112 35.6551 125.857 36.2056C124.601 36.756 123.197 37.0313 121.645 37.0313C119.773 37.0313 118.107 36.646 116.646 35.8753C115.185 35.1046 114.043 34.0036 113.221 32.5723C112.4 31.141 111.989 29.4675 111.989 27.5518C111.989 25.6361 112.388 23.9626 113.187 22.5313C114.009 21.1 115.15 19.999 116.611 19.2283C118.072 18.4576 119.75 18.0723 121.645 18.0723C123.494 18.0723 125.138 18.4466 126.576 19.1953C128.014 19.944 129.133 21.0119 129.932 22.3992C130.754 23.7864 131.164 25.4049 131.164 27.2545ZM125.172 25.7682C125.172 24.7993 124.83 24.0286 124.145 23.4561C123.46 22.8836 122.604 22.5974 121.577 22.5974C120.595 22.5974 119.762 22.8726 119.077 23.4231C118.415 23.9736 118.004 24.7553 117.844 25.7682H125.172Z" fill="white"/>
<path d="M145.896 18.1384C148.133 18.1384 149.914 18.843 151.238 20.2523C152.585 21.6395 153.258 23.5552 153.258 25.9994V36.7671H147.437V26.7591C147.437 25.526 147.106 24.5681 146.444 23.8855C145.782 23.2029 144.892 22.8616 143.773 22.8616C142.654 22.8616 141.764 23.2029 141.102 23.8855C140.44 24.5681 140.109 25.526 140.109 26.7591V36.7671H134.254V18.3365H140.109V20.7807C140.703 19.966 141.502 19.3274 142.506 18.865C143.51 18.3806 144.64 18.1384 145.896 18.1384Z" fill="white"/>
<path d="M166.025 36.9983C164.268 36.9983 162.692 36.7231 161.3 36.1726C159.907 35.622 158.789 34.8074 157.944 33.7284C157.122 32.6494 156.688 31.3503 156.643 29.8309H162.875C162.966 30.6897 163.274 31.3503 163.8 31.8127C164.325 32.253 165.009 32.4733 165.854 32.4733C166.722 32.4733 167.406 32.2861 167.909 31.9118C168.411 31.5154 168.662 30.9759 168.662 30.2933C168.662 29.7208 168.457 29.2473 168.046 28.873C167.658 28.4986 167.167 28.1904 166.573 27.9482C166.002 27.7059 165.181 27.4307 164.108 27.1224C162.555 26.66 161.288 26.1976 160.307 25.7352C159.325 25.2728 158.481 24.5901 157.773 23.6873C157.065 22.7845 156.711 21.6065 156.711 20.1532C156.711 17.9953 157.522 16.3108 159.143 15.0997C160.763 13.8666 162.875 13.25 165.477 13.25C168.126 13.25 170.26 13.8666 171.881 15.0997C173.502 16.3108 174.369 18.0062 174.483 20.1862H168.148C168.103 19.4375 167.817 18.854 167.292 18.4356C166.767 17.9952 166.094 17.775 165.272 17.775C164.564 17.775 163.994 17.9622 163.56 18.3365C163.126 18.6888 162.909 19.2064 162.909 19.889C162.909 20.6376 163.274 21.2211 164.005 21.6395C164.736 22.0579 165.877 22.5093 167.429 22.9937C168.982 23.5002 170.237 23.9846 171.196 24.4471C172.178 24.9095 173.022 25.581 173.73 26.4618C174.438 27.3426 174.791 28.4766 174.791 29.8639C174.791 31.1851 174.438 32.3851 173.73 33.4641C173.045 34.5431 172.041 35.4019 170.717 36.0405C169.393 36.679 167.829 36.9983 166.025 36.9983Z" fill="white"/>
<path d="M196.406 27.2545C196.406 27.783 196.372 28.3335 196.303 28.906H183.051C183.143 30.051 183.519 30.9318 184.181 31.5484C184.866 32.1429 185.7 32.4402 186.681 32.4402C188.142 32.4402 189.158 31.8456 189.729 30.6566H195.961C195.641 31.8677 195.059 32.9576 194.215 33.9265C193.393 34.8954 192.354 35.6551 191.098 36.2056C189.843 36.756 188.439 37.0313 186.887 37.0313C185.015 37.0313 183.348 36.646 181.887 35.8753C180.426 35.1046 179.285 34.0036 178.463 32.5723C177.641 31.141 177.23 29.4675 177.23 27.5518C177.23 25.6361 177.63 23.9626 178.429 22.5313C179.25 21.1 180.392 19.999 181.853 19.2283C183.314 18.4576 184.992 18.0723 186.887 18.0723C188.736 18.0723 190.379 18.4466 191.818 19.1953C193.256 19.944 194.374 21.0119 195.173 22.3992C195.995 23.7864 196.406 25.4049 196.406 27.2545ZM190.414 25.7682C190.414 24.7993 190.071 24.0286 189.386 23.4561C188.701 22.8836 187.845 22.5974 186.818 22.5974C185.837 22.5974 185.003 22.8726 184.318 23.4231C183.656 23.9736 183.245 24.7553 183.086 25.7682H190.414Z" fill="white"/>
<path d="M198.331 27.5188C198.331 25.6251 198.697 23.9626 199.427 22.5313C200.18 21.1 201.196 19.999 202.475 19.2283C203.753 18.4576 205.18 18.0723 206.755 18.0723C208.102 18.0723 209.278 18.3365 210.282 18.865C211.309 19.3935 212.097 20.0871 212.645 20.9459V18.3365H218.5V36.7671H212.645V34.1577C212.074 35.0165 211.275 35.7101 210.248 36.2386C209.243 36.7671 208.068 37.0313 206.721 37.0313C205.168 37.0313 203.753 36.646 202.475 35.8753C201.196 35.0825 200.18 33.9706 199.427 32.5393C198.697 31.086 198.331 29.4125 198.331 27.5188ZM212.645 27.5518C212.645 26.1425 212.234 25.0305 211.412 24.2158C210.613 23.4011 209.631 22.9937 208.467 22.9937C207.303 22.9937 206.31 23.4011 205.488 24.2158C204.689 25.0085 204.29 26.1095 204.29 27.5188C204.29 28.928 204.689 30.051 205.488 30.8878C206.31 31.7025 207.303 32.1099 208.467 32.1099C209.631 32.1099 210.613 31.7025 211.412 30.8878C212.234 30.0731 212.645 28.9611 212.645 27.5518Z" fill="white"/>
</g>
<defs>
<clipPath id="clip0_829_2707">
<rect width="218.5" height="50" fill="white"/>
</clipPath>
</defs>
</svg>
