<svg width="132" height="40" viewBox="0 0 132 40" fill="none" xmlns="http://www.w3.org/2000/svg">
<path d="M62.184 27.9999H66.36L62.904 21.1119C64.992 20.3679 66.264 18.6159 66.264 16.3119C66.264 13.2879 64.104 10.9839 60.744 10.9839H54V27.9999H57.792V21.6639H59.136L62.184 27.9999ZM57.792 18.3999V14.2719H60.024C61.584 14.2719 62.424 15.0639 62.424 16.3359C62.424 17.5359 61.584 18.3999 60.024 18.3999H57.792Z" fill="#010038"/>
<path d="M67.876 24.7119C67.876 26.6079 69.388 28.3359 72.004 28.3359C73.588 28.3359 74.74 27.6639 75.364 26.6559C75.364 27.4719 75.46 27.9039 75.484 27.9999H78.772C78.748 27.8799 78.628 27.0879 78.628 26.1519V20.3199C78.628 17.8719 77.212 15.7119 73.348 15.7119C69.844 15.7119 68.26 17.9679 68.116 19.6719L71.284 20.3199C71.356 19.4319 72.052 18.5679 73.324 18.5679C74.476 18.5679 75.076 19.1679 75.076 19.8639C75.076 20.2719 74.86 20.5839 74.212 20.6799L71.404 21.1119C69.436 21.3999 67.876 22.5999 67.876 24.7119ZM72.892 25.6959C71.884 25.6959 71.476 25.0959 71.476 24.4719C71.476 23.6319 72.052 23.2719 72.82 23.1519L75.076 22.7919V23.3199C75.076 25.1679 73.972 25.6959 72.892 25.6959Z" fill="#010038"/>
<path d="M89.2813 16.0721C89.0413 16.0001 88.6813 15.9521 88.3213 15.9521C87.3613 15.9521 85.8493 16.3361 85.2253 17.6801V16.0721H81.6973V28.0002H85.3453V22.7922C85.3453 20.4162 86.6653 19.5521 88.1293 19.5521C88.4893 19.5521 88.8733 19.5761 89.2813 19.6721V16.0721Z" fill="#010038"/>
<path d="M95.1426 28.0001V16.0721H91.4946V28.0001H95.1426ZM91.1826 12.4241C91.1826 13.6001 92.1426 14.5601 93.2946 14.5601C94.4946 14.5601 95.4546 13.6001 95.4546 12.4241C95.4546 11.2481 94.4946 10.2881 93.2946 10.2881C92.1426 10.2881 91.1826 11.2481 91.1826 12.4241Z" fill="#010038"/>
<path d="M101.866 28V26.656C102.418 27.568 103.642 28.264 105.226 28.264C108.562 28.264 110.914 25.648 110.914 22C110.914 18.424 108.826 15.784 105.37 15.784C103.738 15.784 102.418 16.456 101.914 17.2V10.624H98.3379V28H101.866ZM107.266 22.024C107.266 24.016 105.994 25 104.578 25C103.162 25 101.866 23.992 101.866 22.024C101.866 20.008 103.162 19.072 104.578 19.072C105.994 19.072 107.266 20.008 107.266 22.024Z" fill="#010038"/>
<path d="M116.916 28V10.624H113.268V28H116.916Z" fill="#010038"/>
<path d="M122.895 20.6079C122.967 19.7199 123.735 18.5919 125.271 18.5919C126.999 18.5919 127.623 19.6959 127.671 20.6079H122.895ZM127.935 23.7039C127.599 24.6399 126.855 25.2639 125.535 25.2639C124.119 25.2639 122.895 24.3039 122.823 22.9599H131.127C131.151 22.8879 131.199 22.3359 131.199 21.8319C131.199 17.9919 128.919 15.7119 125.223 15.7119C122.127 15.7119 119.271 18.1599 119.271 21.9999C119.271 26.0079 122.199 28.3599 125.487 28.3599C128.511 28.3599 130.407 26.6319 130.983 24.5679L127.935 23.7039Z" fill="#010038"/>
<path d="M32 0H8C3.58172 0 0 3.58172 0 8V32C0 36.4183 3.58172 40 8 40H32C36.4183 40 40 36.4183 40 32V8C40 3.58172 36.4183 0 32 0Z" fill="#FEDA03"/>
<path d="M27.6009 19.8534C28.8609 19.526 29.9819 18.5836 29.9819 16.6887C29.9819 13.534 27.3033 12.7998 23.8708 12.7998H10.2002V27.0062H15.9541V22.1848H22.7795C23.8311 22.1848 24.4462 22.6014 24.4462 23.6332V27.0062H30.2002V23.4546C30.2002 21.5201 29.1089 20.2998 27.6009 19.8534ZM22.8787 18.3554H15.9541V16.9665H22.8787C23.6327 16.9665 24.089 17.0657 24.089 17.661C24.089 18.2562 23.6327 18.3554 22.8787 18.3554Z" fill="black"/>
</svg>
